<svg xmlns="http://www.w3.org/2000/svg" width="1137.27" height="1021.3" viewBox="0 0 1137.27 1021.3"><defs><style>.a{fill:#713a1d;}.b{fill:#e8a11c;}.c{fill:#f7c742;}.d{fill:#a31d0c;}.e{fill:#b12a1a;}.f{fill:#eec84e;}.g{fill:#9d1705;}.h{fill:#c59b6e;}.i{fill:#06e3f4;}.j{fill:#7f7966;}.k{fill:#c99a6f;}.l{fill:#bf7732;}.m{fill:#cecfd1;}.n{fill:#0a2693;}.o{fill:#a15e2f;}.p{fill:#8d5f43;}.q{fill:#04070d;}.r{fill:#3161c0;}.s{fill:#796caa;}.t{fill:#634022;}.u{fill:#584898;}.v{fill:#f48021;}.w{fill:#212c38;}.x{fill:#c43f1b;}.y{fill:#a4a8aa;}.z{fill:#66412e;}.aa{fill:#919496;}.ab{fill:#982516;}.ac{fill:#a01013;}.ad{fill:#599bf2;}.ae{fill:#836a3d;}.af{fill:#ee4944;}.ag{fill:#6a6b6e;}.ah{fill:#d4e1f4;}.ai{fill:#982515;}.aj{fill:#502e1f;}.ak{fill:#f0bf9c;}.al{fill:#efc09c;}.am{fill:#664c27;}.an{fill:#cc382a;}.ao{fill:#cb392b;}.ap{fill:#6ba9a6;}.aq{fill:#643f2d;}.ar{fill:#696b6d;}.as{fill:#c69a7d;}.at{fill:#805d37;}.au{fill:#2951a0;}.av{fill:#a48955;}.aw{fill:#a4815c;}.ax{fill:#8a5f46;}.ay{fill:#aa8972;}.az{fill:#ac8971;}.ba{fill:#ab8972;}.bb{fill:#4f2d1f;}.bc{fill:#845d47;}.bd{fill:#a4a5a6;}.be{fill:#8f9295;}.bf{fill:#375fae;}.bg{fill:#4d2b1c;}.bh{fill:#696a6d;}.bi{fill:#6a6b6d;}.bj{fill:#904317;}.bk{fill:#c4987c;}.bl{fill:#a3a5a8;}.bm{fill:#a3a4a5;}.bn{fill:#584b88;}.bo{fill:#f2dac4;}.bp{fill:#cd3338;}.bq{fill:#bb4c30;}.br{fill:#f0dac3;}.bs{fill:#f2dcc3;}.bt{fill:#737678;}.bu{fill:#816353;}.bv{fill:#866150;}.bw{fill:#a5a6a5;}.bx{fill:#982223;}.by{fill:#87341e;}.bz{fill:#737578;}.ca{fill:#907463;}.cb{fill:#3c61a8;}.cc{fill:#3062c2;}.cd{fill:#84d0ca;}.ce{fill:#faa440;}.cf{fill:#9fcb3b;}.cg{fill:#02bdca;}.ch{fill:#6d40ab;}.ci{fill:#675aa0;}.cj{fill:#e64726;}.ck{fill:#d91f25;}.cl{fill:#fcfdfc;}.cm{fill:#3c4e60;}.cn{fill:#3fb7e9;}.co{fill:#e7f5f5;}.cp{fill:#05b0d1;}.cq{fill:#f45f47;}.cr{fill:#583729;}.cs{fill:#41b7e6;}.ct{fill:#f56047;}.cu{fill:#047bad;}.cv{fill:#2543a5;}.cw{fill:#8fccc5;}.cx{fill:#532d8f;}.cy{fill:#efb367;}.cz{fill:#08eaee;}.da{fill:#2544a5;}.db{fill:#ef721b;}.dc{fill:#552d91;}.dd{fill:#8f4108;}.de{fill:#0d90a0;}.df{fill:#ed741f;}.dg{fill:#e9792a;}.dh{fill:#87a12c;}.di{fill:#5894ec;}.dj{fill:#4b589a;}.dk{fill:#a1c73f;}.dl{fill:#19919c;}.dm{fill:#4a247f;}.dn{fill:#6da117;}.do{fill:#f3a545;}.dp{fill:#19909d;}.dq{fill:#769f1e;}.dr{fill:#ed7318;}.ds{fill:#3465c5;}.dt{fill:#41a8d7;}.du{fill:#a56edf;}.dv{fill:#279edb;}.dw{fill:#6b41a3;}.dx{fill:#a470e0;}.dy{fill:#77d1dc;}.dz{fill:#1d9099;}.ea{fill:#73cedf;}.eb{fill:#0f919f;}.ec{fill:#f2a549;}.ed{fill:#859a9e;}.ee{fill:#ec7720;}.ef{fill:#77799f;}.eg{fill:#32b7bb;}.eh{fill:#87acb6;}.ei{fill:#66908b;}.ej{fill:#6e988c;}.ek{fill:#f6ca44;}.el{fill:#fff;}.em{fill:#d03b2c;}.en{fill:#a15e2e;}.eo{fill:#e9a118;}.ep{fill:#8c5e43;}.eq{fill:#fcf371;}.er{fill:#7e791d;}.es{fill:#e6a222;}.et{fill:#e7a11f;}.eu{fill:#a7260e;}.ev{fill:#a31b0b;}.ew{fill:#f8c541;}.ex{fill:#911c0c;}.ey{fill:#faea6c;}.ez{fill:#6a6b6f;}.fa{fill:#f4f5f5;}.fb{fill:#a3a4aa;}.fc{fill:#687069;}.fd{fill:#696d1f;}.fe{fill:#545f0b;}.ff{fill:#929597;}.fg{fill:#f5f5f5;}.fh{fill:#a4a5a8;}.fi{fill:#a8a39d;}.fj{fill:#d8dadf;}.fk{fill:#a27f57;}.fl{fill:#7a5731;}.fm{fill:#a3a3a7;}.fn{fill:#a17e56;}.fo{fill:#805c37;}.fp{fill:#7c5a34;}.fq{fill:#a07e54;}.fr{fill:#a3a4a7;}.fs{fill:#d6d8da;}.ft{fill:#dcdedf;}.fu{fill:#865e48;}.fv{fill:#b68669;}.fw{fill:#a3a4a8;}.fx{fill:#a0a1a6;}.fy{fill:#d2d3d7;}.fz{fill:#d0d1d5;}.ga{fill:#66432f;}.gb{fill:#a4a3a9;}.gc{fill:#dbdcde;}.gd{fill:#a4a5a7;}.ge{fill:#af8368;}.gf{fill:#d0aa81;}.gg{fill:#a07d56;}.gh{fill:#6f7173;}.gi{fill:#dbddde;}.gj{fill:#dddfe1;}.gk{fill:#fce86b;}.gl{fill:#daf468;}.gm{fill:#5899ee;}.gn{fill:#5497e8;}.go{fill:#9d6fdd;}.gp{fill:#9ba5ac;}.gq{fill:#745f56;}.gr{fill:#42a4d2;}.gs{fill:#63dbf2;}.gt{fill:#19a4bd;}.gu{fill:#67d2ea;}.gv{fill:#0abbc7;}.gw{fill:#0cb9c6;}.gx{fill:#f96553;}.gy{fill:#a89c9b;}.gz{fill:#a17e57;}.ha{fill:#707175;}.hb{fill:#d6dadc;}</style></defs><title>nccdn</title><path class="a" d="M382.69,989.35c.63-4.54,2.87-7.39,7.43-7.79,3.73.19,7.26.68,7.7,5.75-3.38,3-7.9,2.53-11.72,4.2C384.47,991.65,383.2,991.17,382.69,989.35Z" transform="translate(-40.07 -35.6)"/><path class="b" d="M738.7,991.29c4.71-5.17,15.2-6.06,19.36-1.22,5.1,5.92,4.49,12,.1,18.43-5.44,7.94-11.56,11-20.54,6.25-7-3.69-8.53-13.3-2.53-19.68,1.89,1.43,2.13,3.92,3.34,5.78,1.53,2.36,3.53,3.69,6.33,2.69a4,4,0,0,0,2.52-3.77c.27-3.15-1.29-4.87-4.13-5.45C741.27,993.93,739.52,993.37,738.7,991.29Z" transform="translate(-40.07 -35.6)"/><path class="c" d="M738.7,991.29c3.21,2.47,8.73-2.58,10.63,3.2,1.42,4.29,2.37,9.58-2.81,12-4.5,2.06-8.74.36-10.8-4.63-.82-2-.46-4.48-.63-6.75A6,6,0,0,1,738.7,991.29Z" transform="translate(-40.07 -35.6)"/><path class="d" d="M495.33,991.72c9.65-10.65,18.62-11.36,27.42-2,4.88,5.18,9.57,10.57,17.49,9.49-5.94,4.18-12.51,1.83-16.1-2.1C515.32,987.41,505.81,988.18,495.33,991.72Z" transform="translate(-40.07 -35.6)"/><path class="e" d="M558.05,985.3c4.27,0,6.55,2.26,6.72,6.48.24,5.83-2.52,9.28-8.13,9.68-4.76.33-6.92-3-6.84-7.29C549.89,988.83,553.41,986.22,558.05,985.3Z" transform="translate(-40.07 -35.6)"/><path class="f" d="M761.55,979.31c-3.73-.25-5.24-2.89-5.14-5.85.13-4.14,2.63-6.28,6.81-5.81,3.13.36,5.61,1.71,5.13,5.35C767.82,977,765.16,979,761.55,979.31Z" transform="translate(-40.07 -35.6)"/><path class="g" d="M540.19,999.25c0-4.5-.52-8.6-2.78-12.86-2.93-5.54.41-9.69,6.27-7.88,3.77,1.17,8.14-.82,11.35,2.6-9.15-.06-15.82,2.23-12.71,14.32A3.32,3.32,0,0,1,540.19,999.25Z" transform="translate(-40.07 -35.6)"/><path class="h" d="M394,971.38c-1.27,2.72-2.55,5.44-3.82,8.17-4.64,1-7.2-3.61-11.08-4.64C382.93,968.44,388.91,972,394,971.38Z" transform="translate(-40.07 -35.6)"/><path class="i" d="M412.69,971.39a4.88,4.88,0,0,0-.59-.75c-3.24-2.94-9.39-3.09-8.59-9.88.61-5.18,5.08-5.19,8.36-6.28,5.53-1.84,10.62,0,14.05,4.71,5.53,7.56-2.38,8.75-5.71,12-2.35,2.85-5,2.21-7.66.65Z" transform="translate(-40.07 -35.6)"/><path class="j" d="M412.55,971.89l7.66-.65,11.36.56A13.57,13.57,0,0,1,412.55,971.89Z" transform="translate(-40.07 -35.6)"/><path class="k" d="M440.47,512.65l47.45-24.24a10.25,10.25,0,0,1,5.22-3.55,32.92,32.92,0,0,0,5.91-1.93c3.08-1.47,6.29-2.61,9.46-3.85,3.73-1.17,7.33-3,11.39-2.58,16.54-4,33.07-8,49.62-11.92,3.4-.8,4.3-3.06,4.49-6.33.23-3.85-.53-7.86,1.4-11.49,4.53,3,.63,9.51,4.87,12.56,2,1.26,3.77.54,5.56-.53,12.34-3.59,25.27-2.75,37.68-5.73a28.84,28.84,0,0,1,4.53-.52c1.53-.09,3.06-.1,4.6-.11,3.59-.09,7.18-.08,10.78-.09,3.13,0,6.27.08,9.4-.08,3.71,0,7.42-.07,11.13,0,30.65-1.3,59.75,6.49,88.45,16.59,3,1.74,6.07,3.34,8.4,6.09,9.24,7,19.56,12,29.74,17.3,6.14,1.82,10.33,6.59,14.88,10.82,5.74,6,11.22,12.23,16.75,18.44,4.88,5.14,7.26,12.07,11.45,17.72,1.46,2.77,2.76,5.63,4,8.52,1.12,3.48,2.53,6.84,3.87,10.23.85,2.76,1.31,5.62,2.21,8.37,1.17,5,2.54,10,2.6,15.24a30.6,30.6,0,0,1,.09,4.88c0,14.43.68,28.89-2.23,43.12-1.91,4.68-.73,8.23,3.61,10.61.69,3.31-1.55,4.69-3.66,6.09q-64.9,42.87-129.8,85.75c-31.63,21-63.05,42.24-94.68,63.18-3.9,2.58-7.38,6.22-12.5,6-.91-.23-2-.47-2.45-1.24-6.1-11.13-14.78-12.3-25.11-7.33-1.84.18-3.7.15-5.54.28-9.86.73-12.57-2.35-11.34-12.89.23-1.93.84-3.78,1-5.73.37-4.95-2.14-8.1-6.06-9.87-3.68-1.66-5.5,1.57-7.45,4.08-2.92,3.74-5.34,8-9.41,10.59-4.53,1.49-6.85-2-9.32-4.79-3.15-3.6-6.09-7.37-10.2-9.88-8.41-5.13-14.11-3.81-20.55,4.88-1.94,3.68-1.29,7.27-.31,11.16,1.63,6.47,1.42,12.8-3.9,17.73a8.68,8.68,0,0,1-2.33,1.48,104,104,0,0,0-21.14,7.2c-12.13,5.68-14.68,11-13.39,25.58a25.3,25.3,0,0,0,3.35,10c6,10,6.23,20,.07,30-5.21,5.61-.31,11.18.1,16.77-1.14,8.3-9.47,9.24-13.5,14.61-7,1.59-13.94,3.5-21.18,1.87a4,4,0,0,1-1.82-3.85c.35-4.39,8.66-7.09,3.38-12.27-5.94-5.83-9.62,2-14.25,4.15a4,4,0,0,1-3.85-1.21c-1.9-3.09-1.59-6.64-1.91-10-4.73-9.79-12.93-11.49-22.25-10.55-4.86,6.19-10,11.87-18.12,13.13-.58.63-1.18,1.23-1.76,1.86-5.61,8.24-5.49,19.89-14.1,26.34-3.41,5-3.87,9.88.87,14.36a28.73,28.73,0,0,0,19.22,5.89c5.11-.23,9.91.82,13.06,5.75,1.71,8.4-4.72,13.83-6.85,20.83-2.71,3.68-3.27,10-9.84,9-15.73-8.25-27.07-22-38.49-35.32-26.27-30.59-42.86-66.42-49.35-107.24-.1-.63-.54-.83-1.34-.58-4.64-15.59-2.63-31.76-3.72-47.65-5.12-13.68.27-26.95,1.44-40.37.32-24,9.84-45.51,17.5-67.43,2.44-7,6-13.59,9.06-20.33,1.73-3.11,3-6.59,6.35-8.36,5-4.8,8-10.8,9.68-17.6,2.4-5.86,6.73-10.42,9.65-15.92a215.7,215.7,0,0,1,14.74-18.47c4-5.28,7.5-11,13.15-14.68,5-.18,7.06-4.82,10.17-7.72,11.55-10.75,23.23-21.33,35.84-30.71,2.41-1.8,5.72-2.93,6-6.86a33.56,33.56,0,0,1,5.26-4.64c2-1.21,4.37-1.41,6.21-2.93,1.57-1.23,3.12-2.47,4.71-3.67C431.28,515.87,435.33,512.89,440.47,512.65Z" transform="translate(-40.07 -35.6)"/><path class="k" d="M856.9,697.57c15.55,19.32,34.94,34.55,51.18,53.12,21.77,24.91,33.6,54.11,33.13,88.21C941.07,849,943,859.2,939.46,869c-4.93,16-9.55,32.07-18.21,46.46a210.41,210.41,0,0,1-73.13,73.26c-56.28,33.57-117.31,50.72-181.53,56.66-69.61,6.44-137.59-1.48-203.89-24.65a323.38,323.38,0,0,1-54.79-25.25c-3.17-1.83-7.1-3.25-6.74-8.34,8-4.58,16.28-2.44,24.46-1.26,23.26,3.34,38.05-4,48.1-24.07a23.45,23.45,0,0,1,5.06-7.52c2.38-1.47,4.41-4.44,7.73-2.09,2.49,5,.05,8.67-2.77,12.29-5.37,6.09-6.8,13-2.59,20.19,3.28,5.64,8.45,7,14.37,4.68,10-3.67,19.22-4,27.84,4.31,3.48,3.37,8.49,5.54,13.83,3.87a12.12,12.12,0,0,0,1.72-1.93c2.11-15.56,2.11-15.56,13.61-16.95a5.19,5.19,0,0,0,4.63-3.71c2.2-6.37,1.73-12.6-3-17.24-6.91-6.83-10.58-14.22-7.36-24.29a7.18,7.18,0,0,0-1-5.63c-2.36-6.74-11-5-13.72-11.18,7-9.39,17.19-14.36,26-21.24,4.45-1.95,8.23-5,11.92-8.17,36.77-26,74.8-49.88,112-75.16,54-36.69,108.48-72.44,162.34-109.27C848.16,700.24,851.47,696,856.9,697.57Z" transform="translate(-40.07 -35.6)"/><path class="l" d="M624.56,455c-13.44,4.52-27.61,3.41-41.31,5.93-3.21-4.39-2.06-9.53-1.67-14.23,2.31-27.65,3.74-55.32,3.62-83.08,0-8.45,1.66-16.84-.36-25.37C583,330.63,580,324.21,573,319.34c-.39-.29-.17,2.08.22.83.08-.26.36-.17.89.21,10.65,7.67,12.25,19.52,11.66,31.4-.76,15.37.67,30.84-1,46.05-2.31,21-.2,42.34-5,63.07-2.62,2.58-3.66,1.18-3.83-1.79-.24-4.11-.32-8.23-.47-12.35,1.22-31.32,2.11-62.66,3.79-94C580,337.51,574.08,327,561.74,320c-8.86-5-15.43-11.86-17.88-22.44,2.67-2.83,6.12-3.19,9.53-2.76,26.58,3.38,53.26,1,79.89,1.51,10.21.18,20.45,1.08,30.66,0a6,6,0,0,1,3.33.4c3.55,5.51-.18,9.94-1.95,14.67-3.87,6.3-9.89,9.87-15.78,13.53-10.28,6.39-15.2,15.26-15,28.28.52,29.47.2,59,.13,88.45,0,4.53.64,9.25-2.23,13.28l-4.24.09c-2.32-2.76-1.84-6.15-1.83-9.39.07-29.18-1.41-58.35-1.3-87.51,0-12.27.33-25.73,8.16-32.56-7.89,8-8,21.83-8.07,35.42-.23,29.18,1.67,58.35,1.15,87.54C626.3,450.9,626.1,453.16,624.56,455Z" transform="translate(-40.07 -35.6)"/><path class="m" d="M146.77,658,98,610.62c-1-7-.55-14.12,3.67-19.65,18.85-24.72,33.18-53.05,54.66-75.65,13.69-14.4,23.86-15.67,39.4-3.52,14,11,25.44,24.84,35.7,39.72a5.11,5.11,0,0,1-.2,2.82C219.86,564.88,206.68,573,196,584.58c-13,14.14-24.86,29.09-34.41,46-2,3.59-3.44,7.75-7,10.24a4.7,4.7,0,0,1-2.62.26c-13-8.56-23-21-35.49-30.16-3-2.22-5.59-5.23-10.81-5.18,13.33,17.41,29.89,30.13,44.36,45.07a4.6,4.6,0,0,1,1,2.49A5.48,5.48,0,0,1,146.77,658Z" transform="translate(-40.07 -35.6)"/><path class="n" d="M607.24,799.88c25.2-14.93,49-32.24,73.48-48.34q82.26-54,164.42-108.21a14.25,14.25,0,0,0,2.47-2.84c5.9-9.58,16.48-12.24,24.84-18.07,21.16-14.76,44.12-26.43,65.64-40.63,1.58-1,3.3-1.85,5.24-.9,7.9-.53,13.84-6.3,21.06-8.67,5.45-1.8,10.49-5.32,16.59-4.36-.36,5.09-4.42,7.11-7.7,9.24C936.16,601.32,899.7,626.65,862.65,651c-32.29,21.22-64.2,43.06-96.38,64.46q-106.85,71-213.36,142.63c-2.7,1.81-5.32,3.52-8.7,2.28-3.47-2-5.3-5.47-6.93-9.07a8,8,0,0,1,1.78-6.89C561.35,828.84,583.11,812.36,607.24,799.88Z" transform="translate(-40.07 -35.6)"/><path class="o" d="M856.9,697.57l-84.15,56.27q-96.4,64.47-192.85,128.84c-3.12,2.08-5.33,5.68-9.33,6.29l-1.1-1c.78-7.41-2.43-14.73-.53-22.18a4.93,4.93,0,0,1,2-2.08,9.52,9.52,0,0,1,5.37-1.08c9.62,1.26,14.27-3.64,15.27-13.28,8.87-11.39,21.35-17.94,32.89-25.24,16.51-10.42,32.08-22.25,48.39-32.9,11.06-7.23,21.94-14.79,33.06-21.85,27.36-17.36,53.43-36.85,80.82-54.07,17.62-11.07,34.53-23.18,51.6-35.06,2.48-1.73,4.91-3,7.66-.69Z" transform="translate(-40.07 -35.6)"/><path class="m" d="M676.69,174.87c.68,1.64.57,3.69,3.57,2,11.44-6.41,23.51-6.22,36.13-4.4,10.08,1.44,20.46.55,30.7.7a699.87,699.87,0,0,1,83.21,6c1.43.19,2.77,1.18,4.15,1.79-3.1,3.42-8.19,3.25-11.17,6.9-6.3,5-9,12.25-11.26,19.88-5.36,18.1-10,21.58-27.75,23.56-32.34,3.6-64.63,2-96.91-.46-19.49-1.48-28.87-13.43-26.27-32.18,2-8.14,7.41-14.24,11.66-21a10.54,10.54,0,0,1,1.5-2.33A2.32,2.32,0,0,1,676.69,174.87Z" transform="translate(-40.07 -35.6)"/><path class="m" d="M49.06,593.11c-11.93-17.6-11.83-34.77-.6-52.31q30.93-48.34,64.85-94.39a60.41,60.41,0,0,1,12.52-13.11c.23.22.65.43.67.66,1,15.82,9.16,27.83,17.95,39.9,5.06,7,2.5,15.3-1.06,22.47-15.81,31.85-35.51,61-56.75,89C77.25,597.7,65.91,604.51,49.06,593.11Z" transform="translate(-40.07 -35.6)"/><path class="p" d="M401.26,987.29c13,11,28.52,17.12,43.75,23.48a435.46,435.46,0,0,0,132,31.92c49.92,4.22,99.25,1.6,148.42-9.31,47.7-10.58,93-27.06,133.83-55.26,30.19-20.86,54-48.26,69.66-82.92,4.33-9.56,6.91-19.66,9.43-30.78.51,2.19.79,3.41,1.07,4.62-6.53,42.27-28.39,75.1-58.05,102.76-36.12,33.68-79.66,52.43-125.44,65.45-104.87,29.81-208.61,26.24-310.63-14.37-20.77-8.27-40.25-19.33-59.24-31.37,2.61-4.38,7.17-4.31,11.21-5.46A4.59,4.59,0,0,1,401.26,987.29Z" transform="translate(-40.07 -35.6)"/><path class="q" d="M843.85,581.24q-1-7.85-2-15.67c10.71-18.21,23.38-34.94,35.41-52.15C913.25,462,949,410.33,985.09,359c5.27-7.5,9.14-16.48,17.48-21.28,5.71.47,9.37,5.07,14,7.72,1.94,1.91,4.35,3.59,3.25,7.05Q953,448.12,886.26,543.8c-1.2,1.72-1.81,3.89-2.69,5.85.56,2.63-1.09,4.25-2.54,5.88-9.13,10.24-20.64,17.26-31.26,25.48C848.05,582.34,845.89,583.17,843.85,581.24Z" transform="translate(-40.07 -35.6)"/><path class="r" d="M846,679.57c-10.72,4-19,12.33-28.52,18.47-22.53,14.54-44.66,29.78-66.93,44.76-18.93,12.73-37.57,26-56.82,38.12-23.18,14.63-45,31.48-68.54,45.57-11.32,6.78-21.69,15.3-32.48,23-6.28,7.18-14.27,11.62-22.53,15.65l.06,0c-2.12,2.22-3.47,5.37-6.74,6.22-3.17,1.26-5.9,4-9.7,3.27-2.29-.5-3.76-2.17-5.11-4a30.14,30.14,0,0,1-2.23-3.25c-.94-2.68-4.1-4.72-2.23-8.24,8.55-1.63,14.84-7.85,21.76-12.46,55.48-36.92,110.71-74.25,166-111.42q62.9-42.24,125.84-84.36c37-24.68,74.19-49.07,111.24-73.7,4.16-2.77,7.92-6.22,11.87-9.35,4.12,3.66.5,6.31-1.39,8.59A102.61,102.61,0,0,1,959,595.53a15.4,15.4,0,0,0-2.62.43c-9.91,3.52-18,10.4-26.62,16.23-48,32.58-96.49,64.32-144.54,96.81-44.11,29.83-88.55,59.12-132.83,88.68-28.19,18.82-56.1,38.11-84.54,56.52-3.69,2.39-7.44,4.72-11.07,8.78,4.28-.34,6.73-2.81,9.39-4.63,93.94-64.29,188.69-127.25,283-191,16.27-11,32.81-21.56,49.2-32.36,3.13-2,6.88-6.56,11.1-1.19q-28.23,19.81-56.44,39.66C850.54,675.29,847.36,676.28,846,679.57Z" transform="translate(-40.07 -35.6)"/><path class="s" d="M831.94,539.67c-4.79-4.94-7.47-11.33-10.68-17.35-3-3.83-.6-7.4.44-11.07,5.28-18.56,14.27-35.52,20.74-53.6,5.36-15,12.15-29.35,17.67-44.3C873.17,378,887.32,343,901.57,308.16c5.4-13.22,9.4-27,15.22-40.08,1.79-2.72,4.1-3.44,5.22.1,2.25,7.14,6.67,7,12.06,4.87,1.41.4,2.58.95,1.58,2.83L868.3,447.52q-14.59,37.25-29.14,74.5c-1.28,3.29-3.28,6.41-2.91,10.24C838.23,536.93,835.85,538.79,831.94,539.67Z" transform="translate(-40.07 -35.6)"/><path class="t" d="M675.5,175.67a3.28,3.28,0,0,1-.2,1.58c-4.51,2.58-9.42,2.33-14.32,2.23a25.61,25.61,0,0,1-4.69-.75c-17.39-1.75-34.81-.49-52.2-.64-8,.18-15.9.12-23.84-.1a59.72,59.72,0,0,1-8.46,0c-6.19.2-12.38.18-18.57,0-4.59.11-9.27.6-13.18-2.83l-.36-13.52c-1-14.8-.24-29.61-.37-44.42,5.16-2.94,4.5,2.13,4.94,4.43,1,5.13.48,10.46,1.41,15.61.55,3.55-.08,7.08-.16,10.63-.17,7.26,2.87,12.29,10.19,13.32.87.13,0-1-.08-1.45-.29-2.33-.53-5.16,1.79-5.94,3.17-1.06,3.75,2.36,4.88,4.45-.39,1.18.14-.41.23.89.07,1.1.2,1,.11-.15-.57-7.27-1.93-14.65,2.41-22.59,6.05,8.18,1.25,16.88,3.73,23.48-1-4.84-.46-10.53-.39-16.19,0-2.74-.44-6.3,3.94-6.17,3,4.29,3,9.43,3.88,14.32.28,4.51-.26,9.06.34,14,1.47-2.2,1-5,2.91-6.49a2.56,2.56,0,0,1,2.46-.06c3.87,2,1.18,10.28,6.18,9.27,4.5-.92,1.22-7.62,3.13-11.26a14.21,14.21,0,0,1,.95-1.69,2,2,0,0,1,2.62,0c2.85,3,1.77,7.58,4.19,11.63,3-3.16,2.09-6.83,2.1-10.06,0-17.08.21-34.16.28-51.24,0-4-1.12-10.75,3.28-10.88,4.79-.14,3.62,6.52,3.64,10.49.13,18,.53,36.1-.8,54.13.38-7.59-.74-15.48,5.22-23.57,4.37,9.35,1.26,18.16,2.4,24.44-.24-7.46.72-17-.72-26.42a9.06,9.06,0,0,1,0-2.94c.57-3.35-.51-8.57,3.82-8.75,3.51-.15,2.78,5.13,4.07,7.93a23.83,23.83,0,0,1,.79,4.42c.64,8.55-.52,16.94-2.57,25.47-.71.62,1.47.88.43.16-.37-.26-.06-.39.3-.9.93-1.32,1.62-2.77,3.64-1.67.22.12.6,3.83,1.41.42.75-3.2-.6-7.85,5.18-6.46a6.28,6.28,0,0,1,1.76,2c1.93,3.92,0,8.28,1.55,14,3.77-7.06,1.67-13.51,2.4-19.5.82-4.61.75-9.57,4.6-13,3.1.73,3.72,3.48,3.71,6a17.48,17.48,0,0,0,4.36,11.31c2.78-29.23,2.22-59,5.77-88.39.12-1,0-2,.25-2.93.53-2.42.37-6.08,3.47-5.92s2.91,3.8,3.21,6.29c1,8.19.22,16.45-1.16,24.41-1.05,6.13-1,12.13-1.52,18.16a441.89,441.89,0,0,1,6.92-56.2c.64-3.26,1.65-6.35,4.78-8,10.57-2.7,10.47,3.23,10,11.89-2,34.48-3.23,69-4.74,103.52C674.87,162.14,677,169,675.5,175.67Z" transform="translate(-40.07 -35.6)"/><path class="u" d="M804.44,504.39c-4.78-3.86-10.37-6.69-13.89-12.15q46.49-119,93-237.95c4.9,1.83,8.83,5.55,13.57,7.7,2.55,5.43.1,10.31-1.76,15.08-21,53.65-42.16,107.2-63.16,160.84-7,17.86-14.27,35.61-20.18,53.94C810.48,496.49,809.54,502,804.44,504.39Z" transform="translate(-40.07 -35.6)"/><path class="v" d="M943.33,580.89l-95.72,59.6c-4.72-.39-10.65.17-5.61-7.89,36.9-30.88,75.71-59.05,113.65-88.44,27.14-21,53.89-42.62,81.74-62.63,2.9-2.08,5.48-6.07,9.72-2.4-.44,6.34,8,8.54,6.53,15.36q-53.73,41.38-107.43,82.82A20.07,20.07,0,0,0,943.33,580.89Z" transform="translate(-40.07 -35.6)"/><path class="w" d="M831.94,539.67c1.3-2.55,4.66-3.79,4.31-7.41q32.24-45.83,64.46-91.66,41-58.65,81.84-117.46c3.27-1.49,5.5.75,7.9,2.41,1,.78,1.93,1.62,2.91,2.41,3.41,3.45,9.43,4.2,10,10.58-13.21,14.74-23.56,31.81-35,48-23.6,33.52-46.68,67.46-70.06,101.16-16.79,24.2-33.71,48.29-50.55,72.44-1.61,2.3-3.22,4.54-6,5.42-1.92-2.22-2.17-5-2.3-7.78,1.07-7.93,6.62-13.18,10.77-19.1,44.6-63.58,88.7-127.55,133.32-191.12.37-.52.79-1,1.11-1.58,1.35-2.4,4.64-5.26,1.75-7.58s-4.85,1.61-6.38,3.82c-11.75,17-23.6,33.85-35.37,50.79-27.76,40-54.77,80.53-83,120.19-8.37,11.77-15,24.94-25.58,34.94C833.71,545.93,832.83,542.8,831.94,539.67Z" transform="translate(-40.07 -35.6)"/><path class="x" d="M843.85,581.24a170.64,170.64,0,0,0,39.72-31.59c5-.9,9-3.9,13-7q62.4-48,124.89-95.87a52,52,0,0,0,14.42,12.55,6.34,6.34,0,0,1-2.62,4.74c-15.45,8.08-28.59,19.78-42.3,30.48-28.47,22.23-57.33,43.88-85.67,66.27-16.42,13-32.87,25.89-49.69,38.29-2.78,2-5.8,5.5-9.07,3.91-3.71-1.81-1.19-6.48-1.71-9.85-.39-2.55.39-5.23-.58-7.76C844.09,584,844,582.63,843.85,581.24Z" transform="translate(-40.07 -35.6)"/><path class="y" d="M230.7,553.14c-12.41-14.09-23-30.12-38.43-41-13.24-9.35-21.38-8.07-33.1,3.43-14.94,14.65-24.85,33.29-37,50.14-3.18,4.41-6.23,9-9.66,13.14A64.68,64.68,0,0,0,98,610.62q-5.71-5.75-11.44-11.5c-1.18-5.37,2.74-8.33,5.25-11.83C116,553.6,140.07,519.8,160.57,483.38c5.08-9,11-17.7,8.76-29.15-.24-1.27.69-2.46,1.71-3.31,19.8,22.5,37.08,47.2,55.72,70.7,6.14,7.74,11.72,16,17.55,24C241.47,551.5,237.44,555,230.7,553.14Z" transform="translate(-40.07 -35.6)"/><path class="y" d="M840.19,230.39c-7.25,32.67-18.12,64.2-27.23,96.28-1.93,6.82-4.32,13.5-6.5,20.24-5.92-1-11.2-3.23-14.6-8.88a10.56,10.56,0,0,1-.45-3.21c2.59-14.13,7.89-27.57,9.47-42,.57-5.23,1.1-10.4.29-15.62-1.64-10.51-7.21-16.91-17.31-19.22-16.51-3.77-33.36-3.55-50.06-4.95-13-1.09-26.12.7-39.12-1.41-3.45-.55-6.77.69-10.1,1.52-3.5.87-7.53,3.37-10.25-.69s-1.63-8.76.69-13a7.56,7.56,0,0,1,2.67-2.69c7.29-2.72,14.83-1.8,22.25-1.31,29.54,1.93,59.07,3.63,88.69,3.67,11.24,0,22.31-2.66,33.55-2.12,2.77-1.06,5.79-1.28,8.44-2.74C834,233.41,835.91,228.75,840.19,230.39Z" transform="translate(-40.07 -35.6)"/><path class="z" d="M294.74,275.16c-8.6-5.19-14.95-12.84-20.82-21-1.21-1.67,3-1.92.5-4.89A56.83,56.83,0,0,1,261,218a5.55,5.55,0,0,1,1.8-3.73c5.26.72,5.56,5.66,6.84,9.43a66.43,66.43,0,0,0,15.71,26,196.82,196.82,0,0,1-10.76-24.82c-.85-2.47-1.89-4.92-2-7.55s-.74-5.78,2.54-6.45c2.43-.51,3.8,1.92,4.69,4,2.5,6,4.22,12.38,8,17.71,2.2,3.07,4.12,7.49,8.6,6.06,4.16-1.32,3.2-5.89,3.28-9.35.32-13.57-2.59-26.75-5.22-39.87s-5.07-26.31-8.94-39.13c-3.08-9.37-4.13-19.4-8.49-28.36-1.32-2.71-2.38-5.55-5.37-1.52-1.54-.31-2.47-1-1.64-2.82.1-7.09-.4-14.07-3.16-21.19,7.07,7.78,15.12,14.07,22.2,21.52-.45,3.63,5.52,4.42,3.5,8.75-4.18,5.92-1.51,20.58,4.26,23.63,2.36,1.25,3.25-.25,4.23-2.05,1.13-2.09,1.27-5.26,4.68-5.08,6.94,3.88,9.69,11.22,12.17,18.1,11,30.52,17.6,62.12,18.62,94.84.15,4.8.41,10.15-5.18,12.55-6.31-.35-6.61-6.07-8.11-10.44-5.12-14.85-6.37-30.63-9.58-45.94-1.65-7.82-3.85-15.52-4.41-20.69,3.52,18.11,9.29,38.68,8.88,60.34-.13,7.14-.85,12.72-9,14.64C303.79,267.88,300.6,274.19,294.74,275.16Z" transform="translate(-40.07 -35.6)"/><path class="aa" d="M171,450.92c5,20.38-8.79,33.73-17.3,48.55-20.05,34.91-44.26,66.82-67.19,99.65-15.46,9.93-24.48,8.48-37.49-6a5.93,5.93,0,0,1,.53-.76c19.08,10,30.33-.66,40.93-15.92,17.62-25.36,35.11-50.72,49.46-78.35,6.68-12.86,6.54-19.24-2.52-30-8.43-10-13.63-21-11.63-34.77,9.32-10.18,21.15-8.78,33.89,4-5.26,2.41-10.32,0-15.35-1-4.12-.81-6.57-.24-7,5.48,3.12-7.12,14.84-6.27,28.92,1.3C169.16,444.89,169.6,448.24,171,450.92Z" transform="translate(-40.07 -35.6)"/><path class="ab" d="M519.9,476.5c-3.29,3-7.42,3.73-11.49,4.6-5.81,1.41-7.12-3.12-7.82-7.26-4.1-24.11-8.5-48.17-12.11-72.38-2.78-18.7-7.08-37.15-9.73-55.89-2.24-15.86-5.11-31.57-8.25-47.25-.82-4.06-1.76-8.43.72-12.41a7,7,0,0,1,4-2.39c4.14.19,8.78-3.09,12.29,1.83Q503.69,380.93,519.9,476.5Z" transform="translate(-40.07 -35.6)"/><path class="ac" d="M332.62,609c-2.9,5.75-5.72,11.57-11.24,15.18L230.77,453.3c5.35-1.4,10.69-2.81,13.53-8.6,4.27.09,5.54,3.75,7.16,6.83,20.37,38.62,40.83,77.19,61.08,115.89,5.23,10,10.84,19.85,16.45,29.66C331.12,600.81,332.82,604.56,332.62,609Z" transform="translate(-40.07 -35.6)"/><path class="ad" d="M909.5,633.85c-4.31-2.78-7.13,1.2-9.88,3q-113,75.63-225.79,151.61-55.44,37.34-110.73,74.9a52.3,52.3,0,0,1-4.86,2.94c-2.23,1.18-4.39.91-5.67-1.47-1.73-3.2,1.25-3.83,2.9-5q32.58-22,65.22-44,59.85-40,119.79-79.92,90.66-60.51,181.3-121,15-10,29.85-20.07c1.62-1.1,3.09-2.49,4.54.12-1.88,5.9-9.22,6.25-11.12,12.12C932.74,615.38,922.43,626.54,909.5,633.85Z" transform="translate(-40.07 -35.6)"/><path class="ae" d="M1130.94,105.81l40.43,32c2.71,7.29-.21,10.85-6.56,14.35-11.26,6.2-17.58,18.25-26.13,27.66-5,5.45-9.62,11.2-14.87,16.36-2.2,2.16-4.92,5.32-8.06,2.57-3.35-2.92-1.27-6.66.48-9.78,1.58-2.83,4-4.93,6-7-4.26,3.35-7.12,8.78-12.09,11.79-2.2,1.33-4.68,2.56-6.89.27-2.59-2.67-.2-4.9,1.23-6.82,3-4.08,6.18-8.07,9.9-13.45-4.06,5.5-7.28,9.85-10.56,14.14a12.47,12.47,0,0,1-6.88,4.66c-6.79,1.94-9,.23-7.57-6.81,1.09-5.44,2.1-11,4.46-14.36,1.27-2.55-.71-2.25.51-1.93.16,0,.06.33-.18.93-2,5-5,9.45-9.41,11.93s-3.84-6.55-8.47-5.22c14.18-25,28.86-49.72,46.65-72.17,3.19,4.27-.09,7.39-2,10.51-4.45,7.47-9.53,14.53-12.72,21.92,2.12-2.05,4.16-5.38,7.13-7.72,2.21-1.75,4.56-4.24,7.42-1.85s1.27,5.32.31,8.11c-.71,2-2.41,3.87-1.41,6.36,13.28-7.62,13.28-7.62,15.32,6.77,8.33-2.25,13.82-15.44,24.69-6.12,0-6.22-3.87-6.65-6.48-8.71-8.39-6.58-18.13-11.39-24.81-20.19C1128.61,111.62,1124.66,108.15,1130.94,105.81Z" transform="translate(-40.07 -35.6)"/><path class="af" d="M358.92,575.13c-2,6.87-8.09,10.35-11.79,15.81-3.5-1-4.59-4.23-6.05-7.07-24.25-47-50.31-93-74.25-140.22-1.56-3.09-4.22-5.91-2.87-10,6-.92,10.72-4.64,15.57-8.08Z" transform="translate(-40.07 -35.6)"/><path class="ag" d="M540,175.17l13.38.21c.77,1,1.73,2.07,1.76,3.36.15,8.36,4.86,10.28,11.7,9.46a46.85,46.85,0,0,1,5.56,0c3.17-.29,6.34-.06,9.5,0,19.31.19,38.65-1.45,57.88,1.53,1.85.28,3.8-.09,5.59.31,10.12,2.25,13.69-4.67,16.5-12.76,4.46.4,8.93-1.66,13.39.05-1.64,8-10,11.52-11.57,19.54a5.26,5.26,0,0,1-5.52,3.24c-25.89.64-51.7-1.53-77.54-2.34a51.67,51.67,0,0,1-7.67-.06c-4,0-8-.36-12,.11-1.54.18-3.38.52-3.62,2.37-.34,2.52,1.74,3.2,3.56,3.56,4,.79,8,.24,12,.3a52.9,52.9,0,0,1,7.86-.09c21.77-.09,43.54-1.13,65.29.55,2.87.8,5.83,1.31,8.68,2.15,3.14.92,5.62,2.68,3.22,6.76-4.46,3.15-9.55,2.22-14.45,2.34a530.1,530.1,0,0,1-63.13-2.17c-2.87.42-5.74.06-8.6,0a32.56,32.56,0,0,1-5.58.16c-7.9-.81-10,3.46-10.26,11.1-.68,18.36,2,36.53,2,54.82,0,4.54.44,9.2-1.8,13.43-3.66,4-8.55,1.61-12.77,2.69a9.54,9.54,0,0,1-1-2.72Q541.19,234.08,540,175.17Z" transform="translate(-40.07 -35.6)"/><path class="ah" d="M150.38,654c-.06-.62-.11-1.24-.14-1.86-2.25-4.48-.93-8.28,2-11.78.57,0,1.13.07,1.7.12,8.24,4.23,14.52,11.23,20.88,17.73,24.66,25.2,51.9,47.11,78.53,69.81,8.13,6.94,16.6,12.51,27.75,8.47q-1.89,20.89-3.77,41.8l-10.88-7.13c-2.6-8.3-9.57-12.78-15.32-17.87-33.39-29.53-64.62-61.54-96.79-92.47C152.51,659,149.17,657.89,150.38,654Z" transform="translate(-40.07 -35.6)"/><path class="ai" d="M440.47,512.65l-12.65,7.84c-4.17.48-5.12-2.9-6.29-5.89C408.82,482,395.15,449.8,383,416.94c-3.92-10.63-9.15-20.72-12.27-31.7,1.49-5.63,6.62-6.38,10.56-8.75,1.73-.62,3.47-1.45,5.2,0Q413.5,444.57,440.47,512.65Z" transform="translate(-40.07 -35.6)"/><path class="aj" d="M330.23,267.91c7.6-7.28,4-16.8,3.22-24.84a359.18,359.18,0,0,0-14.63-72.16c-3.13-10-6.53-20.32-15.42-26.89-5.33-4.92-8.12-11.48-10.61-18.23-1.74-2.35-7.48-2.58-3.74-7.83,20.34,16.44,42.88,30.56,54.84,56,10.7,22.79,15.68,46.61,11,72.09-1.31,7.2-4.9,13.27-7.7,19.74-2.26,2.92-5.87,2.21-8.7,3.61-2.59.84-5.12,2.35-8,1a1.87,1.87,0,0,1-.66-1.61Q330,267.91,330.23,267.91Z" transform="translate(-40.07 -35.6)"/><path class="ak" d="M279.53,425.61c-2.95,6.77-6.49,12.26-14.77,7.71-3.95,13.92-9.12,16.78-19.4,10.75-3.46-2.05-5.23-5.55-6.87-9.09-10.39-22.37-20.55-44.85-30.77-67.3a7.81,7.81,0,0,1-.19-2.81c2.47-5.32,7.05-7.87,11.93-10l15.09,17.54c11,17.92,26.23,32.16,38.79,48.72,1.91,2.52,3.14-1.07,4.55.25A4.47,4.47,0,0,1,279.53,425.61Z" transform="translate(-40.07 -35.6)"/><path class="al" d="M1032.92,462.91,1035,459c1.18-4.12,4.49-6.1,7.61-8.19,19.81-13.32,39.42-27,59.39-40.05a5.44,5.44,0,0,1,3.93.06,24.93,24.93,0,0,1,7.51,12.54l-1.57,2.26c-10.17,4.77-14.79,15.45-21.9,23.38-9.1,10.15-17.48,21.08-26.44,31.41-2.62,3-4.51,6-4.22,10.15-1.8,1.45-2.75,4.26-5.66,3.92-4.38-4.29-10.06-7.87-7.81-15.78C1033.31,476.46,1030.35,472.84,1032.92,462.91Z" transform="translate(-40.07 -35.6)"/><path class="am" d="M1076.33,177.17c5.16,3.23,4-5.28,8.55-4.07.9,2.76-2.71,4.89-2.5,7.92,8.11-3.21,9.32-12.81,15.77-20.08-.81,9.19-5.81,15.06-5.54,22.42.11,2.87-4.83,6.67-.51,8.13,2.3.78,7.48,0,10.22-4.13a123.12,123.12,0,0,1,13.88-16.93c-1.35,9.24-9.13,14.47-13.91,24,11.92-2.7,15.73-14.18,25.78-19.48-1.76,8.07-7.9,10.26-10.22,15.25-1,2.21-3.65,4.88-1.35,7,2.74,2.56,4.36-1.2,5.84-2.82,9.87-10.86,19.86-21.63,29.2-33,4.47-5.44,7.72-11.83,15.52-12.66s-.33-8.7,4.31-11c6.55,3.39,8.1,7,2.71,13.84-18.17,23-34.82,47.37-54.52,69.06-4.66,1.47-7.33-2.21-10.56-4.46-9-7.5-18.79-13.78-27.64-21.46-1.87-1.67-4-3-5.9-4.65-1.51-1.46-3-2.93-3.52-5.17Z" transform="translate(-40.07 -35.6)"/><path class="an" d="M472.8,286.06c-2.34,11.32,2.46,21.76,4.12,32.48,5.36,34.63,12.66,68.93,17.69,103.6,2.47,17,6.66,33.77,8.16,51,.33,3.69,1.46,7.12,5.64,8a18.15,18.15,0,0,1-9.42,3.15c-5-6.91-4.83-15.41-6.17-23.34Q479.73,383.46,466.59,306c-.43-2.52-.27-5.28-2.86-8.12-.05,8.53,1.81,16,3.13,23.44,9,50.92,18,101.85,26.59,152.86.68,4.06,2.54,8.27-.15,12.35l-5.38,1.86Q471.51,390.73,455.11,293c-.78-4.78,2.93-5.52,5.74-7.1a20.93,20.93,0,0,1,2.64-1.2C466.76,283.87,470.13,282.3,472.8,286.06Z" transform="translate(-40.07 -35.6)"/><path class="ao" d="M371.42,384.13c10.4,20.43,17.44,42.38,26.08,63.6,9.48,23.27,18.35,46.8,27.59,70.18.42,1.07,1.8,1.73,2.73,2.58l-4.12,3.43c-6.12.27-6.48-5.32-8-9.21C401.79,479.57,387.47,444.62,374,409.3c-1.79-4.71-3.55-9.52-7-13.37,7.35,20.89,15.32,41.45,23.3,62,8.81,22.71,19.87,44.48,26.29,68.21-.44,3.67-2.85,4-5.64,3.68L356.21,390.17c0-5.24,4.7-3.86,7.12-5.69C366,383.65,368.64,381.84,371.42,384.13Z" transform="translate(-40.07 -35.6)"/><path class="ap" d="M793.22,338.94c4.44,2.61,9.62,3.85,13.24,8a934.11,934.11,0,0,1-43.39,122.66c-.77,1.78-1.51,3.58-2.26,5.37-2.73-.52-6.42,1-7.1-3.79-1.67-3.72-.05-7.06,1.23-10.33,14.18-36.38,24.28-74.08,32.91-112.26C788.69,344.87,788.93,340.59,793.22,338.94Z" transform="translate(-40.07 -35.6)"/><path class="aq" d="M436.92,64.83c.11-2.78.23-5.56.46-11,5,10.62,11.27,17.2,16.26,24.83a3,3,0,0,1-2.53,2.6c-3.39-.24-4.46,1.68-3.94,4.87.41,2.53.46,5.48,3.78,5.92,1.8.24,3.7-.82,5.44.49,4.9,5.33,5.35,12.54,6.44,19.12,3.13,19,2.37,37.53-10.73,54.94-4.58-16,1.17-31.15-1-44,.72,9.78-1,21.39-.83,33,.11,6.26-3.25,10-6.94,13.89-.24,2.11-1.65,3-3.35,3.58a25.69,25.69,0,0,1-3.77.76c-1.68.26-3.38.64-5-.39-4.26-6.23-9.29-12-11.25-19.66-.05-5.94,1.45-8.52,6.59-3.54-1.27-5.93-3.44-11.95-2.56-18.39.22-1.6.7-3.41,2.43-3.77,2-.42,2.58,1.48,3.2,2.91,1.31,3,1.73,6.27,2.45,9.45.56,2.53,1,6,4,5.88,3.57-.11,3.58-3.9,4-6.76a25.71,25.71,0,0,0,.18-5.88c-1.1-12.68,3-25.36,0-38C440.23,85.22,440.4,74.81,436.92,64.83Z" transform="translate(-40.07 -35.6)"/><path class="ar" d="M1110.17,214.5l9.39,6.23-99.73,131.72-3.71-5.29c-1.6-5,2-8,4.27-11.13,14.51-20,28.86-40.16,43.65-59.95,7.68-10.28,15.9-20.07,23.55-30.35,7.39-9.93,7.21-10-2.1-17.38-4-3.15-8-6.2-11.88-9.5-2.46-2.09-4.87-4.21-4.3-8.08a3.43,3.43,0,0,1,2.76-2.7c6.78,3.26,12.37,8.39,18.35,12.89,9.23,6.95,9.94,6.88,16.71-2.91C1108,216.74,1108.7,215.25,1110.17,214.5Z" transform="translate(-40.07 -35.6)"/><path class="as" d="M271.89,119.78c.63-2-.53-4.54,2.32-7,8.37,10.79,9.6,24.23,13.08,36.71,1.24,5.36,1.52,10.89,2.14,16.33,1.15,10.14-3.85,14.93-13.3,12.37-6-1.64-7.92.57-8.7,6.1-1,6.77-2.14,13.49-2.07,20.39,0,3.52.37,7.25-2.3,10.15-.22,1.09-.44,2.18-.65,3.27-1.26,2.2-4.06.81-5.48,2.62a42.39,42.39,0,0,1-3.34-18C253.51,173.57,263.64,146.91,271.89,119.78Z" transform="translate(-40.07 -35.6)"/><path class="at" d="M671.54,40.12c-5,19.2-7.21,38.91-9.48,58.58-.45,3.9-.65,7.69-3.29,12.31-2.27-18.75,3.6-36.24.37-55.93-4.83,36.74-2.91,72-8.37,108.6-4.09-10.63-8.85-18.5-9.35-27.89-4.54-5.7-3.23-12.63-2.74-18.9,1.64-20.56,1.19-41.31,4.68-61.7a5.61,5.61,0,0,1,2.06-2.59c5,2.06,3.88,6.84,4.16,10.85,1,14.58-2.89,28.71-3.33,41.93,1.83-17.41,3.89-36,6.92-54.52.84-2.1,2.07-4.11,1.67-6.58-.18-3,.13-5.65,3.42-6.6A31.75,31.75,0,0,1,671.54,40.12Z" transform="translate(-40.07 -35.6)"/><path class="au" d="M230.7,553.14l13.61-7.54C269,576,290.93,608.42,311.7,641.8c.11,3.59-2.34,5.85-4,8.49-8.28-3.45-11.66-12-16.57-18.64q-25.87-34.9-54.28-67.51c-2.59-3-6.78-5.16-5.89-10.4Z" transform="translate(-40.07 -35.6)"/><path class="av" d="M1130.94,105.81c-1.9,9.46,5.87,13,11,15.65,7.1,3.56,11.26,11.23,19.4,13.18a6.23,6.23,0,0,1,3.12,9.58c-3,4.58-4.21-.43-6.27-1.46-5.58-2.8-9.29,1-13.22,4.34-2.94,2.46-4.75,8-9.8,5.51-4.67-2.28-.48-6.39-1-9.62-.24-1.54.33-3.46-1.49-4.23s-2.73,1-4,1.87c-3.15,2.28-5.77,9-9.42,6-4.31-3.56.39-8.62,2.44-12.72.75-1.48,1.67-3.14.4-4.49-2-2.08-3.4.09-4.58,1.35-4.47,4.78-8.81,9.7-13.82,14.1,1.1-8.19,5.69-14.52,9.39-21.32,3.33-6.13,9.1-10.86,9.8-18.53C1125.85,103,1128.42,104.16,1130.94,105.81Z" transform="translate(-40.07 -35.6)"/><path class="aw" d="M658.26,37.68a10.16,10.16,0,0,0-1.81,7.25c-2.61,3.11-6.19,2.85-9.56,2.79-14-.24-28.06,1-42-1.5-9-1.61-17.86,2.92-26.9.75-7.45,9-15.09,7.71-23.19.86-1.12-.95-3.76.76-5.47.07-6.48-2.64-6.63,1.6-6.57,6.33.08,6.88-.26,13.78,1,20.6a43.53,43.53,0,0,1,0,16.64c-2.7,8.2,1.53,17.4-3.32,25.27q-.36,22.47-.71,44.92c-2.21-30.74-.76-61.55-1.51-92.31-.28-11.43,0-22.87,0-33.75Z" transform="translate(-40.07 -35.6)"/><path class="ax" d="M281.07,825.94c.95-2.08,1.71-4.07,2.4.19,5.42,33.9,19.44,64,38.46,91.42,13.39,19.32,30,35.72,48.18,50.18.52,6.27,5.24,5.07,9,5.59,4,.74,7.47,2.81,10.81,5.13a3.47,3.47,0,0,1,.9,2.49,33.87,33.87,0,0,1-8.13,8.41c-28.16-21-53.34-45.09-71.41-76.48C295.8,886,285.22,857.19,281.07,825.94Z" transform="translate(-40.07 -35.6)"/><path class="ay" d="M896.27,261.83c-6.71,2.09-10-2.26-12.76-7.54,10-19.55,23-37,34.06-55.83,3.91-6.64,8.19-13,12.31-19.52,2.38,0,4.77,0,6.42,2.31,1.5,4.25-.78,7.65-2.47,11-9.09,18.21-16.65,37.19-25.49,55.52-2.57,5.34-3.71,11-5.07,16.67C899,269.45,899,261.61,896.27,261.83Z" transform="translate(-40.07 -35.6)"/><path class="az" d="M1102.41,411.69c-12.37,11.6-27.32,19.21-40.75,29.17C1053,447.27,1043.9,453,1035,459c-8.77,1.15-12-4.55-13.57-12.21,3.57-5,9.36-6.05,14.29-8.49,20.92-10.34,42-20.41,62.94-30.58C1100.7,408.22,1103.17,408.25,1102.41,411.69Z" transform="translate(-40.07 -35.6)"/><path class="ba" d="M208.27,366.33c10.9,17.23,17.44,36.8,26.55,55,3.62,7.24,6.37,15,11.06,21.61.12,1.34-.94,1.65-1.73,2.21-.52,9.88-6,10.68-13.38,8.15-7-15.34-10.5-32-16-47.86-4.24-12.29-7.87-24.81-11.77-37.23C204.51,366.78,205.91,365.08,208.27,366.33Z" transform="translate(-40.07 -35.6)"/><path class="bb" d="M451.9,80.79l1.74-2.15c3.45,6.17,9.23,10.56,11.93,17.29-2.37,2.75-1.64,5.63-1.23,9,1.52,12.82,4.3,25.67,2,37.7,4.68-12,.73-24.89-1.58-37.67-.61-3.38-1.55-6.22.82-9.06,13.33,16.69,13.44,36.12,10.31,56.13-.6,3.83-2.09,7.51-3.18,11.26-2.49,5.15-7.7,4.17-11.75,5.83-5.92.2-11.75,4-17.77.52l-4.8-.79c15.82-7,8.41-22.1,11.47-33.35,1.79-6.59.33-14.16,2.06-21.29v49.22c8.11-13.73,11.51-28,9.49-43.42-1.26-9.57-1.85-19.38-7.46-27.67C450.87,89,449.21,85.31,451.9,80.79Z" transform="translate(-40.07 -35.6)"/><path class="bc" d="M442.62,96.23c3.17,15.18-1.11,30.34-.19,45.55.24,4-1.3,9.18-6.38,9.27-4.61.07-5.35-4.78-6.28-8.49-1.08-4.25-1.74-8.62-3.11-12.82-1.33,9.83,1.89,18.89,5.28,28.48-6.09-1.1-5.91-6.63-9.2-9.57L420,153.77c-4.36-6.55-5.45-14.05-5.71-21.79,2.17-7,5-13.86,7.06-20.94,1.68-5.61,4.14-11.34,12.05-7.79C439.47,106,437.46,95.62,442.62,96.23Z" transform="translate(-40.07 -35.6)"/><path class="bd" d="M989.78,327.18l-7.23-4q35.67-55.51,71.32-111c2.44-3.8,5-7.39,8.6-10a4.54,4.54,0,0,1,3.35,2.47c1.59,3.88-.15,6.93-2.19,9.94-23.6,34.93-45.75,70.87-68,106.76C994.14,323.64,992.84,326.4,989.78,327.18Z" transform="translate(-40.07 -35.6)"/><path class="be" d="M840.19,230.39l-7.81,5.8c-11-.13-12.72-1.56-14.76-12.81-1.92-10.62.1-20.93,3.65-30.71,4.3-11.84,12.27-12.55,19.8-2.3a5.29,5.29,0,0,0,2.83,2.3c3.52,10,2.61,19.89-.12,29.82-1-9.86-2.43-19.57-8.45-27.7,6.09,8.11,7.24,17.91,8.45,27.7C843.74,225.71,841.57,227.85,840.19,230.39Z" transform="translate(-40.07 -35.6)"/><path class="bf" d="M150.38,654q56.82,54.32,113.48,108.79c1.72,1.66,8.78,3.29,2.61,8.37-35.56-28.2-65.71-62.76-99.22-93.36-7-6.39-13.66-13.19-20.48-19.8C147.92,656.61,148.07,654.22,150.38,654Z" transform="translate(-40.07 -35.6)"/><path class="bg" d="M330.23,267.91l.09,2.16c-1.66,7-8.65,5.65-12.7,8.92a24.4,24.4,0,0,1-3.86,1.4,9.76,9.76,0,0,1-8-.3l-11-4.93c3.62-4.91,7.29-10.16,13.51-11.06,6.88-1,7.76-5,7.59-11.32-.62-23.31-4.43-46.05-9.77-68.58a11.59,11.59,0,0,1,.15-3c3.35,4.71,3.59,6.4,5.33,14.43,4.57,21,9.42,41.88,14.26,62.79C326.61,261.83,327.31,265.48,330.23,267.91Z" transform="translate(-40.07 -35.6)"/><path class="bh" d="M461.21,166.82c3.38-2.82,8.23-.24,11.49-3.49,1.9,28.94,7.1,57.45,10.38,86.21,1.36,12,2.94,23.88,4.41,35.81l-10.91-.14c1.72-6.72,1.22-13.41.26-20.23-3.08-21.94-6.67-43.79-8.8-65.87-1.13-11.69-2.08-12.43-13.35-10.48-3.38.59-6.74,1.27-10.11.08a5.14,5.14,0,0,1-2.22-1.76c1.52-6.81,7.25-5.78,11.73-6.72C465.19,177.91,465.65,177.21,461.21,166.82Z" transform="translate(-40.07 -35.6)"/><path class="bi" d="M337.85,267.79c2.66-3.08,6.15-1.8,9.37-2,12.76,30.42,22.26,62.14,33.64,93.12,2.11,5.76,3.77,11.7,5.65,17.56l-4.05,1.12c-4.47-1.6-5.52-6-6.91-9.87-8.58-23.83-17.65-47.47-26-71.41-3.43-9.87-4.2-10.25-13.38-6.12-3.7,1.66-7.24,3.82-11.4,4.09a3.08,3.08,0,0,1-2.85-2.54c1.41-6.25,6.95-6.77,11.29-8.73C343.58,278.35,343.77,278,337.85,267.79Z" transform="translate(-40.07 -35.6)"/><path class="bj" d="M543.39,295.7c3.35-4.25,8.15-1.44,12.1-2.75,5.09-3.64,10.84-2,16.35-2.3,2.82-.21,5.63-.07,8.45,0,25.19-.21,50.38-.64,75.57.37,4.55.3,9.71-.4,10.2,6.72-5.53,5.17-11.87,1.6-17.81,1.63q-36.87.24-73.76-.13c-10.22-.12-20.42-1.06-30.63-1.63C543.7,297,543.54,296.33,543.39,295.7Z" transform="translate(-40.07 -35.6)"/><path class="bk" d="M442.62,96.23c-2.53,2.1-1.26,5.59-2.69,8.14-1.89,3.35-4.28,5.45-7.26,1.91-4.94-5.84-6.57-1.43-8.15,2.63-1.52,3.9-3.12,7.93-3.66,12a14.75,14.75,0,0,1-6.59,11c-2.23-9.29,0-17.92,3.56-26.35,5.4-9.92,10.11-20.24,16.26-29.71,1.25-1.93,3.23-4.33,1.25-7.16l1.58-3.93c6.57,5,5.27,12.63,5.66,19.62C442.8,88.37,442.62,92.31,442.62,96.23Z" transform="translate(-40.07 -35.6)"/><path class="bl" d="M305.74,280.09l7.85-1.77c8.15,13.28,12.55,28.45,19.31,42.43,8.47,17.53,15.3,35.89,24.11,53.26,1.91,3.77,3.73,7.56,6.47,10.77.18.44.35.89.52,1.34-1.71,3.24-5.88,1.24-7.79,4.05q-21.54-48.33-43.07-96.68C311.05,288.78,309.62,283.69,305.74,280.09Z" transform="translate(-40.07 -35.6)"/><path class="bm" d="M431.23,173.43l4.21-1.64c2.87,3.29,3.77,7.55,4.53,11.65,6.43,34.94,14.86,69.43,21.5,104.32-1.93,2-5.89,1.35-6.36,5.29q-11.49-55.44-22.94-110.88A87.12,87.12,0,0,1,431.23,173.43Z" transform="translate(-40.07 -35.6)"/><path class="bn" d="M935.72,181.32c-2-.7-4.63.39-5.84-2.38l24.83-40.27,1.65.44q-3.06,22.68-6.1,45.37c-2.88-4.94-3.06,2.19-5,1.26A18.27,18.27,0,0,1,935.72,181.32Z" transform="translate(-40.07 -35.6)"/><path class="bo" d="M945,185c1.74-.2,3-5.85,5.23-.56q-6.43,44-12.91,88.07c-.17,1.18-1.12,2.23-1.7,3.34L934,273.94c-4.86-.25-4.27-4.27-3.86-7.2,3.74-26.58,8.58-53,13.24-79.37A5,5,0,0,1,945,185Z" transform="translate(-40.07 -35.6)"/><path class="bp" d="M219.46,354.84c-1.84,5.51-7.54,6.12-11,9.59-7.59-5.87-8.16-16.19-13.48-23.51-3.06-5.75-4.49-12.07-6.57-21.14Z" transform="translate(-40.07 -35.6)"/><path class="bq" d="M1113.43,423.37c-3.65-2.68-5.65-6.63-7.47-10.73-.28-8.7,8.73-8.14,12.1-13.29,1-1.56,4.1-1.19,4.68-3.87,5.13-3.66,10.7-6.27,18-6.61Z" transform="translate(-40.07 -35.6)"/><path class="br" d="M1059.3,490.57c-2.17-2.31-4.46-4-1.13-7.83,15.29-17.63,30.19-35.62,45.38-53.34,2-2.39,3.88-6.61,8.31-3.77Z" transform="translate(-40.07 -35.6)"/><path class="bs" d="M277.89,421.35c-1.84.2-2.23,4.95-5.05,1.9C259,408.31,246.49,392.16,234,376c-.49-.63.36-2.4.58-3.64Z" transform="translate(-40.07 -35.6)"/><path class="bt" d="M843.9,192.67c-1.42,5.41-2.41,1.16-3.16-.26-2.18-4.17-4.57-8.11-9.88-7.29-5.14.8-6.62,5.46-7.89,9.75a76.26,76.26,0,0,0-3.55,24c.28,9.23,3.32,16,13,17.35a11.55,11.55,0,0,1-7.33,2.21c-6.25,1.83-7.82-3.09-8.57-7.49-2.73-16-4.1-32,6.67-45.9,3.07-3.5,7.1-4,11.3-4C839.09,183.55,841.69,187.94,843.9,192.67Z" transform="translate(-40.07 -35.6)"/><path class="bu" d="M271.89,119.78c.06,7.32-2.55,14-4.71,20.75-6.13,19.14-12,38.33-12,58.86,0,1.11-1,2.22-1.59,3.34-1.8-16.65,1.28-32.68,5.72-48.5,3.44-12.24,7.12-24.4,10.7-36.59Z" transform="translate(-40.07 -35.6)"/><path class="bv" d="M256.93,220.75c0-5,3.56-1.95,5.48-2.62,3.19,14.15,9.88,26.39,19,37.4-3.44,3.08-4.31-5.1-7.48-1.38C265,244.85,260.31,233.17,256.93,220.75Z" transform="translate(-40.07 -35.6)"/><path class="bw" d="M1065.46,205l-3-2.93c.44-7.36,5.77-11.72,9.47-17.07,1.72,1,3.57,1.87,4.22,4.09C1075.44,196.5,1074.07,203.44,1065.46,205Z" transform="translate(-40.07 -35.6)"/><path class="bx" d="M195,340.92c7.42,6,9.6,15.29,13.48,23.52-.05.63-.12,1.26-.2,1.89L203,368.21Z" transform="translate(-40.07 -35.6)"/><path class="by" d="M1122.74,395.48c-1.12,6.54-7.19,8.17-11.1,11.78-1.89,1.75-4.9,2.19-5.68,5.38l-3.55-.95-3.76-4C1106.23,402.66,1114.52,399.14,1122.74,395.48Z" transform="translate(-40.07 -35.6)"/><path class="bz" d="M166.33,443.15c-6.16-.39-11.45-4-17.92-4.18-10.37-.23-10.36-1-6.11,9.79-3.84-3.19-7.93-5.18-6.29-10.27,1.71-5.3,5.82-4.41,10-3.34,4.47,1.13,9.11,1.49,13.67,2.18Z" transform="translate(-40.07 -35.6)"/><path class="ca" d="M435.34,68.76c3,2.1,1.46,4.59.29,6.75-5.56,10.25-11.86,20.07-16.31,31a1.47,1.47,0,0,1-.82-.19,3.48,3.48,0,0,1-.67-.66C421,92,430.84,81.75,435.34,68.76Z" transform="translate(-40.07 -35.6)"/><path class="cb" d="M945.05,607.15c.5-7.3,7.57-7.92,11.12-12.12l2.87.5Z" transform="translate(-40.07 -35.6)"/><path class="ag" d="M675.5,175.67c-.16-6.75-1.82-13.61,1.27-20.14q0,9.67-.08,19.34A4,4,0,0,0,675.5,175.67Z" transform="translate(-40.07 -35.6)"/><path class="cc" d="M230.92,553.74a1198.52,1198.52,0,0,1,76.74,96.55c-10.14,23.53-19.76,47.26-24.85,72.69-.88,4.44-1.14,9-1.69,13.51-7.59,6.25-14.52,4.76-21.87-1.06-37-29.29-72.67-60.27-105.29-94.95C172.18,604.26,196.76,574.3,230.92,553.74Z" transform="translate(-40.07 -35.6)"/><path class="cd" d="M793.22,338.94Q784.64,372.38,776,405.8c-5.79,22.4-14.5,43.71-22.33,65.35-11.71-1.11-22.43-6.39-33.85-9-17.26-3.92-34.33-7.69-52.05-7.25a29.42,29.42,0,0,1-3.73-.36c-2.49-15,.24-30,1.73-44.71,2.62-25.95,5.38-52,10.16-77.64.77-4.18,1-8.48,4.07-11.73,13.93-8.23,28.69-7.71,43.59-4.16a91.42,91.42,0,0,0,12.91,1.93c20.12,1.88,38.83,8.62,56.57,18.58C793.14,337.54,793.18,338.24,793.22,338.94Z" transform="translate(-40.07 -35.6)"/><path class="ce" d="M600.18,504.64c0,1.79,0,3.58,0,5.36-1.13,1.35-.87,3-1,4.62-1.22,12.86.14,14.13,12.36,11.45,6.42-5.31,14-3.86,21.24-3.9,5.22,0,4.87,3.81,4.87,7.46,6.42,9.18,1,18.74-7.91,25.65-1.75,1.36-3.92,2-5.88,3-8.52,4.34-9.34,7.85-3.49,15.78,4.23,5.74,9.29,11.16,3.93,19-2.55,4.82-6.82,4-10.94,3.73-.19-5.7-4.72-3.31-7.25-3.87-2.84-.64-4.55,1.66-4.41,4.84.13,3,1.33,5.71,2.54,8.35,2.61,5.68,3,11.22-.46,16.67-9.13,6.65-17.87,6.67-26.11-1.7-1.83-2.21-4.39-3.42-6.32-5.67-7.86-9.16-11.76-9.6-21.76-3.36-4.83,3-9.1,6.86-13.76,10.14-8.15,5.73-16.72,6-25.63,2.4-2.86-.35-7.72.93-7.06-3.68,1-6.74-10.27-13.09-.4-19.71a4.13,4.13,0,0,0,1.23-1.4c10.44-15.37,10.47-15.4-1.11-29.92-1.63-2.05-2.46-4.53-3.92-6.64-2.32-19.27,5-25,24.79-29.45,7.12-1.58,14.45-3.94,12.87-14.76-.61-4.15,0-8.5,0-12.75,10.44-13.49,20.14-13.19,28.53.88,5.22,8.75,11.83,8.46,20-.88l-.08.08C592.47,496.48,593.77,496.33,600.18,504.64Z" transform="translate(-40.07 -35.6)"/><path class="cf" d="M607.24,799.88l-67,45.62c-11.08,11.77-25.34,18.16-39,25.6-10.75,3.67-18.43,13.17-29.15,16.95-3.44,1.22-6.55,4-10.34,1.15-.92-5.37-9.44-10.49-.47-16.18,2-5.07,5.44-9.21,8.17-13.8,3.13-5.27,2.64-9.87-1.3-14a173.93,173.93,0,0,1-10.95-13.56c-1.67-14.78,4.81-26,18.63-29.11,6.47-1.45,12.24-6.65,19.42-4.46-1,8.31-8.3,7.54-13.29,9.58-4.3,1.75-9,2.32-12.9,5.32-3.51,2.73-5.44,6.23-5,10.91.15,1.63.46,3.41,2,4.16,1.77.85,3.06-.45,3.75-1.9,3.69-7.64,10.7-10.51,17.43-13.91a42.72,42.72,0,0,0,10.68-7.82c5.07-5,.29-5.21-2.76-6.25,3.09-6.86,6.67-13.47.92-21-2.48-3.26,1.49-5.68,2.73-8.4,9.58-11.34,18.67-10.71,26.39,2,3.48,5.71,7.11,10.77,14.66,8.69a51.39,51.39,0,0,0,8.88-9.95c2.91-4.25,6.75-6.2,11.23-3.68,3.93,2.21,4.86,6.37,4.08,11-3.23,19.25-3.19,19.26,15.39,13.52,6.71-2.38,12.68-5.79,20.48-.7C604.37,792.51,602.61,798.41,607.24,799.88Z" transform="translate(-40.07 -35.6)"/><path class="cg" d="M719.78,569.34c13.29-23.54,32-23.09,47.43-11.13.82.63,1,2.18,1.48,3.31,3.72,4.74,1.33,9.34-.52,13.75-6.51,15.56-6.52,15.81,6.18,27,13,11.5,15,18.65,9.36,34.07l0,0c-5.8,4.09-12.1,4.09-18.8,3.24-7.51-1-8.9,1.21-7.07,9,1.53,6.48,5.32,13.07-.63,19.29l-6.93.09a38.94,38.94,0,0,1-18-13.44c-6.58-9.08-14.5-9.24-23.24-5.5-7.45,3.18-14.88,6.19-22.94,7.07-9,1-14.25-5.11-17.13-12.42-2.63-6.68-3.31-14.43,2.14-20.81,1.77-2.08,3.57-4.14,5.36-6.21,2.51-.83,3.7-3.36,5.67-4.83,6.76-5,5.64-9.88,0-14.8-6-3.54-9.36-8.63-5.69-15.53,2.85-5.36,11.64-5.25,17.63-.64-2.35,4.32-.36,6.56,3.36,8.28,9.6,4.42,22.7-1.92,26.19-12.3C725.2,572.19,722.11,571.23,719.78,569.34Z" transform="translate(-40.07 -35.6)"/><path class="cc" d="M435.31,584.88c2.55.94,6.3-1.11,7.44,3.31,8,6.92,7.72,16.3,4.89,25-3.92,12-.44,19.42,9,26.43,12.81,9.53,14.78,19.33,8.52,32.64-10.31,13.75-29.88,19.46-41.27,12-1.51-2.09-3.69-3.43-5.29-5.46-8.05-10.19-17.31-14.17-29.36-7-4.92,2.91-10.73,3.13-16.37,2.46-3.93-.47-7.26-2-8-6.72a3.77,3.77,0,0,1,2.32-2.66c.95-.5,2.53-.94,1.51-2.58-.51-.81-1.64-.56-2.53-.33-1.74.68-2.53,2.56-4,3.51-2.62-6.37-4.18-12.6,2-17.86,12.56-1.76,18.05-7.35,18-19.47,0-5.14,2.12-10.18.5-15.33.54-6.3,6-9.69,9.8-10.22,8.78-1.22,12.61-6.94,16-14,.92-1.91,2.13-3.17,4.15-3.48C420.16,580.76,427.73,582.24,435.31,584.88Z" transform="translate(-40.07 -35.6)"/><path class="ch" d="M316.82,812.18c-3.77-7.78-7-15.52,1.37-22.49,9.62-1.57,14.91-6.68,15.77-15.33.34-3.49-.59-7.12,1.35-10.39-3.82,6.3,2.9,19.34-11.36,18.72,4.15-5.08,6.88-10.52,6.6-17.67-.35-8.59,4.9-14.93,11.79-16.92,8.08-2.33,13.41-7,17.93-13.61,4,8.74-2,12-6.33,14.94,10-4,11.75-6.94,9.67-18.18,8.14-7.08,16.41-4.88,24.71-.39,12.93,8.9,13.9,11.73,9.34,27.3-4,13.46-3.89,13.38,6.14,22.41,4.21,3.79,8.91,7.17,11.62,12.49,2.91,5.7,4,11.61,1.1,17.75-8.23,14.77-27.83,22.15-41.38,15.59a7.84,7.84,0,0,0-1.09-1.55C364,812.14,353.12,805.06,336.93,815c-5.08,3.12-13.35,4.26-18.25-3.54.11-2.4,2.7-3.33,3.2-5.78-2.68.11-1.52,2.7-2.49,3.76C318.66,810.49,318.21,811.82,316.82,812.18Z" transform="translate(-40.07 -35.6)"/><path class="ci" d="M896.27,261.83c2.3-2.13,2.3-2.13,5.77,3.55,5.2,3.59,11.12,1.68,16.7,2.43-10.32,32.93-24.67,64.16-36.84,96.32-8.22,21.72-16.79,43.31-25.08,65-10.84,28.37-23.35,56-33.56,84.7-1,2.78-2.24,5.4-2,8.47-6.45-5.1-11.64-11.51-16.82-17.93,10-26.85,19.89-53.8,30.21-80.53,10.13-26.24,20.77-52.25,31.14-78.38q13.58-34.25,27-68.54C894.73,272.09,896.68,267.26,896.27,261.83Z" transform="translate(-40.07 -35.6)"/><path class="cj" d="M1032.92,462.91c-1.82,10.81,7.39,11.63,12.91,15.8-18.8,12.08-35.89,26.7-53.7,40.25q-53.64,40.78-107,82c-12,9.27-23.84,18.83-35.6,28.46-2.35,1.93-4.57,3.31-7.55,3.17q1.1-23.6,2.2-47.18c3.25,4.88.06,10.84,2.59,17.19,10-7.43,19.59-14.33,28.93-21.61,31-24.2,61.87-48.65,92.95-72.77,17.64-13.68,35.55-27,53.49-40.24C1025.33,465.65,1028.33,462.22,1032.92,462.91Z" transform="translate(-40.07 -35.6)"/><path class="ck" d="M244.15,445.15l1.73-2.21c10.27,4.44,11.38,3.82,16.78-9.39.11-.26.37-.65.54-.64a8.65,8.65,0,0,1,1.55.41c8.62,21,20.25,40.31,30.74,60.22,17.13,32.51,35.14,64.51,51.64,97.4L332.62,609q-42-78.91-83.91-157.86C247.5,448.87,246.6,446.37,244.15,445.15Z" transform="translate(-40.07 -35.6)"/><path class="cl" d="M632.47,455c-.37-34.09-.45-68.18-1.23-102.25-.34-14.65,5.85-24.43,17.61-30.78a47.49,47.49,0,0,0,15.24-12.66c6.65,3.16,1.9,8.62,2.38,13-6.61,41.39-12,83-18.73,124.37-.53,3.27-1,6.52-4.44,8Z" transform="translate(-40.07 -35.6)"/><path class="cm" d="M836.21,548.15c7.53-14.66,17.8-27.35,26.94-40.83,22.7-33.5,45.9-66.63,68.89-99.91q22.73-32.88,45.43-65.76c.91-1.32,2.2-2.4,2.94-3.81,2.21-4.23,4.91-5.54,8.86-2.31,4.25,3.47,1.16,6.59-.67,9.25-10.38,15.08-21.08,29.92-31.47,45-28.06,40.7-57.23,80.53-84.39,121.93-10.4,15.84-22.09,30.75-33.19,46.08C837.74,554.84,836,551.87,836.21,548.15Z" transform="translate(-40.07 -35.6)"/><path class="cn" d="M386.6,869.66c10.65-1.67,20.16-.44,25.59,11.15a27.57,27.57,0,0,0-1.36,2.58c-7.28,13.73-7.29,13.74,5.47,21.23a5.25,5.25,0,0,1,2.88,3.62,4.4,4.4,0,0,1-1.87,3.52c-9.31,3.77-16.33,10.37-22,18.94-2.39,3.6-4.15,8.25-9,9.39-5.35-4.71-11.7-4.58-18.13-4.21a16.17,16.17,0,0,1-15.36-7.78c-2.68-3.32-2-7.11-1.36-10.89,11-7.55,12-20.79,16.36-32.11l.24-.17a4,4,0,0,1,3.34-1.31C382.21,883.27,384.26,881.38,386.6,869.66Z" transform="translate(-40.07 -35.6)"/><path class="co" d="M680.75,321c-3.87,22.12-6.45,44.44-9.72,66.65s-2.21,44.92-6.95,66.95l-11.56,0c-4.81-2.41-4-6.85-3.6-11.1,2.19-26.13,7.71-51.74,11-77.7,1.74-13.63,4.21-27.14,6-40.76,3.67-19.26,4.07-39,8.36-58.2,1.25-5.58,1.45-13.76,8.53-13.08s6.18,8.8,6.15,14.48c-.08,15.11-2,30.05-4.59,44.9A15.18,15.18,0,0,1,680.75,321Z" transform="translate(-40.07 -35.6)"/><path class="cp" d="M379.1,974.91c-3.16-2.17-15,7.66-9-7.18,5.78.85,4.13-7.26,8.65-7.92,4.65-7.61,8-16.16,15-22s12.65-5.56,18.18,1.91c2.8,3.78,5.89,4.16,9.74,3.81,6.67-.62,12.54.89,15.48,8,2.05,4.92,5.34,4.27,9.23,3.44s8.6-2.63,8.22,4.82c-5.47,9-13.9,12.52-23.38,14.19-3.35.19-6.72.46-9.91-1-2.88-2.07-1.1-3.89.44-5.46,3.14-3.17,3.32-6.19-.39-8.8-4.31-3-9-3-12.93.39-3.67,3.18-.36,5.57,1.83,7.83,1.73,1.78,4.23,3.55.7,6.06-5.25,2.11-10.73,1.11-16.11,1.36C389.63,974.77,384.3,972.88,379.1,974.91Z" transform="translate(-40.07 -35.6)"/><path class="cq" d="M493.3,486.55q-9.37-52.83-18.74-105.67c-4.63-26.27-9.15-52.55-13.83-78.81-.46-2.57-1.67-5-.47-7.61A4,4,0,0,1,464,291.9c3.61,0,3.56,3.51,4,5.71,2.32,12.45,4.26,25,6.4,37.48q12.23,71.64,24.46,143.27a44.25,44.25,0,0,1,.21,5.89C497.81,487,495.47,486.54,493.3,486.55Z" transform="translate(-40.07 -35.6)"/><path class="cr" d="M416.06,910.37l2.44-1.82a15.74,15.74,0,0,1,1.71-2c2.27-1.55,4.68-2.39,7.39-1.52,7.37-1.67,14.71-3.53,22.34-2.87a2.84,2.84,0,0,1,2.49-.22,5.46,5.46,0,0,1,2.4,3.17c0,5.62,3.56,10.16,4.4,15.54-3.86,9.31,2.14,12.69,8.6,15.8,1.08,6-2.09,9.56-6.27,12.63a7.83,7.83,0,0,1-6.8,0c-3.14-2.84-8.4-3.08-9.09-9.2-.21-1.91-3.77-1.11-5.88-1-2.62.15-5.58,1.51-7.24-2.09-.47-2.21.24-5.52-3.24-5.3-2,.12-1.59,2-.8,3.5,4.1,3.54,4,6.06-1.58,7.24-11.1-1.46-14-5.18-10.6-15.67C418.19,920.81,415.45,915.75,416.06,910.37Z" transform="translate(-40.07 -35.6)"/><path class="cs" d="M451.92,902.66l-2-.52c.75-7.52,10.59-5.88,11.79-12.94,12.54-3.53,22.91-11.55,33.86-18.33a13.2,13.2,0,0,1,5.12-1.6c1.89,1.51,2.72,3.69,3.45,5.94.52,7.31,7.48,11.55,8.12,18.8a13,13,0,0,1-.85,5.67,4.62,4.62,0,0,1-1.89,2c-12.22,4.7-25.78,3.29-37.77,9.14-3.18-.22-6.59,0-7.5-4.44.38-1.9,2.2-4.13-1.57-4.79S455.55,902.71,451.92,902.66Z" transform="translate(-40.07 -35.6)"/><path class="ct" d="M416.6,526.16c-9.53-16.19-14.84-34.42-22.21-51.64-10.46-24.44-19.69-49.46-29.32-74.29-1.1-2.82-5.27-6.41.31-8.8,5.39-2.31,5,3.1,6.17,6q23.91,60.24,47.69,120.52c.94,2.38,1.76,5,4.46,6C422,527,419.07,525.77,416.6,526.16Z" transform="translate(-40.07 -35.6)"/><path class="cu" d="M416.06,910.37c4.5,4.65,5.38,10.18,3.21,16.21-3.75,10.43-2.36,12.68,8.67,13.52,5.39,2.28,11.58,2,15.17,9,2.25,4.44,7.15-1.1,11-1.06l6.77.19c1.06,8.22-.63,10.88-6.87,10.83-1.91-6.16-5.6-2.15-8.29-1.27-3.91,1.27-8.12,2.22-9.41-2.61-3-11.33-10.83-10.13-18.6-8.59-3.86.76-5.46-.11-7.07-3.84-3.71-8.57-8.48-9-15.73-2.91-6.69,5.58-9.58,14.34-16.12,19.91.3-7.5,6.45-12.53,7.52-19.71C394.49,928.28,401,914.6,416.06,910.37Z" transform="translate(-40.07 -35.6)"/><path class="cv" d="M465.17,672.22c3.54-15.36.67-23-12.1-32.3-11.18-8.14-12.24-11.42-8.14-25.52,2.64-9,2.71-17.85-2.18-26.2,7.73,3.29,12.08,9.27,11.22,18.09-1.3,13.38,3.21,23.34,13,32C475.88,646,474.49,661.06,465.17,672.22Z" transform="translate(-40.07 -35.6)"/><path class="cw" d="M667.82,325c-2.22,23.44-6,46.61-9.8,69.81-2.93,18-4.92,36.21-7.12,54.35-.2,1.72,1.05,3.64,1.62,5.46l-9.22.06c3.61-22.52,7.3-45,10.82-67.55,3.42-21.93,6.68-43.89,10-65.83C668.34,319.23,668.76,321.36,667.82,325Z" transform="translate(-40.07 -35.6)"/><path class="cx" d="M416.52,810.81c1.53-14.48-6.77-23.2-16.86-30.24-7.3-5.08-9.24-10.89-5.69-19.11.89-2.07,1.18-4.43,2.1-6.49,4.78-10.7-.05-17.89-7.75-24.11,12.3,5.08,15.73,9.48,15.26,22.17-.37,10.15,2.73,17.92,9.74,25.06C424.09,789.07,424.64,799.41,416.52,810.81Z" transform="translate(-40.07 -35.6)"/><path class="cy" d="M579.71,460.9c1.33-37.25,4.47-74.43,3.64-111.76-.29-13.44-3.12-25.38-16.9-30.7,9.86-2,18.21,5.41,20.57,18.43,3.3,18.24-.36,36.47-.45,54.7-.12,23.14-2.13,46.26-3.32,69.39C582,463.18,580.88,461.26,579.71,460.9Z" transform="translate(-40.07 -35.6)"/><path class="cz" d="M719.78,569.34c8.55-2.94,8.82.91,6.24,8-5.27,14.46-22.69,20.73-33.67,12-1.86-1.49-3.45-3.28-3.36-5.55.13-3.31,3.28-2.09,5.1-2.87C705.21,583.32,711.87,574.79,719.78,569.34Z" transform="translate(-40.07 -35.6)"/><path class="da" d="M365.7,666.31c.79,5.1,4.27,5.63,8.31,5.69a37.13,37.13,0,0,0,13.67-2.06c20.15-7.45,24.76-5.58,36.22,14.31-3.16,0-5-2.47-7-4.33-6.53-6-13.31-4.76-20.73-2-13.74,5.07-30.22,2.76-34-12.43,0-2-.17-4.14,1.89-5.37C365.9,661.77,366.07,664,365.7,666.31Z" transform="translate(-40.07 -35.6)"/><path class="db" d="M510.16,624.57c12.3,1.53,23.4-.91,32.22-10.85a4.63,4.63,0,0,1,.77-.54c17.26-12.92,22.7-11.67,34.48,7.88-5.12,1.19-8.2-4-12.94-4.46-9.36-1-17.73.91-25.05,7.34-8.1,7.11-17.67,4.56-26.85,4.22C511,628.09,510.46,626.24,510.16,624.57Z" transform="translate(-40.07 -35.6)"/><path class="dc" d="M319.14,809.78c5.29,7.58,12.9,5.15,18.58,2.67,26.64-11.63,19.18-7.57,37.18,13,.18.21.16.62.24.94-2.1-1.3-4.54-2.23-6.22-4-6.29-6.54-13.13-5.53-20.63-2.83-14.89,5.36-24.07,3-31.47-7.4.76-.8,1.52-1.61,2.27-2.42Z" transform="translate(-40.07 -35.6)"/><path class="dd" d="M624.56,455q-.1-41.77-.19-83.54c0-9.72-.31-19.46.17-29.16.69-13.72,7-21.19,20.32-23.15-16.36,9.76-18.17,25.29-18.18,40.77,0,31.71,1,63.41,1.55,95.12Z" transform="translate(-40.07 -35.6)"/><path class="de" d="M783.71,636.36c5.3-17.27-3.3-27.48-16-36.13-7.81-5.31-9-13-3.68-22.19,3-5.2,4.92-10.45,4.66-16.52,6.83,3.87,4.91,11.09,2.81,15.33-5.28,10.65-1.12,17.59,6.09,23.76,8.56,7.32,11.55,16.53,10.25,27.72C787.46,631.61,787.46,635,783.71,636.36Z" transform="translate(-40.07 -35.6)"/><path class="de" d="M686.13,656.1c11.64-2.9,21.19-12.33,33.91-11.88,3.48.12,7.14-.17,9.35,3.21,5.55,8.48,14.28,13.32,20.91,20.54-9.63,2.11-15.85-4.7-21.8-10.38-7.32-7-15.42-6.94-23.26-4A42.87,42.87,0,0,1,686.13,656.1Z" transform="translate(-40.07 -35.6)"/><path class="df" d="M624.26,593c1.22-6.95-.81-12.26-5.74-17.42-8.42-8.82-6.81-15.18,4-19.74,14.43-6.08,17.08-10.69,15.07-26.24,7,3.84,3.52,10.18,2.76,15.35a15.22,15.22,0,0,1-5.16,8.89c-10.45,8.14-14.87,16.7-5.85,29.41C632.11,587.17,628.36,591.11,624.26,593Z" transform="translate(-40.07 -35.6)"/><path class="dg" d="M585.13,506.26c-2.26,6.56-6.51,10-13.34,10.09s-7.53-5.28-9.58-10.08c-3.19-7.45-11.29-9.92-18.18-5.81-2.67,1.59-5,3.85-7.46,5.8,4.51-10.8,13.31-14.68,23.12-10.34a24.06,24.06,0,0,1,9.57,7.59C573.94,509.79,578.74,512.34,585.13,506.26Z" transform="translate(-40.07 -35.6)"/><path class="dh" d="M579.43,790.31c-1.82,1.19-3.51,2.87-5.5,3.47-4.32,1.31-9.07,4.77-13.2.63s-1.19-9.33.3-13.79c1.67-5,3-10.39-1.88-13.21-5.06-2.93-8.36,1.71-11.43,5.7-2.13,2.76-5,4.88-7.53,7.29a1.48,1.48,0,0,1-.58-1.52c.15-.53.31-.8.47-.8,2.77-3.85,5.66-7.62,8.28-11.59,2.44-3.72,5.21-6.91,9.83-5,4.43,1.85,8.06,4.92,8.08,10.68a30.19,30.19,0,0,1-.35,4.85c-2.34,13.89-2.35,13.88,10.73,13.16C577.57,790.14,578.5,790.27,579.43,790.31Z" transform="translate(-40.07 -35.6)"/><path class="di" d="M382.68,612.79c5.1-.67,5.43-.5,4,2.42-1.12,2.38-2.7,4.71-2,7.27,4.08,15.74-6.77,22.5-16.38,29.51-4.59,3.35-3.4-2.16-4.13-4.39,2.77-8.09,12.56-10,14.77-18.54,2.54-5.11-1-11.78,3.77-16.32Z" transform="translate(-40.07 -35.6)"/><path class="dj" d="M466.73,608.7c6.11-3.51,12.38-3.64,16.64,2.33,3.88,5.43,2.78,12-1.4,17.11s-9.62,5.67-15.11,2.1c-5.81-3.79-9.31-8.63-5.57-16.15,2.3,1.38,2.47,4.46,4.36,6.14,2.27,2,4.64,1.16,6.92,0,1.65-.83,3.61-1.65,3.72-3.89.17-3.38-2.5-4.06-4.82-4.92C469.74,610.79,467.85,610.5,466.73,608.7Z" transform="translate(-40.07 -35.6)"/><path class="dk" d="M589,770.37c.32,6.91-2.59,10.9-9.29,11.91-6,.9-7.12-5-9-8.13-1.78-3,8.28-11.69,12.69-11.51C588.27,762.84,589,763.77,589,770.37Z" transform="translate(-40.07 -35.6)"/><path class="dl" d="M776.38,652.3c2-7.11,7.63-4,11.63-4s6.31,3.72,6.81,7.88c.72,5.84-1.75,9.93-6.94,12.17-3.93,2-7.81,2.34-11.61-.35-4.8-5.28-6.48-10.54.12-15.73,2.64,1.82,1,6.8,4.94,7.57a1.65,1.65,0,0,0,1.79-1.76C782.82,653.76,778.08,655,776.38,652.3Z" transform="translate(-40.07 -35.6)"/><path class="dm" d="M420.39,751.1c5.83-.08,11.36.72,13,7.89,1.36,6-.42,11.23-5.58,14.26s-10.39,1.93-14.64-2c-4.44-4.12-5.59-9.23-1.83-14.74a2.57,2.57,0,0,1,.89.18c3.42,2.14,4.46,10.36,10.3,5.87C427.9,758.41,419.27,755.39,420.39,751.1Z" transform="translate(-40.07 -35.6)"/><path class="dn" d="M457.18,831.63c7,4,11.77,10.37,16.11,17.09,2.15,3.34,1.54,6.81-.94,9.95-3.74,4.74-7.39,9.56-11.09,14.35.12-1.28-.19-2.91.44-3.8,6.44-9,3.9-17.83-1.18-25.86C458.09,839.5,457.64,835.74,457.18,831.63Z" transform="translate(-40.07 -35.6)"/><path class="do" d="M615.48,514.27c-3-.19-8.38,1.35-7.8-6.22.46-6.16,3.69-9.54,9.62-9.56,5.22,0,8.85,1.51,9.16,8.31C626.85,515.34,621.6,514.33,615.48,514.27Z" transform="translate(-40.07 -35.6)"/><path class="dp" d="M757.24,667.88c3-6.08,2.09-11.75-1.34-17.36-2.27-3.69-3.49-8.31-1.28-12,2.53-4.24,7.79-2.83,11-1.63,6.36,2.35,12.09.22,18.07-.51-1.47,6.25-7.1,6-11,6.13-10,.31-12.87,4.89-11.28,14.83C762.08,661,764.38,667,757.24,667.88Z" transform="translate(-40.07 -35.6)"/><path class="dq" d="M540.08,778.08c0,.77.08,1.54.11,2.32-7.35,4.85-11.67,1.12-15.53-5.55-8.6-14.9-12.35-15.67-25.86-6.13A14.43,14.43,0,0,1,518,759.79c6,2.36,10.65,6.59,14.62,11.76C534.65,774.26,536.21,777.64,540.08,778.08Z" transform="translate(-40.07 -35.6)"/><path class="dr" d="M498.9,563.22c1.85,1.73,3.79,3.37,5.55,5.2,15.1,15.74,15,17.49-1.76,32.76,6-9.76,4.31-19-2-27.69C498.32,570.21,499.06,566.72,498.9,563.22Z" transform="translate(-40.07 -35.6)"/><path class="ds" d="M466.73,608.7c.31,0,.61.1.92.11,5.27.17,11.82-.4,12.11,7.12.24,6.23-6.21,7.55-10.57,8.4-7.3,1.43-7.19-5.12-7.9-10.23C463.23,612.44,462.71,608,466.73,608.7Z" transform="translate(-40.07 -35.6)"/><path class="dt" d="M416.3,892.58c-.26-3.24,2.49-4.42,4.23-5.75,4.53-3.47,9.08-3.1,12.43,2.06,4.31,6.64-.34,9.39-5,12C419.17,902.94,417,901.4,416.3,892.58Z" transform="translate(-40.07 -35.6)"/><path class="df" d="M603.74,622.76c1.25-6.62.73-12.68-2.73-18.82-1.92-3.41-4.67-8-.39-12.45,3.93-4.1,7.5-.72,11.18,0a31.53,31.53,0,0,1,5.28,2c-.13,2.47-3.22,1.29-3.76,3.25-6.07-.3-5.34,4.12-5.75,8.4C607,611.16,610.63,618.29,603.74,622.76Z" transform="translate(-40.07 -35.6)"/><path class="du" d="M324,782.69c6.29-1,7.68-5.83,8.07-11.35.41-5.9,1.48-11.43,7.67-17.6-2.72,9.74-4.45,17.12-3.93,24.85.19,2.9-13.95,17.14-16.42,16.6-3.33-.73-1.7-3.4-1.16-5.49Z" transform="translate(-40.07 -35.6)"/><path class="dv" d="M420.57,908l-2.08.6a21.17,21.17,0,0,0-3-2c-4.9-2.21-11.44-2.17-12.08-10.07-.61-7.45,3.42-12,8.82-15.64l.78,11.72C414,898.51,421.53,900.91,420.57,908Z" transform="translate(-40.07 -35.6)"/><path class="dw" d="M420.39,751.1c3.26,3.39,9.62,5.06,5.92,12.24-2.4,4.67-6.4,3.46-9.91,2.77-5-1-2.51-6.88-5.06-9.62C413.21,752.56,416.33,751,420.39,751.1Z" transform="translate(-40.07 -35.6)"/><path class="dx" d="M363.61,731.25c6.51,3.39,5.13,8.38,1.78,12.9-5.13,6.92-12,9.76-21.14,7.24,8.11-3,16.73-5.44,16-16.9Z" transform="translate(-40.07 -35.6)"/><path class="dy" d="M367.79,885.1c-2,12,.09,26.24-15,31.3a3.15,3.15,0,0,1-.12-4.15c6.09-6.75,8.6-15.41,11.34-23.9C364.69,886.17,365.64,885.05,367.79,885.1Z" transform="translate(-40.07 -35.6)"/><path class="dz" d="M656.12,597c4.06-5.4,9.63-6.33,13.59-1.54a10.34,10.34,0,0,1-1.28,14.83c-4.35,3.77-8.72,4.84-12.23-1.33a2,2,0,0,1,0-2.42c2.1-1.37,6.17-.14,6.11-4.26,0-3.19-3.58-2.84-5.41-4.27Z" transform="translate(-40.07 -35.6)"/><path class="ea" d="M386.6,869.66c2.85,4.56,1.88,8.32-1.69,12.09-5.05,5.33-10.65,5.73-16.89,3.18.52-1.07,1-3.06,1.56-3.07,7.65-.21,12-4.59,14.46-11.81C384.18,869.65,385.72,869.78,386.6,869.66Z" transform="translate(-40.07 -35.6)"/><path class="eb" d="M682.15,597c4.16.2,6.93,2.42,7.71,6.7.83,4.52-1.92,7.17-5.32,9-2.6,1.44-4.5,4.56-8,3.89C680.12,610.67,684.34,604.87,682.15,597Z" transform="translate(-40.07 -35.6)"/><path class="ec" d="M637.13,577.16a9,9,0,0,1-6.73-7.56c-.49-3.54,2.22-4,4.89-4.16,3.49-.16,6.24.57,6.06,5.13C641.25,573.41,641.82,576.71,637.13,577.16Z" transform="translate(-40.07 -35.6)"/><path class="ed" d="M420.57,908c-1.91-5.48-9.87-7.66-7.6-15.42l3.34.05c1.68,6.16,5.93,8.36,11.63,8.33l-.33,4.1Z" transform="translate(-40.07 -35.6)"/><path class="ee" d="M611.5,526.07c-1.62.83-3.23,1.67-4.85,2.49-2.88,1.48-6.3,2.65-8.76.44-2.85-2.57-2-6.75-.78-10,1.08-3,.37-6.64,3-9C599.94,518.49,600,526.71,611.5,526.07Z" transform="translate(-40.07 -35.6)"/><path class="dg" d="M600.18,504.64c-5.82-7.12-10.42-2.18-15.13,1.7,1.47-4.75,1.82-11.31,8-11.19C597.29,495.23,600.46,499.21,600.18,504.64Z" transform="translate(-40.07 -35.6)"/><path class="ef" d="M435.31,584.88c-7.56-.74-15.12-1.1-22.66.24C417.92,579.7,426.89,579.6,435.31,584.88Z" transform="translate(-40.07 -35.6)"/><path class="eg" d="M794.9,632.74c3.39-.28,4.06,1.62,4.06,4.21,0,2.37-1.13,3.5-3.37,3.53-2.4,0-4.26-.51-4.18-3.67C791.47,634.05,792.57,632.54,794.9,632.74Z" transform="translate(-40.07 -35.6)"/><path class="eh" d="M352.64,912.25l.12,4.15,0,11.7C346.48,922.89,346.88,917.6,352.64,912.25Z" transform="translate(-40.07 -35.6)"/><path class="ei" d="M776.27,668l11.61.35C783.86,673.55,780,674.16,776.27,668Z" transform="translate(-40.07 -35.6)"/><path class="ej" d="M656.55,606.76c-.12.73-.23,1.47-.35,2.2-5.15-4-5.87-7.93-.08-12a2.34,2.34,0,0,1,1,.13C658.9,600.48,659.09,603.72,656.55,606.76Z" transform="translate(-40.07 -35.6)"/><path class="cc" d="M382.71,612.74c-2,5.24-.86,11.29-3.77,16.31C380,623.56,375.86,616.75,382.71,612.74Z" transform="translate(-40.07 -35.6)"/><path class="ek" d="M682.62,867.22c16-9.33,31-7.29,43.14,5.86,4.75,5.65,4.53,11.87,1.87,18.33-1.11,2.71-2.5,5.28-3.67,8-5.83,13.29-3.81,20.89,8.14,29.15A63.53,63.53,0,0,1,744.85,940c6.74,8.09,9.26,16.57,3.65,26.85-4.29,7.83-9.7,11.38-18.15,10-4-.67-7.85-2.24-11.94-2.26-6.81,0-9.2,3.21-7,9.92,1.22,3.69,2.66,7.33,4,11,2.26,6.42,2.11,13-3.41,16.86s-11.51,1.22-16.28-2.95c-5.51-4.81-10.26-10.51-15.36-15.8-10.36-10.72-16.77-12-30.18-5.83C640.83,992,632.07,998,621.34,998c-2.13,0-4.34.7-6.3-.81-19.59-7.16-23.71-28.66-9.07-47.31a68.52,68.52,0,0,1,9.83-7c10.22-6.47,10.58-11.55,1.58-19.58-.94-.84-1.5-2-2.37-2.94-7.11-3-8.67-9.47-7.08-16.06,1.65-6.8,8-7.27,13.68-7.48a18.17,18.17,0,0,1,12.27,3.64c-6.52,5.88-6.28,8.53,1.38,11.68,18,7.41,35.92-7.4,35.62-22.79-4.51,0-6,4.26-8.29,6.85-6.28,7-13.63,10.23-22.69,8.44-1.94-.39-4.66-.46-4.09-4,14.65,1.25,21.78-10.52,30.44-19.55,2.79-2.92,4.46-7.11,8.78-8.2,2.18.82,3.14,4.75,5.81,3.54C685.12,874.51,681.11,870.14,682.62,867.22Z" transform="translate(-40.07 -35.6)"/><path class="el" d="M851.67,833.32c2.83,20.41-7.66,40.58-26.77,51.46-19,10.8-44.1,8-60.08-7.32-12.76-12.23-20.59-26.86-17.05-46,2.31-20.57,14.85-32.38,31.78-39.74,28.43-12.35,63.21,5.36,70.86,32.13C851.3,827,852.88,829.93,851.67,833.32Z" transform="translate(-40.07 -35.6)"/><path class="em" d="M495.33,991.72c-7.67,3.62-13.44.24-16.94-6.54-4-7.71-3.41-15.48,3.74-21.5,4.6-2.68,7.23-5.71,5.91-12.27-1.62-8,3.67-13,10.91-11.92,1.1,2.79,1.31,7,5.84,5,4.87-2.13,9.45-4.87,9.62-11.42,0-1.21-.9-2.36-1.07-3.66,4.09-8.35,10.34-13.13,19.52-13.08,4.9,3.12,11.64,2.9,14.84,9.07,1.81,4.33.35,8.22-1.47,12-3.14,6.6-1.77,12.16,4.16,15.8,9.28,5.7,11,13.92,8.26,24a5,5,0,0,1-3.62,3.83c-2.65-1.37-5.48-.46-8.22-.71-6.12-.57-8.95,1.45-6.46,8.44a13.75,13.75,0,0,1-.16,10.41l0-.06c-6.51,2.8-12.16-.44-15.85-4.87C515.12,983.16,505.63,984.8,495.33,991.72Z" transform="translate(-40.07 -35.6)"/><path class="en" d="M532.86,916.37c-8.12,2-13.8,7.59-18.8,14.17-1.31,7.53-5.42,11.3-12.86,10.57-.71-.56-1.34-1.47-2.16-1.68-11.24-2.92-14.17-.16-13.31,12.4L480,955.39a10.27,10.27,0,0,1-2.18-1.67c-2.05-2.05-4.46-4.25-6.84-1.13s-.22,5.23,2.43,6.77a10.77,10.77,0,0,1,2.9,2.22c-8.68,24.54-29.27,30.22-49.95,27.15-8.41-1.25-16.7-1.29-25.07-1.44l-3.44,0-7.7-5.75.06-2c-1.75-4.29,1.52-6,3.82-8.17h18.69l1.2.29c5.88,2.08,11.77,3.26,17.68.12,8.38-2.45,16.55-5.31,22.41-12.69,5-1.69,4.14-7.53,6.87-10.83,2.39-3.85,5.77-7.12,6.46-12a6.67,6.67,0,0,1,1.37-2.35c11-10.53,25.4-15.94,36-27a12.29,12.29,0,0,1,5.38-4.29c7.7-3.64,13.32-11.43,22.37-12.41,9,1.76,18.36,2.24,26.76,6.74Z" transform="translate(-40.07 -35.6)"/><path class="eo" d="M615,997.19c10.18-.28,19.31-3.92,28.27-8.84,24.23-13.3,29.78-7.44,41.72,6.46,4,4.62,8.29,8.92,12.66,13.12,3.54,3.4,8.26,6.4,12.52,3.63,5-3.23,5.26-9.51,3.6-15.11-1.19-4-3.56-7.65-5.16-11.56-3.45-8.39-.32-13.51,8.45-13.22a38.18,38.18,0,0,1,12.75,2.45c6.31,2.51,11.41.75,14.89-4.41,3.72-5.52,7.08-11.59,3.83-19.11a41.73,41.73,0,0,0-16.79-19.16c-14.54-9.09-17.51-18.84-9.4-34.3,4.07-7.78,6.34-15.4,3.38-24.06,4-.3,6,1.72,5.57,5.8-.76,7.9,1.56,15.75-2.69,23.81-3.66,6.93,1.61,13.32,6,19,5.4,7,12.68,11.87,16.4,20.83,7.68,18.46-1.51,36.15-20.38,37-9.95.46-14.33,7.53-11,17.78,3.39,10.46-1.31,16.66-11.86,17.73-15.36,1.54-25.27-8.82-35.58-17.5-6.85-5.76-12.09-6.49-20.71-4.05C639.89,996.82,627.81,1003.54,615,997.19Z" transform="translate(-40.07 -35.6)"/><path class="ep" d="M851.67,833.32c-7.92-26.4-26.65-42.2-50.81-42.88-24.37-.69-43.49,14.09-53.09,41.06-2.08-15.86,5.49-28.17,15.55-37.68,32.22-30.48,80-13.46,89.32,31.19C853.24,827.85,854.12,830.83,851.67,833.32Z" transform="translate(-40.07 -35.6)"/><path class="eq" d="M635.81,900.64c11.61,4.4,19.45,1.89,27.42-8.74A50,50,0,0,1,668,886a4.37,4.37,0,0,1,5.25-.53c2,1.08,2.11,3.23,1.59,5.11-2.95,10.83-8.54,19.66-18.81,23.93-9.47,3.95-18.84,3.09-27.39-3.13-2.29-1.67-4.73-3.82-3.52-7.25,1.55-4.39,5.53-3.32,8.81-3.66C634.52,900.49,635.17,900.56,635.81,900.64Z" transform="translate(-40.07 -35.6)"/><path class="er" d="M559.19,897c-10,2-18.85-4.18-28.53-4.47,4.49-10.33,14.34-13.67,22.57-19.12,4,1,5.76-4.22,9.52-4,8,4.08,6.53,12.09,7.25,19.2l.57.36A19,19,0,0,1,559.19,897Z" transform="translate(-40.07 -35.6)"/><path class="es" d="M581.54,924.28c2.39-8.94,9.22-9.07,15.61-7.47,6.61,1.66,7.67,8,6.66,14.12-1.15,7.05-5.69,12-12.17,12.64-8.72.85-10.79-5.63-10.24-13.49,3.69-1,6.67,5.63,10.65,1.1a4,4,0,0,0,.81-4.41c-2.56-5.6-7-1.29-10.48-2.13A5.59,5.59,0,0,1,581.54,924.28Z" transform="translate(-40.07 -35.6)"/><path class="et" d="M615,920.32c4.78,2.39,11,2.75,11.44,10.69s-4.64,11.45-10.32,14.38c-3.3,1.69-6.77,3-10.17,4.49C612.65,941.27,617.92,932.18,615,920.32Z" transform="translate(-40.07 -35.6)"/><path class="eu" d="M485.73,951.83c-2.4-4.1-6.51-8.75-2.13-13.05,5.39-5.3,11.53-1.48,17.17,1.07a1.17,1.17,0,0,1-1.79.35c-8.34-1.34-9.79,7.17-8.72,10.67,2.85,9.31-1.67,11.21-8.13,12.81C484.44,960.1,487.36,956.72,485.73,951.83Z" transform="translate(-40.07 -35.6)"/><path class="ev" d="M558.65,977.28c1.12-10.73-1.55-18.77-11.82-23.91-6.08-3-6.55-9.93-3-16.11,2.14-3.7,4-7.34,3.84-11.81a8.94,8.94,0,0,1,1.56,9.2c-3.14,8.29-.73,14,5.39,19.72C561.29,960.53,563.29,968.49,558.65,977.28Z" transform="translate(-40.07 -35.6)"/><path class="ew" d="M581.54,924.28c.54-.3,1.1-.58,1.62-.91,4.12-2.54,8.29-5,11.88.71,2.44,3.88,1.53,7.47-1.8,10.17-5.75,4.67-8.7-.22-11.84-4.17C581.45,928.15,581.5,926.21,581.54,924.28Z" transform="translate(-40.07 -35.6)"/><path class="ex" d="M476.28,961.58c-5.1.41-9.44-.23-9.24-7.27.14-5,3-6.79,7.28-6.46s5.05,4,5.65,7.55Z" transform="translate(-40.07 -35.6)"/><path class="ey" d="M682.62,867.22c.69,1,1.33,2.15,2.08,3.16,3.32,4.42.79,7.83-2.62,9.36-6,2.71-5.89-3.13-7.05-6.85C676.56,869.51,679.87,868.79,682.62,867.22Z" transform="translate(-40.07 -35.6)"/><path class="m" d="M667.82,325c-.41-2.13-1.19-3.87-3.69-3.7-.85-4,3.88-8,0-12q1.7-6,3.38-12a12.16,12.16,0,0,1-1.57-8.46c2.53-13.84,2.38-27.92,3.44-41.89,1-3.05,1-6.52,2.75-9.21,1.61-2.46,3.68-3.56,5,.45-1.11,4.7-2.72,9.35-1.7,13.73,24.94-4.05,49.46-2,74-.15,9.58.73,19.15,1,28.75,2,25.56,2.79,27.93,20.25,25.62,38.6-1.91,15.23-6.68,29.76-10.68,44.47-6.89,1.7-13.1-2.51-18.3-5.07-14.88-7.33-30.38-8.79-46.13-11.45-9.79-1.65-19.45-2.37-29.22-3.34-6.88-.69-11.92,5.75-18.71,4,1.89-17.44,5.67-34.66,5.6-52.33,0-1.64.07-3.28,0-4.91-.21-3.55,0-8.31-4.14-8.63-3.84-.31-4,4.77-4.44,7.59-3,18.58-5.59,37.24-8.24,55.88C669.18,320.81,669.67,323.22,667.82,325Z" transform="translate(-40.07 -35.6)"/><path class="ez" d="M671.76,246.43a300.73,300.73,0,0,1-4.29,50.85,5.35,5.35,0,0,0-1.41.43c-1.84-4.86-6-3.92-9.67-4.33a8,8,0,0,1-2.59-7.09c2.6-20.09-.55-40.69,4.91-60.5,6.11-.95,13,5.07,13.5,12C672.4,240.65,672.63,243.59,671.76,246.43Z" transform="translate(-40.07 -35.6)"/><path class="fa" d="M152.26,640.36c.55,4.16-1.24,7.87-2,11.78-11.87-7.29-20.89-18.16-30.84-27.78-6.23-6-13.42-11.56-16.09-21.24C123.87,609.33,136.92,626.54,152.26,640.36Z" transform="translate(-40.07 -35.6)"/><path class="fb" d="M510.6,895c0-7.72-9.91-11.06-7.86-19.69,9.7-11.55,22.75-17.57,35.66-23.83,3.06,1.63,3.85,5.16,5.82,7.71.67,2.91,3.92,4.6,3.43,8.05a3.68,3.68,0,0,1-1.24,4.34c-10.65,7.84-20.7,16.61-32.18,23.17A4.61,4.61,0,0,1,510.6,895Z" transform="translate(-40.07 -35.6)"/><path class="fc" d="M538.4,851.44c-10.95,9.49-24,15.54-35.67,23.83-1.88-1.55-1.88-3.8-2-6L540.2,845.5Z" transform="translate(-40.07 -35.6)"/><path class="fd" d="M570.17,865.17c6.36-7,14.22-11.7,22.53-15.65,0,14.58-.9,15.55-14.29,15.63Z" transform="translate(-40.07 -35.6)"/><path class="fe" d="M570,888.61c-2.62-6.31-3.2-13.48-7.25-19.2,3-.51,3.88-5,7.48-4.26C569.4,873,574.27,880.84,570,888.61Z" transform="translate(-40.07 -35.6)"/><path class="ff" d="M671.76,246.43c2.16-10.81-7.06-15-11.56-21.84-4.07-3.34-5-7.25-2-11.87-1.07-7.88-8.72-1.55-11.44-5.86,4.06-3.52,10.37-3,13.44-8.25l3.49-1.82c-3.59,18.26,5,30.13,23.48,31.41,33.45,2.31,66.92,3.88,100.41.18,13.26-1.46,18.31-5.91,22.1-22,2.1-8.92,5.78-16.43,13.43-21.34-5.82,15.22-7.79,30.75-3.94,46.92.87,3.64,2.18,6,5.85,6.47-9.13,3.4-18.83,2.8-28.19,3.51-28.81,2.18-57.59-1.79-86.43-2.17-11-.14-22.2-1.17-33.32-1.57-1.57-1.63-3.12-2.5-3.89.65C672.62,241.32,672.24,243.89,671.76,246.43Z" transform="translate(-40.07 -35.6)"/><path class="fg" d="M759.49,187.14a324.81,324.81,0,0,0-59.84,3.77c-11.6,1.83-22.73,4.87-28.28,17.66-.75,1.73-1.81,3.9-4.08,3s-1.74-3.36-1.44-5.14c2.77-16.38,12.23-32.67,31.06-31.13,28.94,2.37,57.89,1.42,86.84,2,6.17.13,12.22,2.36,18.52,1.82,1.88-.16,4.31.35,4.42,2.61.15,3.08-2.62,3.26-4.75,3.19C786.36,184.47,771,188.94,759.49,187.14Z" transform="translate(-40.07 -35.6)"/><path class="fg" d="M43.42,562.1a26.53,26.53,0,0,1,6.2-18.19c19.88-24.69,34.88-53.1,53.7-78.61,3.32-4.51,8-13.2,11.45-10.48,4.49,3.57-3,9-5.5,13.4-14.08,25-29,49.43-42.65,74.68C59,557,51,572,61.12,588.84c.65,1.09,1.07,2.6-.27,3.49-1.9,1.26-3.59.26-5-1.14C48.09,583.49,42.93,574.51,43.42,562.1Z" transform="translate(-40.07 -35.6)"/><path class="fh" d="M1070.1,210.43c4.19,9.49,13.37,13.15,20.74,18.6,6.34,4.69,6.39,8.17,1.87,13.79-22.62,28.1-43.71,57.48-64.92,86.75-4.11,5.69-7.79,11.72-11.67,17.59l-12.71-8.62-11.57-9.62c10.54-18.49,22.7-35.84,34-53.82,12-19.09,24.6-37.72,36.61-56.79C1064.4,215.18,1065.7,211.06,1070.1,210.43Z" transform="translate(-40.07 -35.6)"/><path class="fi" d="M553.23,873.38c-5.86,8.54-16.16,11.29-22.57,19.12-7.81,2.29-12.42,10.74-20.8,11.92a3.47,3.47,0,0,1-.06-4l.45.19c5.15-9.13,15-12.16,22.23-18.61a156,156,0,0,1,17.43-12.85C551,870.55,552.12,872,553.23,873.38Z" transform="translate(-40.07 -35.6)"/><path class="fj" d="M549.91,869.13c-6.35,9.67-16.81,13.89-25.14,20.93-4.57,3.86-9.66,7.05-14.52,10.53.12-1.88.23-3.76.35-5.64,12.54-9,25.49-17.33,37-27.75Z" transform="translate(-40.07 -35.6)"/><path class="al" d="M918.74,267.81c-6.1,3.28-12.09,5.64-16.7-2.42-1-6.08.77-11.41,3.3-16.88,10.31-22.31,20.28-44.78,30.38-67.2A9.81,9.81,0,0,1,945,185c-.78,19.3-5.27,38-8.38,56.92-1.48,9-3.13,17.92-4.62,26.89a4.67,4.67,0,0,0,2,5.1c-8,6.78-10.43,5.81-13.52-5.47-.08-.29-.19-.78-.33-.79A6.17,6.17,0,0,0,918.74,267.81Z" transform="translate(-40.07 -35.6)"/><path class="fk" d="M645.12,53c-.35,27.65-4.55,55.11-3.7,82.82q-1,6.89-1.94,13.75c-1.87,2.61-3.55,5.62-7.47,3.91v0c-4-7.83-.41-16-.73-24-.62-15.53,3-30.9,1.37-46.57,1.59,17-1.81,33.57-1.74,50.44,0,4.85,2.38,12.53-3.62,13.55-5.58,1-4.12-7.43-6.48-11.25-.07-1.28-.15-2.56-.22-3.83-5.39-18.36,1.09-36.85-.81-53.4,0,5.43,0,12.71,0,20,0,2-.12,4.14-2.65,4.31-2.36.16-3.31-1.77-3.53-3.76a124.87,124.87,0,0,1-.25-16c-1.07,12.49,1.7,26.19.85,40-.12,2,.14,4-.28,5.89-.58,2.69-.23,6.88-4,6.56s-3.28-4.25-3.16-7.16c1-23.28-2.63-46.42-1.93-69.71.88-3.45,3.25-6,6.21-6.62C622.42,49.44,633.91,47.55,645.12,53Z" transform="translate(-40.07 -35.6)"/><path class="fl" d="M605.86,59c2.72,2.67,1.62,6.16,1.64,9.3.1,18.7,0,37.4.12,56.09,0,3.31-1,7.15,3.83,11.3V70.11L614,70c2.58,10-.15,20.76,3,30.95,3.16-9.63,1-19.86,3.64-29.67v60.54c-2.82-1.76-.64-5.61-3.1-8-2,15.28,1.89,30.63-4.11,45.27V138c-5.57,12-2.94,23.33-4.33,34l-2.47-.05V96.85l-2.7,0v39q0,15.72,0,31.44c0,2.7-.13,5.46-3.64,5.65s-5.06-1.77-5.63-5.17c-.69-4.06,1.43-8.57-1.78-12.22-2.48-2.09-2.7-5.08-2.71-8.05-.14-24.29-.25-48.58,0-72.87a11.54,11.54,0,0,1,1.18-4.71,2.73,2.73,0,0,1,2.79-1.68c2.61,1.94,2.89,5,3,7.89.64,17.68-.49,35.39.92,53.06a9.07,9.07,0,0,1-.25,3c-.22-21.94,3.59-44.84,3.94-68C602.31,61.75,603.42,59.78,605.86,59Z" transform="translate(-40.07 -35.6)"/><path class="fm" d="M661.91,177.2c.15,15.6.09,16.46-14.56,15.31-22.05-1.72-44.12-.92-66.16-1.84-3-4.75-3-9.87-1.75-15.17l24.24.1c14.82,1.33,29.67.19,44.51.61,3.38.09,6.81-.62,10.12.64Z" transform="translate(-40.07 -35.6)"/><path class="fn" d="M592.83,69.06q0,43.25,0,86.49a16.35,16.35,0,0,0-.2,1.85c-4.25,4.54-5,.84-5.43-2.7-.89-6.88,1-13.65.87-20.53-.22-18.17-.08-36.34-.11-54.51,0,18.16-.1,36.31,0,54.47,0,7.54-1.15,15-1.19,22.51,0,3.53-1.12,7.2-5.4,2.79h0a7.13,7.13,0,0,1-2.29-5.2c.8-30.64-4.12-61.17-1.63-91.84C585.25,57.74,588.3,65.3,592.83,69.06Z" transform="translate(-40.07 -35.6)"/><path class="fo" d="M560.62,157.64c-1.16.26-3-5.62-3.37.21-.23,4,3.12,8,.57,12.31-4-.62-2-4.1-2.86-6.13-.48-1.14-1.07-2.88-1.92-3.12-8.42-2.36-10.8-6.45-9.3-16.3a38.35,38.35,0,0,0,.15-4.92c5.2,0,2.7,5.08,3.9,6.7.58-12.1-5-24.59-1.23-37.58,3.09-9.74,2.51-20,4-30,.51-3.48.27-7.13,3.6-10.72,4.47,4.18,4.47,9.73,5.39,14.86-.07,22.57,1.68,45,3,67.54a12.56,12.56,0,0,1-.74,5.79Z" transform="translate(-40.07 -35.6)"/><path class="fp" d="M572,137.71c-3.65,6.77-2,14-1,20.9.55,3.9,1.36,7.55-.12,12.87-6.84-10.57-3.24-21.6-6.61-31.58V170c-4.57-3.67-3-8.26-3.65-12.38l.21-.34c.94-13.22-.14-26.43-.51-39.64-.29-10.68-1.38-21.36.71-32,2-3.47,4.49-5.92,8.69-5.35,5.59,10.3,4.18,21.88,4.79,32.92C575,121.31,577.12,130.07,572,137.71Z" transform="translate(-40.07 -35.6)"/><path class="fk" d="M572,137.71c.89-17.63-1.26-35.14-2-52.7-.06-1.46-1.08-2.88-1.65-4.32-1.23-5.85,2-10.27,4.56-14.79,1.09-1.91,2.89-2.09,4,.38,3.3,17.47.73,35.2,2.24,52.79.91,10.66,1.8,21.48,1.12,32.28-.13,2.1,1,5.13-1.67,5.91-2.47.72-3.63-1.89-4.7-3.9C573.77,148.09,570.94,143.17,572,137.71Z" transform="translate(-40.07 -35.6)"/><path class="fl" d="M620.82,135.66l6.35,10.43,1.91-.07q1.77-32.67,3.52-65.34c3.15,24.33-2.23,48.51-.58,72.79-2.84-1.19-3.76-.2-3.82,3-.08,4.56,1,9.38-1.24,14.3-4.31-3.48-1.13-8.1-3.28-11.41-2.53,3.24.61,7.77-3.33,11.58C616.1,158.65,622.25,147.11,620.82,135.66Z" transform="translate(-40.07 -35.6)"/><path class="fp" d="M574,153.36c4.75,4.43,6.19,2.33,5.44-3.22-3.83-28.36.47-57.12-3.83-85.45-2-2.65-2.31-5.83.46-7.41,2.13-1.21,3.93.69,3.3,3.7l2,98.44c-3,2.55-1.41,6.1-1.86,9.21-.23,1.57-.08,3.54-2.24,3.57a3.09,3.09,0,0,1-3-3.13C574,163.84,574.07,158.6,574,153.36Z" transform="translate(-40.07 -35.6)"/><path class="fl" d="M581.36,159.43c5.45,2.22,3.6-2.34,3.87-4.72,2.72-23.52,1.61-47.14,1.84-70.73,0-2.26,0-4.51,1.79-6.82q0,14.1,0,28.21c0,15.77-.12,31.54,0,47.3,0,2.22-1.85,7,3.76,4.73,0,3.57,0,7.14,0,10.71,0,3-.52,5.44-4.24,3.8-2.11-.93-6.9,2.7-5.71-4.07C583.15,165.22,581.85,162.25,581.36,159.43Z" transform="translate(-40.07 -35.6)"/><path class="fq" d="M547.64,110.11c.88,14.59,1.75,29.19,2.65,44.21-4.9-3.75-2.74-10.65-6.4-14.63-4-7.16.26-15.74-3.5-23,.4-8.77-1.92-17.72,1.47-26.31C546.12,96.23,545.68,103.56,547.64,110.11Z" transform="translate(-40.07 -35.6)"/><path class="fr" d="M572.13,190.79c-1.52,0-3,.11-4.56.08-15.27-.33-14.56,3-14.15-15.49l18.77.23C575.66,180.69,575.33,185.75,572.13,190.79Z" transform="translate(-40.07 -35.6)"/><path class="fl" d="M632,153.45l7.47-3.91c-.05,5.55.09,11.12-.23,16.65-.21,3.51-2.62,5.21-5.84,4.79-3.68-.48-2.88-3.09-2.39-5.89C631.69,161.27,631.71,157.34,632,153.45Z" transform="translate(-40.07 -35.6)"/><path class="fs" d="M572.13,190.79l.06-15.18,7.25-.11c3,4.76,1.42,10.08,1.75,15.17A15.79,15.79,0,0,1,572.13,190.79Z" transform="translate(-40.07 -35.6)"/><path class="ag" d="M658.31,176.85c-18.22,0-36.47,1.6-54.63-1.25C621.9,175.59,640.16,173.6,658.31,176.85Z" transform="translate(-40.07 -35.6)"/><path class="ft" d="M1070.1,210.43q-36.22,56.19-72.43,112.41c-1.59,2.46-3.06,4.93-5.83,6.08l-2.06-1.74c22.69-38.7,47-76.29,71.62-113.62,1.79-2.72,4-5,4-8.58,5.45-3.9,7.51-10.33,10.71-15.9a8.11,8.11,0,0,1,5.62,3.91c-.34,7.08-5.1,11.26-9.34,15.78Z" transform="translate(-40.07 -35.6)"/><path class="fu" d="M263.06,214.86c-.65-12.09-.16-24.1,2.59-35.9,1.36-5.81,2.82-10.15,9.62-4,6,5.42,11.39,2.4,11.82-5.84.35-6.52.15-13.07.2-19.6,7.48,26.87,14.14,53.92,14.84,82.15.11,4.27.65,9.54-4.13,10.9-4.44,1.27-8-1.78-10.79-5.91-5-7.52-8.13-16-11.72-24.3.26,15.82,8.95,28.37,16,43-6.52-.42-9.08-4-12.15-7.69C271.36,238.06,268.91,225.56,263.06,214.86Z" transform="translate(-40.07 -35.6)"/><path class="fv" d="M292.79,125.79c5.73,4.66,8,11.53,10.62,18.23,0,4.23.69,9.69-3.88,10.92-4.9,1.31-6.27-4.36-8.07-8a66.82,66.82,0,0,1-4.78-13.8C285.12,126.85,287.64,125.39,292.79,125.79Z" transform="translate(-40.07 -35.6)"/><path class="aj" d="M328.47,230c1.24,10.58,4.26,20.93,3.4,33.52C325,252,324,241.36,328.47,230Z" transform="translate(-40.07 -35.6)"/><path class="fh" d="M442.63,187.08c6.62.81,13-1.19,19.21-2.77,5.79-1.48,6.7.38,7.41,5.77q5.82,44.34,12.42,88.57c.78,5.2-3.23,4.56-5.09,6.56l-3.78.85-9.58.95c-6-4.08-3.88-11.25-5.34-16.87-6-23-9.74-46.54-14.9-69.75C442.05,196.21,439.85,191.58,442.63,187.08Z" transform="translate(-40.07 -35.6)"/><path class="fw" d="M658.24,212.72c-.66,4.19,1.27,7.91,2,11.86l-3.81,68.8c-25.68,1-51.35.18-77-.4-3.32-3.8-2.58-8.57-2.62-13.06-.14-14.87,0-29.75-.8-44.64-1.56,14.51-.85,29.08-1.16,43.61-.11,4.79.89,9.9-2.6,14.05h-16.7c0-23.6-2.42-47.1-2.45-70.73,0-9.87,2.94-13,11.66-11.56a54.79,54.79,0,0,0,7.48.25c2.46,2.81,5,9.27,7.26-.11C605.67,213.13,632,212.28,658.24,212.72Z" transform="translate(-40.07 -35.6)"/><path class="bl" d="M660.24,198.61c.76,12.19-8.26,6.75-13.44,8.24l-67.32-.19a22.23,22.23,0,0,1-.06-11.59l74.78,1.76C656.35,196.88,658.63,196.49,660.24,198.61Z" transform="translate(-40.07 -35.6)"/><path class="fx" d="M572.22,206.42c-4.29,0-8.57.09-12.86.09s-6.05-2.12-6.08-6.57c0-4.65,2.66-5.12,6-5,4.29.11,8.58.14,12.86.2C574.87,198.86,575,202.63,572.22,206.42Z" transform="translate(-40.07 -35.6)"/><path class="fy" d="M572.22,206.42c0-3.77,0-7.55-.05-11.33l7.25,0c2.4,3.85,2.22,7.71.06,11.59Z" transform="translate(-40.07 -35.6)"/><path class="fz" d="M579.44,210.8c1.22,2.62,2.94,5.36,1,8.17-1.5,2.19-3.32-.16-5-.44-4.68-.77-3.35-4.52-3.29-7.62Z" transform="translate(-40.07 -35.6)"/><path class="bl" d="M324.62,293.68c.17-.27.28-.66.52-.79,21.19-11.38,21.21-11.39,29.71,11.16,9.24,24.5,17.18,49.55,27.61,73.55l-11,6.53-7.42,2-.65-.52c-5.5-5-6.76-12.4-9.79-18.77-10-21.11-18.7-42.91-28.63-64.08C323.58,299.85,321.82,296.81,324.62,293.68Z" transform="translate(-40.07 -35.6)"/><path class="ga" d="M317.25,151.63c22.94,20.75,32.17,59.68,21.07,85.13-2.93-14.59-4-29.12-7.35-43.32C327.68,179.57,322.37,166.61,317.25,151.63Z" transform="translate(-40.07 -35.6)"/><path class="gb" d="M337.85,267.79c5.71.49,6.65,5.35,7.13,9.68.57,5-4.45,4.41-7.1,6-5,3-11.22,3.36-15.38,8.13-4.67-3.51-7.3-7.87-5.41-14.15l13.23-7.38Z" transform="translate(-40.07 -35.6)"/><path class="fr" d="M1072.44,208.77c1.09-6.58,6.23-10.52,9.34-15.78l28.39,21.51c.56,6.61-5.24,9.27-7.88,13.89-1.3,2.28-3.2,1.63-4.81.4C1089,222.33,1079.56,217.14,1072.44,208.77Z" transform="translate(-40.07 -35.6)"/><path class="gc" d="M442.63,187.08q9.58,48.16,19.2,96.31a23.08,23.08,0,0,0,1.39,3.62l-1.75.75c-6-5.15-4.78-13.1-6.29-19.75-7-30.67-13.24-61.52-19.71-92.31a18.9,18.9,0,0,1,0-3.91l3.44-.42c5.5,4.1,3.66,10.14,3.73,15.67Z" transform="translate(-40.07 -35.6)"/><path class="gd" d="M442.61,187c-3-4.76-1.19-10.79-3.73-15.67l4.3-1.69,18-2.85c5.44.73,5.81,4.86,5.87,9.38.06,5.72-4.4,4-7.21,5.29C454.3,184.12,447.12,181,442.61,187Z" transform="translate(-40.07 -35.6)"/><path class="ge" d="M451.9,80.79l2,11.59c-1.81,2.59-4.06,6.52-6.8,2-3-4.92-4.38-11.54-1.48-16.61C447.65,74.34,449.92,79.25,451.9,80.79Z" transform="translate(-40.07 -35.6)"/><path class="gf" d="M547.64,110.11c-6.77-5-4.37-13-5.78-19.68.52-13.77-2.92-27.37-1.66-41.17.23-2.5-1-5.64,1.48-7.28,2.87-1.87,4.43.74,6,2.84.52.68,1.93,1.59,2.16,1.39,10.18-8.72,11.76,4.63,17.65,7.94,3.79-9.1,8.21-13.64,18.86-8.9,3.76,1.68,11.74-3.11,17.84-2,17.37,3.26,34.83,1.13,52.24,1.65,1.73,1.42.24,2.62-.23,3.89-2.85,3.88-7,3.88-11.1,4.16h0c-8.12,0-16.24.18-24.34-.12-5.95-.22-11.06,1.1-14.92,6.14l-2.16,3.69c-2,3.93-4.11,7.67-9.34,6.29l-.77-.06-.76.14c-5.66-.51-9-5.29-13.44-8.07-.82-.83-2.11-2.53-2.37-2.37-2.33,1.43-.81,4-1.39,6.08l-7.21,16a5.47,5.47,0,0,1-5.61,4c-2.85,1.77-4.45.29-5.58-2.38-.93-3.74-1.86-7.47-3.52-14.09-.84,12.43-1.57,22.07-2.12,31.72C551.37,103.89,551.89,108,547.64,110.11Z" transform="translate(-40.07 -35.6)"/><path class="gg" d="M645.12,53c3.08-3.21,7.62-2.14,11.1-4.16Q652.54,73.44,648.84,98c-.72,4.72-1.63,9.42-2.88,16.61-2.71-19,2-35.14,1-51.43C646.71,59.75,648.17,55.91,645.12,53Z" transform="translate(-40.07 -35.6)"/><path class="aq" d="M465.57,95.94c-.25,7.86,3.22,14.9,4.49,22.44,2,11.87.77,23.05-5.8,33.46-.31-11.14,1.21-22.25-.84-33.29-.88-4.76.7-9.84-1.17-14.59-1.53-3.87.28-6.24,3.32-8Z" transform="translate(-40.07 -35.6)"/><path class="gh" d="M843.78,222.49c-2-6.66-3.81-13.37-6-20-.88-2.65-1.65-5.59-4.54-7-1.18-.6-4.64,1.69-3.3-2.11.92-2.64,3.38-2.44,5.33-.53,5.45,5.38,7.62,12.38,8.46,19.89a87.85,87.85,0,0,1,.06,9.74Z" transform="translate(-40.07 -35.6)"/><path class="gi" d="M317.09,277.45q2.71,7.07,5.41,14.15l2.12,2.08c3.35,14.38,11.26,26.7,16.61,40.19,6.92,17.45,14.71,34.51,22.12,51.74-3.93.87-4.62-2.58-5.78-5.05-13.36-28.37-26.45-56.87-38.09-86.06-2.11-5.31-6.52-9.76-5.89-16.18Z" transform="translate(-40.07 -35.6)"/><path class="gj" d="M572.19,292.94c-.07-19.32,0-38.64-.29-58-.06-4.43,1.34-7.41,5.5-7,4.39.43,2.17,4.7,2.18,7.06.11,19.31-.1,38.63-.21,58Z" transform="translate(-40.07 -35.6)"/><path class="gk" d="M502.51,555.13c.58-7,5-10.94,10.66-13.37,8.29-3.53,17.64-4.26,24.85-10.66,1.19-1.05,3-1.57,4.32-.37,2,1.75.49,3.73-.37,5.27-4,7.2-10.42,11.07-17.65,13.67-4.85,1.75-9.28,4.08-11.66,9.14-1.29,2.76-1.28,7.31-5.78,5.46C503.35,562.83,502.3,559.15,502.51,555.13Z" transform="translate(-40.07 -35.6)"/><path class="gl" d="M495.15,798.15c2.8-.38,5.34-5.26,8.16-1.53s-.58,6.82-3.07,9c-3.78,3.31-7.75,6.65-12.14,8.86-7.32,3.66-14.32,6.61-17.85,15.7-2.36,6.08-6.66,1.8-7.95-1.76-2.74-7.57-.67-13.79,6.22-18.39,6.48-4.33,14.36-3.81,21-7.59,2.16-1.23,4.75-1.55,5.74-4.38Z" transform="translate(-40.07 -35.6)"/><path class="gm" d="M391.27,607.78c10.28-3.68,17.54-8,19.9-17.85a3.13,3.13,0,0,1,4.64-1.82c1.9,1.11,1.9,2.84,1.56,5C415.9,602.64,405.36,609.42,391.27,607.78Z" transform="translate(-40.07 -35.6)"/><path class="gn" d="M365.7,666.31c-1.75-1.72-1.74-4-1.67-6.22,2.8-1.56,5.64-3.27,8.27.19a4.39,4.39,0,0,1,.49,4.6C371.06,668.75,368.34,667.33,365.7,666.31Z" transform="translate(-40.07 -35.6)"/><path class="go" d="M319.09,809.76c-1.63-3.17-3.56-6.69.85-8.84,2.74-1.34,4.93,1.25,5.42,3.63,1.12,5.4-2.81,5.19-6.22,5.23Z" transform="translate(-40.07 -35.6)"/><path class="gp" d="M465.16,904.46c.66,5.07,4.55,3.75,7.53,4.22,3.17,2.23,5.8-.43,8.54-1.22,3.63-1,7.06-2,10.36.74-4.52,10-12.79,14.8-22.29,17.95-4.28-.53-7.73-2.74-10.7-5.91-1.81-5.1-8.83-8.3-5.1-15.42C457.29,901.06,461.18,901.27,465.16,904.46Z" transform="translate(-40.07 -35.6)"/><path class="gq" d="M454.08,948.09c-7.85,8.72-10.07,8.8-15.24-.55-1.52-2.74-3.29-3.34-5.73-3.68s-5.2.15-5.17-3.76c.36-.6,3.94.19.76-1.92a28.83,28.83,0,0,0-3-1.53c2.4-3,4.92-2.81,7.52-.3,2.33,2.7,4.52-.1,6.78-.21,5.93-.28,12.65-1.66,9,8.63,4,1.09,4.71-3.64,7.78-3.29C457.84,944.61,454.27,945.59,454.08,948.09Z" transform="translate(-40.07 -35.6)"/><path class="gr" d="M458.6,920.24c4.37-1.06,6.73,3.43,10.45,4.18a8.29,8.29,0,0,1,2,5.71,9.4,9.4,0,0,1-2.24,5.61,14.51,14.51,0,0,1-1.48.55c-4.65.26-9,.55-11.9-4.86S458,924.06,458.6,920.24Z" transform="translate(-40.07 -35.6)"/><path class="gs" d="M465.16,904.46l-11.66.36-1.58-2.16c4.88-5.32,10.28-5.24,15.92-1.57,1.5,1,3.47,2.41,1.52,4.41C468.81,906.06,466.61,904.86,465.16,904.46Z" transform="translate(-40.07 -35.6)"/><path class="gt" d="M433.24,936.35l-7.52.3c-2.46-2.76-3.22-5.9.23-8a6.82,6.82,0,0,1,7.87.4C436.35,931.3,435.92,934.13,433.24,936.35Z" transform="translate(-40.07 -35.6)"/><path class="gu" d="M491.63,908.64a26.62,26.62,0,0,0-13.37,1.47c-1.66.65-4.74,3.21-5.57-1.44,4.08-1.36,8.38-2.2,11.77-5.29.45-.41,1.15-1,1.59-.89,8.15,2.07,15.75-2.58,23.75-2.09l.06,4-3.94,3.77c-2.42,2.5-5.55,2.54-8.63,2.78C495.18,910.82,493.13,910.45,491.63,908.64Z" transform="translate(-40.07 -35.6)"/><path class="gv" d="M776.38,652.3c4.12.1,9.14-1.6,10.46,4.76a5.3,5.3,0,0,1-4.47,6.33c-9.93,1.36-4.83-6.84-6-11.1Z" transform="translate(-40.07 -35.6)"/><path class="gw" d="M656.55,606.76c-.13-3.23-.71-6.5.62-9.63,2.79.45,6.38-1.69,8.09,2.21a7.13,7.13,0,0,1-.66,7.27C662,610,659.26,608.45,656.55,606.76Z" transform="translate(-40.07 -35.6)"/><path class="gx" d="M499,940.2c.6-.09,1.2-.21,1.79-.35,6.89.78,9.37-5.4,13.29-9.31,4.72,0,4.23,3.7,2.92,6.11-3.16,5.8-7.54,10.45-14.41,11.17-2.15.22-4.65.45-5.93-1.84C495.13,943.28,498.47,942.27,499,940.2Z" transform="translate(-40.07 -35.6)"/><path class="gy" d="M497.38,908.83l8.54-.64c-2.19,5.7-7.87,7-12,10.11-8.13,6.19-16.74,11.67-25.15,17.44.23-1.88.45-3.77.67-5.65C477.26,920.82,487.31,914.81,497.38,908.83Z" transform="translate(-40.07 -35.6)"/><path class="fk" d="M594.36,69l9.34-6.29c1.28,25.22-2.82,49.95-5.9,74.81C593.08,114.78,595.05,91.8,594.36,69Z" transform="translate(-40.07 -35.6)"/><path class="gz" d="M557.23,82.35l5.58,2.38c0,20.82,0,41.65-.21,62.47,0,3.4,1.34,7.23-1.77,10.1C558.83,132.35,556.17,107.45,557.23,82.35Z" transform="translate(-40.07 -35.6)"/><path class="ha" d="M644.53,224.54a4.25,4.25,0,0,1-4.53,3.88c-3.08.07-4.5-1.69-4.15-4.87.27-2.49,1.55-4.57,4.06-4.23S644.19,221.61,644.53,224.54Z" transform="translate(-40.07 -35.6)"/><path class="hb" d="M497.38,908.83c-7.8,9.28-19.06,13.53-27.93,21.26q-.19-2.83-.4-5.67c8.95-3,15.15-10.37,22.58-15.78Z" transform="translate(-40.07 -35.6)"/></svg>