<svg xmlns="http://www.w3.org/2000/svg" width="876.13" height="970.59" viewBox="0 0 876.13 970.59"><defs><style>.a{fill:#13110f;}.b{fill:#1b1a17;}.c{fill:#101916;}.d{fill:#1a110e;}.e{fill:#fff;}.f{fill:#1d2222;}.g{fill:#171916;}.h{fill:#83b3af;}.i{fill:#8aaba9;}.j{fill:#85b7b2;}.k{fill:#181d19;}.l{fill:#0f1c1d;}.m{fill:#1a2a28;}.n{fill:#1a1d18;}.o{fill:#0c1510;}.p{fill:#f9e9d1;}.q{fill:#c7503e;}.r{fill:#542320;}.s{fill:#954040;}.t{fill:#3e1806;}.u{fill:#3d110c;}.v{fill:#3e1812;}.w{fill:#1f1610;}.x{fill:#462924;}.y{fill:#410803;}.z{fill:#ac5652;}.aa{fill:#c68082;}.ab{fill:#e84733;}.ac{fill:#74adba;}.ad{fill:#1b1e19;}.ae{fill:#425051;}.af{fill:#4b6165;}.ag{fill:#7ea7b2;}.ah{fill:#9fb9c0;}.ai{fill:#0d282c;}.aj{fill:#0e1f28;}.ak{fill:#22160c;}.al{fill:#261f1c;}.am{fill:#2e0e0a;}.an{fill:#201918;}.ao{fill:#3f0f0d;}.ap{fill:#401211;}.aq{fill:#b63435;}.ar{fill:#bb3229;}.as{fill:#261d17;}.at{fill:#c92e27;}.au{fill:#2f180f;}.av{fill:#3d1410;}.aw{fill:#ca656c;}.ax{fill:#8c3b32;}.ay{fill:#ee595c;}.az{fill:#aaaaae;}.ba{fill:#871f20;}.bb{fill:#6e292f;}.bc{fill:#e8e7e8;}.bd{fill:#dddade;}.be{fill:#872a36;}.bf{fill:#2e1815;}.bg{fill:#ae3736;}.bh{fill:#c8c8c9;}.bi{fill:#2c1712;}.bj{fill:#361910;}.bk{fill:#3f160b;}.bl{fill:#2a2d30;}.bm{fill:#dae6df;}.bn{fill:#db352b;}.bo{fill:#c23e3a;}.bp{fill:#982528;}.bq{fill:#49120f;}.br{fill:#5e120d;}.bs{fill:#cd616d;}.bt{fill:#c75d7b;}.bu{fill:#650e13;}.bv{fill:#27140e;}.bw{fill:#744746;}.bx{fill:#181819;}.by{fill:#161c1a;}.bz{fill:#160f0d;}.ca{fill:#150a08;}.cb{fill:#131111;}.cc{fill:#0b070a;}.cd{fill:#170d0b;}.ce{fill:#1f1c1d;}.cf{fill:#aeacb0;}.cg{fill:#94969d;}.ch{fill:#0f0c0f;}.ci{fill:#a8aaaf;}.cj{fill:#979395;}.ck{fill:#a1a0a2;}.cl{fill:#aeabab;}.cm{fill:#101f13;}.cn{fill:#0b130b;}.co{fill:#131f16;}.cp{fill:#18140b;}.cq{fill:#0e1d0d;}.cr{fill:#111f12;}.cs{fill:#0c2214;}.ct{fill:#82ba96;}.cu{fill:#8ab69d;}.cv{fill:#deebe0;}.cw{fill:#376653;}.cx{fill:#8db29b;}.cy{fill:#0f2014;}.cz{fill:#cae1cf;}.da{fill:#648e76;}.db{fill:#92a195;}.dc{fill:#346953;}.dd{fill:#6c947e;}.de{fill:#6a937c;}.df{fill:#868d86;}.dg{fill:#8f9b91;}.dh{fill:#3f614f;}</style></defs><title>sf</title><path class="a" d="M651.26,741.69c-1.28,7.87-2.57,15.74-4.31,26.4-8.72-9.44-125.66-175.41-148.5-207.34-4.66-6.51-14.37-22.14-19.21-34.15a38.25,38.25,0,0,1-2.8-9.8c.39-6.6,7-4.33,14.06-5.86.06,0-.21-7.9,2.57-3.82h0v0c9.35,13.74,21.28,33.74,29.62,45.6,8.09,11.51,16.24,23,25,34q44.77,71.09,91.19,141.09c-10.58-44.9-30-85.91-55.3-125C560,566.36,524.7,517,505.75,476.3h0c-.73-1.58-1.45-3.14-2.13-4.69-.13-7,13.49,1.34,21.79.36,28.15,43.1,110,176.86,118.33,203.07C650.72,697,654.61,718.8,651.26,741.69Z" transform="translate(-108.4 -72.55)"/><path class="b" d="M385.77,98c41.17-37.52,89.6-33.44,137.66,11.58,12.15,23.16,20.43,46.71,7.28,72.41-8.2,4.61-14.55,3.75-17.92-6-1.65-9-.06-18.12-1.54-27.13-5.22-31.83-32.32-55.08-65-55.61-29.09-.47-50.75,20.54-57,54-6.84,36.76,10,66.22,28.46,95.12,8.12,12.71,18.34,24,25.69,37.33,10.71,19.4,12.51,38.54-.78,57.57-6.12,3.26-12.2,7.33-18.93,1.18,9.34-34-7.27-56.31-29.53-80.43-35.62-38.61-39.92-86.28-24.86-135.92C372.31,112.24,379.61,105.54,385.77,98Z" transform="translate(-108.4 -72.55)"/><path class="c" d="M504.06,426.11c-.19,15.19,13.73,30.56,21.34,45.85l-6.28,10.92c-7.24,1.89-10.68-2.07-13.37-6.58h0c-1-1.69-1.91-3.46-2.86-5-4.68-7.65-10.74-13.66-17.47-19.13q-1.87-1.53-3.81-3a15.33,15.33,0,0,1-2.7-8.48c0-.5,0-1,0-1.52v-.07c13.44-32.38-1.4-64.05-3.46-95.87-1.55-23.74-2.88-46.91,5-69.26,10.94-31,17.24-63.82,35.85-91.75.44-.67.89-1.34,1.35-2l13,1.8c-7.43,21.63-13.85,43.67-22.5,64.8-15,36.62-16.7,74.31-11.54,112.7C499.65,381.62,504.34,403.12,504.06,426.11Z" transform="translate(-108.4 -72.55)"/><path class="d" d="M465.23,797.51c-.08,1.53-20.61,39-26.62,27.52a2,2,0,0,0-1.46-2.47c-35.44-48.86-36.66-105-34.63-161.92q3.83-106.78,7.36-213.58c10-2.78,15.68.73,18.85,8a34,34,0,0,1,1.94,6.11c1.86,19.7-1.74,39.1-3,58.64C423.05,592.8,421,665.85,425,739c.95,17.62,6.54,33.91,15.49,51.23,4.73-41.27,17.64-199.65,17.81-239.56,0-5.46-1.1-24.42-.37-37.09.27-4.82.82-8.73,1.79-10.64,7.73-5.59,13,26.26,16,31.62C475.83,542.25,463.53,775.86,465.23,797.51Z" transform="translate(-108.4 -72.55)"/><path class="e" d="M458.25,550.63c-.17,39.91-13.08,198.29-17.81,239.56C431.49,772.87,425.9,756.58,425,739c-3.94-73.11-1.9-146.16,2.74-219.16,1.24-19.54,4.84-38.94,3-58.64a34,34,0,0,0-1.94-6.11c11.46-7.71,19.63,2.72,28.7,8.5,4.47,10.16-.14,20.5.55,30.72.42,6.3-.77,13-.1,19.27C457.15,526.21,458.27,545.17,458.25,550.63Z" transform="translate(-108.4 -72.55)"/><path class="e" d="M638.87,727.83q-46.33-70.05-91.19-141.09c-8.73-11-16.88-22.48-25-34-8.34-11.86-20.27-31.86-29.62-45.6v0h0c-2.59-5.21-6.62-10.05-7-15.84-2.45-13,4.41-26.26-.64-39.14,6.73,5.47,12.79,11.48,17.47,19.13.95,1.56,1.85,3.33,2.86,5h0c19,40.69,54.28,90.06,77.82,126.49C608.86,641.92,628.29,682.93,638.87,727.83Z" transform="translate(-108.4 -72.55)"/><path class="f" d="M494,521q-2.91,5.44-5.83,10.88c-3.5-4.24-6.57-6.5-8.88-5.24-1.58.85-2.8,3.33-3.57,7.92l-10.89-7a20.62,20.62,0,0,1-6.9-14c-.67-6.3.52-13,.1-19.27-.69-10.22,3.92-20.56-.55-30.72-9.07-5.78-17.24-16.21-28.7-8.5a26,26,0,0,0-3.39,2.73c-1.55-8.77-11.93-4.8-15.46-10.72-5.65-21.62-20.26-34.39-37.17-49.15-48.23-42.11-116.58-58.75-150.15-118.82.38-5,1.34-9.72,6.26-11.76a.85.85,0,0,1,.22-.09,13,13,0,0,1,1.73-.54c37,38.66,89.74,55.23,128.75,91.13,3.33,3.08,6.5,6.13,10.28,1.56.19-.25.4-.51.6-.8.27-1,.51-1.91.7-2.85h0c5.1-22.82-6.33-41.33-16.9-60-3.21-5.66-6.45-11.31-9.9-16.83h0c-.87-1.41-1.76-2.82-2.67-4.21-.27-.41-.54-.81-.8-1.22C327.92,254,314.62,234.73,310.54,211c0-.73,0-1.46,0-2.19,0-2.35-.17-4.71-.22-7h0c-.13-7,.53-13.75,6.66-19.29,24.88,42.32,50,84.49,74.45,127.06,6.14,10.7,13.8,19,24.34,25,3.9-.83,6.15,1.13,8,3.77l.32.45s0,0,0,0c.23.35.46.71.68,1.07l.46-.18c4.72-1.84,9.35-4.2,14.67-2.2.32.27.62.53.9.8,6.49,6.23,2,13.33.59,20-10.53,49-4.46,62.89,37.54,80.87l2.82,1.2,2.91,10.08c.28.58.53,1.15.75,1.73,5,12.88-1.81,26.17.64,39.14.4,5.79,4.43,10.63,7,15.84h0v0C495.14,511.28,496.28,515.67,494,521Z" transform="translate(-108.4 -72.55)"/><path class="g" d="M229,267.56q-3.19,5.76-6.4,11.53c-28.74-39.35-39.38-83.59-35.72-131.72q4.93-12.48,9.85-25c14.47-13,29.73-23.87,50.08-26.51,25.9-3.37,43.89,6.1,52.59,30.86,6.45,18.34,11.78,37.08,17.61,55.64l-2,29.34c-17.73-10.14-18-30.38-26.2-46-4.52-8.58-6.91-18.31-11.92-26.83-7-12-14.12-24.56-30.83-22-17.49,2.71-31.22,11.07-36.36,29.61-8,28.67-6.36,56.3,5.67,83.92C220.5,242.47,232.9,252.17,229,267.56Z" transform="translate(-108.4 -72.55)"/><path class="h" d="M481.75,440.33c-30,4.33-55.13-23.25-50.85-56.92,2-15.46,5.94-30.66,9-46,13.27-28.39,5.38-52.95-14.26-74.86C408.73,243.73,397,222,387.92,198.66c-10.12-26-8.93-52,2.6-76.9,13.51-29.13,41-41.41,71.16-33.95,34.1,8.42,57.94,38,57.78,72.13,0,6.75-1.15,13.49-1.77,20.24-5,19.77-9.64,39.68-18.6,58.11-24.51,50.41-21,102.39-9.84,155.07C492.71,409.69,495.19,426.43,481.75,440.33Z" transform="translate(-108.4 -72.55)"/><path class="i" d="M229,267.56c-22.47-36.6-38.82-74.35-27-119,5.38-20.34,17.33-32.57,37.11-38.33,15.61-4.54,27.34-1.57,36.44,13.29,17,27.77,25.39,59.24,39.43,88.24,6.74,21.24,19.82,39.2,30.22,58.56-2.92,11,4.65,28.51-17.28,27.58.23-29.25-16.09-52.38-28.6-76.9-9.91-19.43-20.14-38.58-27.51-59.33-9.39-26.43-20.83-29.42-43.3-13.85-26.09,30.48-7.68,60.16,3.31,88.65,10.58,27.44,36.62,40.9,60.27,55.68,3.63,10.27,13.12,13.32,21.47,18.31,24.23,14.45,51,26.26,62.49,55.23-11,4.11-11.49,4.61-18.85-3-14.94-15.48-32.65-27.1-51.72-36.19C275.57,312.25,250.75,292,229,267.56Z" transform="translate(-108.4 -72.55)"/><path class="j" d="M376,365.68c-22.48-23.24-46.77-43.94-77.62-55.47-6.46-2.42-9.73-6.69-7.4-13.88,5.08-6.82,12.19-4.48,18.85-4.23,6.6,1,13.52.81,19.18,5.23,16.43-2.4,3.29-22.48,16.14-27C364.38,299.2,387.7,326.77,376,365.68Z" transform="translate(-108.4 -72.55)"/><path class="h" d="M397.41,335.71c15.9,8.65,25,18.84,16.83,38.52-5.81,14-2.58,29.31.09,44.28C386.45,399.27,388.39,388.26,397.41,335.71Z" transform="translate(-108.4 -72.55)"/><path class="k" d="M495,142.51c2.88,20.63,2.25,37.72-4.18,54.42-12.39,32.19-44.6,39.15-68.6,14.7-21.82-22.24-25.24-72.58-6.59-97.21,14.09-18.63,52.53-16.37,67.51,4.65C488.67,126.91,491.93,136.41,495,142.51Z" transform="translate(-108.4 -72.55)"/><path class="l" d="M465.55,418.73c-11.5-.81-22.14-3.67-26.4-16-3.43-9.91-.25-17.91,10.43-20.76,13.15-3.51,21.93,3.39,26.22,14.8C479.36,406.18,475.17,414.05,465.55,418.73Z" transform="translate(-108.4 -72.55)"/><path class="m" d="M445.57,359.06c-.42-8.66.58-16.13,10.1-18.07,8.46-1.71,15.61,1.54,17.67,9.94s-3.41,15.05-10.7,17.81C453.92,372,449,365.7,445.57,359.06Z" transform="translate(-108.4 -72.55)"/><path class="n" d="M329,297.33c-6.33,2.95-12.74,4.95-19.6,1.7-3.48-3.68-3.77-8.11-3-12.78,4.51-11.74,5.7-23.11-1.91-34.39-17.34-25.71-29.3-54.34-43.72-81.63-5.06-9.57-9-21.37-23.32-21a24.94,24.94,0,0,1-6.34.27,9.22,9.22,0,0,1-7.14-5.69c24.5-21,40.38-18.73,51.56,10.26,14.45,37.48,34.54,72,53,107.31C335.17,274.05,336.87,285.24,329,297.33Z" transform="translate(-108.4 -72.55)"/><path class="o" d="M311.51,286.07l-2.1,13L291,296.33c-45.55-19.69-72.5-53.42-80.16-103-2.95-19.1-1-35.55,13.12-49.48l5.19,2.63c-1.21,22.13-8.44,43.64,1.75,66.41,14,31.22,34.2,54.65,66.05,67.53C301.85,282.14,307.24,282.7,311.51,286.07Z" transform="translate(-108.4 -72.55)"/><path class="e" d="M458,211.89c-7.22,4.2-14.1,3.43-21.22-.68-21-12.16-22.44-33.29-22-53.34.45-18.28,3.3-37.85,25.95-44.4,29.23,8.1,39.29,42.26,27.63,78.35A69,69,0,0,1,458,211.89Z" transform="translate(-108.4 -72.55)"/><path class="m" d="M447.66,401.49c-.79-4.63-.29-8.84,5.08-10.6,7.59-2.47,11.37,3.19,13.95,8.21,2.18,4.24-.67,9.67-5,10.9C455.12,411.87,450.7,407.33,447.66,401.49Z" transform="translate(-108.4 -72.55)"/><path class="p" d="M831.55,597.44,796,603.18" transform="translate(-108.4 -72.55)"/><path class="p" d="M889.33,603.78l-30.27-6.1" transform="translate(-108.4 -72.55)"/><path class="q" d="M398.18,922.79l-6.11-13.14c1.25-4.25-.87-9,2-13,5.09-6,11.63-6.72,18.79-5.15,6.62,2.4,11,7.49,15.36,12.67,2.2,10.73-5.21,15.67-12.46,20.72C409.39,928.47,404.06,923.28,398.18,922.79Z" transform="translate(-108.4 -72.55)"/><path class="r" d="M376.53,871.9c6-9.38,14.38-16.67,25.43-15.3,7.33.91,8.53,9.5,7.56,16.77-2.61,9.63-8.68,15.19-18.78,16a8.64,8.64,0,0,1-5.2-3.25c-1.6-3.55,4.78-11-5.22-10.48A5.65,5.65,0,0,1,376.53,871.9Z" transform="translate(-108.4 -72.55)"/><path class="s" d="M385.88,885.87c11.29,2.28,14.7-10.35,23.64-12.5l3.42,8.71c-2.65,4.76,3.55,8.51,1.52,13.2-6.3,1-13.33-.79-18.46,4.75C386.85,899.45,374.8,900.92,385.88,885.87Z" transform="translate(-108.4 -72.55)"/><path class="t" d="M398.18,922.79c5.3-5.16,10.37,1.22,15.59.31,1.9-2.08,3.74-2,5.53.15.34,10.23-4.31,19.72-4.46,29.9a14.46,14.46,0,0,1-5.27,8.73l-8.68-11.69C401,941,404.81,931.35,398.18,922.79Z" transform="translate(-108.4 -72.55)"/><path class="u" d="M385.88,885.87c-3.87,9.9,4,11.41,10.12,14.16.07,3.77.34,7.62-3.93,9.61-3.1-6.29-9.47-8.68-14.78-12.32-11.91-8.15-13.36-16.56-.76-25.42a4.26,4.26,0,0,0,2.29,2.05c2.32,3.81,4,8,7.15,11.31Z" transform="translate(-108.4 -72.55)"/><path class="v" d="M414.46,895.28C411,891.22,400.53,888,413,882.09l5.32,5.14,12.87,17.9c-1,1.63-2.1,1.63-3.29.22Z" transform="translate(-108.4 -72.55)"/><path class="w" d="M463.64,986.62c-12.95-7.3-13.27-28.93-32.73-28.85-2.26-9.69,2.46-13.78,11.52-14.38,6.55,1.18,4.64,7.7,7.19,11.41C454.76,965.2,465.78,973,463.64,986.62Z" transform="translate(-108.4 -72.55)"/><path class="x" d="M446.88,953.94c-3.78-2.78-4.16-6.81-4.05-11-2.23-9.29,4.1-18,1.69-27.34a10,10,0,0,1,2.74-5.49c13.32,4.15,11.95,13.71,8.26,23.58C453,940.54,446.24,945.66,446.88,953.94Z" transform="translate(-108.4 -72.55)"/><path class="y" d="M450,911l.19,1.43a9.88,9.88,0,0,1-3.9,5.26c-9.42,2.36-17.93,9.59-28.59,5.4l-3.93.05,14.08-17.76c1.1-.05,2.19-.12,3.29-.21Z" transform="translate(-108.4 -72.55)"/><path class="z" d="M445.62,915.14c1.52-.9,3.05-1.8,4.58-2.73,6.23,11.6,3.34,21.88-4.63,31.39-6.08,3.38-13.14,5.75-14.65,14-7.12,1.39-12.8,10.21-21.35,4.12q.15-5.86.29-11.73C424.34,941.09,437,930.13,445.62,915.14Z" transform="translate(-108.4 -72.55)"/><path class="aa" d="M386,885.26c-15.64,4.62-10.32-4-7.17-11.32,7.53-.18,10.37-10.55,20.27-8.37C400.65,876,389.73,878.52,386,885.26Z" transform="translate(-108.4 -72.55)"/><path class="ab" d="M445.62,915.14c-1.76,21.66-13,32.65-35.76,35-3.35-10.76.15-19.54,7.84-27.1C426.71,919.38,434.29,910.64,445.62,915.14Z" transform="translate(-108.4 -72.55)"/><path class="ac" d="M496.49,991.14l1,14.46c2.06,11.93,11.11,18.67,19.17,26.29,10.49,9.9,18.11,8.59,23.32-5,8.69-22.32,2.47-35.15-20.81-42.93C509.7,980.42,502.88,985.1,496.49,991.14Z" transform="translate(-108.4 -72.55)"/><path class="ad" d="M537.77,1027.32c-6,10.83-12.56,10.23-21,2-7.44-7.21-8.52-19.4-19.28-23.74,2.18,12.31-8.13,15.43-15.26,21.08-6,4.78-14.95,6-18,14.44,8.12,1.92,13.85-2.88,20.25-6.63,11-6.45,20.4-11.93,32.43,2.34,9.78,11.61,21.34,6.46,25.2-9.32C540.7,1025.6,539.27,1025.62,537.77,1027.32Z" transform="translate(-108.4 -72.55)"/><path class="ae" d="M496.49,991.14l22.56-4.95q3.66-2.52,0-5l-4.84-4.35C506,978.73,496.78,979.43,496.49,991.14Z" transform="translate(-108.4 -72.55)"/><path class="af" d="M564.4,959.18l-4.08,9.65c1.24,6.11-2.7,12.25.08,18.37,1.64,4.16,4,7.53,8.86,8.29,12.41,9.17,20.91,3.56,28-7.39-14.85-5.78-11.09-23-20-32.46Z" transform="translate(-108.4 -72.55)"/><path class="ag" d="M569.26,995.49l-5-8.35c-5.64-20.39-17.54-7.72-27.52-5.22l.35-.31c-5.76,14.79-1,24.09,14.51,27.76C558.23,1005.69,566.39,1004,569.26,995.49Z" transform="translate(-108.4 -72.55)"/><path class="ah" d="M577.24,955.64c.31,14.74-4.59,32.67,20,32.5C597,973.32,594.34,960,577.24,955.64Z" transform="translate(-108.4 -72.55)"/><path class="ai" d="M551.6,1009.37c-12.37-5.32-15-15.74-14.51-27.76L519,981.18c0,1.67,0,3.34,0,5,15.63,9.44,24.42,22,18.72,41.13,1.42.1,2.84.16,4.27.19Q546.83,1018.44,551.6,1009.37Z" transform="translate(-108.4 -72.55)"/><path class="aj" d="M536.74,981.92c8.91,3.13,20.74-9.14,27.52,5.22-.94-6.18,2.1-13.22-3.94-18.31C554,975.88,541.6,972.16,536.74,981.92Z" transform="translate(-108.4 -72.55)"/><path class="ak" d="M593.12,672.52C538.79,730.86,474.3,777,411,824.64c-43.85,33-83.83,71.59-137,90.93-24.63,9-46.82,9.14-67.34-8.74a10,10,0,0,1,4.42-4.85c15.67-6.53,29.92.92,44.54,4.49,37.71-10.12,64.86-37.43,95.73-58.66,78.11-64.07,166.15-115.89,235.16-191.18,4.09-2.09,8.23-3.75,12.64-.8-.21,2.94-.43,5.87-.65,8.81Q595.86,668.59,593.12,672.52Z" transform="translate(-108.4 -72.55)"/><path class="al" d="M599.22,655.83l-10.64,4c-3.07-2.19-6.34-4.15-8.66-7.27-3-1.5-.27-9.33-7.27-6.26-6.56,2.52-13,5.36-19.89,1.37a11.21,11.21,0,0,1-2.29-5.69c.3-5.69,3.89-9.36,7.78-12.94,22.33-20.51,22.32-20.53,6.81-47.53-6.07-10-19.88-4.83-26.64-13.46-4.34-4.6-8.82-9.12-10.39-15.58-.5-5.08,2.37-7.81,6.68-9.53,36.89,9,66.39,25.52,74.38,67.32C612.42,627.69,610,642.26,599.22,655.83Z" transform="translate(-108.4 -72.55)"/><path class="am" d="M534.71,543q-2.09,4.51-4.18,9a12.84,12.84,0,0,1-6.68,3.39c-48.49-15.33-96.14-9.73-144.34,3.23-23.09,6.2-47.56,8.18-71.82,8.47-8.28-1.82-19.1,1.89-22.64-10.32l118.14-20.13c5.2.71,10.13.22,14.38-3.28,10.93-7.55,22.35-12.09,35.52-5.74l27.51.25c10.57-.37,21.4-2,30.27,6.09Z" transform="translate(-108.4 -72.55)"/><path class="an" d="M552.94,641.09l.57,5.14c3,8.34-3.11,12.48-7.87,17.26-22.94,12.16-42,31.59-68.7,36.81-5.45-.52-9.66-4.28-14.8-5.64-12-1.3-21.73,5.71-32.05,9.7-52.73,20.36-107.34,35.33-160,56-4.9,1.92-9.95,3.5-14.5,6.26-7,4.23-8.19,10.36-5.74,17.58,3,8.76,9.56,8,16.64,6.22,15.28-3.81,27.56-16.06,44.31-15.68a10.94,10.94,0,0,1,7.54,5.06c4.06,9-7.61,12.28-7.35,20-.34,3-1.37,5.6-3.93,7.39-7.87,2-15.88-.93-23.75.73a72.64,72.64,0,0,0-8.6,3.37c-24,17.4-46.44,16.85-68.17-4.56-6.84-6.74-16.31-10.36-25.93-12.54a67.3,67.3,0,0,1-12.54-1.93,46.25,46.25,0,0,1-8.5-3.55c-11.7-5-14.88,6.73-21.76,11.13-4,3.73-8.16,7.19-13.61,8.59-3.49.42-6.6-.21-8.81-3.26,5.56-16.8,17.88-27,33.2-34.51,23-11.33,24.69-25.91,5.31-42.46-3.37-2.87-6.56-6-9.83-8.94-1.5-6.69,3.56-7.41,7.93-8.77,12.25-.72,20.55,7.34,29.68,13.5,7.33,4.94,14,11.24,23.56,11.6a59.27,59.27,0,0,1,13.57,2c11.69,5.35,23,4.12,35.15.33,76.46-23.86,150.94-53.25,226.29-80.22,16.35-5.85,32.46-12.39,49.07-17.53C537.28,637.66,545.33,634.67,552.94,641.09Z" transform="translate(-108.4 -72.55)"/><path class="ao" d="M153.6,714.64c-3.79.23-7.28,1.06-9.5,4.55-15.71-15-22-35.34-31.14-54.07-7.09-14.48,5.79-23.68,9.18-35.39,11.14-10.21,17.15-25.09,30.43-33.35,12.09-6.61,27.83-5.6,37.2-17.86,31-10.38,63.36-15.19,95.28-21.76,7.17,6.1,16.1,2.18,24,4.2-3.18,11.49-13.82,10.35-21.95,11.85-20.61,3.78-41.08,8.12-61.47,12.89-6.44,1.5-14.7,2.14-17.09,9-2.76,8,6.24,10.78,10.42,15.57,8.27,9.47,21.38,14.15,26.56,26.75-2.75,12.22-10.77,7.52-17.44,5-7.77-2.95-13.43-9.55-20.82-13.3-5.86-3.39-11.83-6.62-17.74-10-22.71-12.79-25-12.47-41.76,6.43-19.14,21.56-19.2,22.88-1.72,45a21.82,21.82,0,0,1,4.18,7.94c-7.51,5.76-7.51,5.76-15.13,3.36C142,691.44,154.53,699.08,153.6,714.64Z" transform="translate(-108.4 -72.55)"/><path class="ap" d="M115.42,805.1l10.25.15c.71.76,1.42,1.53,2.14,2.29-1.82,15.82,5.78,26.28,17.51,36.28,14.7,12.54,31.23,23.61,41.27,41-.18,3.83-2.55,5.61-6,6.39-21.46-11.4-38.14-29.05-56.82-44-12.91-10.36-20.65-24-11.18-41.32A4.25,4.25,0,0,1,115.42,805.1Z" transform="translate(-108.4 -72.55)"/><path class="ak" d="M180.61,891.2l5-4.11c9-5.44,14,1.48,19.71,6.43,2.57,3.63,5.07,7.3,2.56,12l-1.15,1.29C196.89,903.52,188.53,897.74,180.61,891.2Z" transform="translate(-108.4 -72.55)"/><path class="aq" d="M584.79,651.11c4.66,1.44,4.45,5,3.79,8.75-24.8,38.13-62.89,62-97.37,89.52-41.32,33-84,64.22-126,96.39-3.66,2.81-6.9,5.82-11.74,6.08-5.74-6.4-1.13-14-2.33-20.87,4.75-16.11,20-21.69,31.61-30.53,20.29-15.42,43-27.52,62.7-43.79,41.33-28.73,77.75-63.6,117.65-94.13C569.82,657.4,576.75,653.38,584.79,651.11Z" transform="translate(-108.4 -72.55)"/><path class="ar" d="M352.22,832.45c19.83,5.2-4.7,13.29,1.27,19.4-28,26.3-59.76,46.74-94.88,62.1-19.49-5.38-16.26-17.25-8.71-30.38a17.14,17.14,0,0,1,8.88-4.8c25.46-7.48,45.64-24.33,67.69-37.95C334.13,836.08,341,826.85,352.22,832.45Z" transform="translate(-108.4 -72.55)"/><path class="ap" d="M253.59,882.93c-2.57,11-11.44,23.08,5,31-16.84-3.25-32.74-12.17-50.74-8.42l-4.68-8.83c4-6.64,12.56-4.06,19.05-9.92-29.92-29.74-73.59-43.13-96.06-80.93l-.51-.61,9-8.75c21.31,9.78,37.44,26.79,55.86,40.54C211.4,852.59,232,868.4,253.59,882.93Z" transform="translate(-108.4 -72.55)"/><path class="as" d="M189.77,578.52c-1.32,29-23.56,14.49-37.2,17.86C162,584.19,173.55,576.52,189.77,578.52Z" transform="translate(-108.4 -72.55)"/><path class="at" d="M552.94,641.09c-33.29,4.69-62.65,21-93.82,31.9q-107.74,37.77-215.33,76c-11.1,4-18.81-1.78-27.1-7-12.79-10.65-8.82-23.26-4.28-36,7-16.51,18.72-29.53,30.75-42.39,39-24.85,83.34-35.72,127.52-45.77,51.73-11.76,102.75-25.51,153.07-42.32,15.4-5.14,32.23-5.74,47.11,4.41C589,609.68,589,609.68,552.94,641.09Z" transform="translate(-108.4 -72.55)"/><path class="au" d="M570.86,580c-35.73-10.25-66.21,9-97.71,19.1-43.7,14-89,20.78-132.88,33.66-33,9.69-65.84,19.52-95.94,36.67C238,674,234.54,671,232.4,664.75a15,15,0,0,1,1.06-6.31c3.68-6.75,9.61-11.29,15.58-15.81,10.15-5.49,21.25-8.76,31.72-13.55,9.35-2.19,18.49-4.92,26.85-9.85A145.87,145.87,0,0,1,336.66,609c42-9,83.26-21.5,125.24-30.83,18.21-3.32,35.94-8.6,53.87-13.07,7.69-1.91,15.41-6.35,23.29-.46C547.2,574.88,567.43,560,570.86,580Z" transform="translate(-108.4 -72.55)"/><path class="av" d="M584.79,651.11C539.94,688,496.91,727.17,449.12,760.42c-11.07,5.31-11.09-1.61-10.41-9.36,2-9.26,7.26-17,11.56-25.11-4.85-6.27-12.25,3.68-17-2.69a12.5,12.5,0,0,1-1.55-9.12c6.68-15.66,23.17-18.16,35.4-26.39l9.76,9.34c3.93,5.95,1,11.55-.76,17.13,6.24,8.19,6.82-3,10.56-3.13,16.23-17.39,35.34-31.27,54.68-44.85,11.92-7.8,22.57-17.38,34.72-24.85C584.13,640.06,578.79,650.65,584.79,651.11Z" transform="translate(-108.4 -72.55)"/><path class="aw" d="M539.06,564.66l-76.65,18.69a6.49,6.49,0,0,1-.86-6.46c13.6-17.93,35.74-15,53.9-21.72,3.24-1.2,7.24-.77,10.37-3l4.71-.15C533.7,556,541.68,556.76,539.06,564.66Z" transform="translate(-108.4 -72.55)"/><path class="ax" d="M576.11,641.39c-7.21,13.33-18.76,21.69-32.09,28-2.78-3.56-2.78-7.18-.24-10.86l9.72-12.3Z" transform="translate(-108.4 -72.55)"/><path class="ay" d="M525.82,552.14c-7.21,13-22.18,12.64-33.31,15.76a242.33,242.33,0,0,0-30.24,10.39c-36.16,10.66-72.86,19.37-108.89,30.49-6.31,2-13.72.48-18.9,6l-26.07,9.12c-8.37,5.86-20.64.88-27.83,10a58.78,58.78,0,0,1-32,11.53c-2.84-1.81-2.83-5.26-4.48-7.76a235.4,235.4,0,0,1-37.3-29.23c-16.49-15.7-16.26-16.91,5.8-25.29,31.13-11.82,65-11.72,96.41-22.2,34.35-4.26,69.54-5.18,102.36-16.58C451.28,530.51,488.41,539,525.82,552.14Z" transform="translate(-108.4 -72.55)"/><path class="az" d="M467.15,687.75c-3.94,17.32-22.85,14.86-32.51,24.62-10.95,17.76-31.54,22.07-46.9,33.7a57.5,57.5,0,0,1-15,6.54c-20.81,8.43-39.41,22.44-62.6,24.87-15,6.84-29.74,14.42-45.16,20.15-6.57,2.44-18,12.57-20.51-3.9-1.79-11.53-14.09-26.56,7.44-33.85,44.82-15.18,89.4-31,134.26-46.09C413.06,704.78,438.15,690.16,467.15,687.75Z" transform="translate(-108.4 -72.55)"/><path class="ba" d="M457.78,723.71l-13.92,26.94c-26.51,31.86-61.33,52.19-97.61,70.52-7,1-12.73,8.11-20.68,4.05-6.89-8.9-11.41-19.28-17.78-28.52-2.58-8.56,9.06-6.66,9.55-13a197.17,197.17,0,0,1,54.78-29.42c24-7.95,46.82-18.63,69.62-29.36,5.09-2.39,9-8.26,15.85-5.06.41.19.68,1.08.68,1.66A8.86,8.86,0,0,1,457.78,723.71Z" transform="translate(-108.4 -72.55)"/><path class="bb" d="M326.19,823.84c7.72.29,10.37-9.94,18.45-8.88,5.33,18.71-11.32,22.77-21.34,29.71-19.79,13.7-40.88,25.51-61.3,38.32l-8.41-.06c-35.42-6.8-55.46-37.31-83.94-54.87-13.2-8.14-26.6-17.42-35-31.56,7.72-7.26,10.63-23.84,27.16-14-4.64,13.2-.74,22,11.25,30.16,14.81,10,28.44,21.92,43,32.49,29.07,21.15,30.08,21.26,60.86,1C292.42,836.61,307.54,826.31,326.19,823.84Z" transform="translate(-108.4 -72.55)"/><path class="bc" d="M167,787.62l13.29.45c2.75,3.7,3,8.62,6.09,12.2,5.23,6.89,12.4,10.62,20.46,12.91,5.12,1.27,9.76,3.39,13.13,7.65,5.85,6.53,8,19.55,21.64,12.3,7.42-13.61,22.4-14.86,34.25-21.27,11.2-1.44,19.31,4.54,27.15,11.24,2.16,17.39-17,15.27-23.06,25.22-24.14,19.87-46.19,14.16-68.28-4.38-14.41-12.08-29.36-23.58-44.27-35.09C159.07,802.42,155.11,794.91,167,787.62Z" transform="translate(-108.4 -72.55)"/><path class="bd" d="M177.47,742.8c19.84,17.44,62.13,10.82,51.44,55.51C188.39,789.34,175.19,775.79,177.47,742.8Z" transform="translate(-108.4 -72.55)"/><path class="be" d="M153.6,714.64c-7.91-10-16.94-19.36-20.29-32.85,3.61-6.78,11.19,5,14.89-2.38,13.41-6.13,21.06,2.44,27.36,11.76a116.53,116.53,0,0,0,17.36,20.32c6.31,9,17.75,16.43,10,30.14C182.59,739.75,172.52,719.1,153.6,714.64Z" transform="translate(-108.4 -72.55)"/><path class="bf" d="M167,787.62c-7.85,8.4-1.57,13.15,4.58,18,13,10.28,26.76,19.78,38.77,31.13,21.54,20.37,43.58,28.77,69.51,8.13q3.53,2.67.58,6c-33.9,23.6-34.43,23.57-68.25-1.5-16.9-12.53-33.87-25-50.76-37.51-13.35-9.92-11.08-19.73.43-29.35Z" transform="translate(-108.4 -72.55)"/><path class="bg" d="M543.78,658.54,544,669.4l-54.58,45.28c-6.13,3.91-12.3,5.85-18.59.3q3-8.94,6-17.89Z" transform="translate(-108.4 -72.55)"/><path class="bh" d="M217.22,824.46c-3.4-6.09-9.7-4.8-15-5.93-3.74-10.95-12.73-14.9-22.94-17.23-6.05-4.92-.4-8.91,1.06-13.23,9.14.63,18.46,3.58,24.19,9.75,22.58,24.33,46.1,26.34,72,6.1,2.15,3.05,2.24,6.1,0,9.17-4.91,15.92-28.35,7.17-32.33,24.31C232.07,839.6,225.39,830.48,217.22,824.46Z" transform="translate(-108.4 -72.55)"/><path class="bi" d="M371.19,760.08C357,767.89,342.37,774.93,329,783.87c-5.23,3.49-7.83.23-11.63-.14l-7.18-6.25a333.7,333.7,0,0,1,61.41-30.58C375.08,751.39,375.12,755.79,371.19,760.08Z" transform="translate(-108.4 -72.55)"/><path class="bj" d="M280.45,850.86c-.2-2-.39-4-.58-6,6.72-8.32,20.57-8.81,23.5-21.32.17-1,.34-2,.49-2.93,1.93-4.58.72-10,3.74-14.28.06-3.22.13-6.45.19-9.67,11.12,5.66,20.93,12.22,18.4,27.14C313.63,837.39,294,839,280.45,850.86Z" transform="translate(-108.4 -72.55)"/><path class="bk" d="M202.93,741.63c-.19-11.06-9.15-17.83-13.21-27,7.47-7.5,11.61-19.16,24.65-19.69,5,2.78,5.6,6.71,3,11.46-2.9,11.83-5.34,23.66-.65,35.62Z" transform="translate(-108.4 -72.55)"/><path class="bl" d="M276.52,813.09c0-3.05,0-6.11,0-9.17l4.1-2.77c8.1,7.1,30.21.48,22.55,23l.25-.59C291.64,827.18,286,815.18,276.52,813.09Z" transform="translate(-108.4 -72.55)"/><path class="bm" d="M303.12,824.17c-.32-14.73-16.39-14-22.55-23,9.42-.38,18.79-.49,27,5.22C313.54,814.18,318.44,821.72,303.12,824.17Z" transform="translate(-108.4 -72.55)"/><path class="bn" d="M212.84,696.36c-7.64,6.18-9.28,19.95-23.12,18.27-17.8-7.08-19.72-32.86-41.52-35.23-7.56-10.41-26.48-14.72-22.84-30.48,4.52-19.53,20.7-32.53,35.72-45.07,5-4.14,12.55-4.81,16.74,0,8.34,9.66,21.73,10.22,30.34,18.78,4.16,6.94,8.87,13,16.3,17.22,7,4.05,12.39,10.42,10.21,19.91l.22,1.42C230.14,674.57,226.73,688.76,212.84,696.36Z" transform="translate(-108.4 -72.55)"/><path class="bo" d="M234.67,659.81c-5.1-15-31.06-15.18-26.51-37.12,12.89,2.83,18.72,22.58,36,15,3.46,1.45,4.75,4.16,4.48,7.76C246.09,652.3,241.19,656.84,234.67,659.81Z" transform="translate(-108.4 -72.55)"/><path class="bp" d="M126.18,805.86c30.58,24.85,62,48.6,95,70.19,5.27,3.44,16.06,6.51,11.7,16.36-3.29,7.43-12,4-18.41,4.49a108.86,108.86,0,0,1-11.27-.19c-5.89-3.15-10.2-9.19-17.58-9.62-17.54-15.34-34.83-31-52.71-45.93C120.62,830.9,115.38,820.12,126.18,805.86Z" transform="translate(-108.4 -72.55)"/><path class="bq" d="M262,883c14.77-19.93,38.55-27.3,57.75-41,10.41-7.46,21.42-13.49,24.88-27,10.95,1.3,18.23-6.4,25.93-11.69,24.79-17,48.92-35,73.3-52.61-2,5.26-2.63,9.81,5.26,9.77-27.35,19.5-54.78,38.91-82,58.6-5.39,3.9-9.95,8.93-14.9,13.43-28.73,14.69-53,36.79-82.68,49.9C266.93,883.51,264.86,886.46,262,883Z" transform="translate(-108.4 -72.55)"/><path class="br" d="M212.84,696.36c7.1-11.87,11-25.72,22-35.13.63,5.63,4.09,8,9.44,8.18l-27,37Z" transform="translate(-108.4 -72.55)"/><path class="bs" d="M334.48,614.78c6.45-17.77,23.74-7.4,35.46-13.14,28.69-14,59.43-24,92.33-23.34.05,1.68.09,3.36.14,5.05C420,594.89,377.75,606.86,334.48,614.78Z" transform="translate(-108.4 -72.55)"/><path class="bt" d="M280.58,633.91c4.17-17.53,18.26-7.46,27.82-10C300.12,630,291,633.68,280.58,633.91Z" transform="translate(-108.4 -72.55)"/><path class="bu" d="M371.19,760.08q.19-6.58.37-13.18l11.8-5.72c12.71.15,21.26-9.07,31.61-14.2,6.4-3.17,11.91-9.58,19.84-3.55,6.39-1.79,10.16-9.07,17.69-8.46,5.81.46,11.35,1.11,5.28,8.75-22.67,10.56-45.66,20.51-67.81,32.09A36.49,36.49,0,0,1,371.19,760.08Z" transform="translate(-108.4 -72.55)"/><path class="bv" d="M434.81,723.43c-12.06-.58-19.47,9.4-29.63,13-7,2.5-12.84,11.15-21.81,4.72l51.27-28.8Q434.73,717.91,434.81,723.43Z" transform="translate(-108.4 -72.55)"/><path class="bw" d="M470.85,715l18.59-.3c-4.76,7.74-12.66,11.36-20.19,15.79C464.79,724.51,466.66,719.62,470.85,715Z" transform="translate(-108.4 -72.55)"/><path class="bx" d="M217.22,824.46c12.19-2.37,17.62,9.37,27,12.94,2.33,3.6,7.07,7.22,4.13,11.6-2.72,4-7.55.88-9.46-1.59C232.4,839,218.17,837.91,217.22,824.46Z" transform="translate(-108.4 -72.55)"/><path class="by" d="M179.24,801.3c10-14.13,13.93,2.85,20.71,4.53,6.23,1.55,9.18,7.09,2.23,12.7C193.76,813.81,184.71,809.94,179.24,801.3Z" transform="translate(-108.4 -72.55)"/><path class="bz" d="M677.46,433.63C679,406,695.58,384.27,707.2,361c24.59-49.31,51.57-97.43,78.15-145.73,3.87-7,10.91-12.3,16.49-18.39,5.92,2.53,7.17,7.37,6.53,13.16-22,43.55-47,85.5-69.78,128.64C727.86,359,713.42,378.09,715.1,403a23.72,23.72,0,0,1-.93,4.17c1.54.42,1.35-1.14,1.82-1.77,2.68-3.58,5.59-6.55,10.64-5.53,6.48,13.11-2.43,21.16-9.72,29.77-5.79,4.31-11.71,8.29-19.33,4.32-1.71-1.12,3.79-18.41,2.32-19.89-2.14-2.15-6.2-2-7.89-4.24-.87,2.79-1.46,18.19-.11,20.75.27.94.53,1.88.8,2.82C687.67,436.36,682.61,437.61,677.46,433.63Z" transform="translate(-108.4 -72.55)"/><path class="ca" d="M713,534.84c2.53-.73,5-.41,5.71,2,.47,1.67-.46,3.39-1.35,4.88q-12.06,20.07-24.24,40t-24.53,39.88q-12.33,19.89-24.81,39.7t-25.09,39.53q-12.61,19.71-25.37,39.34t-25.66,39.17q-6.45,9.76-12.93,19.51l-6.49,9.74c-1.76,2.63-3.13,5.51-5.05,8a29.39,29.39,0,0,1-11.85,9.07,26,26,0,0,1-7.1,1.88,24.85,24.85,0,0,1-3.66.15c-.36,0-3.61-.53-3.66-.44-.19.3-3.49-1-3.86-1.21a21.56,21.56,0,0,1-3.69-2,23.62,23.62,0,0,1-6-5.86,20.74,20.74,0,0,1-2.69-18.35,32.18,32.18,0,0,1,4.89-9.29c1.49-2,3.69-5.87,6.75-5,1.48.44,2.36,2,2.79,3.48,1.1,3.81.29,7.88.47,11.84s2,8.44,5.76,9.52,7.74-1.9,10.47-4.92a68.53,68.53,0,0,0,15.16-27.74c1-3.64,1.73-7.48,4-10.48,2-2.69,5.09-4.39,7.88-6.31,12.42-8.55,20.3-22.08,27.88-35.11Q637.84,638,695.24,554c4-5.87,8.09-11.77,13.29-16.63A11.45,11.45,0,0,1,713,534.84Z" transform="translate(-108.4 -72.55)"/><path class="cb" d="M513.19,787.18l-6.86,2.87c27.29-56.1,99.41-192.51,115-198.85,5.52,10.74-2.09,18.56-6.09,27.17C598.67,654,578.77,687.78,558,721.1c-7.69,12.35-14,25.34-7.07,40.44a15.59,15.59,0,0,1,.5,7.7c-.61,1.53,3.59,6,3,7.53-.75,2.16-7.11.36-9.34.62C531,769.26,524.38,785.7,513.19,787.18Z" transform="translate(-108.4 -72.55)"/><path class="cc" d="M697.67,431c5.47,4.07,8.24-1.46,13.33-2.33,4.39,11.52-3,20-8.2,28.51-8.16,13.33-15.12,27.06-19.12,42.21-1.9,5.07-6,8.56-8.91,13-12.93,18.17-37.54,73.78-56.07,88-2.85,1.29-19,24.64-20.61,22C598.62,620.91,694.44,431,697.67,431Z" transform="translate(-108.4 -72.55)"/><path class="cd" d="M896.19,206.25c7,20.36.37,38.35-9.84,55.63C845,331.88,804,402.09,762,471.65c-6.43,10.63-12.28,21.49-18.74,32.19-4.33,7.17-8,12.65-15.69,19.92-6.14-4-3.83-9.46-2.64-14.76C764.24,428.78,815.12,355.24,859,277.66c4.26-7.53,17.45-15.87,3.5-26.57-12.19-6.86-27-10.62-31.8-26.29a8.72,8.72,0,0,1,5.85-8c14.11-1.31,23.47,10.86,36.43,13,3,.49-.24,1.34,1.94.26,3.22-1.6-2-2.32-1.68-4.26,3.37-7.53-2.49-6.72-6.7-7.43-9.36-6.4-12.16-17.19-17.74-26.12-1-3.25-1.47-6.36,2.21-8.37C875.84,171.66,885.74,189.5,896.19,206.25Z" transform="translate(-108.4 -72.55)"/><path d="M840.53,219.84l-7.35,1.76a31.51,31.51,0,0,1-5.81,1.47c-4.06.19-8.15,1.05-12.13-.57-5.54-4.12-7-10.19-7.86-16.53l-5.54-9.1c6.12-4.38,12.14-8.17,20.25-4.24,10.57,5.13,17-.3,23.63-6.15a3.83,3.83,0,0,1,3.14-.91l.1,0c1.48,1.65,1.67,1.18,3.15,2.83,1.17,11.58,2.82,22.86,15.6,27.53,5.85.72,11.7,1.45,6.08,9.51-7.35,9.54-12.72-.22-19-1.77C850,222.52,847.43,212.84,840.53,219.84Z" transform="translate(-108.4 -72.55)"/><path class="ce" d="M728.92,512.77l-1.38,11c-2.45,3.94-8.8,15.76-11.25,19.71-1.36-.65-1.16-3.83-2.39-4.71-6.73-.16-10.23-8.67-16.46-10.68-10.53-5.3-22.09-9.31-26.92-21.65l8.56-6.53c11.46,1.08,19.67,12.44,32.18,10.11C717.27,510.06,723.59,508.34,728.92,512.77Z" transform="translate(-108.4 -72.55)"/><path class="cf" d="M712.55,515.67c-15.29,3.52-24.91-5-33.47-15.77-4.08-20.1,11.06-32.67,18.93-48,4-7.88,8.64-15.45,13-23.16,6.31-9.33,12.37-18.79,15-30-3.65-8.15.59-14.8,4.53-21.18,24.6-39.86,42.34-83.58,69-122.28,9-13.06,9.6-33.16,30.79-35.64a5.62,5.62,0,0,0,2.85,2c6.81,13.81,21.23,17.36,33,24.48,2.91,8.92-1.27,16.36-5.4,23.56-19.55,34.14-36.72,69.58-58.13,102.71S763,440.22,744.66,475C736.51,490.44,726.77,504.89,712.55,515.67Z" transform="translate(-108.4 -72.55)"/><path class="cg" d="M705.75,525.75c7.51-3,9.28,1.93,10.56,7.57-45.75,70.24-91.84,140.28-134.67,212.39-6.87,11.58-13,18.3-29,22.29h0c-2.94-11.53,3.07-20.61,8.53-29.6q57.63-95,115.92-189.58C683.89,537.85,690.63,526.52,705.75,525.75Z" transform="translate(-108.4 -72.55)"/><path class="ch" d="M713.43,409.09c33.65-62.6,62.14-128,103-186.69,4-4.39,8.36-6.49,13.92-2.78-1.08-.72-7,5.81-7.67,6.68-6.1,7.43-9.49,16.38-13.73,24.89-4.53,9.08-9.52,18-14.39,26.86-19.75,36-40.2,71.66-60.45,107.41q-2.13,3.8-4.28,7.57c-.8,1.4-2.9,7-4.3,7.57C720.22,402.7,722.93,412.08,713.43,409.09Z" transform="translate(-108.4 -72.55)"/><path class="ci" d="M513.19,787.18l16.34-26.72,18,15.72c-3.69,14.88-12.33,26.22-21,38.64C506,817.9,504.73,814.41,513.19,787.18Z" transform="translate(-108.4 -72.55)"/><path class="cj" d="M526.46,814.82c4.88-14.29,4.37-26.74,19-36.29a15.81,15.81,0,0,0,2.13-2.35C554.26,797.6,538.64,803.08,526.46,814.82Z" transform="translate(-108.4 -72.55)"/><path class="cf" d="M705.75,525.75c-7.85,5-12.76,12.54-17.51,20.33Q620.55,657.1,552.68,768c-22-9.34-15.32-23.91-7.07-38.76l75.9-136.52c4.94-7.92-5.91,19.54-5.33,9.59,12.42-20.36,41.91-75.52,54.34-95.88Z" transform="translate(-108.4 -72.55)"/><path class="cg" d="M712.55,515.67c1.2-17.33,16.44-26.2,24-39.75,42.94-76.76,86.36-153.26,129.61-229.84,4.9-2.12,11-4.58,14.6-.23,4.78,5.7-.88,11.22-3.77,16.1q-54.72,92.28-109.68,184.43c-13,22-25.62,44.25-38.41,66.39Z" transform="translate(-108.4 -72.55)"/><path class="ck" d="M840.53,219.84c-.77-5.59-7.53-9.59-4-17.36,11.28,10,19.59,24.49,37.24,23l18.53,3.2C870.63,243.12,855.82,230.1,840.53,219.84Z" transform="translate(-108.4 -72.55)"/><path class="cl" d="M867.71,216c-22.51-5.84-23.48-7.48-15.44-25.95C862.43,195.67,861.88,207.71,867.71,216Z" transform="translate(-108.4 -72.55)"/><path class="cl" d="M879.17,192.49c3.62,2.45,7.28,6.94,6,11a5,5,0,0,1-.24.6c-2.3,4.59-6.82,2.69-10.13.41-3.69-2.53-8-6.59-5.22-11.37a.64.64,0,0,1,.08-.14c1.54-2.52,4.41-2.9,7-1.87A14.08,14.08,0,0,1,879.17,192.49Z" transform="translate(-108.4 -72.55)"/><path class="cb" d="M509.44,790.54" transform="translate(-108.4 -72.55)"/><path class="cm" d="M650.55,682.23c1.07-.19,2.88,1.25,4.28,2.1,21.54,13.2,42.85,22.14,70.78,21.25,28.7-.91,55.25,12.39,71,39.82-.67,3.62-2.64,5.81-6.5,5.91-9.57-1.66-15.06-9.51-22.26-14.78-26.87-19.66-53.2-21.71-79.85-5.9,19.56,2.72,40.58,1.67,52.07,22.47a10.18,10.18,0,0,1-5.77,7.32c-7,1.68-13.28-1.18-19.39-3.72-20.37-8.47-39.59-4.33-58,5.39-21.32,11.26-21.9,14.88-7.82,34.09-.6,3.84-3.12,5.84-6.6,7-28.35-4.65-53.23-18.2-77.81-31.75-11.36-6.26-15.52-17.89-8.57-30.92,5.95-11.06,14.8-19.42,24.84-26.67,17.18-17.7,36.25-18.2,57.53-7.52,10.3,5.17,20.89,12,35.58,8.48-4.16-13.47-21.5-13.24-23.81-26C650.13,686.55,649.1,683.92,650.55,682.23Z" transform="translate(-108.4 -72.55)"/><path class="cn" d="M734.15,757.66l4.29-3.31c12.4-3,16.32,7.52,22.67,14.22,4.39,4.63,5.74,14.26,13.89,12.67,8.64-1.68,12.79-9.66,15-18,1.14-4.3.31-9,2.92-13l3.67-4.84c9,17,83.67,19,99,21.24,11.19,1.63,20.08,5,20.53,11-28.33,12.76-57.9,5.53-87,4.82-19-.46-19-1.47-32,12.08,26,9.52,52.43,6.37,78.44,7.35,12.48.48,26-3.22,36.62,7.35-7.12,17-22.47,8-34.07,10.86a59.86,59.86,0,0,1-15.76.17c-26.36-3.36-49.17,3-67,23.64-15.46,6.55-30.42,10.52-40.72-8.28,10-18.28,2.17-34.43-6.09-50.58C743.82,775.85,734.64,769,734.15,757.66Z" transform="translate(-108.4 -72.55)"/><path class="co" d="M874.18,813.83c12.13-3.27,25.94,4.74,37-5.5-1.49-8.59,4.23-14.76,9-19.73,8.4-8.75-3.17-8.33-4.39-12.43-6.06-2.5-86.07-8.15-92.12-10.66,8.8-5.21,91.92-.13,101.09,1.78,4,.76,6.45-1,9.54-3.8,10.16-9.11,23-6.49,33.77-3.1s6.87,15.33,6.92,23.9c.12,17.26-.56,34.52-.92,51.77-3.06,2.66-6.22,2.45-9.45.38-7.58-11.65-5.59-23.31.29-34.73-26.8,39.23-39.18,83.47-42.87,127.29,9.21-20.58,18.11-44.73,28.1-68.43,3.16-7.49,5.75-15.94,15.76-17.47,8.06,1.54,6.43,7.87,6.58,13.31-6.59,23.25-17.85,44.68-28.1,66.29-8.5,17.94-14.89,35.08-10.57,55-13.7,9-28.08,6.7-42.56,2.7-1.9-1.28-4.23-4.52-3.34-5.16,17.26-12.5,11.95-30.73,12.25-47.4.37-19.8,4.71-38.81,10.27-57.65,2.07-7,5.79-13.91,2.87-23.81-18.11,6-30.86,23.48-51,22.47a17.19,17.19,0,0,1-9.21-3.42c-4.64-7.11,1.55-9.22,5.8-11.67,8.39-4.85,18-7.77,24.37-15.71C894.26,824.66,873.42,823.3,874.18,813.83Z" transform="translate(-108.4 -72.55)"/><path class="cp" d="M888,976.57c15.34-.88,31.12,4.19,46-3.41,0-1.51-.47-3.38.26-4.47,22.17-32.77,36.68-68,35.43-108.43.52-5.47,1.55-11.06-3.83-15q-4-5.15,1.1-9.19l7.16,0c2.48,22.88,3.2,46,10.43,68.19a6.36,6.36,0,0,0-.73,4.25c-3.67,9.87-1,20.53-5.2,30.69-18,44-30.72,51.71-78.45,50-59.48-2.13-119.33,2.91-178.25-9.35-63.52-13.22-127.59-23.74-190.82-38.4A177.14,177.14,0,0,1,475,917.85c-11.69-7.5-21.65-16.58-22.33-31.94q-4.8-13.38-9.61-26.74c-1.36-6.1,2.14-6.19,6.48-5.25,1.92,1.2,4.28,2.22,5.23,4.22,20.33,42.94,58.42,56.84,101.55,66.48,84.81,19,170.45,32.34,256.4,44.26,16.49,2.28,33.2.56,49.79,1.15C871.45,970.34,880.91,969.08,888,976.57Z" transform="translate(-108.4 -72.55)"/><path class="cq" d="M652.22,682.89c-.21,1.85-.41,3.69-.62,5.53-6.94,2.69-12.92-.45-19-3.06-75.84-44.3-64.05-38.22-125.94.54-5.68,3.56-11.18,7.78-18.53,7.07-3.32-1.3-5.93-3-4.15-7.22,11.23-8.26,23.09-15.81,33.59-24.92,34-29.49,67.26-25.58,101.08.3C629.21,669.21,641,675.68,652.22,682.89Z" transform="translate(-108.4 -72.55)"/><path class="cr" d="M447.47,854.34l-4.37,4.83c-20.43-50.47-5.57-96.48,17.85-141.41a4.43,4.43,0,0,1,5.82-.28,13.93,13.93,0,0,1,1.77,6.43c-.77,5.71-.93,11.49-2.05,17.18-14.37,31.28-18.91,64.13-16.05,98.24C450.88,844.49,450.93,849.83,447.47,854.34Z" transform="translate(-108.4 -72.55)"/><path class="cs" d="M467.3,718.35l-6.35-.59c3.83-13.43,13.1-23,23-32l4,4.78C489.67,706.18,479.1,712.73,467.3,718.35Z" transform="translate(-108.4 -72.55)"/><path class="ct" d="M467.3,718.35,488,690.53c6.27-4.18,12.51-8.41,18.8-12.54,60.78-39.94,66.73-39.8,127.76,2.89-4.29,16.77-20.66,13.5-31.75,18-10,4-17.49,7.71-18.27,19.27l-23.15,22.42c-3.32,3.35-4.22-11.08-7.92-1.25-2.05,5.44-.67,11.31.49,17.22,2.6,13.3-1.47,23.26-16.8,25.19-24.84-4.5-43-20.87-62-35.44-7.32-5.62-11.63-13.76-8.91-23.82A6.68,6.68,0,0,0,467.3,718.35Z" transform="translate(-108.4 -72.55)"/><path class="cu" d="M537,777.75c11.23-.9,15.49-12.53,13-17.58-6.78-13.82,1.07-26-.1-39,12.37,1.66,7.18,13.27,11.48,19.33-7.89,14.74-1.71,24.09,12,30,23.17,10,46.49,19.54,69.75,29.28,29,.44,52.94,18.56,80.86,23,7.26,1.16,14.34,3.83,21.86,4,4.62.43,9.22,1,11.84,5.6,8.73,16,22.15,11.37,35.28,8,29.16-12.25,59.82-6.94,89.95-7.41,3.67-.06,6.72,2.91,5.84,7.63C879.47,854,865,858.1,850.66,862.6c-20.72,13.83-44.11,8.49-65.5,5.74-79.84-10.25-155.26-35.92-227-72.22C549.75,791.88,539.06,789.55,537,777.75Z" transform="translate(-108.4 -72.55)"/><path class="cv" d="M757.66,832.45l-14.26-1c-9.35-1.74-13-7.87-15.81-16.71-10.19-31.64-36.73-40.1-63-20.48-5.73,4.28-10.25,9.59-17,2.22-6.78-5.88-17.28-5.31-23-13.05,28.44-38.19,64-46.5,109.58-25.74,18,16.63,29.88,36.73,32.73,61.28C767.55,824.77,772.23,835.92,757.66,832.45Z" transform="translate(-108.4 -72.55)"/><path class="cv" d="M792.92,750.24c15,24.2-10.21,30-20.13,44.54-12.2-13.58-17.53-32.16-34.35-40.43-18.62-18.07-41-19.27-65.48-13.1,21.22-40.14,67.61-32.3,98.3-10.37C779.09,736.47,785.73,743.74,792.92,750.24Z" transform="translate(-108.4 -72.55)"/><path class="cw" d="M615,713.14c12.95-.49,22.82,7.15,33.67,12.22,9.25,4.31,8,9.19,1.83,15.21-10.79,10.52-21.19,21.25-29.88,33.8s-18,.53-25.56-2.64C562.34,758,561.59,751,587.18,726.31,595.12,718.65,603.83,713.54,615,713.14Z" transform="translate(-108.4 -72.55)"/><path class="cx" d="M584.51,718.11c-8.7-12.28-2.28-18.58,9.12-22.71,13.6-4.93,27.27-9.69,40.9-14.52l17.07,7.54,36.79,22.07c-9.8,14.65-21.47,16.86-36,8.22-4.41-2.63-10.11-3.2-14.36-6C618.56,699.86,600.74,700.23,584.51,718.11Z" transform="translate(-108.4 -72.55)"/><path class="cy" d="M647.58,796.45c3.59.31,6.84,1.14,9.57-3,10.26-15.59,25.18-20.88,42.59-15.38,17.92,5.67,32,17,34.56,36.82,1,7.59,4.87,11.71,9.1,16.54-23.77,2.06-43.77-10.53-65.25-17.16-12-3.71-23.39-9.58-35-14.48Z" transform="translate(-108.4 -72.55)"/><path class="cz" d="M915.83,776.17l16,.79c-5.55,12.48-10.32,23.54-20.65,31.37-43.62,1.43-87.15,1-132.41-5.82,11.89-18.69,21.92-33.44,49.05-27.91C856.48,780.44,886.43,778.32,915.83,776.17Z" transform="translate(-108.4 -72.55)"/><path class="da" d="M888.73,840.71l-95.79-.22c18.34-35.54,51.73-25.21,81.25-26.67C888.88,817.46,908,818.68,888.73,840.71Z" transform="translate(-108.4 -72.55)"/><path class="db" d="M791.79,811.79c-.22-.09,9.51-5.06,8.57,4.27-.92,9-8.24,16.49-17.35,18.6-9.73,2.25-7.53-6.79-8.06-12C774.1,814.4,774.85,806.76,791.79,811.79Z" transform="translate(-108.4 -72.55)"/><path class="dc" d="M447.47,854.34c-10.73-41.05-4.23-80,14.2-117.54,14.73.19,19.64,14.67,30.42,20.91,94.25,54.56,191.89,99.84,302.18,109.6,22.3,2,45.26,3.46,67.35-3.84,16.9.94,27.51-10.94,39.18-20,6.51-5.05,13.09-9.45,20.3-4.93,7.66,4.8,2.41,12,.31,18.26-11.56,34.58-19.49,69.42-12.82,106.43,3.13,17.31-16.35,4.63-20.56,13.35C810.47,980,735,965.42,659.13,952c-40.87-7.24-81.23-16.47-121.84-24.7C494.09,918.54,462.15,897.46,447.47,854.34Z" transform="translate(-108.4 -72.55)"/><path class="cs" d="M861.62,863.47c-20.44,14.36-43.63,8.88-65.65,7.85-112-5.22-208.08-55.75-303-108.84-11.6-6.49-20.93-17-31.32-25.69-.17-5.32-1-10.84,4.55-14.36C480.15,753.22,509.76,764,537,777.75c98.24,51.67,200,90.29,313.7,84.85Z" transform="translate(-108.4 -72.55)"/><path class="dd" d="M967,836.05c-.37,3.07-.73,6.13-1.1,9.19-15.79,22.61-21.26,49.76-32.64,74.31-4.05,8.73-8.5,17.29-13.6,27.6-9.48-42.28,7.79-99,47.34-154.7Z" transform="translate(-108.4 -72.55)"/><path class="de" d="M969.68,860.26c13.78,45.74-7.3,80.47-35.68,112.89-12.93-6.28-13.83-14.2-7.14-27.1,12.47-24,22.7-49.24,33.68-74C962.65,867.22,963.27,861.58,969.68,860.26Z" transform="translate(-108.4 -72.55)"/><path class="df" d="M941.3,764.9c12.3-1,22.67.07,21.66,6.53-2.24,14.32-9.73,27.44-20.09,40.8C930.89,794,975,782,941.3,764.9Z" transform="translate(-108.4 -72.55)"/><path class="dg" d="M902.26,820.81c14.49-2.69,25.48-1.43,35.27-7.22C934.33,834.8,929.45,836.2,902.26,820.81Z" transform="translate(-108.4 -72.55)"/><path class="dh" d="M724.83,811c.38,7.29-1.66,12.5-8.62,10.27-14.82-4.75-29.38-10.39-43.86-16.13-7.08-2.81-6.24-7.81-1.11-11.83,8.7-6.83,18.76-9.72,29.34-5.4C711.84,792.51,721.48,799.38,724.83,811Z" transform="translate(-108.4 -72.55)"/></svg>