<svg xmlns="http://www.w3.org/2000/svg" width="666.6" height="814.52" viewBox="0 0 666.6 814.52"><defs><style>.a{fill:#bcbdbd;}.b{fill:#fefefe;}.c{fill:#120604;}.d{fill:#100502;}.e{fill:#0b0706;}.f{fill:#1c0907;}.g{fill:#131313;}.h{fill:#19cf3e;}.i{fill:#c66f30;}.j{fill:#e1e1e1;}.k{fill:#b68763;}.l{fill:#19f73e;}.m{fill:#bfbfbe;}.n{fill:#290a06;}.o{fill:#330905;}.p{fill:#e1e1e2;}.q{fill:#a98c75;}.r{fill:#c6a570;}.s{fill:#6b6b6c;}.t{fill:#c2b081;}.u{fill:#a09fa0;}.v{fill:#2d1109;}.w{fill:#806e62;}.x{fill:#c8a86f;}.y{fill:#3a3431;}.z{fill:#8f6e57;}.aa{fill:#66574d;}.ab{fill:#2c2d2c;}.ac{fill:#6b4e24;}.ad{fill:#342b29;}.ae{fill:#a59b8f;}.af{fill:#dbd400;}.ag{fill:#ddbe84;}.ah{fill:#d8bc83;}.ai{fill:#debe83;}.aj{fill:#f7f8f9;}.ak{fill:#bf9b81;}.al{fill:#dbac00;}.am{fill:#dbdadd;}.an{fill:#bc9e79;}.ao{fill:#c6c6c8;}.ap{fill:#dce0df;}.aq{fill:#bea273;}.ar{fill:#d4d5d6;}.as{fill:#f4e0b0;}.at{fill:#897257;}.au{fill:#bea479;}.av{fill:#a98e75;}.aw{fill:#d8c8a6;}.ax{fill:#d0d0d0;}.ay{fill:#afadac;}.az{fill:#a19fa0;}.ba{fill:#c2af9c;}.bb{fill:#00a93e;}.bc{fill:#818181;}.bd{fill:#b48763;}.be{fill:#dee0e1;}.bf{fill:#ab6f30;}.bg{fill:#bebebe;}.bh{fill:#6c6c6c;}.bi{fill:#cba383;}.bj{fill:#bab9ba;}.bk{fill:#bbbcbe;}.bl{fill:#d5c095;}.bm{fill:#f2f1f0;}.bn{fill:#bfa472;}.bo{fill:#ececec;}.bp{fill:#f3f2f2;}.bq{fill:#b9b9b9;}.br{fill:#bea274;}.bs{fill:#747474;}.bt{fill:#a7a7a7;}.bu{fill:#009f3e;}.bv{fill:#939293;}.bw{fill:#6d6d6d;}.bx{fill:#320905;}.by{fill:#d6d6d8;}.bz{fill:#d9d9db;}.ca{fill:#737976;}.cb{fill:#dee0e0;}.cc{fill:#d1d2d2;}.cd{fill:#d7d4d6;}.ce{fill:#dddbdc;}.cf{fill:#e1e0e1;}.cg{fill:#bcbcbf;}.ch{fill:#390704;}.ci{fill:#a39ea1;}.cj{fill:#f5f5f5;}.ck{fill:#1a0d08;}.cl{fill:#7a7a7a;}.cm{fill:#241a0d;}.cn{fill:#a6a6a6;}.co{fill:#b8b4b9;}.cp{fill:#bbb2b8;}.cq{fill:#c9ccc6;}</style></defs><title>memari</title><path class="a" d="M526.32,901.36l5.81,3c-2,3.16-3.89,6.47-6.17,9.45-6.89,9-14,17.83-21.06,26.88-3.89-3.26-6-6.69-6.75-11,7.94-6.73,13.2-15.78,20.17-23.36C520.56,903.91,522,900.35,526.32,901.36Z" transform="translate(-174.89 -134.99)"/><path class="b" d="M779.07,646c-4.62,39.27-1.78,78.68-2.33,118-.48,34.72-12.78,47.91-47.69,52.52-30.24,4-60.55,4.6-90.95,4.47-4.23-3.13-1.32-6.3.51-8.69,13-17,25.81-34.2,40.81-49.58,15.87-7.15,26.89-19.16,32.06-35.49,2-6.41,10.35-10,7.64-18.14,5.27-12.92,15-22.86,22.8-34,8.09-11.59,15.73-23.51,24.26-34.79,3.21-4.23,6.35-11.9,12.1-9.2C783,633.27,781.05,640.73,779.07,646Z" transform="translate(-174.89 -134.99)"/><path class="b" d="M814.84,388.79c-4.85,24.64-14.64,48.15-17.51,73.29-.47,4.12-2.53,4.64-6.1,3.93-12.19-2.42-23.63,1.64-35.22,4.34-3.41-18.21,2.92-35.34,6.18-52.74,3.82-20.33-.76-27.16-21.6-29.63-28.75-3.42-57.71-5.64-86.16-10.76C642,375,629.34,374,617.11,370.79c26.59-.24,53.19-.17,79.76-.83,19.72-.48,39.41-1.9,59.11-2.91,11.63,1.19,23-1.58,34.36-2.94C811.74,361.56,818.94,368,814.84,388.79Z" transform="translate(-174.89 -134.99)"/><path class="c" d="M356.39,635.54c-.42-2.53-.48-5.19-1.33-7.57-6.25-17.55-5.18-31.52,10.83-45.5,21-18.31,19.36-44.37,14.79-69.61-6.22-34.32-18.61-66.81-30.12-99.53-5.27-15-1.1-26.47,9.57-37.19,7.76-7.79,14.85-6.81,22.7-.75,9.56,7.38,12.82,17.81,14.72,29,5.94,35.1,11.82,70.21,18.05,105.26a94.94,94.94,0,0,0,11.85,32.44c7.31,12.21,17.49,20.29,31.95,20.83,11.91.45,18,7,21,17.27,6.54,22.19,16,44.2,17.9,66.82,1.2,14.18.11,28.52,5,42.32,5.27,14.93,11.45,29.38,23.8,42.74,3.43-17.52,1.54-33.6.89-49.44-3.15-76.38-9.38-152.48-21.86-228-2.94-17.82-7.69-35.13-13.21-52.29a105.1,105.1,0,0,1-3.25-15.08c-3.62-21.79,6.05-31.85,27.91-29.26,5.54.66,11.09,1.15,16.63,1.72a41.84,41.84,0,0,1,9.22-.55c3.33.1,6.62.36,9.54,2.24,1.93,2.17,3.92,4.33,1.11,7.23-7.88,4.64-15.69-.38-23.54-.14-2.58,0-5.15-.06-7.72-.21-21.46-1.23-27.67,5.4-21.71,26.57,7.68,27.33,14.2,54.8,18,82.92,6.15,45.05,11.16,90.18,14.2,135.59,1.42,21.32.26,42.89,4.71,64q.29,19.4-.2,38.77c0,3.64-.11,7.28-.36,10.92-.87,6.75-4.1,11.88-10.3,15a6.09,6.09,0,0,1-5.52-1.84c-17.5-20.45-26.65-45-34.09-70.32a14.17,14.17,0,0,1,.27-5.07,6.32,6.32,0,0,1,1.85-3.29c-8.43,6.71-19.17,7.85-28.67,12-1.17.52-2.36.93-3.56,1.33-17.93,5.72-35.64,12.08-53.61,17.64C395.73,695,393,699.38,395,707.77c2.88,12,4.51,24.35,7.53,36.39,1,6,3.79,11.77,2,18.06-1,2-2.41,3.37-4.91,2.68-10.09-12.15-8.49-27.77-12.27-41.78-1-3.62-1.25-7.47-2-11.17-.76-4.18-1.19-8.42-2-13.4-.45,2.57.62,4.18.86,5.88.47,3.39.52,6.85,1.64,10.15,4.38,25,8.41,50.06,15.24,74.52a31,31,0,0,1,1.23,3.51c2.19,8.14,3.22,17.2,14.41,18.31,5.2,6.07,5.42,14.38,9.45,21,1.51,2.48,3.3,5.83,6.84,4.06,2.75-1.37,1.43-4.59,1-7-1.17-6.29-3.69-12.38-3.1-18.94.27-3,.71-6.26,4.2-7.26,3.74-1.07,5.37,1.84,6.78,4.51,2.59,4.93,4.7,10.1,7.39,15,6,10.87,14.11,11.83,21.9,2.06,3-3.71,4.79-8.36,10.38-8.31,10.34.09,11.46-4.8,7.38-12.91-.56-1.1-.28-2.52,0-3.79,1.7-6.14,14.63-2.26,11.39-12.82.53-4.08,1.54-7.85,5.9-9.54,3.42.41,4.3,3,4.93,5.77-3.2,14.86-.76,29.08,4.9,43a12.21,12.21,0,0,1-1,7.62c-2.77,3.34-5.76,1.49-7.09-.84-4.78-8.36-8.45-4.73-12.25.63a46.87,46.87,0,0,0-6.41,8.28c-5.62,6-7.69,15.66-17.57,17.37-1.86-.8-3.29-1.81-2.16-4.15l21-29.28c-9.42,5.34-16.53,9.84-24.05,13.48-5.08,2.45-10.65,6.72-16.33.55-.61-.66-2-.64-3-.93-1.95,14.06-13,9.5-19.57,7.46-7.35-2.28-15.55-6-19.45-14.28-11.31-9.92-14.23-24.18-18.32-37.45a345.34,345.34,0,0,1-14-73c-1.52-18.15-7.87-35-13.09-52.08C359.4,658.08,356.5,647.09,356.39,635.54Z" transform="translate(-174.89 -134.99)"/><path class="d" d="M361,845.18c.25,12.35.56,24.71.71,37.06,0,2.32,1.12,5.69-2.43,6.23-3.72.56-3.29-3.11-3.91-5.27-4.13-14.54-8.13-29.12-12.17-43.68-5.37-16.13-14.83-30.68-18.4-47.52.51-27.12-6.73-53.32-9.48-80-.3-3-1.09-5.89-1.26-8.88-3-34.08-9.9-67.62-14.13-101.53-1.11-8.91-2.24-17.82-4-27.14-2,19.19-5.11,37.85-6.39,56.74-2.89,21.21-4.77,42.54-8,63.71-2.85,9.43-2.19,19.31-3.33,28.93s-2.58,19.15-6.68,28.07c-2.07,17.45-4,34.91-6.25,52.34-2.42,19-9.14,23-28.07,15.44,5.37,22.89-1,44.49-3.18,66.37-.27,2.69.3,7-3.15,7.71-4.8,1-4.87-4-5.89-6.84-6.87-19.24-17.84-37.08-18.92-58.34-.34-6.88-4.59-8.44-11.82-5.34-8.34,3.58-15.84-3-18.47-14.25-2.88-12.36,1-24.63,9.2-24.81,14.91-.33,14.2-9.94,13.4-19.74-.77-9.38-2.41-18.7-3.67-28-1.36-10,1.36-17.82,11.81-21.31,14.67-3.91,21.9.6,24,15.15.48,3.34.53,6.75,1.49,10,1.93,6-.08,12.66,3.85,20.1,4.79-16,4.5-31.36,7.29-46.17,1.86-14.92,2.64-29.93,4.87-44.77.8-5.38.53-11.29,4.82-15.68q2.91-24.17,5.8-48.34c-1.83-16.17.5-32.14,2.44-48.11.62-5,1.17-10.26,4.73-14.4-.1-16.28,0-32.57-.41-48.84-.2-7.09.72-11.1,9.52-10.67,10.26.5,13.43-5.07,7.86-13.65-10.89-16.76-6-34.83-4.72-52.33.68-9,8.83-13.76,17.81-13.55,9.53.22,17.88,5.55,17.88,15.17,0,17.42,6.35,35.62-5.88,52.23-4,5.45-4.19,14,7.49,12.33,9.83-1.42,11.3,3.66,11,11.9-1.57,38.59-.09,77,8.75,114.8,8.09,19.66,8,40.87,11.48,61.4C353,709.55,356.17,748,364.3,785.67c2.38,11,1.28,22.32-2,33A57.56,57.56,0,0,0,361,845.18Z" transform="translate(-174.89 -134.99)"/><path class="e" d="M542.84,361.92c-3.13.29-6.37,1-8.65-2.15-7-29.6-14.87-59-20.74-88.86-3.42-17.37-10.68-30.4-25.46-40.63-12.62-8.75-23.7-19.83-35-30.39-11-10.32-10.87-19,.53-29.33,13.93-12.6,30.72-20.08,48.44-25.89,19.35-6.34,39-10.22,59.44-9.62,13.69.4,16.88,3.86,15.49,17.35-2.26,21.82-7.38,43.13-12.44,64.42-1.11,4.68-1.66,8.8.08,13.69,14.69,41.2,27,83.17,39.42,125.1,1.09,3.72.51,8.93,7,8.94,5.83,0,10,1,9.56-8.24a455.57,455.57,0,0,1,3.56-82.26c2.51-18.77,14-35.75,10.68-55.7-.63-3.82,3-6,6.39-7.16a75.67,75.67,0,0,1,11.09-3.25c22.62-4.45,25.29-2.95,23.95,19.92-1.06,18.3,10.12,33.11,11.22,50.8,1.56,24.86,4.15,49.6,2.76,74.57-.21,3.73-3,9.93,2.9,10.85,5.36.84,5.36-5.57,6.78-9.33C712,322.67,724.23,290.62,736,258.41a110,110,0,0,1,19.58-34.34c17.25-20.26,33.63-41.26,50.53-61.83,2-2.43,3.34-6.18,8.65-6.06,2.11,10.06-.69,19.94-1.68,29.84-2.43,24.36-5,48.69-7.25,73.07-.67,7.43-2.43,14.32-6.26,20.7-3.11.7-3.92-1.76-5.12-3.7-2.51-5.92-8.12-5.87-13.2-6.82A86.09,86.09,0,0,1,768,264.63c-7.56-1.88-11.75-10.82-20.64-9.75-2.44,3.64-3.44,7.83-4.78,11.9a32.05,32.05,0,0,1-1.29,3.29c-10.74,29.4-22.7,58.33-32.45,88,4.89,6.95,10.85,1.85,16.39,1.43,6.93-1.09,13.88-.86,20.84-.81,3.87.38,7.85.43,10.72,3.69.86,2.54.65,4.8-1.68,6.52-18,4-36.31,4.43-54.55,5.05-27.74.95-55.52-.74-83.28-.06-17.92,1.38-35.53-3.25-53.42-2.86-3.37.07-6.77-.92-9-4l-2.57-4.56c2.63-3.26,6.43-3.32,10.1-3.72a154.66,154.66,0,0,1,18.77.46c2.52.29,5,1.06,7.48,1.49,7,1.19,8.32-1.65,5.85-7.83C589,339.05,586,324.4,581.07,310.37c-3.12-8.79-7.79-15.95-16.29-20.2-7.19-3.3-13.44-.83-19.43,3.18-9.07,10.6-10.71,22.71-8.25,36.07C539.09,340.23,545,350.37,542.84,361.92Z" transform="translate(-174.89 -134.99)"/><path class="f" d="M797.13,274.33q1.25,2.73,2.47,5.46c-9.53,26.4-19.07,52.81-28.73,79.55,9.15,1.55,17.08-1,25.13-1.56,18.62-1.25,26.38,6.24,25.4,24.76-1.1,20.83-12,39.32-14.47,59.83a40,40,0,0,1-1.43,6.27c-3.7,12.77-2.48,21,11.49,29.41,28.85,17.35,32.15,55.07,10.26,84.8-6.85,9.3-13.64,18.78-21.59,27.08-18.66,19.48-23.44,42.9-21.58,68.62-3.63,22.56-2,45.29-2.07,68-.08,15.45.52,30.92-.19,46.33-1.24,26.47-12.37,40.14-38.12,46.3-32.84,7.87-66.44,7.06-99.87,6.65-9.43-.12-15.77,2.46-22.09,9.54-15.47,17.34-32.1,33.56-56.55,37.67a13.69,13.69,0,0,1-7.3,2.65,16.61,16.61,0,0,1-9.18-3.17c-3.16-2.33-6.26-4.72-5.53-9.35,8.44-14.72,21.44-26,30.55-40.22,9.45-9.66,17.08-20.83,25.78-31.11,7.36-8,13.85-16.63,20.48-25.19,1.85-2.15,3.89-4.14,5.6-6.41,5.41-8.13,12.94-14.58,18.19-22.84C654.21,724.73,665,712.43,674.45,699c7.75-8,14.43-16.88,21-25.83q7.51-8.7,14.91-17.5c5.92-7.08,1.82-10.42-3.77-14-5-3.17-7.68-6.55-14.14.86-9,10.28-17.81,20.74-26.82,31.05-4.22,1.71-6.77,4.86-8.51,9-2.18,5.25-5.54,9.75-10.7,12.38-4.87,2.47-7.74,6.13-9.78,11.21-2.93,7.3-8.5,11.63-16.87,11.31a4.87,4.87,0,0,1-3.8-3.7c3.86-8.06,12.55-13,14.32-22.45,4.05-6,14.53-5.28,15.39-14.67,1.62-4.8,3.2-10,8.41-11.8,8.46-2.9,11-9.49,12.22-17.25a8.09,8.09,0,0,1,2.23-2.83c13.78-2.44,17.38-12.75,18.94-24.62a11.17,11.17,0,0,1-.06-5.42c13.21-27.13,31.86-50.1,54-70.4,3.81-3.5,8.23-6,13.54-6.56,3.15-.29,5.71,1.11,8.59,3.26-2.89-2.83-6.33-4-8.64-6.64-4.36-5.17-10.49-8.26-15.3-12.91a45.24,45.24,0,0,0-10.05-8.28,33.77,33.77,0,0,1-6.32-5.92,9.44,9.44,0,0,1-2.17-6.9,88.64,88.64,0,0,1,36.21-33.28c12-4.57,24.1-8,36.92-2.42.55-19.67,7.13-38.82,12.56-58.21,2-7,4.21-13.93,4.7-21.23.87-13-3.9-18.1-17.12-17.76-7.69.2-15.28,1.67-22.9,2.69-5.38.73-11.15,2-15.46-3.16v-4.47c13.75-17.78,17.24-40.06,26.21-59.94C787.71,293.49,786.46,280.76,797.13,274.33Z" transform="translate(-174.89 -134.99)"/><path class="g" d="M556.55,873.35l8.64-.35-56,72.43c-4.29,5.57-7.53,5.68-10.89-1.2-11.79-24.06-23.7-48.07-36-71.87-4.9-9.48,3.37-12.54,7.32-17.84l3,3.06c-2.44,12.55,1.91,23.4,8.81,33.41,4.67,6.78,6.76,14.77,11,21.73a105.38,105.38,0,0,1,8.21,15.86c2,5.77,5.05,6.71,8.93,1.64,6.52-8.51,13.61-16.58,19.53-25.53a25.42,25.42,0,0,1,2.09-2.85C540.23,892.94,545.93,881,556.55,873.35Z" transform="translate(-174.89 -134.99)"/><path class="h" d="M756,470.35c-12.81,8.7-25,18-33.57,31.3-1.38,4.76-4.85,8-8.25,11.29C654.37,570.55,603.3,635.65,552.63,701.13c-5,6.5-8.93,14.57-18.1,16.75l-.39-40.71c3.18-11.69.5-23.62.81-35.38,1.4-53,2.42-106.07-10.1-158.42-6.45-27-11.28-54.51-13.15-82.35-1.26-18.69,5.1-29.37,20.66-35.17L554.85,367l62.27,3.75c42,2.23,83.56,8.2,125.2,13.51,19.81,2.53,27.74,12.64,23.71,31.75C762.23,434.08,760.66,452.5,756,470.35Z" transform="translate(-174.89 -134.99)"/><path class="i" d="M403.3,761.74l-3.2-17.68c-5.31-34.92,2.61-40.44,40.67-61.87,6.17-3.48,14-4.09,18.35-10.69l0,0c10.6.37,20.54-8.22,31.56-2.36,7.13,24.94,16.89,48.64,32.94,69.35-1.22,3.16-.63,6.69-2.57,9.78-4.72,7.51-8.65,7.87-14.75,1.37-5-5.33-6.85-12.79-12.2-17.84,6.08,8.51,12.42,17,17.3,26.13,3.76,7,.16,14.11-5.41,19.65-3,2.86-2.56,6.75-3.16,10.33-1.26,3.75-2.39,8.13-7.3,3.21-4.11-4.11-8.34-8.13-12.16-13.2,2.56,7,8.11,12.56,7.13,20.31a20,20,0,0,0,.78,3.74c6.49,15.7,6.5,15.73-11.49,16.62-2.72.13-5.88,0-3.9,3.82,2.6,5-1.19,5.67-4,7.39-15.31,9.32-17.92,8.71-26.32-7.1-3.25-6.13-5.95-12.55-10.31-21.85-3.37,13,1.53,21.54,2.49,30.42.36,3.32,4.57,7.81-1.25,9.76-4.67,1.56-9.79.6-11.93-4.67-3.36-8.28-6.09-16.82-9.09-25.25-12-.1-11.26-11.3-15.75-18l0,.11c2.59-7-7-14.87,1.53-21.44,5.61,1.6,4.87,8.21,8.78,11.15,1.08,1.08,1.71,2.59,3.18,3.31-.34-2.81-3.17-3.65-4.51-5.67A30.84,30.84,0,0,1,403.3,761.74Z" transform="translate(-174.89 -134.99)"/><path class="j" d="M369.46,624.84c-.1-5.36,4.35-5.72,7.82-6.82,30.1-9.52,60.27-18.84,90.34-28.46,6.09-1.94,10-2,11.93,5.51,4.18,16.55,8.79,33,13.64,49.37,1.71,5.76.63,8.44-5.43,10.1-10.26,2.82-20.28,6.55-30.4,9.9-15.94,1.42-31.55,8-47.92,3-2.43-.74-5.07-.8-7.51-1.6-6.7-2.19-13.49-4.88-13.8-13.15-.27-7.25,6-9.34,11.46-12.1,6.78-3.41,14.25-4.69,20.05-7.41-14.33,3.28-28.63,14-45.67,6.53C367.66,636.21,371.63,629.6,369.46,624.84Z" transform="translate(-174.89 -134.99)"/><path class="k" d="M441.32,563.89c6.83,2.55,13.77,4.55,21.13,5a11.76,11.76,0,0,1,11.26,10.59c.72,5.91-6.1,4.53-9.64,5.64-22,6.87-44.05,13.34-66.1,19.94-7.19.53-14.12,2.63-21.23,3.58-4.7.63-10.24,1.28-7.78-6.76,38.07-25.57,29.27-62.29,21.77-97.52-6.32-29.67-15.8-58.66-23.89-88,2.06-7.09,12-2.8,14.13-9.85,2.06-2.47,4-5.22,7.68-2.19,5,12,5.55,24.94,7.31,37.49,4,28.62,8.63,57.11,16.37,84.93a83.85,83.85,0,0,0,13.49,27.37C429.9,559.66,434.32,563.52,441.32,563.89Z" transform="translate(-174.89 -134.99)"/><path class="l" d="M532.36,365.85c0,1.56,4,2.77,1.54,3.81-14.36,6.12-20.24,15.12-18.83,29.36,3.28,33.19,9.68,65.83,16.62,98.4A341,341,0,0,1,539,559.64c.92,36.43,1.2,72.92-2.25,109.3-.28,3,.08,6.08-2.65,8.23-3.73-50.36-6.23-100.83-12.48-151-5.28-42.43-10.3-84.8-23.18-126C487.88,366.32,494.45,360.48,532.36,365.85Z" transform="translate(-174.89 -134.99)"/><path class="j" d="M490.43,914.11c-7.27-14-14.11-28.17-22-41.79-4.12-7.14,3.16-9.76,4.07-14.74l15.44-18a3.56,3.56,0,0,1,4.42,1.47c11.36,17.84,24.33,34.71,32.66,54.38-3.61,10.58-12.65,16.25-20.74,22.76C497.75,923.48,495.1,915.33,490.43,914.11Z" transform="translate(-174.89 -134.99)"/><path class="m" d="M374.66,638.21c20.13,4.11,38-6.42,57.84-10.35-1,6.91-6.17,6.59-8.85,7-9.49,1.5-17.71,5.76-26.08,9.87-3.47,1.7-7.66,3.18-7.34,7.91s4,7.19,8.31,8.78c16.18,6,32.7,4.74,49.14,1.77,3.72-.67,6.63-.62,9.68,1.24-22.64,10-46.63,16.24-70,24.27-3.4,1.18-8,2.95-9.72-2.47-6.8-21.25-13.42-42.56-18.07-65.37,6.21,1.74,5.45,6.52,7.38,9.51,6.18,6.93,6,16.24,9.19,24.32,1.67,4.61,3.24,9.27,5,13.85-2.52-5.12-3.49-10.81-5.48-16.12C376.39,647.61,369.44,643.35,374.66,638.21Z" transform="translate(-174.89 -134.99)"/><path class="n" d="M616.74,713l3,3a6,6,0,0,1,.79,3.48c-1.11,7.35-2.92,14.33-10.2,18.24a37.68,37.68,0,0,0-5.85,3.86c-10.61,15.09-22.12,29.37-36.91,40.67-7.12,1.92-12.38,6.49-9.73,13.82,8.6,23.81-3.74,39.16-19.91,53.38-1,.85-1.9,1.72-2.92,2.53-14.62,5.41-21.59.12-21.82-16.56l.33-8.61c4.16-1.57,4.93,2.08,6.66,4.28,1.24,2.58,2.06,5.38,3.91,7.65,1.63,1.51,3.28,2.73,5.65,1.44,11.81-6.42,19.67-21.39,16.74-35.23-2.8-13.24.31-23.92,8.17-34.69,27-37,56.22-72.2,85.39-107.44,3.12-3.77,6.06-8.72,12.46-7.27a6.08,6.08,0,0,1,2.14,3c1.47,6.82-5.9,9-7.43,14.24-4.73,6.74-11.11,11.95-16.56,18-6,7.83-10.49,16.88-19.11,22.44-2.92,4.45-3.73,9.94-7.44,14,5-3.56,4.42-9.88,7.72-14.28A3.64,3.64,0,0,1,616.74,713Z" transform="translate(-174.89 -134.99)"/><path class="o" d="M534.53,717.88c24.35-30.84,47.66-62.58,73.29-92.32,36.72-42.62,71.1-87.54,114.62-123.92l2.55,4.41c-.55,6.23-5.73,9.21-9.42,13.16-15.09,16.17-32.54,30.12-45.28,48.49-29.18,31.16-56,64.36-82.77,97.54-3.48,4.32-7,8.6-10.29,13.07-10.67,13.75-20.84,27.88-31.53,41.61-3,3.79-4.83,9.4-11.21,9.18Z" transform="translate(-174.89 -134.99)"/><path class="p" d="M513.19,835.35c4.53,8.48,5.27,22.49,21.11,14.44,11.6-1.71,13.26,4.29,10.58,13.65-.36,3.67,3.36,4.61,4.73,7.11-3.77,11-8.2,21.33-20.88,24.76C514.62,882,509,863,497,848.19c-3.64-4.46-7.14-9.68-3.86-16.14l10.15-13.43Z" transform="translate(-174.89 -134.99)"/><path class="l" d="M534.49,729.1l41.16-52.79c3.88,7.23-.75,12.57-4.74,17.24-15.43,18.08-26.1,39.12-37.61,59.6-9.25,16.48-9.41,34.5-5.37,52.43,2.56,11.43-.41,20.12-9.5,27.06l-4.91-5.9c-6.36-14-10.89-28.13-4.85-43.47,2-15.54,6.68-30,17.48-41.87Z" transform="translate(-174.89 -134.99)"/><path class="q" d="M441.32,563.89c-13.6,3.74-18.08-7.59-22.36-15.6-11.73-21.95-14.68-46.61-18.89-70.79-4.37-25.05-9-50.06-13.45-75.09-1.71-1.35-2.57-3.3-3.66-5.11-1.93-3.2-3.45-7.14-8.37-6.21a4.2,4.2,0,0,0-3.31,3.46c-.89,4.28,1.16,7.31,4.42,9.73,2,1.5,4.68,2,6.3,4.13,1.2,3.14,1.62,5.82-3.19,5.49a19.7,19.7,0,0,0-12,2.49c-3-9.84-5.92-19.84-3.9-30.16,2.18-11.11,8.72-13.06,17.29-5.79a30.81,30.81,0,0,1,10.41,17.2c6,26.12,7.26,53,12.75,79.16,5.11,24.36,6.74,49.91,21.68,71.35C429.47,554.48,434.28,560.32,441.32,563.89Z" transform="translate(-174.89 -134.99)"/><path class="r" d="M459.12,671.5c2.78,8.35-4.58,9.34-8.95,10.41-16.06,3.91-27.25,15.61-40.46,24-6.75,4.29-7.78,12.72-8.24,19.33-.43,6.21-1.91,12.5-1.37,18.81-5.55-14.36-6.38-29.78-9.89-44.6-.91-3.83.28-6.16,4.55-7.48C416.27,685.34,437.68,678.36,459.12,671.5Z" transform="translate(-174.89 -134.99)"/><path class="s" d="M562.58,362l-10.3.47-9.44-.55c-5.56-18.26-14-36.13-8.14-56,1.8-6.06,3.11-12.65,9.95-15.59,4,1.78,3.68,5.37,3.45,8.75C546.59,321.52,549.11,343,562.58,362Z" transform="translate(-174.89 -134.99)"/><path class="t" d="M402.14,772.49c-6.18,6.32,4.76,14.58-2.36,20.8-10-25.51-12.16-52.55-15.53-79.35-1.13-2.58-.06-3.52,2.5-3.32,3.7,18.15,7.09,36.37,13.65,53.79C402,766.89,404.72,769.12,402.14,772.49Z" transform="translate(-174.89 -134.99)"/><path class="u" d="M493.13,832.05c5,18.64,19.52,32,27.53,49,2.17,4.61,5.47,8.67,8.25,13,5.38,2.2,5.08,6,3,10.4l.22,0c-2.57,1.28-4.49-.08-6.39-1.55-1.65-1.8-2.71-3.81-2.26-6.36Q505.73,868,488,839.6Z" transform="translate(-174.89 -134.99)"/><path class="v" d="M526.15,741.4l-17.48,41.87L506,777.61c10.91-20.68-9.62-32.27-15-49.83,8.83,4.11,11,12.08,15.23,17.94,5.59,7.7,9.22,9.07,13-1,.87-2.3,2.88-4.17,4.36-6.24Z" transform="translate(-174.89 -134.99)"/><path class="w" d="M390.1,563.53c-1,10.91-6.43,19.4-15,25.76S358.67,602,360.4,614.71c-6.78-8.1-4.15-14.42,2.43-20.3,13.08-11.69,22.92-25.27,24.64-43.43C394.79,553.82,390,559.18,390.1,563.53Z" transform="translate(-174.89 -134.99)"/><path class="x" d="M490.52,798.26c-4.41-8.7-10.45-16.71-10.55-27.69,5.66,5.95,12,11.42,16.74,18,3.55,4.89,4.25.53,6.14-.63C505,798.82,499.65,800.82,490.52,798.26Z" transform="translate(-174.89 -134.99)"/><path class="y" d="M390.1,563.53c-1.25-4.11,2.1-9.17-2.63-12.55.35-19.17-.76-38.23-4.8-57.08C387.54,516.88,396.93,539.39,390.1,563.53Z" transform="translate(-174.89 -134.99)"/><path class="z" d="M369,601.87c.56,4.71,3,4.38,7.06,3.76,7.21-1.1,14.56-4.35,22-.58-6.61,2.44-13.13,5.17-19.87,7.17-3.3,1-7.38,4.85-10.26,1A8.27,8.27,0,0,1,369,601.87Z" transform="translate(-174.89 -134.99)"/><path class="aa" d="M356.28,393.25q5.1,21.9,10.21,43.81C359.82,423.15,351.88,409.58,356.28,393.25Z" transform="translate(-174.89 -134.99)"/><path class="r" d="M490.7,669.17c-10.62-.54-20.69,6.28-31.56,2.36,7.91-3.09,15.92-6,23.7-9.33C491,658.68,491.51,663,490.7,669.17Z" transform="translate(-174.89 -134.99)"/><path class="ab" d="M374.93,655.69q-4-12.66-8-25.31l2.49-5.54q2.6,6.69,5.2,13.37l2.7,15.38C378.08,656.06,377.25,656.73,374.93,655.69Z" transform="translate(-174.89 -134.99)"/><path class="ac" d="M402.14,772.49l-1.74-8.08,2.9-2.67,7.44,18.41c1,2.55,1.88,5.05-2.59,4.39Q405.15,778.51,402.14,772.49Z" transform="translate(-174.89 -134.99)"/><path class="t" d="M399.75,793.18c6.48,4.91,5.6,16.28,15.75,18C398.23,815.7,403.62,800.37,399.75,793.18Z" transform="translate(-174.89 -134.99)"/><path class="ad" d="M372.85,457.71c4.34,6.13,5.81,13.21,5.78,20.69C375.09,472.05,372.12,465.54,372.85,457.71Z" transform="translate(-174.89 -134.99)"/><path class="ae" d="M386.75,710.62l-2.5,3.32c-2.81-5.43-2.39-11.21,0-17.59Q385.51,703.49,386.75,710.62Z" transform="translate(-174.89 -134.99)"/><path class="af" d="M269.08,574c0-.9,0-1.81,0-2.72,3-9.84,6.88-5.09,9.51-.14,4.81,9,2.42,19.36,4,29,.53,3.21,1,6.85-1,10-6.35,55.72-12.32,111.49-19.42,167.12-1.21,9.52-4.69,18.82-3.89,28.7-7.19-.22-6.66-5.77-6.17-10.15.58-5.15.66-10.47,2.43-15.49-3.95,10.15,1.06,23.51-11,31.38-3-4.05-2.2-7.67-1.05-11.32,3.24-36.33,6.77-72.63,12.72-108.65,5.82-16.48,5.21-34,7.49-51,2.58-19.25,6-38.5,7-58C269.86,579.79,270.32,576.82,269.08,574Z" transform="translate(-174.89 -134.99)"/><path class="af" d="M322.37,566.09c.12,1.73.23,3.45.35,5.17.81,19.72,2.65,39.29,8.23,58.34q7.46,49.9,14.87,99.83c1.3,8.85,2.13,17.77,3.18,26.66.49,2.81,2.35,6.79-.88,7.93-4.25,1.51-4.86-3.31-6.31-6.07-1.52-2.91-.17-6.42-1.43-9-2.1,5.21,6.92,15.22-7,15.65-5.95-40.11-12-80.2-17.82-120.31-2.16-14.78-3.89-29.62-5.81-44.43a93.19,93.19,0,0,1-.27-31.52,9,9,0,0,1,7.48-7.77C321.36,559.72,321.09,563.72,322.37,566.09Z" transform="translate(-174.89 -134.99)"/><path class="ag" d="M271.63,532.56a155.24,155.24,0,0,1-.15-31c3.82-7.85,10.26-11.36,18.73-10.13,10,1.45,21.28-4.72,29.85,5-1.15,16.38,5.37,33.57-5.16,49-7.82,2.28-15.39,10.75-23.71,1,.73-2.24,2.68-3.13,4.58-4.12,4.27-2.25,9.31-4.81,5.44-10.51s-8.57-4.36-12.47.7c-2.46,3.47-2.62,9.33-9.19,8.45C274.55,540.21,272.6,536.93,271.63,532.56Z" transform="translate(-174.89 -134.99)"/><path class="ah" d="M283.61,458c-2.82-11.34-1-22.88-1.4-34.32-.27-7.19,3.72-12.38,10.63-14.14,7.15-1.82,12.36,1.27,14.89,8.39,1.67,9.23.45,18.54.76,27.8.21,6.29,1.21,13-6.39,16.24C295,464.93,288.92,463.26,283.61,458Z" transform="translate(-174.89 -134.99)"/><path class="ai" d="M237,790.38c.9,4.56-.17,8.82-1.95,13-15.82,11.39-26.57,11.43-36.4.12-2.43-9.5-2.27-18.46,5.48-25.81,4.8.32,9.09-2,13.74-2.63C234.71,772.84,235.61,773.48,237,790.38Z" transform="translate(-174.89 -134.99)"/><path class="aj" d="M229.59,741.89c.8-17.76-1.44-35.77,4.8-54.26,8.8,8,11.76,17.49,11.23,28.41-1.71,15.23-3.38,30.46-5.19,45.68-.26,2.18.7,5.31-3.31,5.53-3.7.2-5.56-1.39-5.86-5Q230.44,752.07,229.59,741.89Z" transform="translate(-174.89 -134.99)"/><path class="ak" d="M269.08,574c4.19,8.13,2.74,17,1.74,25.19-4,32.83-9,65.53-13.94,100.66l-1.65-8.09C258.34,652.29,263.6,613.12,269.08,574Z" transform="translate(-174.89 -134.99)"/><path class="al" d="M281.59,610.13c-.22-12.76-2.83-25.18-5.36-37.61-1.34-6.59-4-5-7.16-1.28l2.29-19c14,3.53,19,11.67,15.14,25.22C283.49,588.13,285.6,599.6,281.59,610.13Z" transform="translate(-174.89 -134.99)"/><path class="am" d="M346,780.17c6.9.78,11.21,4.67,11.08,11.65-.14,7.35-4.1,12.29-12.08,11.92s-11.64-5.55-11.21-12.83C334.2,784,338.86,780.4,346,780.17Z" transform="translate(-174.89 -134.99)"/><path class="an" d="M271.63,532.56c6.64,8.79,11.49,7.67,14.68-2.64a19.89,19.89,0,0,1,5.55,15.15c7.56,9,15.42-3.92,23,.32-6,9.81-15.18,12.29-25.48,9.4C278.6,551.76,271.65,544.7,271.63,532.56Z" transform="translate(-174.89 -134.99)"/><path class="ao" d="M233.71,832.52c.92,11.67-7.4,8.12-12.21,9.23-9.61,2.23-8.57-5.36-9.24-10.91-1.53-12.67,9.87-8.94,15-9.71C237.74,819.54,228.74,830.76,233.71,832.52Z" transform="translate(-174.89 -134.99)"/><path class="ap" d="M204.11,759.51c-2.65-4.56-5.24-10.85-.48-13.61,5-2.89,14.05-4.94,17.82-2.31,6.37,4.43,3.4,13.67,3.22,21C217.4,764.59,209.67,766.4,204.11,759.51Z" transform="translate(-174.89 -134.99)"/><path class="aq" d="M198.62,803.48c12.17,10.61,24.27,1.83,36.4-.12.42,16.27-13.33,12.55-21.91,14.53C202.5,820.32,198.72,813.1,198.62,803.48Z" transform="translate(-174.89 -134.99)"/><path class="h" d="M210.1,738.09c-8.11,1.86-10-2-9.91-6.69.2-7.09,4.41-10.92,11.59-11s10.15,4.33,9.94,10.71C221.4,740.74,212.77,736.4,210.1,738.09Z" transform="translate(-174.89 -134.99)"/><path class="al" d="M333.34,764.59c9.87-4.51,2-14.26,6.14-21.28,5.38,5.55,3.3,13.74,8.25,19.89l1.27-7.11c-.13,6.66,10.23,15.28-5.07,19C332.46,777.86,332.27,772.7,333.34,764.59Z" transform="translate(-174.89 -134.99)"/><path class="al" d="M242.51,800.37l.82,7.7c10.67-7.7,4.34-21.38,10.95-30.55,5.86,9-6.68,20.31,4,28.43,1.26,7.94-2.19,13.61-10.09,11.78C239,815.59,239.34,807.87,242.51,800.37Z" transform="translate(-174.89 -134.99)"/><path class="ar" d="M215.8,848.56c18.35-3.42,18.38-3.42,16.12,12.85-.7,5-1.61,10.05-3.08,19.08C223.67,867.81,219.78,858.31,215.8,848.56Z" transform="translate(-174.89 -134.99)"/><path class="as" d="M320.06,496.43c-16.79-3.94-33.38-6-48.58,5.12-2.59-10.1,1.27-13.54,11.54-12.67s20.46.44,30.68.08C319.57,488.75,321.44,491,320.06,496.43Z" transform="translate(-174.89 -134.99)"/><path class="at" d="M180.66,800a43.26,43.26,0,0,1,1.6-6.54c.91-2.51,2.83-4.37,5.89-3.63,2.43.59,3,2.6,3.36,4.86.7,5,1.33,10.12,2.44,15.09.79,3.58,1.58,7-2.76,8.49-3.52,1.23-5.45-1.52-7.22-4C181.33,810.7,180.57,806.54,180.66,800Z" transform="translate(-174.89 -134.99)"/><path class="al" d="M322.37,566.09c-5.11-5.83-8.17-4.21-10,2.65-2.69,10.22-2.6,20.67-2.68,31.11-3.44-10.64-3.72-21.79-5.36-32.72-1.69-11.33,10.35-9.55,14.14-16.51A29.77,29.77,0,0,1,322.37,566.09Z" transform="translate(-174.89 -134.99)"/><path class="au" d="M283.61,458c3.28.75,6.53,1.93,9.85,2.16,8.22.58,14.11-1.54,13.8-11.72s.28-20.34.47-30.51c3.42,12.61,1.51,25.42,1.13,38.12-.2,7-4.23,12.28-12,12.52C289.7,468.77,284.18,466.29,283.61,458Z" transform="translate(-174.89 -134.99)"/><path class="av" d="M331,629.6c-.52,1.37-2.16,3.8-2.27,3.3-3.9-19.37-7-38.88-8.08-58.64-.05-1,1.38-2,2.12-3A468,468,0,0,1,331,629.6Z" transform="translate(-174.89 -134.99)"/><path class="aw" d="M237,790.38c-4.6-16-4.62-16.13-21.33-11.92-4,1-7.95,3.4-11.54-.79,9.44-8.55,20.76-5.29,31.6-5,3.39.08,4.1,2.23,3.53,5.2C238.42,782,237.72,786.21,237,790.38Z" transform="translate(-174.89 -134.99)"/><path class="ax" d="M355.42,854.52c-5.9-10.16-5.75-20.24-8.69-29.41-.87-2.71-.65-5,3-5.39,3.83-.47,4,2.18,4.11,4.7C354.37,833.7,354.82,843,355.42,854.52Z" transform="translate(-174.89 -134.99)"/><path class="ay" d="M204.11,759.51l20.56,5.12c-4.44,5.19-11,2.82-16.43,3.94C201.35,770,204.61,763.09,204.11,759.51Z" transform="translate(-174.89 -134.99)"/><path class="az" d="M357.83,807.1c-7,8.69-12.09,8.88-19.11,2.59Z" transform="translate(-174.89 -134.99)"/><path class="ba" d="M296.56,483.56c-3.53.29-5.61-.6-5.56-4,0-2.66.24-5.19,3.81-5.4s5.52,1.26,5.71,5.1C300.69,482.65,299.21,483.89,296.56,483.56Z" transform="translate(-174.89 -134.99)"/><path class="bb" d="M814.84,388.79c-4.85,24.64-14.64,48.15-17.51,73.29-.47,4.12-2.53,4.64-6.1,3.93-12.19-2.42-23.63,1.64-35.22,4.34-3.41-18.21,2.92-35.34,6.18-52.74,3.82-20.33-.76-27.16-21.6-29.63-28.75-3.42-57.71-5.64-86.16-10.76C642,375,629.34,374,617.11,370.79c26.59-.24,53.19-.17,79.76-.83,19.72-.48,39.41-1.9,59.11-2.91,11.63,1.19,23-1.58,34.36-2.94C811.74,361.56,818.94,368,814.84,388.79Z" transform="translate(-174.89 -134.99)"/><path class="bc" d="M482.86,217.76c-8.68-7.32-17.45-14.53-26-22-3.29-2.88-7.57-5.7-5.17-11.35,11.22-16.35,28.55-23.33,46.08-30a169.24,169.24,0,0,1,59.61-11.22c6.12-.09,10.88,1.62,13.07,7.84.61,12.38-2.13,24.24-5.6,36-3.29,8.84-10.34,11.94-19,12.47-15.52.94-30.12,2.59-40.4,17.38C500,224.62,490.58,220.3,482.86,217.76Z" transform="translate(-174.89 -134.99)"/><path class="i" d="M768.83,262.18l13,4.79c12.4,8.67,3.68,18.95,2.23,28.69-5,16.79-11.81,32.94-18.54,49.08-3.72,8.92-8.79,16.61-19.8,17.37l-22.78.68c-4.32-1.81-3.74-5.07-2.61-8.57,8.5-26.5,16.68-53.13,29-78.22C753.17,268,758.5,261.39,768.83,262.18Z" transform="translate(-174.89 -134.99)"/><path class="bd" d="M636.6,302.56c6.15-3.47,12.92-4.13,19.75-4,23,.3,27.54,4.75,27.84,27.27,0,4.27,0,8.55,0,12.83.1,27.84.1,27.84-28.81,26.11-16.42-2.4-21.73-8.71-23.82-26.8C630.15,325.6,635.35,314.4,636.6,302.56Z" transform="translate(-174.89 -134.99)"/><path class="bc" d="M562.58,362c-16.52-10.93-16.86-28.37-18-45.32-.55-8.75,0-17.57,0-26.35,6.41-4.71,13.12-7.4,20.88-3.13,18.8,17.22,21.61,40.37,23.45,63.79.38,4.81-1.13,9.31-6.06,11.7Z" transform="translate(-174.89 -134.99)"/><path class="j" d="M544.76,210c8.19.54,8.68,7.19,10.3,12.95.1,13.5,6.07,25.44,10.24,37.84,2.19,6.49,5.24,12.76-.17,19.09-7.09-.26-14.16-.19-21,2.31-10,2.85-13.65-4.84-17.1-11.21-5.34-9.84-7.62-20.89-8.46-32C517.51,224.26,526.73,214.49,544.76,210Z" transform="translate(-174.89 -134.99)"/><path class="be" d="M635.18,254.06c12.1-5.56,24.77-1.16,37.14-2.08,3.27-.25,3.72,2.92,4.4,5.36a176.25,176.25,0,0,1,6.3,40.92l-20.29-5.33c.51-.74,1.35-1.55,2-1.27,1.23.51,1.34-.34.74-.32-5.07.2-10.14-.2-15.2.11-13.62.82-18.26-4.55-15.83-18C635.63,267.06,640.06,260.71,635.18,254.06Z" transform="translate(-174.89 -134.99)"/><path class="bf" d="M768.83,262.18c-13.58,4.21-18.39,16.22-22.66,27.58-8.76,23.29-16.24,47.07-24.16,70.68-.21.61.58,1.56.91,2.35-6.26.24-13.4,5.84-18.19-3,9-12.59,12.83-27.54,18.12-41.69,6.35-17,15.51-33.1,17.24-51.64v0c5.35-2.79,5.88-7.45,4.92-12.69.78-3.15-.54-9,6-4C756.74,254.18,762.87,258.07,768.83,262.18Z" transform="translate(-174.89 -134.99)"/><path class="j" d="M776.35,208.84c4.77-3.82,4.49-16.6,15.76-8.87,9.57,5.76,11,13.91,8.7,24.38-2,8.88-4.06,17.51-8.83,25.3-4.35,7.1-10.47,9.84-18.62,7.37a17.75,17.75,0,0,1-10.06-5.33c-2-5.54-2-10.87,1.62-15.85C770.76,227.7,773,218.05,776.35,208.84Z" transform="translate(-174.89 -134.99)"/><path class="bg" d="M544.76,210c-5.54,5.19-14,6.21-18.38,13.14-10.59,16.54-.39,50.67,17.8,59.05a72.59,72.59,0,0,0-17.36,22.39c-5-21.32-10.7-42.51-14.72-64C508.41,220.92,524,207.05,544.76,210Z" transform="translate(-174.89 -134.99)"/><path class="i" d="M652.81,246.07c-13.66,4.44-13-5.89-12.84-16.45.27-14.17,3.84-16.5,22.24-17.69,12.47-.8,8.74,7.58,8.77,13.42C671.12,250.51,671.67,245.45,652.81,246.07Z" transform="translate(-174.89 -134.99)"/><path class="bh" d="M482.86,217.76c3.12-1.94,6.11-1.54,9.64-.55,6.24,1.76,10.42.32,14-6.72C512.1,199.6,524,198.36,535,197.33c10.85-1,22-1,29.87-10.37-.15,8.6-2.56,16.68-5.48,24.78-23.46-17.48-46.13-7-54.85,25.9C497.73,230,488.39,226.12,482.86,217.76Z" transform="translate(-174.89 -134.99)"/><path class="bi" d="M636.6,302.56c5.59.64,4.06,3.64,2.73,7.17a64.39,64.39,0,0,0-4.51,26.19c.8,16,6.3,23.88,20.57,28.81-29.47,1.66-29.48,1.66-29.38-27.55,0-7.26.44-14.53.08-21.76C625.71,307.67,628.69,303.25,636.6,302.56Z" transform="translate(-174.89 -134.99)"/><path class="bj" d="M582.92,362.69c6.82-18.28-2.5-57.85-16.71-70.71-1.66-1.5-3.39-2.76-.68-4.78,10.89,3.62,15.43,12.72,18.66,22.5,4.66,14.09,8.09,28.62,13.23,42.51,4,10.83.82,13.68-9.56,11.61C586.2,363.49,584.56,363.07,582.92,362.69Z" transform="translate(-174.89 -134.99)"/><path class="bk" d="M773.36,257c13.24-2.53,21.18-12.31,23.95-28.74,1.72-10.18,2.41-19.95-5.2-28.31,11.63.28,14.72,6.14,12.76,17.2A281.08,281.08,0,0,0,801,253.92c-.4,9.22-4.38,10.61-12.12,8.25C783.67,260.57,778,260.25,773.36,257Z" transform="translate(-174.89 -134.99)"/><path class="bl" d="M740.09,266.5c2.49,8.15.75,15.49-2.62,23.28-8.61,19.88-16.35,40.14-24.28,60.3-1.71,4.36-2.2,9.47-8.46,9.75C715.58,328.37,726.76,297,740.09,266.5Z" transform="translate(-174.89 -134.99)"/><path class="bm" d="M635.18,254.06c2.41,1.32,8.09-2.91,7.13,4.1-1.32,9.58-10.66,19.75-3,28.41,7.18,8.15,19.29,2.16,29.09,3.62.79.11,1.56.37,2.45.59-2.11,3.19-5.57.9-8.09,2.15A103.24,103.24,0,0,0,627,299.65C628.16,283.37,629.14,268.34,635.18,254.06Z" transform="translate(-174.89 -134.99)"/><path class="bn" d="M745.7,362.11c17.27-7.49,18.44-25.54,25.56-39.56,4.38-8.63,7.11-18.12,10.57-27.22,3.57,1.85,4.61,4.55,2.76,8.21-6.33,17.5-12.78,34.94-18.9,52.51-1.73,4.94-5.3,6.1-9.71,6.53Z" transform="translate(-174.89 -134.99)"/><path class="bo" d="M565.13,279.91c1.73-15.21-8.75-27.25-10.82-41.53-.78-5.34-4.47-10.47.75-15.4,9.68,19.33,14.32,40.37,22.32,63.46Z" transform="translate(-174.89 -134.99)"/><path class="bp" d="M776.35,208.84c2,8.87-1.2,17.1-5.82,23.74-4.23,6.09-5.61,12.46-7.23,19.11C748,242.64,748,242.59,759,229.18,764.63,222.29,770.55,215.61,776.35,208.84Z" transform="translate(-174.89 -134.99)"/><path class="bq" d="M570.47,151c-15.58-11.11-31.94-2.63-47.84-1.42-9.1.69-18,4.36-26.93,6.68-2.59,1.25-2.92-.12-2.6-2.25,22-9.06,44.84-13.92,68.7-13.54C568.73,140.55,574.24,142,570.47,151Z" transform="translate(-174.89 -134.99)"/><path class="br" d="M784.59,303.54l-2.76-8.21c0-9.45,7.63-18.91,0-28.36,5.61,1.4,14-2.92,15.32,7.36Z" transform="translate(-174.89 -134.99)"/><path class="bs" d="M809.48,168.5c-.76,7.43-1.23,13.64-2.11,19.79-.44,3.07,1.25,7.75-3.44,8.47a13.49,13.49,0,0,1-11.56-4.25c-3.44-3.7,1.19-6,3.1-8.25C799.73,179.24,802.41,172.7,809.48,168.5Z" transform="translate(-174.89 -134.99)"/><path class="bt" d="M493.1,154l2.6,2.25c-16.22,7-31.27,15.74-44,28.16C459.28,165.77,477.12,161.14,493.1,154Z" transform="translate(-174.89 -134.99)"/><path class="bl" d="M745,253.77c5.28,3.49,3.12,7.73,1.21,12-1.66,3.68-4,1.53-6.13.72A21.05,21.05,0,0,1,745,253.77Z" transform="translate(-174.89 -134.99)"/><path class="bu" d="M779.07,646c-4.62,39.27-1.78,78.68-2.33,118-.48,34.72-12.78,47.91-47.69,52.52-30.24,4-60.55,4.6-90.95,4.47-4.23-3.13-1.32-6.3.51-8.69,13-17,25.81-34.2,40.81-49.58,15.87-7.15,26.89-19.16,32.06-35.49,2-6.41,10.35-10,7.64-18.14,5.27-12.92,15-22.86,22.8-34,8.09-11.59,15.73-23.51,24.26-34.79,3.21-4.23,6.35-11.9,12.1-9.2C783,633.27,781.05,640.73,779.07,646Z" transform="translate(-174.89 -134.99)"/><path class="h" d="M518.43,832.64c10.16-14.9,4.26-30.61,3.48-46.48-.69-14.13,4-27.84,11.66-40.85,11.82-20.08,23.48-40.12,38-58.43,2.24-2.83,2.78-7,4.1-10.56,27.21-35.23,54.3-70.54,85.8-102.16,2.32-2.34,3.92-5.4,5.86-8.12,18.06-16.47,37.81-31.14,53.66-50,2.79-3.31,5.09-7.18,10.32-4.19,4.41,1.12,7,4.42,9.39,7.92,4.58,8.84-.94,15.71-4.75,22.68-9.12,16.72-22.71,30.12-34.84,44.45-36.6,43.21-72.33,87.18-110.41,129.11-13.56,14.94-26.66,30-36.07,48.12-7.76,14.93-11.41,30.17-8.79,47,2.09,13.43-7.61,21-16,28.94-2.38,2.24-5.66,1.41-8.38-.45C518,838.35,518.53,835.37,518.43,832.64Z" transform="translate(-174.89 -134.99)"/><path class="bb" d="M521.46,839.63c12.89-3.12,22.21-16.31,21-28.64-2.54-25.56,6-47.3,21.66-67.51,38.32-49.3,82.49-93.6,120.85-142.87,15.09-19.37,32.41-37,46.58-57.19a48.29,48.29,0,0,0,9.13-23.62c5.74,3.54,11.33,7.27,15.57,12.65,1.55,2.64,2,5.3.17,8-7.3.82-12.37,5.36-17.47,10.1-20.3,18.87-35.36,41.72-50,65A143.58,143.58,0,0,1,652.4,655.3c-26.72,26-48.09,56.51-71.48,85.3-8.06,9.92-14.66,21.07-23.08,30.64-9.89,11.22-11.07,23.26-7.71,37,2.7,11-10.6,34-21,37.59C523.37,847.81,523.36,842.52,521.46,839.63Z" transform="translate(-174.89 -134.99)"/><path class="h" d="M560.22,855.39c23.35-32.75,50.17-62.74,75.2-94.15q44.36-55.66,90-110.24c8.41-10.09,18.68-18.62,28.1-27.86,6.49,4.56.73,8.32-.76,12.38-54.93,73-113.51,142.9-174.73,210.74,9.9-5.91,17.64-14.07,24.88-22.63,19.11-22.58,38.45-45,57.42-67.67,3.47-4.15,6.33-9.42,12.66-10.16a6,6,0,0,1,4,3.67c.55,5.65-2.57,9.94-6,13.61-17.34,18.62-30,41.15-49,58.32-2,1.8-2.59,4.34-3.66,6.65-12,14-25.62,26.17-42.14,34.53C566,867.71,561.07,865.12,560.22,855.39Z" transform="translate(-174.89 -134.99)"/><path class="bc" d="M802.18,563.71l-61.8-53.18c.26-17.48,14.69-29.26,35.84-29.29,28.15,5.55,44.94,21.42,46.4,51.19C821.06,549.68,814,560.53,802.18,563.71Z" transform="translate(-174.89 -134.99)"/><path class="bv" d="M763.89,599.83A119.42,119.42,0,0,1,746,620.4a86.66,86.66,0,0,1-7.4,6.94c-12.23,11-23.28,9.07-32.79-5.81-1.42-10.21,6-18.06,7.37-27.53,5.75-9,11.94-17.63,20.62-24.15,11-5.57,20.15-16.13,34.48-12.5,13.1,9.54,14.37,17.78,3.91,29.63A52.75,52.75,0,0,0,763.89,599.83Z" transform="translate(-174.89 -134.99)"/><path class="bw" d="M802.18,563.71c11.88-7.09,15-19.27,18.19-31.38-.32-14.54-4.18-27.47-15.57-37.59-6.32-5.62-14-7.91-21.48-11.07-16.68-4-30.18,1.18-41.07,14.1-2.49,3-5.21,5.72-9.33,6.35-2.77-1.78-3-4-.87-6.35,14.14-15.84,30.46-28.41,52.91-26.52,23.22,2,39.78,14.41,48.1,36.63,8.65,23.09-4.25,46.32-18,60.64C808.71,575.16,806,566.63,802.18,563.71Z" transform="translate(-174.89 -134.99)"/><path class="h" d="M676.07,749.22c-.88-.91-1.76-1.81-2.63-2.72-.76-8.73,5.52-14.24,10.16-19.94,24.07-29.55,45.45-61.11,68.62-91.32,12.37-18.34,27-35.26,35-56.32,1.1-4.9,2.19-9.81,3.27-14.65,3.14-.6,4.49,1.94,6.6,3.19,11,6.52,9,12.87,1.76,21.6-8.48,10.3-15.13,22.1-22.57,33.24-4.56,13.63-14.32,24-22.58,35.2-12.34,16.77-23.21,34.64-37.14,50.25-11,8.9-19,20.44-27.25,31.69C686,744,683.75,750.39,676.07,749.22Z" transform="translate(-174.89 -134.99)"/><path class="bx" d="M715,705.44q27.78-38.19,55.58-76.37c1.74-2.38,3.82-4.51,5.74-6.76,7.09,7.17,7.64,15.1,2.75,23.66V632.28l-2.28-1.09-56.38,79.35a202.17,202.17,0,0,1-40,54.06Q661,788.9,641.51,813.22c-1.78,2.24-4.51,4.21-3.41,7.77l-11.11.39c.14-10.86,9.14-16.4,15-23.43,17.78-21.36,35.12-43,51.33-65.6C700,723,707.59,714.27,715,705.44Z" transform="translate(-174.89 -134.99)"/><path class="by" d="M619.34,718.21a3,3,0,0,1,.4-2.28c2.38-.76,6.16-.82,6.93-2.38,6.76-13.58,22.25-20.11,28-33.85,2.5-6.05,5.63-7.52,10.71-8.38.37.42.74.85,1.12,1.27,2.33,9.77,9.23,17.95,9.9,28.31-9,13.88-19.9,26.26-31,38.43A8.54,8.54,0,0,1,640.8,735C636.59,725.6,629.78,719.63,619.34,718.21Z" transform="translate(-174.89 -134.99)"/><path class="bz" d="M567.56,779.56c6.14-3.34,11.49-7.34,12.74-14.88.34-2,.37-4.31,3-5,10.18-2.91,15.43-9.91,17-20.15.05-.39,2.33-.44,3.58-.65a6,6,0,0,1,1.37,3.26c.5,9.17-4.5,15.48-11.51,20.09-4.9,3.21-4.89,6.14-1.91,10.44,4.37,6.3,9,12.56,9.81,20.56-8,10.79-15.68,21.78-25.3,31.24-8.7-3.81-21.86-24.65-20.41-32.51C557.12,785.34,562.29,782.37,567.56,779.56Z" transform="translate(-174.89 -134.99)"/><path class="ca" d="M735.05,571.08q-10.17,11.64-20.36,23.26c-1.36,9-10.23,15.81-7.7,26,11,13.06,17.73,13.88,31.15,4.12,2.37-1.72,5.26-2.71,7.9-4-1,4.5-4.57,7.17-7.46,10.22-11.3,11.91-16.41,12.47-28.56,3.6-12.36-9-14.73-17.9-6.78-30.87,11.68-19.06,26.11-36,42.22-51.53,10.14-9.79,18.75-4.55,27.29,1.92,9,6.8,14.41,14.79,7.09,26.21-4.62,7.2-9.63,14.06-16,19.88-1.12-5.89,2.83-9.22,6.2-13.11,9.73-11.23,8.52-18.68-4.15-28.09C752.13,554.05,744.62,565.13,735.05,571.08Z" transform="translate(-174.89 -134.99)"/><path class="cb" d="M619.34,718.21c15.27-2.12,17.15-.6,26,21.12l-18.09,22.89a26.39,26.39,0,0,1-18.24-26C615.69,732.11,616.67,724.68,619.34,718.21Z" transform="translate(-174.89 -134.99)"/><path class="cc" d="M567.56,779.56c-10.56,8-12.12,16.92-3.21,27.4,4.57,5.36,6.43,12.69,12,17.46l-31.44,39c-.38-7-2.68-12.49-10.58-13.65,3.46-3.7,6.7-7.64,10.43-11.06,12.29-11.29,15.62-24.37,10.44-40.48C551.43,786.61,555.77,781.09,567.56,779.56Z" transform="translate(-174.89 -134.99)"/><path class="cd" d="M665.33,671.32c3.8-4,7.81-8,7.87-14,0-3.45.88-5.37,4.78-6,8-1.32,12.71-6.22,13.76-14.51.8-6.26,4.53-7.1,8.8-3.42,6.14,5.3,13,9.39,21.37,13.5l-24.59,28.6c-.41-.1-.92-.07-1.21-.3-4.27-3.39-18.89-4.49-24.31-1.94a5.26,5.26,0,0,1-5.83-1Z" transform="translate(-174.89 -134.99)"/><path class="ce" d="M601.62,793.18c-5-7.31-10.31-14.4-14.69-22-1.64-2.87-5.06-7.4,2.27-9.78,9.15-3,12.13-11.45,14.56-19.88,10.93,5.42,14.53,16,18.63,26.29A157.87,157.87,0,0,1,601.62,793.18Z" transform="translate(-174.89 -134.99)"/><path class="cf" d="M666,672.23c7.23.33,9-5.4,11.14-10.37,3.66-8.58,7.34-8.15,11.68-.57,2.73,4.78,5.68,9.43,8.53,14.14-6.1,9.22-12.8,18-21,25.47-6.87-6.37-6.77-16.89-14.11-23.25C659.94,675.66,665,674.34,666,672.23Z" transform="translate(-174.89 -134.99)"/><path class="bb" d="M715,705.44a965.12,965.12,0,0,1-68.11,90.36c-7,8.27-14.33,16.23-19.9,25.58l-5.65,5.13c-1.49,1.44-3,1.68-4.54.08,0-5.47,4.51-7.94,7.51-11.43,18.21-21.23,35.94-42.83,51.76-65.94,12.06-8.47,17.22-22.71,27.31-33C707.1,712.41,710.33,708.23,715,705.44Z" transform="translate(-174.89 -134.99)"/><path class="l" d="M731.28,511.88c-5.18-.46-5.33,4.29-7.63,7-13.57,16.17-31.37,27.8-46.31,42.54-2.63,2.59-5.66,5.34-10,4.59,17.63-21.53,36.6-41.78,57.69-60A10.94,10.94,0,0,1,731.28,511.88Z" transform="translate(-174.89 -134.99)"/><path class="l" d="M787.26,578.92c1.49.05,5.86-2.11,3.67,1.35-11.95,18.84-20.56,40-37.27,55.62-1.69-.16-2-1.72-2.8-2.76,1-3.29,6-5.53,2.7-10Z" transform="translate(-174.89 -134.99)"/><path class="l" d="M616.8,826.59l4.54-.08a110.28,110.28,0,0,1-47.2,38.78,31.33,31.33,0,0,1-8.53,2.34c-4.13.51-9.66,1.76-11.56-2.48-2-4.43,3-7.12,6.17-9.76,2.4,10.34,9.46,8.63,15.68,5.07C591.44,851.58,605.54,840.75,616.8,826.59Z" transform="translate(-174.89 -134.99)"/><path class="cg" d="M732.92,504.12c12.27-18.24,28.61-27.27,51-22.66-.94,5.82-4.53,2.9-7.43,2.26-17.8,1.17-30.54,9.18-36.13,26.81Z" transform="translate(-174.89 -134.99)"/><path class="a" d="M531.91,904.4a16.55,16.55,0,0,0-3-10.4c9.9-5.16,13.14-16.22,20.7-23.45l6.94,2.8A149.9,149.9,0,0,1,531.91,904.4Z" transform="translate(-174.89 -134.99)"/><path class="ch" d="M652.4,655.3C662.78,640.37,676,628,689,615.52l.09,5.56c-5,10-10.24,19.74-20.83,25l.15-.17c-4,5.71-6.4,13.31-15.37,13.29Z" transform="translate(-174.89 -134.99)"/><path class="bu" d="M668.25,646.13l20.83-25.06c1.66-.11,4.12-.57,4.24,1.48C693.89,632.61,679.4,646.05,668.25,646.13Z" transform="translate(-174.89 -134.99)"/><path class="h" d="M653,659.25,668.4,646c.16,10.1,0,19.81-13.47,21.67-5.27.73-4.39,6.71-6.93,9.86-2.39-1.14-2.74-3.31-2.83-5.61C647.34,667.39,652.27,664.62,653,659.25Z" transform="translate(-174.89 -134.99)"/><path class="bu" d="M616.74,713l-5.23.08.12.11c5.29-8.2,9.4-17.33,18.17-22.74.26.48.52,1,.79,1.44C632.76,703.33,625.09,708.36,616.74,713Z" transform="translate(-174.89 -134.99)"/><path class="bu" d="M630.59,691.84a4.67,4.67,0,0,1-.79-1.45c2.9-8,9.79-12.72,15.37-18.51,2.24,1.21,2.4,3.47,2.83,5.6C649.46,691.08,636.41,687.08,630.59,691.84Z" transform="translate(-174.89 -134.99)"/><path class="ci" d="M622.39,767.77l-18.63-26.29c0-.88.06-1.77.1-2.65,1.08-2.11,3-2.47,5.12-2.57,4.22,10,9.22,19.37,18.24,26Z" transform="translate(-174.89 -134.99)"/><path class="l" d="M756.41,540.46q-.07-4-.17-8l13.66,10.71-.67,1.28Z" transform="translate(-174.89 -134.99)"/><path class="cj" d="M526.32,901.36c-7.06,8.53-14.21,17-21.14,25.64-2,2.44-3.39,5.11-7,2.72q-3.87-7.8-7.72-15.61c.59-1.86,2.64-5.33,3.36-3.44,5.28,13.87,10.88,3.4,15.27.1,5.36-4,9.67-9.47,14.43-14.3Z" transform="translate(-174.89 -134.99)"/><path class="l" d="M562,416.72c-13.76,25.07-5.85,50.56-1.11,76.07,3.67,19.7,7.8,39.38,6.79,59.61-.16,3.15,1.38,6.83-3.4,10.43-2.33-15.59-4.06-30.38-6.83-45-3.57-18.82-8.36-37.42-11.91-56.24-3.06-16.28.11-31.39,11.28-44.25C558.16,415.79,559.58,413.93,562,416.72Z" transform="translate(-174.89 -134.99)"/><path class="t" d="M408.15,784.54c2.55-.47,2.13-2.69,2.59-4.39,6.26,1.06,6.46,6.68,9.17,12.35C414,791.27,409.66,790.25,408.15,784.54Z" transform="translate(-174.89 -134.99)"/><path class="ck" d="M382,408.41c-5.24.82-9.83.74-12.82-5-3.39-6.54-4.08-12.76,3.11-16.29S383.16,389,385.44,395c.88,2.29.82,4.94,1.18,7.42Z" transform="translate(-174.89 -134.99)"/><path class="cl" d="M374.93,655.69l2.43-2.1c3.49,4.56,3.7,10,5.43,17.24C376.61,665.85,376.44,660.44,374.93,655.69Z" transform="translate(-174.89 -134.99)"/><path class="bu" d="M611.51,713c1.47,10.3-1.81,17.48-14.43,19.88,3.94-8.12,8.25-14.61,14.55-19.77Z" transform="translate(-174.89 -134.99)"/><path class="bu" d="M576.87,755.7l14.47-19C593,748,591.57,750,576.87,755.7Z" transform="translate(-174.89 -134.99)"/><path class="h" d="M565.73,774c1.82-7.42,3.87-10.92,8.88-13.07C575.72,767.25,572.12,769.69,565.73,774Z" transform="translate(-174.89 -134.99)"/><path class="cm" d="M291.86,545.07c-5-3.9-7-8.91-5.55-15.15,4.15-5.32,9.25-7.49,15.27-3.47,3.66,2.44,5.81,6.25,4.25,10.88C303.57,544,298.41,545.91,291.86,545.07Z" transform="translate(-174.89 -134.99)"/><path class="h" d="M680.43,764.6l40-54.06,2.42.78c-8,18-15.29,36.64-31.68,49.19C688.24,762.74,684,763.28,680.43,764.6Z" transform="translate(-174.89 -134.99)"/><path class="l" d="M750.86,633.13l2.79,2.76c-8.12,16.68-21.18,29.92-31.58,45-15.42,22.41-32.35,43.77-48.63,65.58-22.79,26.57-45.23,53.46-68.56,79.55-9.07,10.14-17.07,22.41-32.9,24.92C633,779.38,694.69,708.5,750.86,633.13Z" transform="translate(-174.89 -134.99)"/><path class="cn" d="M776.51,483.72c2.58-.44,5.55.45,7.43-2.26,28.86,11.47,37.3,23.26,36.43,50.87-5.1-6.73-1.73-15.36-6.08-22.89C805.56,494.35,791.36,488.94,776.51,483.72Z" transform="translate(-174.89 -134.99)"/><path class="co" d="M735.05,571.08c8.26-9.21,15.53-20.88,30.89-12.45C753.71,558,746,568.52,735.05,571.08Z" transform="translate(-174.89 -134.99)"/><path class="cp" d="M707,620.32c-6-11.21,2.53-18.09,7.7-26C717.34,604.55,707.86,611.16,707,620.32Z" transform="translate(-174.89 -134.99)"/><path class="cq" d="M300.24,534.94c-.54,2.87-2.05,4.84-5,4.35a4.31,4.31,0,0,1-3.77-5.43,4.41,4.41,0,0,1,8.76,1.08Z" transform="translate(-174.89 -134.99)"/></svg>