<svg xmlns="http://www.w3.org/2000/svg" width="1255.67" height="975.48" viewBox="0 0 1255.67 975.48"><defs><style>.a{fill:#ccecfb;}.b{fill:#7da1f9;}.c{fill:#7aa0f8;}.d{fill:#7c9ff3;}.e{fill:#5a6cc1;}.f{fill:#5d6dc3;}.g{fill:#bbcaf2;}.h{fill:#5b6ec2;}.i{fill:#5b5fa6;}.j{fill:#110a49;}.k{fill:#0f034d;}.l{fill:#100e45;}.m{fill:#090a33;}.n{fill:#79a2fe;}.o{fill:#6782dd;}.p{fill:#c7d7fa;}.q{fill:#3689c6;}.r{fill:#b9a454;}.s{fill:#120f3e;}.t{fill:#b2e4f9;}.u{fill:#fdbc1d;}.v{fill:#55a6dd;}.w{fill:#b5842e;}.x{fill:#e9d2a1;}.y{fill:#eadd6a;}.z{fill:#1d0706;}.aa{fill:#a38e8b;}.ab{fill:#deb34d;}.ac{fill:#a6b1ce;}.ad{fill:#6982dd;}.ae{fill:#46c0f6;}.af{fill:#b22f58;}.ag{fill:#f53d56;}.ah{fill:#bf3257;}.ai{fill:#b12b55;}.aj{fill:#560c39;}.ak{fill:#fb3b54;}.al{fill:#f9fafb;}.am{fill:#fafafb;}.an{fill:#0496f1;}.ao{fill:#0872c8;}.ap{fill:#efa2b1;}.aq{fill:#91ccf2;}.ar{fill:#fa3b54;}.as{fill:#0594f0;}.at{fill:#0594ee;}.au{fill:#0f76c9;}.av{fill:#467fd4;}.aw{fill:#136fc8;}.ax{fill:#23202c;}.ay{fill:#060315;}.az{fill:#040217;}.ba{fill:#e29aad;}.bb{fill:#86c0ee;}.bc{fill:#d997ac;}.bd{fill:#8cbde2;}.be{fill:#0b063d;}.bf{fill:#f7b3ce;}.bg{fill:#282353;}.bh{fill:#04002e;}.bi{fill:#928a91;}.bj{fill:#120b4c;}.bk{fill:#0d0a3c;}.bl{fill:#6880d9;}.bm{fill:#160d42;}.bn{fill:#182362;}.bo{fill:#202a6c;}.bp{fill:#fbe953;}.bq{fill:#fce953;}.br{fill:#fbf3a0;}.bs{fill:#b9a54e;}.bt{fill:#f4efb2;}.bu{fill:#b7a64f;}.bv{fill:#867c83;}.bw{fill:#180b20;}.bx{fill:#12316a;}.by{fill:#022f85;}.bz{fill:#062773;}.ca{fill:#fc4e8c;}.cb{fill:#fdfdfc;}.cc{fill:#e94d8b;}.cd{fill:#c53d7e;}.ce{fill:#9aa5b8;}.cf{fill:#3b2240;}.cg{fill:#807995;}.ch{fill:#857e97;}.ci{fill:#78728f;}.cj{fill:#7f7995;}.ck{fill:#7d7895;}.cl{fill:#f998c8;}.cm{fill:#c0b0cb;}.cn{fill:#fdeb51;}.co{fill:#d1bc52;}.cp{fill:#cfbb55;}.cq{fill:#f5efb8;}.cr{fill:#faf4b8;}.cs{fill:#cebb8e;}.ct{fill:#eadd94;}.cu{fill:#0e0612;}.cv{fill:#070405;}.cw{fill:#fbfbfc;}.cx{fill:#5b103b;}.cy{fill:#680432;}.cz{fill:#c64a70;}.da{fill:#c7be97;}.db{fill:#feeb52;}.dc{fill:#968459;}.dd{fill:#171021;}.de{fill:#0e060a;}.df{fill:#b8a553;}.dg{fill:#ebeaef;}.dh{fill:#1c130f;}.di{fill:#232051;}.dj{fill:#171039;}.dk{fill:#393352;}.dl{fill:#050021;}.dm{fill:#34220f;}.dn{fill:#362918;}</style></defs><title>segf</title><path class="a" d="M708.24,529c-.39-1.19-.64-1.55-.57-1.82,2.48-9.85,1.86-24.16,9.21-28.12,8.85-4.76,22-1.38,33.36-1.63,5.51-.12,5,4.55,6,7.65,7.24,20.92,7.18,21-14.52,22.19C730.46,527.88,719.24,528.41,708.24,529Z" transform="translate(-44.26 -224.81)"/><path class="b" d="M717.86,473.89l44,.25c4.49,2.09,9,5,7.78,10.4-1.5,6.51-8.5,1.39-12.1,4.27a268.13,268.13,0,0,1-61.44-1.59C700.31,477.85,709.09,475.87,717.86,473.89Z" transform="translate(-44.26 -224.81)"/><path class="c" d="M689.15,530.21c-7.12.47-14.21,2.13-23.22.37,7.16-11.32,13.58-22.06,20.62-32.36,3.06-4.47,7.71-2.24,11.76-.7C700.93,510,698.64,521.12,689.15,530.21Z" transform="translate(-44.26 -224.81)"/><path class="d" d="M779.24,524.55c-8-.79-19-19.73-15.09-26.25.49-.8,2.68-.57,4.08-.81,5.32-1.87,8.11,1.46,10.49,5.28,2.48,4,4.78,8.08,7.14,12.14,1.59,2.72,4.45,5.82,2.31,8.86S782.34,525.39,779.24,524.55Z" transform="translate(-44.26 -224.81)"/><path class="e" d="M779.24,524.55l9.21-1.29c-9-8-8.93-20.91-20.22-25.77,8.35-3.44,14.45-1.78,18.73,6.89,3.47,7,8.12,13.45,13,21.45C791.87,525.72,785.48,527.45,779.24,524.55Z" transform="translate(-44.26 -224.81)"/><path class="f" d="M689.15,530.21a178.32,178.32,0,0,0,9.16-32.69c6.65-.82,9.74.93,6.91,8.35a79.34,79.34,0,0,0-4.59,16.63C699.56,529.84,695.34,531.17,689.15,530.21Z" transform="translate(-44.26 -224.81)"/><path class="g" d="M717.86,473.89l-21.81,13.33c-2.6-5.79,1.08-11.77,8.8-13.13C709.07,473.34,713.52,473.91,717.86,473.89Z" transform="translate(-44.26 -224.81)"/><path class="h" d="M757.5,488.81c12.47-3.94,12.47-3.94,4.32-14.67,7.4-.05,14.44,3.61,14,10.37-.31,5.21-8.8,4.12-14,4.58A27.11,27.11,0,0,1,757.5,488.81Z" transform="translate(-44.26 -224.81)"/><path class="i" d="M859.09,548.26c-1.77.36-3.74.32-4.65,2.36l-18.2-6.82C844.66,542.42,852,544.79,859.09,548.26Z" transform="translate(-44.26 -224.81)"/><path class="j" d="M673.6,313.39c10.62-25.4,30.87-45.61,42.19-71,4.91-11,14.86-17.47,27.81-17.47,24.7,0,49.3-.24,73.94.1,17,.23,26.22,8,32.17,24.22,8,22,23.67,39.4,35.2,59.31,2.27,3.92,6.64,3.92,10.66,4.47,134.24,17.91,212,97.54,245.95,225,13.88,52.13,20.83,105.37,24.46,159.15.39,5.59-.57,11.55,8.07,11.07,6.68-.38,13.72,2.25,14.3-9.6.68-15.17,13.63-11.32,23.13-11.88s17.84,1.52,17.84,13c0,8.23,4.11,8.93,10.41,8.46,3.5-.24,7-.09,10.55,0,16.3.46,25.16,7.89,24.08,23.86-2.54,37.69,5.8,74.9,3.1,112.81-1.29,18.1,8.85,36.79,12.18,55.5,11.64,65.2,10.32,131.18,10.17,197,0,30.67-.66,61.34-1,92-4.42,4.86-8.59,5.93-12.35-.74a24.46,24.46,0,0,1-1.3-8c0-26.07.39-52.07,2.51-78.21,3.58-44.09-1.69-88.26-3.32-132.34-1.37-35.87-5.39-71.94-17.72-106.4-5.87-16.47-1.64-33.93-2.74-50.91-.45-6.86,2-14.2-3.4-20.15-14.07-4.86-28.64-3.57-43-3.56-18.48,0-37-.65-55.42.47-8.79,2.53-10.32,10.33-9.16,16.93,6.44,36.55-6.8,70.43-13,105.28-5.85,32.72-6,66-10,98.95a62.57,62.57,0,0,0,.42,35.84c2.54,46.77.83,93.58,1.24,140.36-1.25,3.72-4.12,4.94-7.71,4.91-3-.32-4.94-2.25-6.7-4.6-1.37-1.9-3.44-3.43-5.14-.56-.32.55,2.89,1.84,3.66,3.68a6.61,6.61,0,0,1-1.14,6.13c-3.28,2.51-6.94,2.65-10.78,1.81-5.77-3.17-15.7-2.59-16.47-10.15-.9-8.89,8.91-10.46,15.41-13.09,3.39-1.37,1.67-3.83,2.74-5.57,9.76-17.29,9.22-18.73-9-25-15.22-5.25-22.38-16.38-22.83-32.08-.65-21.63-.24-43.28-.27-64.93q-.07-64.95,0-129.88c.09-36.68,13.34-64.79,50.77-76.66,7.56-2.38,10.1-7.19,9.78-14.71-1.37-32.77,9-64.81,6.19-97.7a7.7,7.7,0,0,1,.59-4.44c16.67-26.54,7.13-54.76,4.29-82.07a584.1,584.1,0,0,0-29-132.42c-26.59-76.26-73.09-133.61-150.26-162.93-4.26-1.62-8-4.26-12.21-5.88-9-3.73-18.38-6.61-27.66-9.6,7.2,2.36,14.29,5,21.56,7.16,61.86,28.47,102.5,76.69,127.6,138.71,23.56,58.18,33.17,119,31.51,181.64-.2,6.73.63,16-9.39,15.92s-11.26-9.08-11.11-16.72c.81-40-4.37-79.37-13-118.24-15.54-69.76-48.33-129-109-169.61-20.23-13.56-41.17-26.5-65.94-33.22,33.58,10.74,61.56,28.48,83.61,55.25a14.25,14.25,0,0,1,2.89,8.45,11.19,11.19,0,0,1-5.31,10.21c-4.66,1.26-7.64-1.56-10.3-4.57-37.64-42.53-86.87-62.69-141.16-73.09a367.45,367.45,0,0,0-85.36-6.25c-64,2.85-123.9,19-178.22,53.85-6.74,4.32-12.94,9.71-21.17,11.25-7,.27-29.2,15.63-28.41,8,12.6-18.83,52-43.63,70.44-54,10.27-5.82,21.65-10.09,32.93-14,6-1.91,12.12-3.69,18.06-5.93,3.92-1.27,7.87-2.48,11.87-3.48C651.29,321.75,670.29,321.31,673.6,313.39Z" transform="translate(-44.26 -224.81)"/><path class="k" d="M1104.6,1174.27c-6.86-3.82-12.67.24-18.53,2.75-8.86,3.7-17.7,7.08-27.52,7.26-8.42.13-12.26-3.12-10.45-11.84,2.15-10.43,1.79-21,1.79-31.56,0-83,.66-166-.15-249-1-106.59,4.23-213.28-3.08-319.79-3.79-55.28-16.29-108.39-46.19-156.15-4.47-7.14-8.42-15.27-18.64-15.78-1.21,3.48-2.42,7-3.64,10.47-2.22,7.23,2,12.66,5.37,18.14a254.93,254.93,0,0,1,31.55,78.07c9.21,39.89,12.35,80.33,12.61,121.32,1,175.71,0,351.41.37,527.11,0,9.72-1.19,19.21-9.08,26.25-10.15,7.49-21.54,2.61-32.24,2.64q-204.43.48-408.79.19c-16.81,0-34.41,3-47.84-11.51-1.25-1.38-3.77-1.1-5.85-1-9.31.6-3.07,8.53-5.7,12.24a13.47,13.47,0,0,1-5.77,1.11c-100.24.51-200.48-.47-300.72-.84-6.43,0-13.23.1-17.9-5.81-5.49-7.51-10.83-11.09-14.95,1.11-16.67,12-32.55,7.56-37.92-10.58-4.28-11.09,2.4-24-5.72-34.49a6.48,6.48,0,0,0-7.46,1.09c-6.19,11.65-3.32,24.08-3.12,36.31-.47,4.37,3.4,8.23,1.8,12.77-7.82,1.37-15.35-.08-22.75,1-3.25.24-5.83,2-8.33,3.87H94.59c.17.21.32.44.5.66a28.14,28.14,0,0,1,4.26,4.12c.53.35,1,.72,1.55,1.11a29.43,29.43,0,0,1,4.11,2l.26.21h.24a4.5,4.5,0,0,1,.7.18,41.63,41.63,0,0,1,5.27,2.05,9.08,9.08,0,0,1,1.45.22h955.88c6.53,0,13.09.13,19.62-.11,5-.19,10.21,0,13.72-4.7-1.81-6.77-10.52-1.69-12.91-7.47C1091.27,1179.76,1103.8,1183.69,1104.6,1174.27Z" transform="translate(-44.26 -224.81)"/><path class="k" d="M1298.73,1190.85c0-.37-.09-.73-.1-1.09a1.5,1.5,0,0,1,0-.3c-3.27-.34-7,3.64-9.78-1.07-12.47-7.69-26.37-1.07-39.32-3.91-36.32,0-72.64-1.1-108.93.72-3.88.41-7.73.87-10.51,4.11h-10.61c-2-1.29-3.78-1.14-5.22.92v5.15c6,6.71,14,4.58,21.26,4.62,52.88.25,105.76,0,158.66,0l.09-.08c.46-.4,1-.76,1.37-1.13s.6-.74.93-1.08a36.56,36.56,0,0,1,1.58-3.9A22.77,22.77,0,0,1,1298.73,1190.85Z" transform="translate(-44.26 -224.81)"/><path class="l" d="M105.82,1189.34l-10,.14c-4.35-25.83-7.34-51.63,5.25-78.84-10.47,0-19.59-.08-28.73,0-6.78.08-12.79-1.17-17.51-6.71-15.67-18.4-13.42-72.16,3.91-90,2.55-1.23,4.24-.11,5.57,2,1.68,5.58-1.63,10.08-3.21,15a37.52,37.52,0,0,1-1.37,4.12c-4.76,16.19-5.27,32.26.28,48.5,3.33,9.78,8.56,15.7,20.85,13.38.41-7.33-4.77-13.87-4-21.24-.6-14.93-1.59-29.87,3-44.44,1.71-5.49,5.06-10.18,7.87-15.09,4.85-4.59,9.74-4.12,14.67-.16,3.5,6.87-3.9,10.71-4.54,16.47-1.84,6.31-3.2,12.73-4.54,19.21-4.12,12.35-.66,23.68,4.33,34.92,3.19,7.14,8.24,10.7,16.23,11.15,15.55.91,16.47,0,15-16a198.59,198.59,0,0,1,0-33.08,28.56,28.56,0,0,1,.9-4.3c2-4.8,1.79-10.11,3.44-15,2-4.94,3.75-9.95,7.07-14.21,5.11-2.64,10.15-4,14.73,1.05,1.59,6.11-3.06,10.48-4.32,15.81-6.35,14.2-3.64,29.32-4.56,44,1,8.87,1.13,18.2,12.17,21.34,100.16.82,200.24.11,300.33.31,3,0,6-.11,8.56-1.7-3.83-7.13-10.44-3.62-15.43-3.66-54.89-.38-109.77-.14-164.55-.26-14.15,0-27.44-1.77-33.81-17.21-6.05-33.06,4.75-46.41,38.14-46.55,52.8-.21,105.65,0,158.4-.1,6.52,0,13.09.61,19.46-.91,6.3-3,2.4-8.24,2.62-12.61a5.92,5.92,0,0,1,3.9-5.2c14.54,2.86,19.63,18.63,10.07,31.32-2.68,3.54-6.73,5.87-8.93,9.82-2.93,10.76-3.63,20.87,7.27,28,1.69,1.12,3.62,2.63,3.83,4.51,2,18.72,15.66,17.52,29,17.45,8.23,0,16.76.86,19.91,10.23,3.23,9.6,2.49,19.45-6.29,26-6.19,4.59-7.52,9.85-7.13,16.84s-.11,14.11-4.12,20.35c1.63,4.41,9.81,3.5,8.43,10.36-47.49,1.84-95,.36-142.48.78-19,.17-38,0-57,0-10.66,0-19.64-3.24-25.7-12.57-3-6-3.14-12.59-3-19.12.54-19.8,8.8-28.31,28.81-28.44,57.62-.42,115.39.17,173.08-.43,5.37,0,12.35,3.22,15.64-4.54-2.48-7-8.53-4.28-12.92-4.23-93,1.38-186,0-279,.74-9,.09-19.58-3-26.16,7.07-3,6.13-3.8,13.36-8.89,18.52-7.18,2.06-8.92-2.74-10.16-8.08a26.2,26.2,0,0,1,.59-9.38c1-4,2.2-8.73-3.93-8.89-9.69-.27-20.1-3.32-28.21,5.2-2.24,2.55-3.28,5.76-4.71,8.75-1.82,3-3.36,6.28-7.74,5.84l-6-.27c-4.24-3.75-2-8-1.09-12.18,3.3-7.47-1.19-7.87-6.86-7.88-6.53,0-11.29,2.21-13.51,8.69a37.67,37.67,0,0,1-2,4c-5,14.69-4,29.5-.77,44.29C107,1177.9,110,1183.55,105.82,1189.34Z" transform="translate(-44.26 -224.81)"/><path class="m" d="M473.82,1011.08v6.16c-4.46,5.49-10.75,4.61-16.71,4.7-93.45,1.18-186.92,1.11-280.38.9-7.9,0-16.26,1.17-22.94-5-4.12-4.8-8.23-4.79-12.43,0-13,6.86-25.92,7.15-38.8-.23-4.35-1.87-8.8-5.73-12.74.63-8.67,5.2-17.48,5.21-26.38.6L58.71,1014l4.11-3.33q69.77.17,139.48.39c6.86,0,11.64-1,6.07-9.12-3.14-2.21-4.31-5.49-4.76-9.08-4.61-35.91-6.59-72.05-9.52-108.11A24.92,24.92,0,0,1,196,872.91c2.91-5,6.4-6.55,11-1.84,8.65,19.89,6.12,41.43,8.73,62.22,2.36,18.89,2.84,38,5.17,56.94,1,8.23,3.42,15.9,13.26,17.84a559.63,559.63,0,0,0,104.19.11,33.1,33.1,0,0,1,12.7-.24,31.76,31.76,0,0,0,14.22-.26c17.18-.9,34.3-.78,51.49-.18,4.42.85,8.92,2.9,13.1-.85a14.63,14.63,0,0,1,4.24-.78,23.31,23.31,0,0,1,4.56.49C450.09,1009.33,463,1002.63,473.82,1011.08Z" transform="translate(-44.26 -224.81)"/><path class="n" d="M473.82,1011.08c-12.89-3.18-26.28,2.56-39.07-2.2,9.61-7.22,10.12-17.37,10.09-28.28-.17-117.2-1.37-234.41.23-351.59,2-139.86,78.21-246.4,215.62-288.54,43.23-13.24,87.66-16.46,132.55-14.7,12.44.46,24.33,6.86,37.16,3.78C888.58,340.27,939.61,364,978.19,410.5c42.1,60.37,54.07,129.28,54.42,200.55.83,181.11.28,362.3.28,543.45,0,11.61.39,23.33-9.6,31.94-2.57,2.23-5.69,1.38-8.64,1.65-10.76.92-11.25-4-6-11.19,8.92-12.12,10-25.85,10-40.18q-.17-210.5,0-421c0-21.12,1.9-42.11,3.55-63.12.38-2-2.39-.6-.37-.6.38,0,.49.34.46,1A465,465,0,0,1,990.4,802.73a326.72,326.72,0,0,1-16.76,35.45c-3.13,5.75-6.49,11.58-14.27,11.9-7-1.38-8.94-7.52-11.83-12.7-25.85-46.25-64.57-69.76-118.23-69.19-64.39.72-128.78.13-193.18.19-62.92,0-106.81,34.91-121.41,96.27a96,96,0,0,1-1.47,18.46c-3.24,10.29-1.84,20.89-1.7,31.3.55,38.42-1.79,77,1.23,115.38a36.53,36.53,0,0,1,1.57,10.33c-.52,9.15,6.86,17.28,3.5,26.81-19.13,10.4-43.48.33-46.65-19.29-1.38-5.58,2.6-5,6.1-5.73,12.45-2.63,8.45-12.91,8.84-20.69C486.47,1013.17,482.57,1008.88,473.82,1011.08Z" transform="translate(-44.26 -224.81)"/><path class="o" d="M1104.6,1174.27c-17.84,7.78-35,17.72-55.87,15.34-6.93-.79-12.21-.27-7.82-9.82,3.63-7.86,3.54-16.57,3.54-25.2,0-180.63.76-361.26-.41-542-.44-68.35-10.61-135.41-48.22-195.1-4-6.36-7.67-13-14-17.56-21.57-30.59-52.77-48.29-85.3-64.33,45.77,11.84,84.75,35,116.2,70.5,41.84,47.24,61.09,104.27,70.9,165.27a540.27,540.27,0,0,1,6.75,88.64c0,5.17-1.53,12.69,6.49,12.87,9,.19,5.81-7.86,5.89-12.58a490.64,490.64,0,0,0-19.21-146C1061.2,437.7,1018.31,376.92,945,340.6c-.27-5.82,3.06-4.5,6.38-3.24,80.06,24,131.72,78,162.54,154,23.47,57.91,33.08,118.87,39,180.6.81,8.52,1.54,17,2.44,25.53.66,6.19.51,11.57-5.27,16.09s-7.57,11.9-6.69,19.21c4.21,34.76-9.47,68.85-3.62,103.62,1,6.08-3.47,6.16-7.25,7.28-39.79,12-54,30.79-54,72.06q-.11,97.42,0,194.75c0,21.84,7.27,29.82,28.61,31.93,3.85.38,9.3-.67,9.74,4.62.58,6.67,3.32,14.2-2.74,20A110.64,110.64,0,0,1,1104.6,1174.27Z" transform="translate(-44.26 -224.81)"/><path class="p" d="M830.4,329.55c-11.49,5-22.7-.45-34-.85-77.6-2.74-150.6,13-217.12,54.46C527.46,415.43,492.3,461,470.7,517.69c-15.2,39.87-21.79,80.95-21.58,123.7.59,117.2,0,234.4.47,351.6,0,11.55-2.93,17.07-14.84,15.87a6.43,6.43,0,0,0-2.55-.74c-5.42-4.4-5.05-10.63-5-16.63.09-121.56-.48-243.12.23-364.66,4.88-17.59,2.33-35.9,5.37-53.82C443,512.88,467,459.58,507.94,414.23c9.44-10.44,19.52-20.4,33.59-24.69,45.44-31.83,95.38-53.06,150.21-61.74,40.71-6.41,81.59-10,122.37.56C819.3,329.72,825,329.21,830.4,329.55Z" transform="translate(-44.26 -224.81)"/><path class="q" d="M1288.85,1188.39a207,207,0,0,1-38.72.72c7.71-11,7.12-23.45,7.09-36-.11-46.16.4-92.35-.16-138.5-.63-51.26-3.73-102.3-19.58-151.64a62.8,62.8,0,0,1-2.42-28.26,150.4,150.4,0,0,0,.7-25.55c-.33-11.06-5.48-16.09-16.8-16.33-18-.36-36.13,1.79-54.08-1.53-2.62-1.12-5.1-2.38-5-5.82,35.32-.47,70.68-3,105.91,1.85.89,21.06-.16,42.12-.1,63.11,0,16.07,9,30.57,11.95,46.45,6.86,37.17,8.13,74.73,10.34,112.27,3.3,56.25.6,112.51-1,168.76a9,9,0,0,0,2,5.49Z" transform="translate(-44.26 -224.81)"/><path class="r" d="M1119.72,965.93q.16,16.11.3,32.22c-1.54,3.43-1.46,7.21-2.49,10.77-.63,35.13,0,70.27-.3,105.41-.13,18.3-3.56,20.58-22,15.09-6.68-3.52-5.9-9.93-5.91-15.87V907.11c0-23.52,11.28-40,32.57-49.64,4.55-2.06,10.19-5.27,14.24-2.41,5.35,3.77-1,8.9-1.27,13.58-.1,2.29-1.69,4.51-2.6,6.76-7.32,10.65-10.3,22.46-10.8,35.35-.93,24.28-4.52,48.36-6.6,73.2C1118.1,977.85,1111.36,970,1119.72,965.93Z" transform="translate(-44.26 -224.81)"/><path class="s" d="M541.21,389.35a300.47,300.47,0,0,0-98.79,157.56c-5.22,21.13-8.13,42.75-10.14,64.42-5,53.58-4.54,107.48-4.11,161.28l.77,82.6c0,3.65,0,7.42-1.37,10.78-3.56,8.23-13.73,10.52-22.14,13.72A61.73,61.73,0,0,0,366.72,932c-.27,3.71,0,7.84,2.57,10.48a13.5,13.5,0,0,0,6.69,3.16,67.59,67.59,0,0,0,41.24-3.2,12.83,12.83,0,0,1,4.73-1.37c5.49,0,7.92,8.15,4.61,12.6s-9.48,5.58-15,5.48c-8.45-.08-16.85-2.1-25.3-1.62s-17.55,4.34-20.75,12.17.57,16.88,1.38,25.44c.54,5.66-1.57,13.06-6.56,16.32-7.14,4.65-9.73-4.46-10.36-9.72a325.56,325.56,0,0,1-2.11-52.14c.67-16.89,2.74-34,9.44-49.55s18.56-29.42,34.3-35.55c8.67-3.38,19.11-5,24.21-12.75,3.47-5.3,3.41-12.09,3.23-18.41q-.63-21-1.25-41.93c-1.92-64.24-3.82-129,5.87-192.46C436.13,517.12,470,435.53,533,381.79A11.67,11.67,0,0,0,541.21,389.35Z" transform="translate(-44.26 -224.81)"/><path class="t" d="M1159.86,785.51,1163,788c2.74,3.37,3.18,7.41,2.59,11.41-1.47,10.06,1.14,18.25,7.9,26.25,8.07,9.6,9,24.52.77,31.93-21.06,18.92-21,44.71-24.43,69.12-11.21,78.48-4.52,157.51-6.34,236.28-.2,8.81,2.11,18.27-4.81,25.9l-8.53.46c-3.07-6-3-12.5-3-19q-.54-62.89-1.16-125.78c-1.57-11-2-22.09.26-33.11,2.6-40,1.73-80.79,13-119.49,8.49-29,9.85-57.76,9.18-87.37C1148.26,797.69,1144.22,784.56,1159.86,785.51Z" transform="translate(-44.26 -224.81)"/><path class="u" d="M1169.19,718.09c25-.77,49.93-1.68,74.87.42,12,14.56,11.87,44.8-.22,55.58-23.47.25-46.95.11-70.41,0-4.8,0-9.92,1.18-13.38-4.24C1152.59,758.2,1158,726.39,1169.19,718.09Z" transform="translate(-44.26 -224.81)"/><path class="v" d="M1288.94,1183.55c-3.65,1.76-5.9,1-5.29-3.44,6-44.54,2.23-89.3,2.43-133.93.23-55.1-1.47-110.39-15.27-164-5.49-21.18-11.26-41.33-5.71-63.11,2.65-10.44-8.36-21.27.67-31.64.75,2.33,2.36,4.73,2.15,7-3.8,43.11,9.2,84.08,15.34,126,9.48,64.78,9.17,130.16,7.8,195.48C1290.58,1138.38,1289.66,1161,1288.94,1183.55Z" transform="translate(-44.26 -224.81)"/><path class="w" d="M1244.05,773c5.69-18.16,3.91-36.32,0-54.47,18.26-1.27,20.81.85,21.06,17.84.08,6,0,12,0,18,0,22.46,0,22.46-22.79,21.4A3.43,3.43,0,0,1,1244.05,773Z" transform="translate(-44.26 -224.81)"/><path class="x" d="M1244.05,773l-1.71,2.75c-26.59.1-53.17-.14-79.72.52-8.56.22-11.69-2.13-11.2-10.82.62-11-.16-22.06.29-33.06s5.63-16.88,17.47-14.27c-12,15.72-5.49,33.64-5.27,50.59.07,6.1,8,4.37,12.64,4.4C1199.05,773.2,1221.55,773,1244.05,773Z" transform="translate(-44.26 -224.81)"/><path class="y" d="M1119.72,965.93c-5,6-1.2,13.64-3.72,20.5-4.24-27.13,1-91.3,8.83-104.69,1.61-2.74,1.38-8.64,7.58-6.36A636.69,636.69,0,0,0,1119.72,965.93Z" transform="translate(-44.26 -224.81)"/><path class="z" d="M1117.59,1005.68l2.43-7.52q.12,60.06.25,120.18c0,18.49-5,21.26-24.07,13.62a11.27,11.27,0,0,1,7.3-1.17c10.17,1.54,12.65-3,12.5-12.7-.55-32.6-.29-65.23-.13-97.84C1115.9,1015.39,1114.24,1010.25,1117.59,1005.68Z" transform="translate(-44.26 -224.81)"/><path class="aa" d="M1117.59,1005.68c-.1,35.59-.27,71.18-.26,106.77,0,20.48.14,20.48-21.13,19.51-.25-.86-.54-1.71-.86-2.57,14.57,2.23,20.08-2.74,19.33-18.59-1.37-29.85-.5-59.84-.25-89.77C1114.46,1015.85,1112.31,1009.9,1117.59,1005.68Z" transform="translate(-44.26 -224.81)"/><path class="ab" d="M1207.5,696.38c4.57.93,10.78-1.73,11.61,4.58,1,7.43-5.7,5.38-9.61,5.31s-10.23,2.54-11.1-3.91C1197.5,695.23,1204.14,697.42,1207.5,696.38Z" transform="translate(-44.26 -224.81)"/><path class="ac" d="M1119.48,1189.27l-5.22.92-12.61-1.23c5.17-5.38,9.93-9.23,15.51-8.76C1120.29,1180.46,1119.66,1185.87,1119.48,1189.27Z" transform="translate(-44.26 -224.81)"/><path class="k" d="M1126.19,1011.43l-.26,33.12C1121.82,1033.46,1121.49,1022.43,1126.19,1011.43Z" transform="translate(-44.26 -224.81)"/><path class="ad" d="M471.13,1047.64c5.84,14.11,25.37,21.67,45.37,17.56,7,.42,10,6.2,13.72,10.81,17.38,22,40.23,32.93,68.07,32.93,91.06.2,182.12-.39,273.18.23,58.44.39,89.67-47.16,87.81-88.63-1.79-40.18-.43-80.49-.35-120.74,0-13.09.12-26.07-3.06-39-1.06-4.33-2.11-9,1.8-12.75,16.58-9.11,19.59-27.25,25.83-42.22,22.12-53,32.5-109.06,37.4-166.17.07-.86.88-1.66,2.75-5V654.7q0,243.51.16,487.07c0,16.81-2.74,31.75-17.71,44.63h17.18c-3.65,5.29-9.17,3.12-13.86,3.12q-229.35,0-458.69-.17c-7.78,0-16,2.09-17.5-10.34-.87-7.15-8.52-5.19-13.89-5.13-.45-10.88-.86-21.75-1.37-32.62-.14-3,1.27-4.83,4.11-5.17,15.59-1.82,12.07-13.72,11.38-23-.93-12.55-11.38-8.23-18.69-8.79a82.72,82.72,0,0,0-13.54,0c-9.28.8-16.07-.71-14.6-12.53.43-3.41.29-8.83-2.89-9.51C460.49,1077.34,474.9,1059.26,471.13,1047.64Z" transform="translate(-44.26 -224.81)"/><path class="ae" d="M1138.62,1188.85c0-67.45-1.45-135,.55-202.35,1.15-38.89,4.12-78.21,16.85-115.67,1.47-4.33,2.14-7.94,7-10.53,16.47-8.67,17.26-25.77,1.73-35.88-4.23-2.75-4.94-5.49-5.24-9.61-.7-9.19,1.6-18,3.4-26.82,20.58,0,41.25.54,61.74-.45,11.52-.55,15.36,5.07,16.1,14.67.57,7.5,1.82,15.47,0,22.52-5.22,20.24,1.51,38.72,7.13,57.18,10.5,34.41,12.42,70.08,13.64,105.31,2.11,61.75.32,123.6,1,185.39.11,10.2-3.73,14.42-12.42,16.54Z" transform="translate(-44.26 -224.81)"/><path class="af" d="M305.15,1170.94c7.86,8.14,17.5,10.32,28.64,10.26,58.86-.31,117.72-.15,176.58-.13,6,0,12.15-.88,17.38,3.21-1.59,7.42-7.61,5.22-12.17,5.22-103.78.11-207.56,0-311.34.25-9.13,0-14.59-2.28-14.7-12.14a3.94,3.94,0,0,1,1.58-5,14.13,14.13,0,0,1,7-2.51C233.82,1169.25,269.51,1167.61,305.15,1170.94Z" transform="translate(-44.26 -224.81)"/><path class="ag" d="M131.71,1123l-1.81,12.2c-2.44,13-.67,26.07-1,39.08-16.46,7.91-27.34,1.94-28.1-15.71-.5-11.86-.89-23.8,4.12-35l.34-.22C114,1115.29,122.75,1111.26,131.71,1123Z" transform="translate(-44.26 -224.81)"/><path class="ah" d="M183.34,1184c-5.49,11.3-15.41,3.49-23.08,5.38-14.2,3.52-21.15-3.48-22.57-17.2.54-.52,1.08-1.06,1.6-1.59,6.43-1.73,13-.74,19.41-.26,8.44.64,14.08-3.85,19.94-8.52C188.93,1167.3,178.36,1177.28,183.34,1184Z" transform="translate(-44.26 -224.81)"/><path class="ai" d="M104.9,1123.56c-.9,7.81-2.25,15.58-2.62,23.33-1.12,23.89,3,28,26.63,27.43,1.51,4.19,3,8.39,5.38,15H105.82a111.85,111.85,0,0,1-6.32-50.92C100.06,1133,100.54,1127.58,104.9,1123.56Z" transform="translate(-44.26 -224.81)"/><path class="aj" d="M183.34,1184c-5.91-6.36-.3-15.46-5.22-22.06-8.31-14.57-6.87-23,5.11-30.44,1.27,3.67-.24,8.94,5.72,9.88,9,10.59,7.51,21.59,1.25,32.76-.23,1.17-.45,2.33-.68,3.5l-4.48-3.13C184.5,1177.64,183.93,1180.81,183.34,1184Z" transform="translate(-44.26 -224.81)"/><path class="ah" d="M135.94,1135.51l4.86-7.17c7.84,14.5,3.48,28.56-1.58,42.53l-1.53,1.17C133.15,1160.1,136.46,1147.71,135.94,1135.51Z" transform="translate(-44.26 -224.81)"/><path class="ak" d="M190.2,1174.11q-.62-16.38-1.25-32.76,2.19-9.28,4.35-18.57c8.54-5.49,18.11-5.09,27.66-5.09H451c16,0,32,.1,48-1.63,8.52-.92,18.25-3.35,25.45,4.81.11,11.53-8.78,7.5-14.2,7.52-56.15.29-112.3.21-168.46.22-36.66,0-41.68,5.81-36.74,42.34-2.74,3.83-6.86,3.56-11,3.54Z" transform="translate(-44.26 -224.81)"/><path class="al" d="M323.29,1174.18c-3.22-3.46-10.32-3.67-9.15-10.84a7.18,7.18,0,0,1,6.23-3.6c29.13,0,58.28-1.7,87.38,1-26.49-2.42-53.05-.83-79.58-1.38-5.83-.12-12.22,1.54-16.95-3.77-1-15.53,7.9-19.74,21.61-19.69,54.11.22,108.25.58,162.36-.22,12.53-.19,16,4.38,15.1,15.3-.65,7.82,1.7,16.12-3.76,23.16-2.45,2.48-5.6,1.85-8.55,1.85H332C328.9,1176,325.76,1176.58,323.29,1174.18Z" transform="translate(-44.26 -224.81)"/><path class="am" d="M461.29,1042.42c4.91,37.14,4.91,37.14-32.27,37.16H286c-7.37,0-15.2.9-20.7-10H368c-2.19-7.42-6.43-5.49-9.38-5.49-26.07-.72-52.14-1-78.21-1.9-5.59-.18-13.58,3.38-16.38-2.75-3-6.54,3.38-11.76,8-16.35,1.28-4.12,4.83-2.84,7.55-2.84q86.76-.13,173.55,0C455.94,1040.14,459.19,1039.32,461.29,1042.42Z" transform="translate(-44.26 -224.81)"/><path class="an" d="M476.62,1027.26c-1.12,10.28-9.24,5.8-14.05,5.83-56.26.33-112.63.13-169,.17-34.87,0-40.58,6.49-37,41.35-.47,7-6.13,7.18-10.87,7.83-31,4.28-62,1.94-93,0a15.4,15.4,0,0,1-10.73-4.81c-1.55-16.47-3.39-32.93,5.68-48.15,7.09-6.47,15.93-5.48,24.4-5.48,45.27-.13,90.55-.64,135.83.09,49.83.81,99.55-3.17,149.36-2.18C464,1022.14,471.59,1020.19,476.62,1027.26Z" transform="translate(-44.26 -224.81)"/><path class="ao" d="M141.91,1077.7c33.52-.18,67,3.84,100.55.27,4.86-.52,10.23,1.26,14.09-3.36,6.14,10.1,15.1,12.87,26.76,12.79,60.74-.39,121.48-.11,182.23-.11,9.61,0,18.17.7,11.42,14-5.9-1.88-12-.73-17.92-.73q-146-.13-291.91,0c-5.49,0-11-.85-16.47.88C143.55,1095,142.33,1086.52,141.91,1077.7Z" transform="translate(-44.26 -224.81)"/><path class="ap" d="M524.55,1120.86c-101.35,4-202.74,2-304.12,2.22-9,0-18.07-.19-27.1-.3,3.86-9.08,10.8-11.32,20.38-11.29,99.3.27,198.61.08,297.92.32C517.13,1111.78,527.72,1107.29,524.55,1120.86Z" transform="translate(-44.26 -224.81)"/><path class="aq" d="M476.62,1027.26c-40.77-2.62-81.41,2.07-122.12,2.06q-103.42,0-206.89.23c-.48-5.21,4.3-7.67,6.14-11.66H443.63c10.05,0,20.1-.41,30.19-.63C478.67,1019.44,479.7,1022.76,476.62,1027.26Z" transform="translate(-44.26 -224.81)"/><path class="ar" d="M139.22,1170.94c-2.92-14.32,1.78-28.37,1.58-42.53.22-3.1.67-6.11,3.14-8.34,13.44-1.38,27.12-5.66,39.72,3.26-.14,2.74-.28,5.49-.4,8.23-10.17,8.72-3.37,20.3-5.13,30.43.41,9.13-3.09,14-13,12.6C156.46,1173.29,147.15,1177.18,139.22,1170.94Z" transform="translate(-44.26 -224.81)"/><path class="as" d="M89.74,1050q2-10.74,4.12-21.45c8-6.78,16.6-5.08,25.37-2.08,9.4,2.41,18.84,4.84,13.44,18.19h0c-3.69,9.16-1.37,18.73-1.51,28.07,0,7.89-3.23,10.22-10.63,10.83-28.81,2.37-33.74-2.53-31.23-32.16A6,6,0,0,1,89.74,1050Z" transform="translate(-44.26 -224.81)"/><path class="at" d="M83.58,1028.84a224.91,224.91,0,0,0-2.74,48.9c-5.38,5.72-12,8.35-18.91,4-7.52-4.72-9.41-13.72-8.55-21.18,1.09-9.4,1-19,3.28-28.25a4.52,4.52,0,0,1,.69-2.75C65.91,1022.79,74.54,1017.68,83.58,1028.84Z" transform="translate(-44.26 -224.81)"/><path class="au" d="M89.74,1050c.22,3.48.39,7,.65,10.44,1.37,18.42,2.54,19.34,20.58,17.63,3-.28,6.21-.62,8.92.3,7.89,2.74,9.16-.86,9.6-7.82.52-8.64-3.42-17.95,3.1-25.88.18,17-2.35,34.22,4,50.77.91,2.32,1.55,4.47-1.45,6.3-11,6.69-37.36-1.75-41.91-13.9S84.4,1063.26,89.74,1050Z" transform="translate(-44.26 -224.81)"/><path class="av" d="M150.69,1101.39c5.35-4.25,11.63-2.32,17.48-2.34q152.3-.66,304.59-1.07a3.84,3.84,0,0,1,4.12,3.29c-6,.34-12,1-17.95,1q-142.9.09-285.81,0C165.68,1102.26,158.19,1101.69,150.69,1101.39Z" transform="translate(-44.26 -224.81)"/><path class="aw" d="M56.65,1032.3c0,7.51.53,15.09-.18,22.54-2.11,22,2.74,26.73,24.35,22.9.7,2.91,2,5.83,2,8.72-.09,5.4,11,12.12,1.37,15.16-8.89,2.86-21.56,4.67-26.25-9.45C51.26,1072.33,48.64,1052.42,56.65,1032.3Z" transform="translate(-44.26 -224.81)"/><path class="ax" d="M311.2,1155.57H415.77v7.77H314.13Z" transform="translate(-44.26 -224.81)"/><path class="ay" d="M323.29,1174.18H506.51c1.46,2.88-.38,3.39-2.56,3.39H326a4,4,0,0,1-2.64-.76C322.92,1176.26,323.29,1175.07,323.29,1174.18Z" transform="translate(-44.26 -224.81)"/><path class="az" d="M461.29,1042.42c-63.11-.42-126.23-1.6-189.34.59,2.36-5.49,7.37-4.36,11.69-4.36q83.55-.11,167.11,0C454.65,1038.62,459,1037.8,461.29,1042.42Z" transform="translate(-44.26 -224.81)"/><path class="ba" d="M183.66,1123.26c-13.16-2.14-26.89,2.88-39.72-3.26,5.06-6.41,36.82-12.8,42.46-7.82C191.3,1116.48,185.65,1119.78,183.66,1123.26Z" transform="translate(-44.26 -224.81)"/><path class="bb" d="M117.73,1029.89c-7.89-2-15.85-3-23.94-1.28l8.7-11,38.81.23a22,22,0,0,1-5.48,12.21A34.07,34.07,0,0,1,117.73,1029.89Z" transform="translate(-44.26 -224.81)"/><path class="bc" d="M131.71,1123c-8.89-5.1-17.67-1.48-26.46.3,5.28-10.34,18.31-16.35,28-11.49C140.81,1115.59,134,1119.48,131.71,1123Z" transform="translate(-44.26 -224.81)"/><path class="bd" d="M83.58,1028.84c-8.86-4.36-17.56-1.87-26.25.66q3-5.31,6-10.64c8.77-1.75,17.58-1.3,26.39-.6C89.63,1022.91,86.16,1025.61,83.58,1028.84Z" transform="translate(-44.26 -224.81)"/><path class="au" d="M117.73,1029.89l18.06.18c-.15,5.08.7,10.38-3.19,14.64C135.32,1032.2,124.17,1033.35,117.73,1029.89Z" transform="translate(-44.26 -224.81)"/><path class="be" d="M198.57,873c-21.51-11.26-24-21.55-8.89-37.29,6.86-2.58,21,.52,11.73-14.87-7.68-5.34-8.23-12.68-5.79-20.83,0-4.27.44-8.62-2.84-12.09a10.17,10.17,0,0,1-5.49-6.86c-5.48-25.83-16.68-50.47-16.13-77.56-2.17-9-3.47-18.4-6.71-27C159,662,162.3,652.72,178,649.07c4.12-.48,8.4-.6,11.72-3.69,6.62-6.2,15.09-7.67,23.54-9,15.09-2.36,22.23,2.41,26.63,17.31,3.83,13,6.86,26.18,10.36,39.22,2.9,12.34,6.37,24.51,9.88,36.7,3,15.09,7.94,29.65,11.18,44.66,1,3.57,2,7.13,3.09,10.7,2,7.66,3.43,15.48,5.93,23,1.2,4,2.33,8.06,3.56,12.06,1,4,2.32,7.73,7.34,7.66s6.22-3.94,7.14-7.89c1.37-4.73,2.37-9.6,3.54-14.38,2.25-7,3.44-14.3,5.3-21.4,3.58-10.66,6.11-21.61,9.34-32.37,2.74-6.94,2.74-14.54,5.17-21.55A60.45,60.45,0,0,1,326,717.34c2-4.11,3.72-8.56,8.5-10.45,8.92-2.2,16.47,2.21,24.47,4.93a11.29,11.29,0,0,1,3.55,2.74c1.73,10.67-4.42,19.76-6,29.77q-.53,2.16-1.26,4.26c-3.78,18.29-8.47,36.33-13.66,54.23-1.11,4.21-2.51,8.34-3.63,12.54-3.72,8.78-2.43,14.23,8.68,14.22a24.66,24.66,0,0,1,13.83,4.8c10.76,12.46,12.21,21.87,2.42,33.12-8.32,9.6-9.83,20.46-10.85,31.93-2.75,30.85-3.42,61.85-6.37,92.69-.62,6.49-.85,13-4,18.94-5.87,3.59-12.35,3.43-19,3.41-25.09-.08-50.19,0-75.28-.12-5.28,0-11.21,1.84-15.45-3.39a3.88,3.88,0,0,1,2-4.77c25.1-6,50.51-2.23,75.78-2.46,11.35.3,19.66-2.62,19.92-16.35.56-30.07,3.8-60,5.95-90,1.54-21.45-.71-23.57-21.85-23.57-34.59,0-69.19-.57-103.8.37a9.57,9.57,0,0,1-4.94-1.71C202.55,869.24,200.47,869.9,198.57,873Z" transform="translate(-44.26 -224.81)"/><path class="bf" d="M205,872.48l3.72-1.17c4.26-.2,8.63-1.48,12.59,1.29,9.32,14.4,12.75,28.67,8.52,46.65-5.25,22.45,1.68,45.73,3,68.61.4,6.94,2.75,13.83-.06,20.75a5.86,5.86,0,0,0-.81,2.2c-11.06-.59-15.36-6.65-16.11-17.47-2.1-30-4.9-59.91-7.53-89.86C207.37,893.21,206.09,882.85,205,872.48Z" transform="translate(-44.26 -224.81)"/><path class="bg" d="M425.42,869.46q0-119.81.22-239.6c0-5.77-2.11-12.15,2.75-17.23,2.44,3.66,1.48,7.81,1.48,11.73q.09,186.09,0,372.15c0,4,.85,8.07-1.29,11.82.22,2,2.51,4.63-1,5.61-2.47.68-4.34-1-5.49-3.27-.18-.85-.37-1.71-.57-2.56-.91-13.42-.28-26.84-.38-40.27,0-5.07.47-10,4.27-13.85V942a15.4,15.4,0,0,1-4.21-12.35C423,909.58,416.34,889,425.42,869.46Z" transform="translate(-44.26 -224.81)"/><path class="bh" d="M428.64,1008.33q-.11-197.85-.18-395.7c3.39,2.51,2.4,6.59,3.54,9.92q.33,122.75.63,245.5c0,46.65-.28,93.38-.43,140.07Z" transform="translate(-44.26 -224.81)"/><path class="bi" d="M419,954l3.46.11a206.79,206.79,0,0,1-.2,57.31l-.08-.67c-19.85.15-39.79,1.94-59.57-.53,1-18.77-4.23-37.83,2.74-56.26,7.78,10.88,3.14,23.41,4.76,35.11.8,5.83-2,14.09,8.33,14.7,10-.51,20.09-.24,30.1-.33,8.4-1.14,5.86-7.75,6.45-12.83C416.33,978.31,411.39,965.42,419,954Z" transform="translate(-44.26 -224.81)"/><path class="bj" d="M957.61,848.13c5.16,16.46,6.52,33.31,6.35,50.53-.38,42.77.1,85.55-.18,128.31-.32,48.82-38.25,87.11-87.2,87.31q-139.65.54-279.27,0c-36.64-.07-62.77-18.13-80.81-49.14-1.93-7.93-6.56-15.09-6.31-23.67,3.09-18.38,1.06-36.9,1.29-55.34.38-30.09.11-60.19.08-90.3q0,60.82-.12,121.61c0,5.32,1.86,11-1.85,16-3.37-32.3-.83-64.69-1.25-97-.25-18.37-1.73-36.82,1.11-55.16,3.18-1.89,2.28-9.71,9.14-6.29,4.19,5.68,1.37,12.07,1.88,18.14.54,47.82-1.14,95.64,1,143.39,5.49,6.2,6,14.65,9.74,21.65,10.87,20.41,27,34.15,50.22,38.58,17.09,1.92,34.2.75,51.27.8q100.34.24,200.65,0c6.5,0,13.08.59,19.44-1.38,7.89-1.29,15.09-4.92,23-6.34,5.57-.81,9.05,2.84,12.76,6,24.69-2.32,48.52-22.5,56.36-47.74,1.92-6.17,2.36-13,7.05-18.07,1.58-48.69,1.06-97.33.13-145.91-4.81-5.6-4.94-12.78-6.73-19.43-5.49-20.4-13.55-39.35-30.87-52.85-13.82-4.91-23.32-17.84-38.42-20.46-9.75-3-18.7-8.31-29-9.94A42.82,42.82,0,0,0,836.68,780c-74.43.22-148.88-.53-223.26.46a41.39,41.39,0,0,1-4.77,1.15c-6.66.9-13.28,2-19.14,5.69-29.39,11.58-47.13,34.88-61.74,61.36-2.75,3.06-3.82,6.94-5.49,10.56-2.39,5.16-5.89,8.24-11.68,4,10.69-58.32,59.34-99.59,118.67-99.9,65.86-.34,131.71.4,197.57-.26C889.61,762.59,933.3,790.15,957.61,848.13Z" transform="translate(-44.26 -224.81)"/><path class="bk" d="M654.9,513.27c-5.35-5.3-7-11.68-6.78-19.21.48-13.56,1.13-27.21.1-40.71-1.1-14.45,3.44-24.31,17.3-29.59,4.18-1.6,7.85-4.52,12-6.29,14.06-6,26.67-22.69,41.77-17.24,22.71,8.23,44.81,19.88,62.9,37.11,4.69,21.25,2.3,42.79,2.65,64.22.13,9.27-5.67,14.75-12.87,18.87-13.86,8.07-28.16,15.34-42.23,23-9.4,5.11-19.39,5.49-28.65-.41C685.65,533.2,667.31,527.81,654.9,513.27Z" transform="translate(-44.26 -224.81)"/><path class="bl" d="M654.9,513.27c15.34,8.53,30.86,16.75,46,25.71,9.7,5.75,18.51,5.93,28.26.14,13.36-7.93,27.1-15.29,40.92-22.46,8.5-4.42,12.54-10.65,12.34-20.43-.41-19.61-.16-39.23-.19-58.85,10.74,25.59,5.27,52.34,4.63,78.54-.24,9.33-11.82,13-19.36,17.59-12,7.23-24.7,13.43-37.19,19.81a19.76,19.76,0,0,1-18.82-.32q-25.17-13.25-50.12-27C656.53,523.41,654.61,518.74,654.9,513.27Z" transform="translate(-44.26 -224.81)"/><path class="bm" d="M509.59,1033.48V891h3.48c0,36.41.41,72.85-.21,109.27-.21,13.72,3.41,27.87-2.67,41.28C510,1038.85,509.79,1036.17,509.59,1033.48Z" transform="translate(-44.26 -224.81)"/><path class="bm" d="M518.9,875.55c-4.55-.41-5.9,4.49-9.45,5.74a42.55,42.55,0,0,1,1.19-17.92c4.12,0,7.78-.55,8.45-5.86.63-4.87,1.71-9.7,7.08-11.82,3.47,10.52.65,19.9-5.18,28.81Z" transform="translate(-44.26 -224.81)"/><path class="bn" d="M890.12,697.52c3.33-11.57,9.81-19.07,17.27-27.54C907.78,682.67,903.25,689.84,890.12,697.52Z" transform="translate(-44.26 -224.81)"/><path class="bo" d="M907.86,705.66c.1-10.13,4.12-14.43,10.63-21.53C917.62,693.94,914.79,699,907.86,705.66Z" transform="translate(-44.26 -224.81)"/><path class="bp" d="M401.5,876.51l8.91-1.08c3.78,3.16,4.75,7.48,4.44,12-1.24,18.07,3.28,36.43-2.75,54.22-11.14,7.69-23.32,4.39-35.22,3.19-12.21-13.12-4.11-27.13-.45-40.07C379.91,892.1,391.06,884.21,401.5,876.51Z" transform="translate(-44.26 -224.81)"/><path class="bq" d="M409.73,1007.63l-32.7.26c-7.83-17.95-8.13-35.87.3-53.75a141.13,141.13,0,0,1,32.93.13C417.23,972.13,418.19,989.93,409.73,1007.63Z" transform="translate(-44.26 -224.81)"/><path class="br" d="M377.28,954.14l-.3,53.75c-8.89,2-12.79-.92-12.25-10.69.78-14.42.41-28.9.54-43.36Z" transform="translate(-44.26 -224.81)"/><path class="bs" d="M409.73,941.07l.57-65.64c.83-3.29,3.6-3.24,6.15-3.58,4.47.48,5.49,3.76,5.65,7.4.54,18.31.72,36.66,0,55C421.78,941.73,418.55,947.2,409.73,941.07Z" transform="translate(-44.26 -224.81)"/><path class="bt" d="M401.5,876.51c-2.39,9.9-13.28,12.35-17.84,20.8-7.45,13.94-7,29.23-9.6,44-6.36,4.39-10,2.51-10.4-5-.27-4.3-.85-8.73.94-12.93C368.92,901.55,380.92,885.75,401.5,876.51Z" transform="translate(-44.26 -224.81)"/><path class="bu" d="M409.73,1007.63q.28-26.67.55-53.36l8.72-.34c.17,14.46.24,28.92.55,43.38C419.65,1004.22,418.59,1009.55,409.73,1007.63Z" transform="translate(-44.26 -224.81)"/><path class="bv" d="M364.63,923.45c3.65,5.71-7.6,19.21,9.45,17.84l35.68-.29c3.93.33,9.34,1.37,9.2-4.28-.53-21.65,4.12-43.52-2.49-64.94l5.1-2.06c4.58,24,2.5,48,1,72.16l-3.32,2.74c-18,5.3-36,4.79-54,.36C359.75,938,361.12,930.78,364.63,923.45Z" transform="translate(-44.26 -224.81)"/><path class="bw" d="M365.29,945.09l54-.36c-.34,2.57-1.37,5.49-4,5.49-15.75.11-31.56-.11-47.24-.56C367.11,949.7,366.22,946.71,365.29,945.09Z" transform="translate(-44.26 -224.81)"/><path class="bw" d="M422.61,942q-.51-36.08-1-72.16l3.82-.33q0,36.25.07,72.49Z" transform="translate(-44.26 -224.81)"/><path class="bw" d="M422.21,1011.34q.1-28.64.2-57.31h3C423.74,973.08,429.65,992.59,422.21,1011.34Z" transform="translate(-44.26 -224.81)"/><path class="bx" d="M1228.41,1055.2c-.77,8.89-3.79,16.21-11,24.42C1216.58,1067.34,1222.29,1061,1228.41,1055.2Z" transform="translate(-44.26 -224.81)"/><path class="by" d="M181.12,1059.46c1.81-8.13,4.23-13.46,11.18-17.74C191.49,1049.45,189.54,1055,181.12,1059.46Z" transform="translate(-44.26 -224.81)"/><path class="bz" d="M202.8,1053.37c0,7.67-3.12,11.09-7.84,14.13C195,1059.64,195,1059.64,202.8,1053.37Z" transform="translate(-44.26 -224.81)"/><path class="ca" d="M232.74,1008.74c-5.56-7.9-4.57-17.45-5.68-26.18-2.28-17.84-2.91-36-4-54-.3-4.94-.63-9.89,2.05-14.66,5.49-9.72,5.6-19-3.05-27.45-3.63-3.54-2.33-8.46-2.18-12.93,2.81-4.48,7.3-2.47,11-2.5,25.65-.18,51.35.6,77-.38,13.24-.53,17.83,5.65,16.78,16.84-3.21,35.58-2.09,71.35-6.26,106.87a22.33,22.33,0,0,1-7.56,14.31A688.89,688.89,0,0,1,232.74,1008.74Z" transform="translate(-44.26 -224.81)"/><path class="cb" d="M234.82,682.33a3.3,3.3,0,0,1-.36,2.24c-1.71,4-5,6-10.11,7.39,8.36,3.91,8.48,14.09,16.3,17.84h0a6.25,6.25,0,0,1,1.69,8.2c-7.71,11.72,0,18.13,7.77,24.7,1.37,3,1.37,5.42-2.5,6.35-.34,9.06.34,17.72,8.94,23.33,2.58,1.37,2.68,3.61,2.3,6.08-11.89,11.48-.76,17.83,5.63,25.25l2.95,4.7c-10.59,6-.46,16.83-5.69,24.08-47.46,3-47.46,3-59-41.34-10.29-39.67-20.29-79.4-31.06-118.93-2.33-8.59-2-12.65,7.9-14.5,12.72-2.41,25.08-6.67,37.67-9.9,6.72-1.71,10.6-.55,5.95,7.29C220.39,667,227.77,674.61,234.82,682.33Z" transform="translate(-44.26 -224.81)"/><path class="cc" d="M219.24,842.47c42-2.38,84.09-1.27,126.13-.39,6.49.13,12.69,2.88,12.48,10.14-.2,7.64-5.94,10.71-13.57,10.71-47.11,0-94.24.25-141.32.08-13.4,0-15.94-5.06-9.85-17.22a7.19,7.19,0,0,1,1.73,8.13C198.83,844.05,210.78,846.69,219.24,842.47Z" transform="translate(-44.26 -224.81)"/><path class="cd" d="M310.82,1008.67c5.87-15.39,3-31.8,4.95-47.68,3.17-25.26-.08-51.13,3.9-76.59,1.25-7.95-1.84-12-10.8-11.78-29.66.6-59.33.64-89,.9l-11.2-2.21c41.55-3,83.12-.68,124.67-1.11,9-.08,7.91,5.88,7.64,11.25-1.14,22-2.48,44.09-3.81,66.12-.79,13-1.94,26.07-2.45,39C333.9,1008.11,332.36,1009.68,310.82,1008.67Z" transform="translate(-44.26 -224.81)"/><path class="ce" d="M315.46,833c-8,1.06-10.51-.78-8.24-9,9.16-33.35,17.66-66.89,26.15-100.42,1.68-6.57,4.37-9.33,11.52-7.27,6.86,2,8.23,5.24,6.34,12.11-8.77,31.92-17.14,63.94-25.33,96.05C324.26,830.73,322.07,834.86,315.46,833Z" transform="translate(-44.26 -224.81)"/><path class="cf" d="M329.26,718.28c-2-10.76,2.95-19.1,9.38-26.94,6.12-.86,13.16-7.71,17.52,2.75-.71,1.37-2.89,1.47-2.93,3.42A21.84,21.84,0,0,1,356.1,694c7.61,5.49,9.31,12.66,5.77,21.21l-3.36-.42c-7-5.08-14.27-9.4-23.43-5.72Z" transform="translate(-44.26 -224.81)"/><path class="cg" d="M240.65,709.77c-4.11,1.83-9.37,4.86-10.38-2.3-1.38-10.12-5.78-15.67-17.43-14.86,8.34-1.65,14.6-5.83,21.62-8C237.83,692.66,240.43,700.92,240.65,709.77Z" transform="translate(-44.26 -224.81)"/><path class="ch" d="M264.48,803.67c-5.28,3.46-9.92,3.6-10.66-3.82s-4.44-12.27-11.08-16.61c7.41,2.84,10.63-4.25,16.11-4.83C262,786.61,265.66,794.58,264.48,803.67Z" transform="translate(-44.26 -224.81)"/><path class="cg" d="M250.11,742.7c-6.86.95-12.72.12-13.34-8.66-.37-5.36-3.5-9.45-7.64-13.72,5.31-2.74,15.25.07,11.58-10.43C247.51,719.72,246,732,250.11,742.7Z" transform="translate(-44.26 -224.81)"/><path class="ci" d="M234.82,682.33c-14.87-.92-14.5-13.72-17.53-23.32-1.18-3.72,2.74-4.27,5.92-4C232.34,661.93,231.6,673,234.82,682.33Z" transform="translate(-44.26 -224.81)"/><path class="cj" d="M261.74,832.44c-.21-1.45,0-3.16-.69-4.3-5.8-9.22-4-15.85,6.38-19.77,1.38,4.81,2.1,9.86,4,14.42C276.55,834.71,269.88,834.16,261.74,832.44Z" transform="translate(-44.26 -224.81)"/><path class="ck" d="M256.55,772.34c-3.27.46-7.71,5.79-9.44-.94-1.86-7.3-8.39-15.19.5-22.4C256.36,754.55,256.43,763.46,256.55,772.34Z" transform="translate(-44.26 -224.81)"/><path class="cl" d="M219.24,842.47c-5.49,7.24-14.69,7.39-22,10.88s-3.21-4.58-4.11-7.54C201.65,843.56,210.11,840.43,219.24,842.47Z" transform="translate(-44.26 -224.81)"/><path class="cm" d="M335.08,709.07c5.24-6.94,17.54-3.94,23.42,5.72Z" transform="translate(-44.26 -224.81)"/><path class="cn" d="M852.09,778.37c9.6.29,16.82,6.77,25.37,9.8,30.32,15.63,40.91,42.34,41.29,74.45.16,12.15-6.69,17.91-22,20a389.32,389.32,0,0,1-72.22,3.27H605.13c-15.28-1-31,4.39-45.82-3.27.33-7-4.21-3.31-7.23-3.36-7.15-.11-15.9,2.74-19.1-6.86-2.91-8.77,5.76-29.69,13.1-30.45,16.33-1.67,20.75-10.82,19.88-25.5-.82-13.86,7.8-22,19-28,7.26-3.25,14.78-6,21.65-10.11l-.09.18c2.74-1.69,5.83-1.3,8.82-1.3H843.21C846.2,777.29,849.27,777,852.09,778.37Z" transform="translate(-44.26 -224.81)"/><path class="co" d="M877.18,1092.57c-7.15.7-12.35,7.2-20,6.54-7.78,2.82-15.85,1.24-23.75,1.27-53.51.17-107,.08-160.53.11-4.11-.18-9.86-.26-3.81-6,4.79-4.55,11.91-5,18.23-6.38a289.67,289.67,0,0,0,117.31-54.95c20.58-16,38.83-34.3,47.76-59.76,7.58-4.85,17.13-.09,24.7-5.12,7.56-4.68,6.06-11.61,5.1-18.76-1.84-13.72-7.6-27.22-3.08-41.46,7.8-10.06,18.85-8.49,29-6.86,9.29,1.52,7.9,10.43,8,17.18.29,33.08.09,66.17.12,99.25v16.47C914.19,1060.93,902.62,1081.39,877.18,1092.57Z" transform="translate(-44.26 -224.81)"/><path class="cp" d="M953.82,1031.27c-5.58,29.91-19.58,53.74-49,65.61-5.86,2.37-12.1,7.9-19.28,2.44,1.25-7.13,7.93-9.88,11.93-14.78,11.17-13.72,19.81-28.56,22-46.52,0-64.49.21-129-.12-193.46a178.25,178.25,0,0,0-6.42-24.15c-1.38-4.11-5.49-9.26,1.78-12.35,22.47,14.44,30.34,37.43,36.15,61.64,1,4.35,2,8.71,3,13.07,3.34,4.54,1.69,9.76,1.72,14.63q.23,59.64,0,119.27C955.51,1021.51,957.17,1026.71,953.82,1031.27Z" transform="translate(-44.26 -224.81)"/><path class="bm" d="M914.72,808c-1.73,11.6,9.08,20,8.07,31.39-.83,68.33-.36,136.67-.24,205-4.25,23.77-17,41.76-37,54.89-3.16-1.79-2.74-8-8.34-6.75,17.42-14.2,32-30.19,34.89-53.86,3-33.46.55-67,1.27-100.48.2-9,0-18.05,0-27.06,0-9.52-2.22-17.21-13.83-17.12-12.17.09-17.16,5.13-18.16,17.83-.4,13.59,4.11,26.47,5.68,39.79,1,8.07,2.46,16.18-7,20.69-3.11,1.07-6.19,2-8.49-1.48a191.85,191.85,0,0,0-6.86-73.09c-9.78,4.9-1.61,19.1-14.08,20.23a16.69,16.69,0,0,1-5.84-8.24c-1.37-7.93-6.86-10.47-14.11-10.74A290.26,290.26,0,0,0,796,899c-83.41,6.7-166.61.63-249.84-3.79A94.62,94.62,0,0,1,521,891a20.23,20.23,0,0,1-4.68-3.07c.86-4.12,1.71-8.24,2.58-12.35l1.1-1c12.44-1.37,24.18,3.46,36.4,4.12,15.25,4.12,30.91,2,46.37,3.11a8,8,0,0,1,3.18,2.14q109.77,1.51,219.26,0a5.55,5.55,0,0,1,3.07-2,637.18,637.18,0,0,0,73.18-4.76c8.72-1,12.42-4.27,12.58-14.12.57-31.56-13.19-55.36-36.57-74.84C893.12,788.73,901.78,802.41,914.72,808Z" transform="translate(-44.26 -224.81)"/><path class="cq" d="M576.51,1099.73c-27.29-6.86-43.9-25-53.51-50.53-1.37-3.66-2.51-7.41-3.76-11.13-3.55-11.23-1.5-22.77-1.53-34.13-.1-33.54-.67-67.07.27-100.6,6-6.07,11.86-5.15,17.7.14,4,6.35,3.31,13.52,3.34,20.58.12,29.15.32,58.31,0,87.46-.4,32.36,7.27,60.76,36.3,79.58a8.32,8.32,0,0,1,2.43,3.76A6.48,6.48,0,0,1,576.51,1099.73Z" transform="translate(-44.26 -224.81)"/><path class="cr" d="M556.4,878.64c-12.28-.14-24.52-.59-36.4-4.11l6.17-28.82c13.46-28.11,32.71-50.43,62.44-62.22,1.75,2.36,2,4.67-.24,6.86-12.24,6.55-19.43,15-17.84,30.65,1.88,19.21-1.95,22.85-20.74,24.18-7.22.51-9.88,3.26-9.44,10a31.3,31.3,0,0,1-4.74,18.32c8.14,3.54,16.19.31,22.94,2.74C562.48,877.68,556.71,877.35,556.4,878.64Z" transform="translate(-44.26 -224.81)"/><path class="cs" d="M666.89,1098.83l190.3.28c-7.9,4.39-16.63,3.27-25,3.3q-114.57.49-229.13.49c-8.89,0-18,.95-26.51-3.17a1.08,1.08,0,0,1-.45-1.46,1,1,0,0,1,.11-.17,24.25,24.25,0,0,1,14.1-4.32c21-.32,42-.48,62.94.11C658.2,1094,663.25,1094.66,666.89,1098.83Z" transform="translate(-44.26 -224.81)"/><path class="ct" d="M852.09,778.37l-245.6.17c6.75-4.45,14.52-3.21,21.79-3.24q101.65-.34,203.31,0C838.45,775.35,845.71,774.48,852.09,778.37Z" transform="translate(-44.26 -224.81)"/><path class="cu" d="M953.82,1031.27V882.74c1.27-1.37,3-1.23,3,.44q.21,74.93.15,149.87c0,.51,0,1.37-.18,1.37C953.69,1035.47,954.54,1032.64,953.82,1031.27Z" transform="translate(-44.26 -224.81)"/><path class="cv" d="M520,901.71q-.35,68.19-.71,136.36a3.71,3.71,0,0,1-.54,1.37,12.44,12.44,0,0,1-1.86,1.38c-.22-3.87-.65-7.74-.66-11.61q0-70.61.08-141.22a7.12,7.12,0,0,1,2.61.61C523.06,892.62,523.28,897,520,901.71Z" transform="translate(-44.26 -224.81)"/><path class="ct" d="M588.37,790.34q.09-3.45.24-6.86a32.94,32.94,0,0,1,18-5.05C603.52,787,594.35,786.22,588.37,790.34Z" transform="translate(-44.26 -224.81)"/><path class="cw" d="M774,472.41c8.15,26.07-7.22,36.66-26.84,48.9-23.52,14.65-41.38,13.64-64.69-.83-19.68-12.19-27.44-23.87-27.94-47.67-.55-27.27,9.26-40.4,32.38-52.76,21.64-11.55,38.91-14.75,57.82,1.69a4.56,4.56,0,0,0,1.37.7C769.2,431.34,782.83,445.87,774,472.41Z" transform="translate(-44.26 -224.81)"/><path class="cx" d="M266,959.39c-2.87-7.73,1-12.35,5.69-18.94C275.9,950.12,273.05,955.06,266,959.39Z" transform="translate(-44.26 -224.81)"/><path class="cy" d="M263.43,929.2c2.58,9-.23,15.16-9,18.62Z" transform="translate(-44.26 -224.81)"/><path class="cz" d="M356.1,694c-1.58,3.29,4.37,7.93.37,9.18-4.93,1.52-10.65-.7-15-5.49,3.8-6.19,9.91-2.4,14.65-3.64Z" transform="translate(-44.26 -224.81)"/><path class="da" d="M605.16,884l-2.39-2.2,225.51.09L826,884c-2.4,2.58-5.57,1.91-8.52,1.91H613.61C610.68,886,607.48,886.67,605.16,884Z" transform="translate(-44.26 -224.81)"/><path class="db" d="M666.89,1098.83c-30.19,0-60.49,1.55-90.72-.73-13.17-10.11-27.66-19.35-33-36.2-3.82-12-9.34-23.5-9-37,.92-39.68.65-79.39.84-119.08,4.28-4.79,9.9-4.12,15.39-3.68C643.5,909,736.77,905.9,830,905.82c6.19,0,13.43-2.51,16.82,5.79a46.46,46.46,0,0,1,1.1,26.17,61.39,61.39,0,0,0,3.34,37.58c7.54,5.39,2.36,9.88-.86,14.77-28.1,42.76-69.49,67.81-115.07,87.81C713.24,1087.64,689.05,1089.73,666.89,1098.83Z" transform="translate(-44.26 -224.81)"/><path class="dc" d="M881.39,911.93c-3.1-6.51-5.73-16.56-.61-19.21,8.37-4.25,19.2-3.94,29.12-4.72,3.67-.3,4,3.84,4.12,6.86.7,47.1,1.37,94.19-.38,141.32,0,.86-1,1.69-1.5,2.54-.11-39.27,0-78.52-.53-117.78,0-5.32,3.17-15.48-3.23-15.23C899.55,906.07,887.71,899.5,881.39,911.93Z" transform="translate(-44.26 -224.81)"/><path class="dd" d="M851.26,975.38c-8.31-4.11-11-11-9.85-19.86,1.65-13.41,2.9-26.87,4.31-40.31.66-1.38.88-3,2.46-3.76,2.74,1.6,3.15,4.43,3.78,7.16,5,5.4,3.93,12,3.35,18.34-2.06,22.66-2.11,22.66,17,31.56,1.77,3,4.72,3.58,7.84,3.9C871.06,978.87,860.84,974,851.26,975.38Z" transform="translate(-44.26 -224.81)"/><path class="de" d="M922.55,1044.42c-2.64-4.67-1.49-9.79-1.49-14.72q-.12-87.81,0-175.62c0-4.9-1.21-10,1.74-14.64,3.19,13.32,1.52,26.87,1.58,40.3q.29,71.24,0,142.44C924.32,1029.61,925.4,1037.19,922.55,1044.42Z" transform="translate(-44.26 -224.81)"/><path class="df" d="M848.18,911.46l-2.46,3.76c-1.15-4.72-3.81-5.67-8.79-5.39-77.21,4.11-154.47,1.93-231.7,1.27-23.45-.2-46.85-3.44-70.28-5.28-4-4.87-9.93-2.74-14.94-4.11-.35-4.41-.72-8.8-1.08-13.19,13.72-2.74,26.86,2.14,40.32,3a2676.84,2676.84,0,0,0,270.09,2.14C844,893,851.1,895.74,848.18,911.46Z" transform="translate(-44.26 -224.81)"/><path class="dg" d="M872.28,968.48c-3.48,0-7,0-10.44.22-10.73.92-14.42-4.32-13.31-14.43,1.31-11.87,2.31-23.77,3.43-35.67,3.5-6.47,2.47-13.73,3.42-20.59.73-5.21,2.59-8.23,8.55-7.87,5.27.26,6.86,3.11,7.32,7.59,2.28,19.4,4.45,38.83,7,58.18C879.06,961.77,876.72,965.45,872.28,968.48Z" transform="translate(-44.26 -224.81)"/><path class="dh" d="M605.16,884l220.9.1,5.91,1v1.27H598.48l-.19-1Z" transform="translate(-44.26 -224.81)"/><path class="di" d="M709.5,497.41H682.37c-4.12,0-8.81.11-9.27-5.16-.46-5.6,4.34-6,8.43-6q29.38-.12,58.78,0c4.11,0,8.85.3,8.5,5.89s-5.17,5.23-9.16,5.25C729.59,497.48,719.55,497.42,709.5,497.41Z" transform="translate(-44.26 -224.81)"/><path class="dj" d="M712.21,476.91H680.76c-3.94,0-7.34-1.28-7.67-5.41-.41-5.11,4-4.95,7.4-5q30.71-.18,61.41,0c2.85,0,6.46-.1,6.86,4,.38,4.39-2.64,6.24-6.53,6.31C732.16,477,722.2,476.9,712.21,476.91Z" transform="translate(-44.26 -224.81)"/><path class="dk" d="M676.32,455.2c-6.11-2.82-5.29-5.59.06-8.34a422.38,422.38,0,0,0,69.15,0c5.77,2.75,5.63,5.57,0,8.32A400.92,400.92,0,0,0,676.32,455.2Z" transform="translate(-44.26 -224.81)"/><path class="dl" d="M745.53,446.85a188.68,188.68,0,0,1-69.15,0A590.84,590.84,0,0,1,745.53,446.85Z" transform="translate(-44.26 -224.81)"/><path class="ay" d="M676.32,455.2a184.11,184.11,0,0,1,69.17,0A604.6,604.6,0,0,1,676.32,455.2Z" transform="translate(-44.26 -224.81)"/><path class="dm" d="M584.59,1025.34c-1.37,12.35-5.41,18.66-15.09,25.09C572.77,1040.21,577.21,1034.11,584.59,1025.34Z" transform="translate(-44.26 -224.81)"/><path class="dn" d="M573.29,1023.89c.75,7.49-3.53,12.52-8.63,17.26C564.14,1033.91,567.94,1028.58,573.29,1023.89Z" transform="translate(-44.26 -224.81)"/></svg>