<svg width="93" height="101" viewBox="0 0 93 101" fill="none" xmlns="http://www.w3.org/2000/svg">
<path d="M58.3016 28.0618C60.7289 27.0034 63.1562 25.9206 65.5277 24.7733C66.6952 24.1687 67.8167 23.4994 68.885 22.7694C69.2101 22.504 69.4973 22.2056 69.7406 21.8806C69.5918 21.0726 69.0338 20.9434 68.4386 21.0726C66.8304 21.3532 65.2529 21.7533 63.7235 22.2685C61.3055 23.1977 58.9805 24.3208 56.6462 25.4035C55.1861 26.0742 54.6932 26.9064 55.1117 27.7306C55.5302 28.5547 56.6741 28.7729 58.3016 28.0618Z" fill="black"/>
<path d="M70.4102 33.936C68.5502 34.1057 67.1924 34.2188 65.8439 34.3562C65.1338 34.397 64.4282 34.4834 63.7328 34.6147C63.5153 34.6377 63.3051 34.6978 63.1143 34.7915C62.9235 34.8853 62.7559 35.0108 62.6211 35.1609C62.4863 35.3111 62.387 35.4829 62.3288 35.6665C62.2706 35.85 62.2547 36.0418 62.282 36.2307C62.375 37.1276 63.1004 37.467 64.0583 37.5235C64.2718 37.5396 64.4865 37.5396 64.7 37.5235C66.9785 37.3458 69.257 37.2003 71.5169 36.9498C72.5795 36.8182 73.6196 36.5739 74.6138 36.2226C75.0509 36.0772 75.3299 35.5843 75.674 35.245C75.302 35.0026 74.9672 34.6066 74.5487 34.5339C73.0235 34.2511 71.4704 34.0895 70.4102 33.936Z" fill="black"/>
<path d="M42.3707 18.4628C42.6709 18.5037 42.9775 18.4926 43.2727 18.4302C43.568 18.3678 43.8462 18.2553 44.0912 18.0992C44.5502 17.8092 44.9128 17.419 45.1421 16.968C45.9605 15.449 46.7138 13.9057 47.4671 12.3624C47.5978 12.0737 47.6701 11.7675 47.681 11.4574C47.681 10.7706 47.3741 10.1404 46.5929 10.0434C45.9813 10.023 45.3772 10.1669 44.8631 10.4555C44.541 10.7005 44.3055 11.0199 44.1842 11.3766C43.4309 12.8553 42.6869 14.342 41.9801 15.8287C41.7924 16.3024 41.6371 16.7854 41.5151 17.275C41.7476 17.6225 41.9336 18.3093 42.3707 18.4628Z" fill="black"/>
<path d="M68.2342 47.4619C68.0394 47.3483 67.8198 47.2708 67.589 47.234C67.3582 47.1973 67.1212 47.2022 66.8927 47.2484C66.6642 47.2947 66.449 47.3812 66.2606 47.5027C66.0723 47.6243 65.9147 47.7781 65.7976 47.9548C64.4188 49.6908 63.495 51.6683 63.0913 53.7482C63.2401 54.0956 63.3052 54.7662 63.7144 55.0248C64.4305 55.4854 65.0257 54.8713 65.5 54.443C65.9599 54.0561 66.3517 53.6123 66.6625 53.126C67.3786 51.9221 68.0389 50.702 68.6713 49.4496C68.9097 49.1338 68.9975 48.7498 68.9159 48.3789C68.8343 48.0079 68.5899 47.6791 68.2342 47.4619Z" fill="black"/>
<path d="M36.27 30.9464C36.3608 30.7725 36.4086 30.584 36.4104 30.393C36.4121 30.202 36.3677 30.0129 36.2801 29.8377C36.1924 29.6626 36.0635 29.5054 35.9015 29.3762C35.7396 29.2471 35.5483 29.1489 35.34 29.088C33.48 28.28 31.5549 27.6982 29.6484 27.0114C28.7184 27.1973 27.9558 27.4316 27.6861 28.1992C27.6141 28.3778 27.5846 28.5672 27.5994 28.756C27.6142 28.9447 27.6729 29.1289 27.772 29.2974C27.8712 29.4659 28.0086 29.6151 28.1761 29.736C28.3436 29.857 28.5375 29.9471 28.7463 30.001C30.4668 30.607 32.2245 31.1322 33.9915 31.617C34.1916 31.704 34.4095 31.7556 34.6327 31.7689C34.8559 31.7822 35.0799 31.757 35.2917 31.6946C35.5036 31.6323 35.6992 31.534 35.8671 31.4056C36.035 31.2772 36.1719 31.1211 36.27 30.9464Z" fill="black"/>
<path d="M40.269 53.4169C39.339 53.1745 38.4927 53.627 38.0556 54.7016C37.6185 55.7762 37.0791 57.0286 36.7257 58.2245C36.5484 59.0491 36.4365 59.8833 36.3909 60.7212L36.9582 61.101C37.6169 60.8539 38.241 60.5421 38.8182 60.1718C40.2743 58.8763 41.1711 57.1838 41.3571 55.3803C41.571 54.3057 41.1246 53.635 40.269 53.4169Z" fill="black"/>
<path d="M57.8275 63.6381C57.5255 63.4529 57.1597 63.3632 56.7908 63.3838C56.422 63.4044 56.0724 63.534 55.8001 63.7512C55.641 63.8572 55.5077 63.9896 55.4079 64.1407C55.3081 64.2918 55.2438 64.4586 55.2187 64.6315C55.1936 64.8043 55.2082 64.9798 55.2618 65.1477C55.3153 65.3156 55.4066 65.4726 55.5304 65.6096C57.0921 67.2114 58.7531 68.738 60.5059 70.1829C61.2871 70.8131 62.0218 70.393 62.0032 69.488C62.0032 67.872 59.5852 64.4703 57.8275 63.6381Z" fill="black"/>
<path d="M28.2254 47.5589C29.5181 47.0175 31.6199 44.0198 31.4339 42.824C31.3867 42.568 31.2714 42.3251 31.097 42.1146C30.9226 41.9042 30.694 41.7321 30.4295 41.612C30.0989 41.5581 29.7584 41.5725 29.4353 41.6539C29.1122 41.7353 28.8157 41.8815 28.5695 42.0806C27.5837 43.4866 26.8304 45.0056 25.9841 46.4842C26.2259 47.672 26.9699 48.076 28.2254 47.5589Z" fill="black"/>
<path d="M47.3369 44.0926C46.8905 44.0198 46.1558 44.4804 45.8303 44.9006C45.7341 45.0309 45.6689 45.1767 45.6388 45.3293C45.6086 45.4819 45.6141 45.6383 45.6549 45.789C45.6957 45.9397 45.7709 46.0818 45.8761 46.2068C45.9814 46.3318 46.1144 46.4371 46.2674 46.5166C47.7997 47.5026 49.551 48.2014 51.4103 48.5689C52.9076 48.5689 53.4005 47.9629 52.7681 47.0094C51.587 45.1914 49.5689 44.44 47.3369 44.0926Z" fill="black"/>
<path d="M32.3733 17.8326C31.4433 17.6306 30.3366 16.766 28.9695 18.083C31.4898 19.1334 34.1403 19.3678 36.4746 20.3293C35.8236 18.584 34.038 18.1962 32.3733 17.8326Z" fill="black"/>
<path d="M45.9234 30.001C44.4633 30.9868 42.8916 33.9683 42.873 35.754C44.919 34.5662 45.4026 32.6513 46.2675 30.9626C46.3791 30.7444 46.0629 30.3566 45.9234 30.001Z" fill="black"/>
<path d="M29.4438 53.9017C31.5084 53.5058 32.4663 52.0352 33.6288 50.7828C33.8571 50.4049 34.0052 49.9943 34.0659 49.5708L33.5637 49.3526C31.62 50.4354 30.69 52.2534 29.4438 53.9017Z" fill="black"/>
<path d="M55.0375 15.1581C53.875 15.8287 51.8104 18.8668 51.7732 20.0061C53.7271 18.7181 55.3174 17.0601 56.4232 15.1581C55.8001 15.1419 55.2979 15.0126 55.0375 15.1581Z" fill="black"/>
<path d="M26.3191 64.8662C28.3744 64.2198 28.8766 62.6927 29.6113 61.0282C27.9652 61.1252 26.6167 62.8058 26.3191 64.8662Z" fill="black"/>
<path d="M77.0598 48.7547C78.7431 46.5408 79.4313 44.949 79.2546 43.4058C77.655 44.9167 76.7436 47.2518 77.0598 48.7547Z" fill="black"/>
<path d="M21.3899 35.2773C20.3048 36.1021 19.5006 37.1697 19.0649 38.3638C19.9307 38.1179 20.7201 37.7032 21.373 37.1514C22.0258 36.5996 22.5247 35.9254 22.8314 35.1803C22.0688 35.2207 21.5666 35.1076 21.3899 35.2773Z" fill="black"/>
<path d="M77.5619 24.4258C75.6368 24.5632 74.1395 25.8479 72.8003 28.3931C74.6373 27.3173 76.2479 25.9754 77.5619 24.4258Z" fill="black"/>
<path d="M19.7533 48.4315C19.6138 48.4719 19.465 48.9002 19.5487 49.0618C19.7652 49.6243 20.1155 50.1409 20.577 50.578C21.0385 51.0152 21.6007 51.363 22.2271 51.5989L22.6177 51.2999C21.976 50.3707 21.3529 49.4173 20.6554 48.5204C20.5345 48.3669 20.023 48.3588 19.7533 48.4315Z" fill="black"/>
<path d="M40.762 67.7831C40.576 67.6296 40.1389 67.7104 39.832 67.6781C39.832 68.0094 39.6646 68.4457 39.832 68.6396C40.817 69.5281 42.099 70.1246 43.4962 70.3445C42.9196 68.9062 41.6362 68.5022 40.762 67.7831Z" fill="black"/>
<path d="M49.29 56.859L49.6806 57.1498C51.2709 56.5196 51.8661 55.1945 52.4706 53.9178C52.5543 53.7401 52.3032 53.433 52.0707 52.827L49.29 56.859Z" fill="black"/>
<path d="M52.8519 36.1499C51.7824 34.3885 50.3316 33.8229 49.0017 34.639C49.4692 35.1284 50.0589 35.5189 50.726 35.7807C51.3931 36.0425 52.1202 36.1688 52.8519 36.1499Z" fill="black"/>
<path d="M66.7646 12.2331C67.2296 11.6675 68.3363 11.2393 67.6946 10.1485C66.0764 10.8999 65.444 12.225 64.5698 13.3805L64.9976 13.736C65.6434 13.288 66.2354 12.7845 66.7646 12.2331Z" fill="black"/>
<path d="M36.3909 37.265C36.1491 37.168 35.7678 37.3377 35.4609 37.3862C35.5074 37.6528 35.4609 38.0406 35.6283 38.1942C36.5255 38.9536 37.6672 39.458 38.9019 39.6405C38.7008 39.1126 38.373 38.6279 37.9401 38.2184C37.5072 37.8089 36.9792 37.4839 36.3909 37.265Z" fill="black"/>
<path d="M66.6997 60.7858C67.8157 61.9736 69.2944 62.4018 71.4427 62.6442C69.8803 61.311 68.5039 60.6566 66.6997 60.7858Z" fill="black"/>
<path d="M42.0918 47.0498C40.2876 47.2276 39.7389 48.0679 39.9807 49.9829L42.0918 47.0498Z" fill="black"/>
<path d="M60.6452 6.464C59.967 6.75605 59.3891 7.19798 58.9696 7.74542C58.55 8.29286 58.3036 8.92655 58.2551 9.58288C59.6129 8.6052 60.608 7.85376 60.6452 6.464Z" fill="black"/>
<path d="M57.1577 50.7828C57.9017 49.7001 58.655 48.8113 58.3109 47.5508C56.888 48.48 56.6555 49.0941 57.1577 50.7828Z" fill="black"/>
<path d="M49.941 22.7129C48.6018 23.6421 48.3879 24.9106 47.8113 26.2762C49.6434 25.3631 50.22 24.337 49.941 22.7129Z" fill="black"/>
<path d="M59.52 41.9433C59.9335 42.4094 60.4501 42.7989 61.0395 43.0889C61.6288 43.3789 62.279 43.5636 62.9517 43.632C62.0589 42.3473 61.1568 41.5878 59.52 41.9433Z" fill="black"/>
<path d="M37.7022 8.37896L37.3395 8.08C35.8329 8.57288 35.2377 9.38896 35.4051 11.0777L37.7022 8.37896Z" fill="black"/>
<path d="M75.8879 57.473C76.1675 58.1273 76.662 58.6958 77.3101 59.108C77.9581 59.5203 78.7313 59.7581 79.5335 59.792C79.1403 59.2097 78.6139 58.7036 77.9869 58.3048C77.36 57.9059 76.6456 57.6229 75.8879 57.473Z" fill="black"/>
<path d="M42.0547 23.5128L44.7796 25.1288C43.8124 22.9795 43.2823 22.7129 42.0547 23.5128Z" fill="black"/>
<path d="M46.1094 61.5373L48.7134 63.2018L49.011 62.8947C48.2205 61.4646 48.0066 61.3434 46.1094 61.5373Z" fill="black"/>
<path d="M50.4431 74.1906C51.6521 72.8574 51.6521 72.8574 51.5777 71.6858C50.2199 72.1059 50.3501 72.9866 50.4431 74.1906Z" fill="black"/>
<path d="M64.1701 18.6486C63.4633 18.0992 62.7937 17.4286 61.2871 18.4224L64.0771 19.1415L64.1701 18.6486Z" fill="black"/>
</svg>
