<svg width="50" height="63" viewBox="0 0 50 63" fill="none" xmlns="http://www.w3.org/2000/svg">
<g clip-path="url(#clip0_527_947)">
<path d="M12.0139 19.573C11.4249 19.573 10.9559 19.742 10.6219 20.076C10.4629 20.235 10.3559 20.434 10.2729 20.651C10.2589 20.678 10.2389 20.7 10.2299 20.73L1.68392 48.6C1.67892 48.616 1.68292 48.63 1.67992 48.646C1.67292 48.679 1.66992 48.712 1.66992 48.747C1.66992 48.781 1.67292 48.814 1.67992 48.848C1.68292 48.864 1.67992 48.878 1.68392 48.894C1.68692 48.904 1.69692 48.908 1.70092 48.917C1.73392 49.005 1.78492 49.083 1.86192 49.142C1.87192 49.15 1.88292 49.153 1.89392 49.16C1.93292 49.185 1.96992 49.212 2.01592 49.226C2.06492 49.241 2.11392 49.247 2.16192 49.247C2.20992 49.247 2.25992 49.24 2.30792 49.226L30.1769 40.68C30.1789 40.679 30.1809 40.677 30.1829 40.677C30.4359 40.593 30.6549 40.465 30.8319 40.287C32.7839 38.336 28.6309 32.076 23.7319 27.177C19.1849 22.629 14.4759 19.573 12.0139 19.573ZM20.7999 42.508C15.6919 39.455 11.4189 35.131 8.43992 29.98L10.5029 23.251C10.7369 23.899 11.0679 24.614 11.5229 25.409C12.8849 27.789 15.0869 30.551 17.7219 33.186C21.3329 36.796 25.0409 39.46 27.6499 40.408L20.7999 42.508ZM11.7999 45.269C9.52492 43.441 7.46092 41.353 5.65692 39.054L8.05092 31.247C10.9339 35.953 14.8759 39.947 19.5419 42.894L11.7999 45.269ZM5.30592 40.199C6.91292 42.175 8.70692 43.99 10.6629 45.617L2.91592 47.992L5.30592 40.199ZM30.1259 39.58C30.0599 39.646 29.9699 39.694 29.8639 39.728L29.8269 39.74C29.7169 39.771 29.5899 39.79 29.4409 39.79C27.6019 39.79 23.2299 37.279 18.4289 32.479C15.8539 29.905 13.7099 27.217 12.3899 24.912C10.9959 22.478 10.9279 21.183 11.3279 20.783C11.4679 20.643 11.6979 20.573 12.0129 20.573C13.8519 20.573 18.2249 23.084 23.0249 27.884C28.8489 33.707 31.0849 38.621 30.1259 39.58Z" fill="black"/>
<path d="M20.176 11.324C19.805 12.252 20.092 12.928 20.322 13.471C20.529 13.959 20.678 14.311 20.46 14.857C20.242 15.401 19.892 15.553 19.406 15.763C18.865 15.997 18.191 16.288 17.821 17.216C17.718 17.472 17.843 17.763 18.1 17.866C18.161 17.89 18.224 17.902 18.286 17.902C18.484 17.902 18.672 17.783 18.75 17.588C18.968 17.044 19.318 16.892 19.804 16.682C20.345 16.448 21.019 16.157 21.389 15.23C21.76 14.302 21.474 13.626 21.243 13.082C21.036 12.594 20.887 12.242 21.105 11.696C21.323 11.151 21.674 10.999 22.16 10.788C22.701 10.554 23.375 10.262 23.746 9.334C23.849 9.077 23.724 8.786 23.468 8.684C23.211 8.582 22.921 8.705 22.818 8.962C22.6 9.508 22.249 9.66 21.763 9.87C21.221 10.104 20.547 10.396 20.176 11.324Z" fill="black"/>
<path d="M23.2571 21.053C23.0621 21.248 23.0621 21.565 23.2571 21.76C23.3551 21.858 23.4831 21.906 23.6111 21.906C23.7391 21.906 23.8671 21.857 23.9651 21.76C29.7641 15.96 29.8431 6.602 24.1421 0.9C23.9471 0.705 23.6301 0.705 23.4351 0.9C23.2401 1.095 23.2401 1.412 23.4351 1.607C28.7461 6.919 28.6671 15.643 23.2571 21.053Z" fill="black"/>
<path d="M27.0581 27.505C26.8631 27.7 26.8631 28.017 27.0581 28.212C27.1561 28.31 27.2841 28.358 27.4121 28.358C27.5401 28.358 27.6681 28.309 27.7661 28.212C33.6151 22.362 41.9811 21.212 46.4161 25.649C46.6111 25.844 46.9281 25.844 47.1231 25.649C47.3181 25.454 47.3181 25.137 47.1231 24.942C42.2971 20.117 33.2951 21.265 27.0581 27.505Z" fill="black"/>
<path d="M31.3659 18.395C31.4339 18.427 31.5069 18.442 31.5779 18.442C31.7659 18.442 31.9459 18.336 32.0309 18.154C32.2359 17.716 32.6099 17.621 33.2539 17.491C33.9229 17.357 34.7559 17.189 35.1839 16.273C35.6129 15.355 35.2069 14.608 34.8809 14.008C34.5679 13.432 34.4019 13.084 34.6069 12.646C34.8119 12.206 35.1859 12.111 35.8309 11.981C36.4999 11.845 37.3329 11.677 37.7619 10.759C38.1909 9.841 37.7849 9.094 37.4599 8.494C37.1469 7.916 36.9799 7.568 37.1859 7.128C37.3029 6.878 37.1949 6.581 36.9449 6.463C36.6969 6.348 36.3969 6.453 36.2799 6.705C35.8499 7.623 36.2549 8.37 36.5799 8.97C36.8929 9.547 37.0599 9.895 36.8539 10.335C36.6489 10.775 36.2749 10.87 35.6299 11C34.9609 11.136 34.1279 11.304 33.6989 12.222C33.2699 13.139 33.6759 13.886 34.0009 14.486C34.3139 15.063 34.4819 15.41 34.2759 15.85C34.0719 16.288 33.6979 16.382 33.0549 16.511C32.3849 16.646 31.5519 16.813 31.1229 17.73C31.0079 17.98 31.1159 18.277 31.3659 18.395Z" fill="black"/>
<path d="M42.176 29.994C41.699 29.86 41.537 29.589 41.312 29.214C41.048 28.775 40.719 28.228 39.862 27.985C39.001 27.744 38.4381 28.039 37.9841 28.276C37.5961 28.477 37.317 28.624 36.84 28.49C36.364 28.356 36.202 28.086 35.978 27.711C35.715 27.272 35.387 26.725 34.531 26.483C34.261 26.409 33.9891 26.562 33.9141 26.829C33.8401 27.095 33.994 27.371 34.26 27.446C34.735 27.58 34.897 27.85 35.121 28.224C35.385 28.664 35.712 29.211 36.569 29.453C37.429 29.693 37.992 29.398 38.447 29.162C38.835 28.961 39.113 28.811 39.591 28.948C40.068 29.082 40.2301 29.353 40.4551 29.728C40.7191 30.167 41.048 30.714 41.905 30.957C41.951 30.97 41.996 30.976 42.041 30.976C42.26 30.976 42.46 30.832 42.522 30.612C42.597 30.346 42.441 30.069 42.176 29.994Z" fill="black"/>
<path d="M17.7311 10.815C17.8641 10.815 17.9961 10.762 18.0941 10.658L21.1161 7.459C21.3061 7.258 21.2971 6.942 21.0961 6.752C20.8951 6.562 20.5781 6.571 20.3891 6.772L17.3671 9.971C17.1771 10.172 17.1861 10.488 17.3871 10.678C17.4851 10.77 17.6081 10.815 17.7311 10.815Z" fill="black"/>
<path d="M44.139 26.203C43.925 26.03 43.61 26.06 43.435 26.274C43.261 26.489 43.292 26.803 43.506 26.978L47.336 30.102C47.429 30.177 47.541 30.214 47.652 30.214C47.797 30.214 47.941 30.151 48.04 30.03C48.214 29.815 48.183 29.501 47.969 29.326L44.139 26.203Z" fill="black"/>
<path d="M41.4441 19.506C41.4801 19.514 41.5161 19.518 41.5511 19.518C41.7811 19.518 41.9891 19.359 42.0391 19.125L42.8971 15.21C42.9571 14.94 42.7861 14.674 42.5161 14.615C42.2451 14.558 41.9791 14.727 41.9201 14.996L41.0621 18.911C41.0041 19.18 41.1751 19.447 41.4441 19.506Z" fill="black"/>
<path d="M31.683 9.811C31.75 9.842 31.821 9.856 31.891 9.856C32.08 9.856 32.262 9.748 32.346 9.564L34.898 3.984C35.012 3.733 34.902 3.436 34.651 3.321C34.401 3.207 34.103 3.316 33.988 3.568L31.436 9.148C31.321 9.399 31.432 9.696 31.683 9.811Z" fill="black"/>
<path d="M26.647 21.259C26.647 21.792 26.854 22.292 27.231 22.669C27.607 23.046 28.108 23.254 28.641 23.254C29.173 23.254 29.674 23.046 30.051 22.669C30.827 21.892 30.827 20.627 30.051 19.849C29.297 19.095 27.983 19.096 27.231 19.849C26.854 20.226 26.647 20.726 26.647 21.259ZM27.938 20.555C28.126 20.367 28.376 20.264 28.641 20.264C28.906 20.264 29.156 20.368 29.344 20.555C29.731 20.943 29.731 21.574 29.344 21.962C28.967 22.338 28.313 22.338 27.938 21.962C27.75 21.774 27.647 21.524 27.647 21.259C27.647 20.994 27.751 20.744 27.938 20.555Z" fill="black"/>
<path d="M33.5841 31.998C32.8281 32.754 32.8281 33.982 33.5841 34.738C33.9501 35.104 34.4371 35.305 34.9541 35.305C35.4711 35.305 35.9581 35.104 36.3241 34.738C36.6901 34.372 36.8911 33.885 36.8911 33.368C36.8911 32.851 36.6901 32.364 36.3241 31.998C35.5921 31.266 34.3161 31.266 33.5841 31.998ZM35.6171 34.031C35.2631 34.385 34.6441 34.385 34.2911 34.031C33.9261 33.666 33.9261 33.07 34.2911 32.705C34.4681 32.528 34.7041 32.431 34.9541 32.431C35.2041 32.431 35.4401 32.529 35.6171 32.705C35.7941 32.881 35.8911 33.118 35.8911 33.368C35.8911 33.618 35.7941 33.854 35.6171 34.031Z" fill="black"/>
<path d="M46.284 20.72C46.832 20.72 47.347 20.506 47.736 20.118C48.124 19.73 48.338 19.214 48.338 18.666C48.338 18.118 48.124 17.603 47.736 17.215C46.961 16.439 45.607 16.438 44.832 17.215C44.444 17.603 44.23 18.118 44.23 18.667C44.231 19.216 44.445 19.731 44.833 20.118C45.22 20.506 45.735 20.72 46.284 20.72ZM45.539 17.922C45.738 17.723 46.003 17.613 46.284 17.613C46.565 17.613 46.83 17.723 47.029 17.923C47.228 18.121 47.338 18.385 47.338 18.666C47.338 18.948 47.229 19.212 47.029 19.411C46.631 19.809 45.936 19.809 45.54 19.411C45.341 19.212 45.23 18.948 45.23 18.667C45.23 18.386 45.34 18.121 45.539 17.922Z" fill="black"/>
<path d="M15.391 17.002C15.97 17.002 16.514 16.777 16.923 16.368C17.768 15.523 17.768 14.149 16.923 13.304C16.105 12.485 14.678 12.484 13.859 13.304C13.014 14.149 13.015 15.524 13.859 16.368C14.269 16.777 14.813 17.002 15.391 17.002ZM14.566 14.011C14.787 13.79 15.08 13.669 15.391 13.669C15.702 13.669 15.995 13.791 16.216 14.011C16.671 14.466 16.671 15.206 16.216 15.661C15.776 16.101 15.007 16.101 14.567 15.661C14.111 15.206 14.111 14.466 14.566 14.011Z" fill="black"/>
<path d="M38.123 15.294C38.471 15.642 38.934 15.834 39.427 15.834C39.919 15.834 40.382 15.642 40.731 15.293C41.45 14.574 41.45 13.404 40.731 12.686C40.034 11.988 38.818 11.99 38.124 12.686C37.775 13.034 37.584 13.497 37.584 13.99C37.584 14.483 37.774 14.945 38.123 15.294ZM38.83 13.393C38.989 13.234 39.201 13.146 39.427 13.146C39.652 13.146 39.864 13.234 40.024 13.394C40.353 13.723 40.352 14.258 40.024 14.587C39.706 14.906 39.149 14.906 38.831 14.587C38.672 14.427 38.584 14.215 38.584 13.99C38.583 13.765 38.67 13.553 38.83 13.393Z" fill="black"/>
</g>
<defs>
<clipPath id="clip0_527_947">
<rect width="50" height="62.5" fill="white"/>
</clipPath>
</defs>
</svg>
