<svg width="17" height="26" viewBox="0 0 17 26" fill="none" xmlns="http://www.w3.org/2000/svg">
<path d="M1.89021 7.47864C1.89021 7.35597 1.90088 7.21197 1.92221 7.04664C1.94354 6.8813 1.98354 6.69464 2.04221 6.48664C2.10088 6.2733 2.18888 6.03597 2.30621 5.77464L3.29021 6.11864C3.23154 6.28397 3.18088 6.43597 3.13821 6.57464C3.09554 6.70797 3.06354 6.8333 3.04221 6.95064C3.02088 7.06264 3.01021 7.17464 3.01021 7.28664C3.01021 7.54797 3.06888 7.7613 3.18621 7.92664C3.30888 8.0973 3.47954 8.22264 3.69821 8.30264C3.91688 8.38797 4.17021 8.43064 4.45821 8.43064C4.78888 8.43064 5.06088 8.3853 5.27421 8.29464C5.48754 8.2093 5.65288 8.09464 5.77021 7.95064C5.88754 7.81197 5.97021 7.65997 6.01821 7.49464C6.06621 7.32397 6.09021 7.15864 6.09021 6.99864C6.09021 6.77997 6.05288 6.5213 5.97821 6.22264C5.90354 5.91864 5.77021 5.5773 5.57821 5.19864L6.61021 4.75864C6.71688 4.9453 6.81554 5.16397 6.90621 5.41464C6.99688 5.65997 7.06888 5.91597 7.12221 6.18264C7.18088 6.4493 7.21021 6.70264 7.21021 6.94264C7.21021 7.15597 7.18354 7.38264 7.13021 7.62264C7.07688 7.8573 6.98621 8.0893 6.85821 8.31864C6.73554 8.54797 6.56754 8.7533 6.35421 8.93464C6.14088 9.1213 5.87688 9.27064 5.56221 9.38264C5.24754 9.49464 4.87154 9.55064 4.43421 9.55064C4.08221 9.55064 3.75154 9.51064 3.44221 9.43064C3.13821 9.35597 2.86888 9.23597 2.63421 9.07064C2.40488 8.9053 2.22354 8.6893 2.09021 8.42264C1.95688 8.1613 1.89021 7.84664 1.89021 7.47864ZM4.49821 4.43864C4.33288 4.43864 4.19154 4.38264 4.07421 4.27064C3.96221 4.15864 3.90621 4.01997 3.90621 3.85464C3.90621 3.6893 3.96221 3.54797 4.07421 3.43064C4.19154 3.3133 4.33288 3.25464 4.49821 3.25464C4.65821 3.25464 4.79421 3.3133 4.90621 3.43064C5.02354 3.54797 5.08221 3.6893 5.08221 3.85464C5.08221 4.01997 5.02354 4.15864 4.90621 4.27064C4.79421 4.38264 4.65821 4.43864 4.49821 4.43864Z" fill="black"/>
<path d="M3.86987 16.04C3.37387 16.04 2.98987 15.9893 2.71787 15.888C2.4512 15.7867 2.26454 15.6293 2.15787 15.416C2.0512 15.1973 1.98987 14.9227 1.97387 14.592L1.80587 10.144H2.92587L3.09387 14.056C3.10454 14.3013 3.1312 14.4853 3.17387 14.608C3.21654 14.7307 3.29654 14.8133 3.41387 14.856C3.53654 14.8987 3.7152 14.92 3.94987 14.92C4.15254 14.92 4.29654 14.9733 4.38187 15.08C4.47254 15.1813 4.51787 15.3093 4.51787 15.464C4.51787 15.6293 4.46187 15.768 4.34987 15.88C4.23787 15.9867 4.07787 16.04 3.86987 16.04ZM3.88074 16.04L3.96074 14.92C4.08341 14.92 4.18741 14.8907 4.27274 14.832C4.36341 14.768 4.45674 14.664 4.55274 14.52C4.64874 14.3707 4.76074 14.1707 4.88874 13.92C5.04874 13.6 5.21408 13.3493 5.38474 13.168C5.56074 12.9867 5.73941 12.8587 5.92074 12.784C6.10741 12.704 6.29408 12.664 6.48074 12.664C6.71541 12.664 6.93408 12.7147 7.13674 12.816C7.33941 12.9173 7.51541 13.056 7.66474 13.232C7.81408 13.4027 7.92874 13.6 8.00874 13.824C8.09408 14.0427 8.13674 14.2693 8.13674 14.504C8.13674 14.7867 8.07541 15.0427 7.95274 15.272C7.83541 15.496 7.67008 15.6747 7.45674 15.808C7.24874 15.936 7.00874 16 6.73674 16C6.50741 16 6.24074 15.96 5.93674 15.88C5.63274 15.8 5.31274 15.632 4.97674 15.376L5.38474 14.408C5.62474 14.5733 5.84874 14.6933 6.05674 14.768C6.27008 14.8427 6.44608 14.88 6.58474 14.88C6.69141 14.88 6.77941 14.8693 6.84874 14.848C6.91808 14.8267 6.96874 14.792 7.00074 14.744C7.03274 14.696 7.04874 14.632 7.04874 14.552C7.04874 14.44 7.02208 14.3253 6.96874 14.208C6.91541 14.0907 6.84341 13.992 6.75274 13.912C6.66741 13.8267 6.56608 13.784 6.44874 13.784C6.33674 13.784 6.24074 13.8267 6.16074 13.912C6.08608 13.992 6.01141 14.1093 5.93674 14.264C5.86741 14.4133 5.78208 14.5893 5.68074 14.792C5.55808 15.0373 5.43808 15.2427 5.32074 15.408C5.20341 15.568 5.07808 15.696 4.94474 15.792C4.81674 15.8827 4.66474 15.9467 4.48874 15.984C4.31808 16.0213 4.11541 16.04 3.88074 16.04ZM8.99299 17.84L8.76099 16.72C9.13966 16.672 9.47033 16.6133 9.75299 16.544C10.0357 16.48 10.273 16.3893 10.465 16.272C10.657 16.1547 10.801 15.9947 10.897 15.792C10.993 15.584 11.041 15.3173 11.041 14.992C11.041 14.6773 10.993 14.4267 10.897 14.24C10.801 14.0533 10.673 13.96 10.513 13.96C10.401 13.96 10.3077 14 10.233 14.08C10.1583 14.1547 10.1023 14.2453 10.065 14.352C10.033 14.4533 10.017 14.544 10.017 14.624C10.017 14.672 10.0303 14.7227 10.057 14.776C10.0837 14.8293 10.1423 14.8747 10.233 14.912C10.3237 14.9493 10.465 14.9707 10.657 14.976C10.8543 14.9813 11.121 14.9627 11.457 14.92H12.801C13.0037 14.92 13.1477 14.9733 13.233 15.08C13.3237 15.1813 13.369 15.3093 13.369 15.464C13.369 15.6293 13.313 15.768 13.201 15.88C13.089 15.9867 12.929 16.04 12.721 16.04H10.521C10.185 16.04 9.89699 16 9.65699 15.92C9.41699 15.84 9.23299 15.712 9.10499 15.536C8.97699 15.3547 8.91299 15.1147 8.91299 14.816C8.91299 14.576 8.95299 14.336 9.03299 14.096C9.11833 13.856 9.23566 13.6373 9.38499 13.44C9.53433 13.2373 9.70766 13.0773 9.90499 12.96C10.1077 12.8373 10.3263 12.776 10.561 12.776C10.881 12.776 11.161 12.8747 11.401 13.072C11.641 13.2693 11.8277 13.5307 11.961 13.856C12.0997 14.1813 12.169 14.536 12.169 14.92C12.169 15.5227 12.041 16.0347 11.785 16.456C11.529 16.8773 11.1637 17.2027 10.689 17.432C10.2143 17.6667 9.64899 17.8027 8.99299 17.84ZM12.7323 16.04L12.8123 14.92C13.1323 14.92 13.3776 14.904 13.5483 14.872C13.719 14.84 13.8363 14.7813 13.9003 14.696C13.9696 14.6053 14.0043 14.4773 14.0043 14.312C14.0043 14.1627 13.983 13.984 13.9403 13.776C13.903 13.568 13.8523 13.352 13.7883 13.128C13.7296 12.904 13.6656 12.6987 13.5963 12.512L14.7003 12.208C14.7696 12.3893 14.8363 12.6 14.9003 12.84C14.9643 13.08 15.0176 13.328 15.0603 13.584C15.103 13.8347 15.1243 14.0773 15.1243 14.312C15.1243 14.6747 15.0656 14.9707 14.9483 15.2C14.831 15.424 14.6656 15.5973 14.4523 15.72C14.2443 15.8427 13.9936 15.928 13.7003 15.976C13.407 16.0187 13.0843 16.04 12.7323 16.04ZM14.9003 11.56C14.7456 11.56 14.6123 11.5067 14.5003 11.4C14.3936 11.288 14.3403 11.1573 14.3403 11.008C14.3403 10.8533 14.3936 10.72 14.5003 10.608C14.6123 10.496 14.7456 10.44 14.9003 10.44C15.0496 10.44 15.1776 10.496 15.2843 10.608C15.391 10.72 15.4443 10.8533 15.4443 11.008C15.4443 11.1573 15.391 11.288 15.2843 11.4C15.1776 11.5067 15.0496 11.56 14.9003 11.56ZM13.5163 11.552C13.3616 11.552 13.2283 11.4987 13.1163 11.392C13.0096 11.28 12.9563 11.1493 12.9563 11C12.9563 10.8453 13.0096 10.712 13.1163 10.6C13.2283 10.488 13.3616 10.432 13.5163 10.432C13.6656 10.432 13.7936 10.488 13.9003 10.6C14.007 10.712 14.0603 10.8453 14.0603 11C14.0603 11.1493 14.007 11.28 13.9003 11.392C13.7936 11.4987 13.6656 11.552 13.5163 11.552Z" fill="black"/>
</svg>
