<svg id="Layer_1" data-name="Layer 1" xmlns="http://www.w3.org/2000/svg" viewBox="0 0 417.64 399.96">
  <defs>
    <style>
      .cls-1 {
        fill: #f2789f;
        stroke: #f2789f;
        stroke-miterlimit: 10;
        stroke-width: 22px;
      }
    </style>
  </defs>
  <title>f2789f</title>
  <g>
    <polygon class="cls-1" points="243.97 109.72 296.11 199.94 244.04 290.21 146.64 290.25 171.11 248.03 219.64 248 247.35 199.97 219.61 151.94 165.05 151.97 140.59 109.75 243.97 109.72"/>
    <path class="cls-1" d="M352.53,242.09l30.07,52.12,32.26,55.94c3.5,6,6.9,11.94,10.15,17.57l28,48.49L425.5,463.78l-10.37,18L352.94,589.37l-2.24-3.88-27.9-48.24,69.94-121.06-70.39-122,27.41-47.31Z" transform="translate(-309.65 -215.75)"/>
    <path class="cls-1" d="M605.44,226.75l-145.21.05-62.3,0,2.24,3.86,29,50,145.18-.05,78,135L574.42,550.73l-143.85,0-30.74,53.14-.45.78,206.18-.07,109-189Z" transform="translate(-309.65 -215.75)"/>
  </g>
</svg>
