<svg xmlns="http://www.w3.org/2000/svg" width="581.548" height="188.736" viewBox="0 0 581.548 188.736">
  <g id="owner-logo" transform="translate(69.591 29.356)">
    <path id="Path_1" data-name="Path 1" d="M170.508,82.944l25.68,11.609q-8.669,9.878-22.886,15.632a84.067,84.067,0,0,1-31.651,5.752q-27.217,0-42.906-13.355-15.68-13.332-15.676-35.45,0-25.3,19.609-42.785t47.4-17.486q16.707,0,29.779,6.385a50.152,50.152,0,0,1,28.139,45.125,59,59,0,0,1-1.093,10.5H112.009q.454,10.815,8.145,17.233,7.717,6.434,21.271,6.416A46.845,46.845,0,0,0,170.508,82.944Zm-58.5-14.073,65.9-18.683A27.064,27.064,0,0,0,166.975,35.7Q159.33,30.77,148.5,30.761a37.4,37.4,0,0,0-19.331,5.094,32.724,32.724,0,0,0-13.1,14.334A49.619,49.619,0,0,0,112.009,68.872Z" transform="translate(231.953 43.443)" fill="#cf2f2f"/>
    <path id="Path_2" data-name="Path 2" d="M-25.2,8.092H2.969L19.244,63.8l34.579-55.7h11.65L82,63.749,116.536,8.092H147.4L82.93,111.955H68.761L52.614,57.06l-33.939,54.9H4.869Z" transform="translate(67.444 44.919)" fill="#cf2f2f"/>
    <path id="Path_3" data-name="Path 3" d="M54.255,9.512H83.324L81.676,20.066Q98.441,6.911,116.5,6.908q15.441,0,25.28,8.552a27.261,27.261,0,0,1,9.874,21.52,132.225,132.225,0,0,1-1.864,18.254l-9.1,58.144H111.612l8.881-56.759a99.547,99.547,0,0,0,1.28-13.19c0-4.21-1.35-7.448-4.092-9.7s-6.654-3.411-11.688-3.411a28.254,28.254,0,0,0-14.739,4.458,29.645,29.645,0,0,0-11.32,12.291c-2.643,5.274-5.051,15.1-7.241,29.55l-5.608,36.761H38.01Z" transform="translate(163.49 43.499)" fill="#cf2f2f"/>
    <path id="Path_4" data-name="Path 4" d="M147.075,9.512h26.157l-2.1,14.09q11.708-16.7,28.1-16.694a21.147,21.147,0,0,1,8.188,1.806L196.793,31.943a17.451,17.451,0,0,0-4.9-1.122q-8.579,0-15.333,8.646Q169.849,48.1,165.93,74.336l-5.772,39.037H130.835Z" transform="translate(304.529 43.499)" fill="#cf2f2f"/>
    <path id="Path_5" data-name="Path 5" d="M-3.97,7.5a61.978,61.978,0,0,1,27.761,6.165A46.242,46.242,0,0,1,43.236,31.126,47.342,47.342,0,0,1,50.209,56.5q0,23.352-19.087,39.761t-47.206,16.411q-24.424,0-38.963-12.922-14.565-12.91-14.545-33.8,0-25.173,19.694-41.808A69,69,0,0,1-3.97,7.5ZM-5.883,30.788q-17.248,0-26.461,10.8-9.213,10.782-9.193,23.376,0,11.218,7.515,18.049,7.528,6.853,20.039,6.851,17.769,0,27.081-10.428A34.844,34.844,0,0,0,22.408,55.6a22.7,22.7,0,0,0-7.886-17.913C9.264,33.1,2.444,30.788-5.883,30.788Z" transform="translate(0 44.206)" fill="#cf2f2f"/>
    <path id="Path_6" data-name="Path 6" d="M210.045,42.144c0-25.778-23.939-46.683-53.474-46.683s-53.485,20.9-53.485,46.683L76.312,40.705c0-38.678,35.929-70.061,80.258-70.061,44.311,0,80.248,31.38,80.248,70.061Z" transform="translate(221.686 0)" fill="#cf2f2f"/>
  </g>
</svg>
