<?xml version="1.0" encoding="utf-8"?>
<!-- Generator: Adobe Illustrator 17.0.0, SVG Export Plug-In . SVG Version: 6.00 Build 0)  -->
<!DOCTYPE svg PUBLIC "-//W3C//DTD SVG 1.1//EN" "http://www.w3.org/Graphics/SVG/1.1/DTD/svg11.dtd">
<svg version="1.1" id="logo" xmlns="http://www.w3.org/2000/svg" xmlns:xlink="http://www.w3.org/1999/xlink" x="0px" y="0px"
	 width="230.969px" height="85.938px" viewBox="-69.656 -29.422 230.969 85.938"
	 enable-background="new -69.656 -29.422 230.969 85.938" xml:space="preserve">
<path fill="#FFFFFF" d="M117.775,41.452l10.193,5.278c-2.294,2.994-5.32,5.367-9.084,7.107c-3.784,1.743-7.967,2.615-12.563,2.615
	c-7.202,0-12.884-2.017-17.03-6.072c-4.149-4.041-6.222-9.416-6.222-16.117c0-7.668,2.593-14.138,7.783-19.452
	c5.19-5.296,11.468-7.95,18.812-7.95c4.421,0,8.366,0.964,11.82,2.903c3.457,1.946,6.178,4.766,8.177,8.465
	c1.999,3.703,2.992,7.719,2.992,12.051c0,1.367-0.143,2.96-0.434,4.774H94.556c0.12,3.278,1.194,5.89,3.233,7.835
	c2.042,1.95,4.854,2.917,8.443,2.917C110.568,45.806,114.417,44.366,117.775,41.452z M94.556,35.054l26.157-8.494
	c-0.868-2.893-2.315-5.091-4.34-6.588c-2.023-1.494-4.463-2.245-7.334-2.245c-2.828,0-5.389,0.775-7.673,2.316
	c-2.279,1.537-4.015,3.703-5.2,6.517C96.166,26.56,94.697,29.978,94.556,35.054z"/>
<path fill="#FFFFFF" d="M-25.203,8.092h11.182l6.46,25.326L6.164,8.092h4.624l6.559,25.304L31.056,8.092h12.25L17.717,55.313h-5.624
	L5.684,30.355L-7.787,55.313h-5.48L-25.203,8.092z"/>
<path fill="#FFFFFF" d="M44.458,8.092h11.538l-0.654,4.798c4.436-3.987,9.037-5.982,13.821-5.982c4.086,0,7.438,1.294,10.034,3.888
	c2.613,2.593,3.919,5.851,3.919,9.784c0,1.868-0.249,4.621-0.74,8.299l-3.613,26.435H67.224l3.525-25.805
	c0.341-2.664,0.508-4.667,0.508-5.997c0-1.914-0.536-3.386-1.624-4.41c-1.086-1.028-2.641-1.551-4.639-1.551
	c-1.957,0-3.905,0.679-5.85,2.027c-1.946,1.348-3.443,3.204-4.493,5.588c-1.049,2.398-2.005,6.864-2.874,13.435l-2.226,16.713H38.01
	L44.458,8.092z"/>
<path fill="#FFFFFF" d="M137.281,8.092h10.382l-0.832,6.406c3.098-5.061,6.815-7.59,11.155-7.59c1.049,0,2.123,0.281,3.25,0.821
	l-4.221,10.561c-0.89-0.343-1.534-0.51-1.943-0.51c-2.27,0-4.296,1.309-6.086,3.931c-1.777,2.618-3.184,7.9-4.221,15.853
	l-2.291,17.748h-11.639L137.281,8.092z"/>
<path fill="#FFFFFF" d="M-43.545,7.497c4.043,0,7.718,0.94,11.019,2.803c3.305,1.868,5.88,4.51,7.718,7.94
	c1.847,3.435,2.768,7.269,2.768,11.534c0,7.078-2.525,13.107-7.576,18.077c-5.051,4.975-11.293,7.461-18.737,7.461
	c-6.463,0-11.62-1.963-15.465-5.875c-3.854-3.913-5.773-9.031-5.773-15.366c0-7.63,2.606-13.953,7.817-19.008
	C-56.561,10.02-50.488,7.497-43.545,7.497z M-44.304,18.086c-4.564,0-8.066,1.637-10.503,4.909
	c-2.438,3.268-3.649,6.814-3.649,10.628c0,3.4,0.991,6.14,2.983,8.206c1.992,2.077,4.642,3.115,7.954,3.115
	c4.702,0,8.284-1.579,10.749-4.741c2.461-3.166,3.695-6.779,3.695-10.834c0-3.348-1.05-6.055-3.13-8.144
	C-38.292,19.139-40.999,18.086-44.304,18.086z"/>
<path fill="#FFFFFF" d="M129.393,3.151c0-11.72-9.502-21.224-21.225-21.224c-11.725,0-21.229,9.504-21.229,21.224L76.312,2.497
	c0-17.585,14.261-31.853,31.856-31.853c17.588,0,31.852,14.267,31.852,31.853L129.393,3.151z"/>
</svg>
