<svg xmlns="http://www.w3.org/2000/svg" viewBox="0 0 490.84454 142.85482">
  <g id="Layer_2" data-name="Layer 2">
    <g id="Layer_1-2" data-name="Layer 1">
      <g>
        <path d="M.009,17.09q25.36578-.01791,50.73157-.006c9.30915.08957,19.11391,1.23007,27.06759,6.46684,8.503,5.42785,13.87117,14.87434,15.49535,24.703C95.0411,58.38705,93.7334,69.45771,87.88159,78.11A31.08151,31.08151,0,0,1,66.9584,90.978c-9.14793,1.46892-18.43916.72252-27.65874.91957q.009,16.07754,0,32.16105-19.64237.009-39.2907,0Q-.009,70.57732.009,17.09Zm39.2907,28.86493q.009,9.30617,0,18.60636c4.68741-.07763,10.06152.5792,13.93088-2.63332,4.53216-3.41554,4.20972-11.44088-.77029-14.3011C48.47147,45.35186,43.68851,46.08632,39.29966,45.95495Z" transform="translate(0 -17.0817)" style="fill: #1867a9"/>
        <path d="M189.18352,17.09q26.33313-.009,52.66626.006c8.99267.25079,18.41528,1.666,25.939,6.96246,8.41346,5.70849,13.52483,15.39383,14.91016,25.33593,1.49281,10.18692-.08957,21.29938-6.34742,29.71882-5.0218,6.82511-13.083,10.98109-21.40089,12.04994-8.74785,1.13453-17.59125.627-26.3809.69863-.13734,10.72433-.01791,21.45464-.05971,32.18494q-19.66028.04478-39.32653.006Q189.17457,70.57135,189.18352,17.09Zm39.27876,28.91867c.11942,6.17425.006,12.34851.05971,18.52276,4.68145-.07763,10.06153.60309,13.93088-2.62734,4.61577-3.49317,4.15-11.73347-1.05093-14.45038C237.4251,45.4474,232.76754,45.92509,228.46228,46.00869Z" transform="translate(0 -17.0817)" style="fill: #1867a9"/>
        <path d="M427.88348,17.53786c10.90944-1.17633,22.24283,0,32.28047,4.63368a52.96631,52.96631,0,0,1,26.52421,26.58989c3.14684,6.88483,4.17986,14.534,4.156,22.04578a55.52906,55.52906,0,0,1-8.18656,29.3904,49.76244,49.76244,0,0,1-21.30535,18.71384,59.525,59.525,0,0,1-30.304,4.95015c-10.87361-.98525-21.6696-4.562-30.47119-11.13037A48.87429,48.87429,0,0,1,384.24572,91.3781,58.04662,58.04662,0,0,1,382.12,57.09727a52.32993,52.32993,0,0,1,16.3552-27.27061C406.56021,22.60147,417.201,18.70822,427.88348,17.53786Zm3.49914,33.92256a18.26532,18.26532,0,0,0-12.81426,12.23506c-2.41238,7.464-.90763,16.45671,4.81878,22.04578,4.53814,4.4844,11.57822,5.65476,17.60319,3.98878A18.35825,18.35825,0,0,0,453.1,76.82621c2.03619-7.52972.26273-16.403-5.75627-21.66362A17.86722,17.86722,0,0,0,431.38262,51.46042Z" transform="translate(0 -17.0817)" style="fill: #1867a9"/>
        <path d="M76.2974,110.77266Q104.35921,71.8283,132.415,32.872q22.52648,7.273,45.041,14.55189,0,56.249-.01195,112.498c-12.79037-3.935-25.47924-8.21044-38.23379-12.25893.29259-4.74116.60907-9.47635.90763-14.21153q-13.901-4.49634-27.802-8.97476c-2.51986,4.00072-5.04569,8.00145-7.52375,12.032-12.69484-4.0067-25.33-8.21642-38.03077-12.21714C69.65142,119.61605,73.16848,115.3108,76.2974,110.77266Zm50.36136-8.509q7.39836,2.38251,14.79074,4.777.9763-15.782,1.94065-31.5699Q134.99759,88.85227,126.65876,102.26366Z" transform="translate(0 -17.0817)" style="fill: #1867a9"/>
        <g>
          <path d="M190.32639,152.55762l4.46045-.41016a5.06416,5.06416,0,0,0,1.63428,3.124,5.12383,5.12383,0,0,0,3.32178.99707,5.3104,5.3104,0,0,0,3.33789-.88671,2.59852,2.59852,0,0,0,1.12305-2.07618,1.8952,1.8952,0,0,0-.47266-1.29785,3.818,3.818,0,0,0-1.64942-.93164q-.80565-.26367-3.67041-.93847a12.80313,12.80313,0,0,1-5.17334-2.127,5.47722,5.47722,0,0,1-2.09082-4.32715,5.3166,5.3166,0,0,1,.98389-3.07324,6.102,6.102,0,0,1,2.834-2.17871,11.93651,11.93651,0,0,1,4.46826-.748q4.27441,0,6.43506,1.77539a6.13081,6.13081,0,0,1,2.269,4.73731l-4.58447.19141a3.62672,3.62672,0,0,0-1.26221-2.38379,4.81149,4.81149,0,0,0-2.90381-.72657,5.45594,5.45594,0,0,0-3.12842.77832,1.54125,1.54125,0,0,0-.728,1.334,1.62068,1.62068,0,0,0,.68164,1.30566,12.44624,12.44624,0,0,0,4.2124,1.4375,23.0859,23.0859,0,0,1,4.94824,1.54785,6.263,6.263,0,0,1,2.50928,2.18555,6.464,6.464,0,0,1-.17822,6.88672,6.42887,6.42887,0,0,1-3.06641,2.39844,13.50059,13.50059,0,0,1-4.94092.78515q-4.3059,0-6.61328-1.88574A8.036,8.036,0,0,1,190.32639,152.55762Z" transform="translate(0 -17.0817)" style="fill: #1867a9"/>
          <path d="M228.63987,159.55469V141.68848h-6.73682v-3.6377h18.043v3.6377h-6.72168v17.86621Z" transform="translate(0 -17.0817)" style="fill: #1867a9"/>
          <path d="M271.90989,159.55469h-4.9873l-1.98243-4.88477h-9.07568l-1.874,4.88477h-4.86328l8.84375-21.50391h4.84765Zm-8.44092-8.50781-3.12842-7.9795-3.06689,7.9795Z" transform="translate(0 -17.0817)" style="fill: #1867a9"/>
          <path d="M287.98264,159.55469V141.68848h-6.73681v-3.6377h18.043v3.6377h-6.72168v17.86621Z" transform="translate(0 -17.0817)" style="fill: #1867a9"/>
          <path d="M312.9929,159.55469V138.05078h4.58447v21.50391Z" transform="translate(0 -17.0817)" style="fill: #1867a9"/>
          <path d="M331.90012,148.93457a13.0433,13.0433,0,0,1,1.0376-5.51562,10.12921,10.12921,0,0,1,2.11426-2.94825,8.852,8.852,0,0,1,2.93506-1.93554,13.07159,13.07159,0,0,1,4.894-.85157,10.98516,10.98516,0,0,1,8.03027,2.94922q3.01246,2.94727,3.0127,8.19922,0,5.20752-2.98926,8.14844a10.89964,10.89964,0,0,1-7.9917,2.94141,11.01428,11.01428,0,0,1-8.05371-2.92676A10.76134,10.76134,0,0,1,331.90012,148.93457Zm4.72364-.14648a7.77414,7.77414,0,0,0,1.78125,5.53711,6.3575,6.3575,0,0,0,9.02148.01464q1.75782-1.87061,1.7583-5.61035,0-3.69726-1.71142-5.51562a6.59091,6.59091,0,0,0-9.11475.02246Q336.62351,145.07617,336.62376,148.78809Z" transform="translate(0 -17.0817)" style="fill: #1867a9"/>
          <path d="M368.43235,159.55469V138.05078h4.46045l9.293,14.36035V138.05078h4.25928v21.50391H381.845l-9.15332-14.02344v14.02344Z" transform="translate(0 -17.0817)" style="fill: #1867a9"/>
          <path d="M402.177,159.55469V138.05078h16.83545v3.6377h-12.251v4.76757h11.39893v3.62305H406.76145v5.85254H419.446v3.62305Z" transform="translate(0 -17.0817)" style="fill: #1867a9"/>
          <path d="M434.23362,159.55469V138.05078h9.64893a17.404,17.404,0,0,1,5.28906.5791,5.16546,5.16546,0,0,1,2.64062,2.06153,5.95172,5.95172,0,0,1,.99121,3.38769,5.56,5.56,0,0,1-1.50244,3.99707,7.38388,7.38388,0,0,1-4.49121,1.98828,10.633,10.633,0,0,1,2.45459,1.80371,24.6129,24.6129,0,0,1,2.60987,3.49122l2.77246,4.19531H449.1638l-3.31446-4.67969a30.38114,30.38114,0,0,0-2.416-3.16016,3.52726,3.52726,0,0,0-1.37842-.8955,7.96193,7.96193,0,0,0-2.30762-.24219h-.9292v8.97754Zm4.58447-12.40918h3.3916a18.414,18.414,0,0,0,4.12012-.26465,2.45713,2.45713,0,0,0,1.28516-.90918,2.68853,2.68853,0,0,0,.46484-1.61328,2.494,2.494,0,0,0-.61181-1.75293,2.85888,2.85888,0,0,0-1.72706-.84375q-.55737-.07325-3.34521-.07324h-3.57764Z" transform="translate(0 -17.0817)" style="fill: #1867a9"/>
          <path d="M472.79514,159.55469v-9.05078l-8.31689-12.45313h5.374l5.34375,8.50781,5.23487-8.50781h5.28125L477.364,150.5332v9.02149Z" transform="translate(0 -17.0817)" style="fill: #1867a9"/>
        </g>
        <path d="M370.12229,61.1543c-2.70849-2.709-9.97949-9.55176-21.2417-9.55176-11.12011,0-19.53125,8.126-19.53125,19.67383a20.79631,20.79631,0,0,0,1.71094,8.26855c1.99561,4.13379,7.41309,10.97656,18.96094,10.97656A27.27025,27.27025,0,0,0,356.864,89.666c5.70264-1.42481,9.40918-4.13379,14.11377-7.69825l-1.42578,37.7793c-8.69629,2.56641-14.96875,4.27734-24.23535,4.27734-5.98779,0-22.24024-.57031-35.92627-12.26074-16.39453-13.9707-17.82031-33.35937-17.82031-40.4873,0-23.95117,13.54345-37.63672,20.67187-43.05469,5.70264-4.41895,15.68164-10.12207,32.78955-10.12207,11.9751,0,20.814,3.2793,25.09082,4.5625Z" transform="translate(0 -17.0817)" style="fill: #1867a9"/>
      </g>
    </g>
  </g>
</svg>
