<svg xmlns="http://www.w3.org/2000/svg" width="578.671" height="143" viewBox="0 0 578.671 143">
  <g id="Layer_2" data-name="Layer 2" transform="translate(96 68.255)">
    <g id="Layer_1" data-name="Layer 1" transform="translate(-96 -68.255)">
      <g id="Group_2" data-name="Group 2">
        <path id="Path_7" data-name="Path 7" d="M.011,17.09q29.9-.018,59.809-.006c10.975.09,22.534,1.232,31.911,6.478A36.176,36.176,0,0,1,110,48.307c2.049,10.151.507,21.24-6.392,29.907C97.816,85.207,88.9,89.868,78.939,91.1c-10.785,1.471-21.739.724-32.608.921q.011,16.105,0,32.216-23.157.009-46.321,0Q-.011,70.669.011,17.09ZM46.332,46q.011,9.322,0,18.638c5.526-.078,11.862.58,16.424-2.638a8.223,8.223,0,0,0-.908-14.326C57.144,45.4,51.506,46.136,46.332,46Z" transform="translate(0 -17.079)" fill="#1867a9"/>
        <path id="Path_8" data-name="Path 8" d="M189.185,17.09q31.045-.009,62.09.006c10.6.251,21.71,1.669,30.58,6.974A36.137,36.137,0,0,1,299.433,49.45c1.76,10.2-.106,21.336-7.483,29.77-5.92,6.837-15.424,11-25.23,12.071-10.313,1.136-20.739.628-31.1.7-.162,10.743-.021,21.491-.07,32.24q-23.178.045-46.363.006Q189.174,70.663,189.185,17.09Zm46.307,28.968c.141,6.185.007,12.37.07,18.555,5.519-.078,11.862.6,16.424-2.632a8.241,8.241,0,0,0-1.239-14.475c-4.689-2.01-10.179-1.531-15.256-1.448Z" transform="translate(33.85 -17.079)" fill="#1867a9"/>
        <path id="Path_9" data-name="Path 9" d="M436.365,17.539c12.861-1.178,26.223,0,38.056,4.642,13.9,5.335,25.026,14.81,31.27,26.636,3.71,6.9,4.928,14.559,4.9,22.084a49.529,49.529,0,0,1-9.651,29.441,56.787,56.787,0,0,1-25.117,18.746,81.324,81.324,0,0,1-35.726,4.959c-12.819-.987-25.547-4.57-35.923-11.15a50.811,50.811,0,0,1-19.253-21.39,49.937,49.937,0,0,1-2.506-34.34c2.937-10.585,9.675-20.131,19.282-27.317C411.227,22.611,423.772,18.711,436.365,17.539Zm4.125,33.981c-7.187,1.6-12.9,6.23-15.107,12.256a19.582,19.582,0,0,0,5.681,22.084c5.35,4.492,13.65,5.664,20.753,4,7.05-1.947,12.437-6.824,14.277-12.926a19.509,19.509,0,0,0-6.786-21.7,23.913,23.913,0,0,0-18.817-3.709Z" transform="translate(68.079 -17.079)" fill="#1867a9"/>
        <path id="Path_10" data-name="Path 10" d="M78,110.84q33.083-38.978,66.159-77.968,26.557,7.279,53.1,14.564,0,56.3-.014,112.6c-15.079-3.938-30.038-8.218-45.075-12.269.345-4.745.718-9.485,1.07-14.224q-16.388-4.5-32.777-8.983c-2.971,4-5.949,8.008-8.87,12.042-14.966-4.01-29.862-8.223-44.836-12.228C70.169,119.691,74.315,115.382,78,110.84Zm59.373-8.516q8.722,2.385,17.437,4.781,1.151-15.8,2.288-31.6-9.894,13.393-19.725,26.816Z" transform="translate(11.946 -17.052)" fill="#1867a9"/>
        <g id="Group_1" data-name="Group 1" transform="translate(224.381 120.691)">
          <path id="Path_11" data-name="Path 11" d="M190.326,152.584l5.259-.411a4.881,4.881,0,0,0,1.927,3.129,6.815,6.815,0,0,0,3.916,1,7.117,7.117,0,0,0,3.935-.888,2.528,2.528,0,0,0,1.324-2.08,1.739,1.739,0,0,0-.557-1.3,4.758,4.758,0,0,0-1.945-.933q-.95-.264-4.327-.94a16.657,16.657,0,0,1-6.1-2.131,5.23,5.23,0,0,1-2.465-4.335,4.8,4.8,0,0,1,1.16-3.078,7.17,7.17,0,0,1,3.341-2.182,16.334,16.334,0,0,1,5.268-.749q5.039,0,7.586,1.778a5.843,5.843,0,0,1,2.675,4.745l-5.4.192a3.505,3.505,0,0,0-1.488-2.388,6.471,6.471,0,0,0-3.423-.728,7.344,7.344,0,0,0-3.688.78,1.5,1.5,0,0,0-.858,1.336,1.567,1.567,0,0,0,.8,1.308,16.491,16.491,0,0,0,4.966,1.44,30.823,30.823,0,0,1,5.834,1.551,7.163,7.163,0,0,1,2.958,2.189,5.666,5.666,0,0,1-.21,6.9,7.525,7.525,0,0,1-3.615,2.4,18.5,18.5,0,0,1-5.825.786q-5.076,0-7.8-1.889a7.7,7.7,0,0,1-3.25-5.5Z" transform="translate(-190.326 -137.671)" fill="#1867a9"/>
          <path id="Path_12" data-name="Path 12" d="M229.845,159.592v-17.9H221.9V138.05h21.271v3.644H235.25v17.9Z" transform="translate(-184.676 -137.671)" fill="#1867a9"/>
          <path id="Path_13" data-name="Path 13" d="M275.987,159.592h-5.88L267.77,154.7h-10.7l-2.209,4.893h-5.733l10.426-21.541h5.715Zm-9.951-8.522-3.688-7.993-3.616,7.993Z" transform="translate(-179.805 -137.671)" fill="#1867a9"/>
          <path id="Path_14" data-name="Path 14" d="M289.188,159.592v-17.9h-7.942V138.05h21.271v3.644h-7.924v17.9Z" transform="translate(-174.058 -137.671)" fill="#1867a9"/>
          <path id="Path_15" data-name="Path 15" d="M312.993,159.592V138.051h5.4v21.541Z" transform="translate(-168.377 -137.671)" fill="#1867a9"/>
          <path id="Path_16" data-name="Path 16" d="M331.9,148.954a11.366,11.366,0,0,1,1.223-5.525,10.371,10.371,0,0,1,2.493-2.953,10.746,10.746,0,0,1,3.46-1.939,17.871,17.871,0,0,1,5.77-.853,14.358,14.358,0,0,1,9.467,2.954,11.244,11.244,0,0,1,.028,16.376,14.242,14.242,0,0,1-9.422,2.946,14.409,14.409,0,0,1-9.495-2.932,9.909,9.909,0,0,1-3.524-8.074Zm5.569-.147a7.049,7.049,0,0,0,2.1,5.547,8.459,8.459,0,0,0,10.636.015,7.2,7.2,0,0,0,2.073-5.62q0-3.7-2.018-5.525a8.792,8.792,0,0,0-10.746.023q-2.045,1.842-2.045,5.561Z" transform="translate(-164.997 -137.671)" fill="#1867a9"/>
          <path id="Path_17" data-name="Path 17" d="M368.432,159.592V138.051h5.259l10.956,14.385V138.051h5.021v21.541h-5.423l-10.791-14.047v14.047Z" transform="translate(-158.458 -137.671)" fill="#1867a9"/>
          <path id="Path_18" data-name="Path 18" d="M402.177,159.592V138.051h19.848v3.644H407.582v4.776H421.02V150.1H407.581v5.863h14.955v3.629Z" transform="translate(-152.42 -137.671)" fill="#1867a9"/>
          <path id="Path_19" data-name="Path 19" d="M434.234,159.592V138.051h11.375a23.989,23.989,0,0,1,6.235.58,6.046,6.046,0,0,1,3.113,2.065,5.334,5.334,0,0,1,1.169,3.393,5.123,5.123,0,0,1-1.771,4,9.493,9.493,0,0,1-5.295,1.992,12.64,12.64,0,0,1,2.894,1.807,25.438,25.438,0,0,1,3.077,3.5l3.269,4.2h-6.464l-3.908-4.688a31.567,31.567,0,0,0-2.848-3.166,4.291,4.291,0,0,0-1.625-.9,10.982,10.982,0,0,0-2.721-.243h-1.1v8.993Zm5.4-12.43h4a25.484,25.484,0,0,0,4.857-.265,2.935,2.935,0,0,0,1.515-.911,2.408,2.408,0,0,0,.548-1.616,2.278,2.278,0,0,0-.721-1.756,3.63,3.63,0,0,0-2.036-.845q-.657-.073-3.944-.073h-4.218Z" transform="translate(-146.684 -137.671)" fill="#1867a9"/>
          <path id="Path_20" data-name="Path 20" d="M474.283,159.592v-9.066l-9.8-12.474h6.336l6.3,8.522,6.172-8.522h6.226l-9.842,12.5v9.037Z" transform="translate(-141.272 -137.671)" fill="#1867a9"/>
        </g>
        <path id="Path_21" data-name="Path 21" d="M384.177,61.228a38.152,38.152,0,0,0-25.042-9.568c-13.11,0-23.026,8.14-23.026,19.708a18.186,18.186,0,0,0,2.017,8.283c2.353,4.141,8.74,11,22.354,11a37.555,37.555,0,0,0,8.068-.857c6.723-1.427,11.093-4.141,16.639-7.711l-1.681,37.844c-10.252,2.571-17.647,4.285-28.572,4.285-7.059,0-26.22-.571-42.355-12.282A49.583,49.583,0,0,1,291.57,71.368c0-23.992,15.967-37.7,24.371-43.129C322.664,23.813,334.428,18.1,354.6,18.1c14.118,0,24.538,3.285,29.58,4.57Z" transform="translate(52.17 -17.077)" fill="#1867a9"/>
      </g>
    </g>
  </g>
</svg>
