<svg id="Layer_1" data-name="Layer 1" xmlns="http://www.w3.org/2000/svg" viewBox="0 0 770.69 217.5">
  <defs>
    <style>
      .cls-1 {
        fill: #f2bed1;
      }
    </style>
  </defs>
  <title>f2bed1</title>
  <g>
    <path class="cls-1" d="M203.16,367c17.1,0,25.8,10.51,25.8,26.41V497.5c0,16.5-6.6,29.1-30.9,29.1h-37.2v57.9h-43.2V367Zm-42.3,38.11v85.5h21.6c3.6,0,4.2-1.2,4.2-4.5V409.3c0-2.7-.9-4.2-3.9-4.2Z" transform="translate(-117.66 -366.99)"/>
    <path class="cls-1" d="M237.06,367h84.6l7.5,40.51h-47.4v51.6h36v37.5h-36V544h45.6l-7.5,40.5h-82.8Z" transform="translate(-117.66 -366.99)"/>
    <path class="cls-1" d="M335.16,367h41.4l22.2,87.31V367h44.7V584.5h-44.7l-23.4-90.9v90.9h-40.2Z" transform="translate(-117.66 -366.99)"/>
    <path class="cls-1" d="M566.45,367c17.1,0,25.8,10.51,25.8,26.41V497.5c0,16.5-6.6,29.1-30.9,29.1h-37.2v57.9H481V367Zm-42.3,38.11v85.5h21.6c3.6,0,4.2-1.2,4.2-4.5V409.3c0-2.7-.9-4.2-3.9-4.2Z" transform="translate(-117.66 -366.99)"/>
    <path class="cls-1" d="M600.35,367h43.5V584.5h-43.5Z" transform="translate(-117.66 -366.99)"/>
    <path class="cls-1" d="M652.85,367h41.4l22.2,87.31V367h44.7V584.5h-44.7l-23.4-90.9v90.9h-40.2Z" transform="translate(-117.66 -366.99)"/>
    <path class="cls-1" d="M821.14,460.3,843.34,367h45L862.24,467.2,888,584.5h-47.7l-17.1-89.7h-8.7v89.7h-44.4V367h44.4V460.3Z" transform="translate(-117.66 -366.99)"/>
  </g>
</svg>
