<svg id="Layer_1" data-name="Layer 1" xmlns="http://www.w3.org/2000/svg" viewBox="0 0 770.69 217.5">
  <defs>
    <style>
      .cls-1 {
        fill: #f8e8ee;
      }
    </style>
  </defs>
  <title>f8e8ee</title>
  <g>
    <path class="cls-1" d="M203.16,374.49c17.1,0,25.8,10.51,25.8,26.41V505c0,16.5-6.6,29.1-30.9,29.1h-37.2V592h-43.2V374.49Zm-42.3,38.11v85.5h21.6c3.6,0,4.2-1.2,4.2-4.5V416.8c0-2.7-.9-4.2-3.9-4.2Z" transform="translate(-117.66 -374.49)"/>
    <path class="cls-1" d="M237.06,374.49h84.6l7.5,40.51h-47.4v51.6h36v37.5h-36v47.4h45.6l-7.5,40.5h-82.8Z" transform="translate(-117.66 -374.49)"/>
    <path class="cls-1" d="M335.16,374.49h41.4l22.2,87.31V374.49h44.7V592h-44.7l-23.4-90.9V592h-40.2Z" transform="translate(-117.66 -374.49)"/>
    <path class="cls-1" d="M566.45,374.49c17.1,0,25.8,10.51,25.8,26.41V505c0,16.5-6.6,29.1-30.9,29.1h-37.2V592H481V374.49Zm-42.3,38.11v85.5h21.6c3.6,0,4.2-1.2,4.2-4.5V416.8c0-2.7-.9-4.2-3.9-4.2Z" transform="translate(-117.66 -374.49)"/>
    <path class="cls-1" d="M600.35,374.49h43.5V592h-43.5Z" transform="translate(-117.66 -374.49)"/>
    <path class="cls-1" d="M652.85,374.49h41.4l22.2,87.31V374.49h44.7V592h-44.7l-23.4-90.9V592h-40.2Z" transform="translate(-117.66 -374.49)"/>
    <path class="cls-1" d="M821.14,467.8l22.2-93.31h45L862.24,474.7,888,592h-47.7l-17.1-89.7h-8.7V592h-44.4V374.49h44.4V467.8Z" transform="translate(-117.66 -374.49)"/>
  </g>
</svg>
